<?xml version="1.0" standalone="no"?>
<!DOCTYPE svg PUBLIC "-//W3C//DTD SVG 1.1//EN" "http://www.w3.org/Graphics/SVG/1.1/DTD/svg11.dtd" >
<svg xmlns="http://www.w3.org/2000/svg">
<metadata></metadata>
<defs>
<font id="magallanes_cond_lightLtIt" horiz-adv-x="548" >
<font-face units-per-em="1000" ascent="750" descent="-250" />
<missing-glyph horiz-adv-x="236" />
<glyph horiz-adv-x="1000" />
<glyph horiz-adv-x="1000" />
<glyph unicode="&#xd;" horiz-adv-x="1000" />
<glyph unicode=" "  horiz-adv-x="236" />
<glyph unicode="&#x09;" horiz-adv-x="236" />
<glyph unicode="&#xa0;" horiz-adv-x="236" />
<glyph unicode="!" horiz-adv-x="235" d="M161 183h-47l41 517h73zM172 44q0 -24 -16.5 -41.5t-38.5 -17.5q-20 0 -32.5 14t-12.5 35q0 24 16.5 41.5t39.5 17.5q19 0 31.5 -14t12.5 -35z" />
<glyph unicode="&#x22;" horiz-adv-x="296" d="M167 556h-44l10 169h61zM289 556h-45l10 169h60z" />
<glyph unicode="#" horiz-adv-x="591" d="M512 151h-90l-54 -151h-60l54 151h-167l-54 -151h-61l55 151h-75l6 59h91l48 131h-77l6 59h93l47 129h60l-47 -129h168l47 129h60l-47 -129h72l-6 -59h-89l-47 -131h73zM384 210l48 131h-168l-47 -131h167z" />
<glyph unicode="$" horiz-adv-x="578" d="M394 749h-45l14 213h62zM294 -283h-62l31 212h45zM604 640l-32 -57q-3 3 -8.5 7.5t-25.5 16.5t-42.5 21t-58.5 16.5t-75 7.5q-94 0 -143.5 -40.5t-49.5 -102.5q0 -57 41.5 -84t126.5 -44q59 -12 94.5 -22.5t69 -29.5t48.5 -48.5t15 -71.5q0 -97 -71 -160.5t-202 -63.5 q-55 0 -101.5 10.5t-73.5 25.5t-46 30.5t-26 26.5l-7 10l40 50q3 -4 8 -10t24.5 -22.5t42.5 -29t62 -22.5t83 -10q91 0 143 40t52 110q0 54 -38.5 78.5t-133.5 45.5q-54 11 -89.5 23t-68.5 32t-49 50.5t-16 72.5q0 90 71.5 153.5t200.5 63.5q68 0 126.5 -18.5t83.5 -36.5z " />
<glyph unicode="%" horiz-adv-x="631" d="M117 -15h-57l527 728h57zM608 152q0 -72 -40 -119.5t-109 -47.5q-57 0 -88 36t-31 94q0 73 41 118.5t109 45.5q56 0 87 -34.5t31 -92.5zM464 29q46 0 72 34t26 84q0 40 -21 63.5t-56 23.5q-44 0 -71 -31t-27 -83q0 -41 19.5 -66t57.5 -25zM363 586q0 -72 -39.5 -119.5 t-109.5 -47.5q-57 0 -87.5 36t-30.5 94q0 73 40.5 118.5t108.5 45.5q56 0 87 -34.5t31 -92.5zM218 463q46 0 72.5 34t26.5 84q0 41 -20.5 64t-56.5 23q-43 0 -70.5 -31t-27.5 -83q0 -41 19.5 -66t56.5 -25z" />
<glyph unicode="&#x26;" horiz-adv-x="620" d="M578 16l-48 -43l-50 67q-78 -56 -181 -56q-102 0 -160.5 47.5t-58.5 134.5q0 40 13 76t27 57t40 44t34.5 28.5t28.5 17.5q-44 68 -44 135q0 83 54 136t148 53q35 0 66 -7.5t50.5 -18t34 -21t20.5 -18.5l6 -7l-33 -46q-6 7 -16.5 16.5t-49 26t-82.5 16.5q-59 0 -95 -35 t-36 -89q0 -15 3.5 -30.5t7.5 -26.5t13 -27t13 -22.5t16 -24t15 -21.5l180 -247q41 53 49 125h63q-11 -99 -77 -173zM305 43q82 0 141 43l-194 263q-108 -68 -108 -175q0 -62 43 -96.5t118 -34.5z" />
<glyph unicode="'" horiz-adv-x="175" d="M167 556h-44l10 169h61z" />
<glyph unicode="(" horiz-adv-x="254" d="M204 -256l-49 -32q-4 6 -10 18t-21 53.5t-27 87.5t-21.5 118.5t-9.5 148.5q0 113 20.5 220t50 178.5t59 127t50.5 81.5l20 26l43 -32q-8 -8 -20.5 -24.5t-45 -73.5t-57.5 -121t-45.5 -166.5t-20.5 -211.5q0 -72 8.5 -139.5t21 -112.5t25 -79.5t21.5 -50.5z" />
<glyph unicode=")" horiz-adv-x="254" d="M39 -288l-43 32q8 9 20.5 25t45 73t57 121.5t45 167t20.5 211.5q0 115 -21 214t-41 141l-21 42l49 32q4 -6 10 -18t21.5 -53.5t27.5 -87.5t21.5 -119t9.5 -149q0 -113 -20.5 -219.5t-50 -178t-59.5 -127t-50 -81.5z" />
<glyph unicode="*" horiz-adv-x="445" d="M410 437l-110 90l-9 -163h-60l27 163l-131 -90l-24 54l138 74l-123 72l36 55l112 -90l7 162h60l-26 -162l130 90l24 -55l-137 -72l122 -74z" />
<glyph unicode="+" horiz-adv-x="512" d="M299 122h-60l22 213h-189l6 60h189l23 214h60l-23 -214h190l-6 -60h-190z" />
<glyph unicode="," horiz-adv-x="226" d="M75 -162l-13 21q5 3 12.5 11t22.5 38.5t20 70.5l1 7q-4 -1 -9 -1q-21 0 -33 14t-12 35q0 24 16.5 41.5t40.5 17.5q47 0 47 -58q0 -45 -9.5 -82t-23 -57.5t-27.5 -34.5t-24 -19z" />
<glyph unicode="-" horiz-adv-x="377" d="M336 248h-243l6 59h243z" />
<glyph unicode="." horiz-adv-x="221" d="M166 44q0 -24 -16.5 -41.5t-39.5 -17.5q-21 0 -33.5 14t-12.5 35q0 24 16.5 41.5t40.5 17.5q19 0 32 -14t13 -35z" />
<glyph unicode="/" horiz-adv-x="368" d="M65 -248h-60l347 948h60z" />
<glyph unicode="0" horiz-adv-x="644" d="M321 -15q-117 0 -175.5 87.5t-58.5 225.5q0 182 87 298.5t223 116.5q110 0 173 -84.5t63 -222.5q0 -82 -19.5 -156.5t-56.5 -134t-98 -95t-138 -35.5zM327 44q78 0 133.5 54.5t80 134t24.5 171.5q0 116 -47 183t-127 67q-102 0 -169.5 -96t-67.5 -254q0 -113 43.5 -186.5 t129.5 -73.5z" />
<glyph unicode="1" horiz-adv-x="429" d="M341 0h-67l66 627l-248 -157l-27 51l285 179h65z" />
<glyph unicode="2" horiz-adv-x="537" d="M488 0h-445l5 52l208 158q100 76 127 102q75 85 78 187q0 68 -39.5 111.5t-107.5 43.5q-49 0 -95 -17t-67 -33l-21 -17l-25 51q9 8 26 20.5t73 33.5t116 21q101 0 154.5 -56.5t53.5 -149.5q0 -57 -14 -102.5t-47.5 -86.5t-64.5 -68.5t-89 -72.5l-153 -118h333z" />
<glyph unicode="3" horiz-adv-x="566" d="M275 329l6 60q200 0 200 149q0 53 -39 84.5t-109 31.5q-45 0 -89.5 -17t-66.5 -33l-22 -17l-24 52q9 8 26.5 20.5t71.5 33t110 20.5q99 0 154.5 -47t55.5 -123q0 -154 -150 -184q60 -6 98.5 -41.5t38.5 -109.5q0 -101 -74 -162t-200 -61q-40 0 -78.5 9.5t-64 22.5 t-45 26.5t-28.5 22.5l-10 10l39 50l8.5 -8.5t24 -20t39.5 -25t54 -19.5t68 -9q90 0 144 41t54 115q0 129 -192 129z" />
<glyph unicode="4" horiz-adv-x="523" d="M419 0h-66l18 169h-328l5 50l286 474h72l-279 -465h250l22 203h66l-22 -203h78l-6 -59h-78z" />
<glyph unicode="5" horiz-adv-x="566" d="M552 641h-320l-42 -228q69 18 136 18q44 0 81 -9.5t70 -30.5t51.5 -61.5t18.5 -96.5q0 -119 -72 -184t-199 -65q-41 0 -80 9t-65 22t-47 26t-30 22l-10 9l35 49q3 -3 9.5 -8.5t27 -19t42.5 -23.5t55.5 -18.5t67.5 -8.5q95 0 146.5 46.5t51.5 135.5q0 145 -164 145 q-41 0 -91.5 -9t-81.5 -19l-30 -9l66 367h380z" />
<glyph unicode="6" horiz-adv-x="584" d="M407 654q-102 0 -167.5 -79t-82.5 -216q85 82 197 82q101 0 156 -52t55 -149q0 -111 -73 -183t-184 -72t-166.5 84t-55.5 223q0 189 85.5 305t239.5 116q49 0 91.5 -13.5t59.5 -27.5l18 -14l-34 -51q-6 5 -16.5 13t-46.5 21t-76 13zM348 381q-104 0 -196 -85 q-4 -120 38.5 -186t124.5 -66q88 0 134.5 50.5t46.5 136.5q0 70 -39.5 110t-108.5 40z" />
<glyph unicode="7" horiz-adv-x="474" d="M207 0h-77l318 641h-368l6 59h445l-5 -49z" />
<glyph unicode="8" horiz-adv-x="597" d="M442 371q124 -45 124 -168q0 -94 -66.5 -156t-201.5 -62q-118 0 -173.5 48t-55.5 124q0 154 178 208q-119 40 -119 153q0 85 67 140t180 55q96 0 150.5 -45t54.5 -117q0 -129 -138 -180zM336 346q-91 -20 -132 -49q-66 -47 -67 -129q0 -54 41 -88.5t126 -34.5 q97 0 145.5 44t48.5 110q0 39 -15 66.5t-43 43.5t-50 23.5t-54 13.5zM341 397l29 -6q141 31 141 151q0 50 -38.5 81t-104.5 31q-76 0 -124 -37.5t-48 -96.5q0 -16 3.5 -30.5t11.5 -25.5t15.5 -19.5t20 -15.5t21 -11.5t22 -8.5t20 -5.5t18.5 -4t13 -2.5z" />
<glyph unicode="9" horiz-adv-x="585" d="M253 44q101 0 166.5 79t82.5 215q-87 -81 -197 -81q-100 0 -155 52.5t-55 148.5q0 111 72.5 183t183.5 72t167 -84t56 -223q0 -189 -85.5 -305t-239.5 -116q-49 0 -91.5 13.5t-60.5 27.5l-18 14l35 51q6 -5 16.5 -13t46.5 -21t76 -13zM311 317q103 0 196 83 q5 121 -37.5 187.5t-124.5 66.5q-87 0 -134.5 -50.5t-47.5 -136.5q0 -70 39.5 -110t108.5 -40z" />
<glyph unicode=":" horiz-adv-x="234" d="M172 44q0 -24 -16.5 -41.5t-39.5 -17.5q-20 0 -32.5 14t-12.5 35q0 24 16.5 41.5t39.5 17.5q20 0 32.5 -14t12.5 -35zM212 435q0 -24 -16.5 -41.5t-39.5 -17.5q-19 0 -31.5 14t-12.5 35q0 24 16.5 41.5t38.5 17.5q20 0 32.5 -14t12.5 -35z" />
<glyph unicode=";" horiz-adv-x="241" d="M214 435q0 -24 -16.5 -41.5t-39.5 -17.5q-20 0 -32 14t-12 35q0 24 16.5 41.5t39.5 17.5q19 0 31.5 -14t12.5 -35zM83 -162l-13 21q5 3 12.5 11t22.5 38.5t20 70.5l1 7q-4 -1 -9 -1q-20 0 -32 14t-12 35q0 24 16 41.5t40 17.5q48 0 48 -59q0 -45 -9.5 -82t-23.5 -57 t-28 -34t-24 -19z" />
<glyph unicode="&#x3c;" horiz-adv-x="359" d="M307 24l-240 203l7 65l282 203l-7 -69l-231 -167l196 -166z" />
<glyph unicode="=" horiz-adv-x="479" d="M449 367h-342l7 59h342zM426 144h-342l6 59h342z" />
<glyph unicode="&#x3e;" horiz-adv-x="359" d="M340 227l-282 -203l7 69l231 166l-196 167l8 69l239 -203z" />
<glyph unicode="?" horiz-adv-x="496" d="M273 151h-65l12 116q9 3 23.5 8.5t52.5 27t67 47.5t52.5 70.5t23.5 95.5q0 62 -36 100t-98 38q-48 0 -94.5 -17t-69.5 -33l-23 -17l-24 51q10 8 27.5 20.5t74.5 33.5t115 21q94 0 144.5 -52t50.5 -138q0 -57 -23 -108t-56 -82t-66 -54.5t-56 -32.5l-23 -10zM277 44 q0 -24 -16.5 -41.5t-39.5 -17.5q-20 0 -32 14t-12 35q0 24 16.5 41.5t39.5 17.5q20 0 32 -14t12 -35z" />
<glyph unicode="@" horiz-adv-x="911" d="M272 -137l-37 -49q-82 53 -123.5 152t-41.5 221q0 233 130.5 381t337.5 148q171 0 270.5 -107t99.5 -282q0 -168 -73 -250.5t-189 -82.5q-30 0 -44.5 13.5t-10.5 39.5l1 7q-74 -69 -164 -69q-88 0 -134 60.5t-46 156.5q0 124 71 202t192 78q50 0 94 -16.5t63 -33.5 l20 -16l-36 -346q-3 -27 19 -27q83 0 130 68.5t47 213.5q0 157 -85.5 247.5t-230.5 90.5q-176 0 -288.5 -128t-112.5 -342q0 -108 35.5 -195t105.5 -135zM595 107l30 287q-46 35 -122 35q-89 0 -141.5 -60.5t-52.5 -163.5q0 -77 34 -122t103 -45q80 0 149 69z" />
<glyph unicode="A" horiz-adv-x="629" d="M606 0h-70l-49 197h-302l-92 -197h-69l329 700h71zM470 256l-90 358l-167 -358h257z" />
<glyph unicode="B" horiz-adv-x="625" d="M354 0h-266l74 700h254q186 0 186 -154q0 -149 -129 -187q126 -24 126 -148q0 -101 -64 -156t-181 -55zM386 327h-197l-28 -268h198q89 0 131.5 36t42.5 111q0 60 -38.5 90.5t-108.5 30.5zM407 641h-185l-27 -258h196q59 0 101.5 39.5t42.5 112.5q0 50 -32.5 78t-95.5 28 z" />
<glyph unicode="C" horiz-adv-x="662" d="M631 124l17 -52q-4 -4 -12 -9.5t-34.5 -20.5t-55 -26.5t-73 -21t-89.5 -9.5q-153 0 -226 88.5t-73 231.5q0 183 100.5 295.5t275.5 112.5q65 0 117.5 -16.5t71.5 -32.5l20 -16l-34 -53q-7 7 -20 16.5t-59.5 26t-101.5 16.5q-140 0 -221 -91.5t-81 -250.5 q0 -119 58.5 -193.5t180.5 -74.5q61 0 120.5 20t89.5 40z" />
<glyph unicode="D" horiz-adv-x="690" d="M294 0h-206l74 700h214q147 0 224.5 -76.5t77.5 -225.5q0 -198 -98 -298t-286 -100zM161 59h129q167 0 244 80t77 254q0 248 -254 248h-135z" />
<glyph unicode="E" horiz-adv-x="601" d="M553 0h-465l74 700h465l-7 -59h-398l-28 -269h327l-6 -59h-327l-27 -254h398z" />
<glyph unicode="F" horiz-adv-x="578" d="M516 313h-328l-33 -313h-67l74 700h465l-7 -59h-398l-28 -269h328z" />
<glyph unicode="G" horiz-adv-x="683" d="M574 96l20 190h-212l6 58h274l-28 -272q-4 -4 -11.5 -9.5t-33 -20.5t-53.5 -26.5t-70.5 -21t-86.5 -9.5q-150 0 -222 89t-72 231q0 183 100.5 295.5t275.5 112.5q41 0 77.5 -7t59.5 -17t40 -20t24 -17l8 -7l-35 -53q-2 3 -6.5 7t-21 14.5t-36 19t-51 15t-65.5 6.5 q-140 0 -221 -92t-81 -251q0 -119 57.5 -193t176.5 -74q93 0 187 52z" />
<glyph unicode="H" horiz-adv-x="692" d="M604 0h-66l34 319h-383l-34 -319h-67l74 700h67l-34 -322h383l34 322h66z" />
<glyph unicode="I" horiz-adv-x="243" d="M155 0h-67l74 700h67z" />
<glyph unicode="J" horiz-adv-x="253" d="M62 -35l-27 35q3 2 8 5.5t18 16.5t24 28.5t21 41t13 53.5l58 555h66l-58 -553q-4 -41 -18.5 -74.5t-31.5 -52.5t-34 -32.5t-28 -17.5z" />
<glyph unicode="K" horiz-adv-x="653" d="M637 68l16 -38q-40 -36 -99 -36q-38 0 -63 14.5t-41 51.5l-91 217q-10 -2 -29 -2h-146l-29 -275h-67l74 700h67l-39 -366h146q96 0 146 89.5t70 276.5h66q-19 -176 -64 -277t-129 -133l87 -201q18 -43 63 -43q14 0 29.5 5.5t23.5 10.5z" />
<glyph unicode="L" horiz-adv-x="553" d="M550 0h-462l74 700h67l-68 -641h395z" />
<glyph unicode="M" horiz-adv-x="775" d="M687 0h-66l56 537l-265 -537h-49l-152 536l-56 -536h-67l74 700h60l178 -600l301 600h60z" />
<glyph unicode="N" horiz-adv-x="684" d="M595 0h-56l-323 578l-61 -578h-67l74 700h59l322 -581l61 581h65z" />
<glyph unicode="O" horiz-adv-x="749" d="M739 397q0 -82 -22.5 -155t-66.5 -131t-115.5 -92t-161.5 -34q-144 0 -216.5 89.5t-72.5 230.5q0 181 100.5 294.5t265.5 113.5q135 0 212 -86.5t77 -229.5zM672 395q0 121 -60.5 190t-167.5 69q-132 0 -212.5 -93t-80.5 -251q0 -117 57 -191.5t172 -74.5 q96 0 163.5 50.5t98 128t30.5 172.5z" />
<glyph unicode="P" horiz-adv-x="628" d="M155 0h-67l74 700h260q105 0 163 -53.5t58 -159.5q0 -135 -72 -203.5t-200 -68.5h-193zM184 274h193q198 0 198 208q0 159 -160 159h-193z" />
<glyph unicode="Q" horiz-adv-x="751" d="M559 -197l-6 -59q-116 0 -169.5 56t-42.5 187q-128 9 -192 96.5t-64 220.5q0 181 100.5 295t264.5 114q136 0 213 -86.5t77 -229.5q0 -106 -35.5 -194.5t-112.5 -148.5t-185 -67q-9 -104 27.5 -144t124.5 -40zM673 395q0 121 -61 190t-168 69q-132 0 -212 -93t-80 -251 q0 -118 56.5 -192t171.5 -74q96 0 164 50.5t98.5 128t30.5 172.5z" />
<glyph unicode="R" horiz-adv-x="649" d="M638 68l16 -38q-40 -36 -99 -36q-39 0 -61 14t-35 52l-70 210q-32 -5 -64 -5h-142l-28 -265h-67l74 700h231q209 0 209 -187q0 -177 -146 -229l65 -195q8 -25 20 -34t32 -9q14 0 30 5.5t25 10.5zM189 324h144q109 0 155 46t46 139q0 67 -35 99.5t-111 32.5h-166z" />
<glyph unicode="S" horiz-adv-x="605" d="M617 640l-32 -57q-3 3 -8.5 7.5t-25.5 16.5t-42 21t-58 16.5t-75 7.5q-95 0 -144 -41t-49 -103q0 -56 41 -83t126 -44q59 -12 94.5 -22.5t69 -29.5t48.5 -48.5t15 -71.5q0 -97 -71 -160.5t-201 -63.5q-55 0 -101.5 10.5t-73.5 25.5t-46.5 30.5t-26.5 26.5l-7 10l40 50 q3 -4 8 -10t24.5 -22.5t43 -29t62.5 -22.5t83 -10q91 0 143 40t52 110q0 54 -39 78.5t-134 45.5q-54 11 -89.5 23t-68.5 32t-49 50.5t-16 72.5q0 90 71.5 153.5t200.5 63.5q68 0 126.5 -18.5t83.5 -36.5z" />
<glyph unicode="T" horiz-adv-x="610" d="M338 0h-66l67 641h-266l6 59h598l-6 -59h-266z" />
<glyph unicode="U" horiz-adv-x="675" d="M557 286l43 414h66l-43 -409q-17 -165 -84.5 -234.5t-205.5 -70.5q-133 0 -185.5 70t-35.5 235l43 409h66l-44 -414q-14 -132 24 -187.5t138 -55.5q103 0 153.5 54t64.5 189z" />
<glyph unicode="V" horiz-adv-x="657" d="M364 0h-71l-198 700h78l164 -617l297 617h76z" />
<glyph unicode="W" horiz-adv-x="979" d="M730 0h-70l-108 598l-232 -598h-71l-148 700h76l117 -597l234 597h70l108 -597l244 597h76z" />
<glyph unicode="X" horiz-adv-x="617" d="M601 0h-84l-180 302l-241 -302h-80l286 351l-212 349h84l180 -303l243 303h79l-287 -352z" />
<glyph unicode="Y" horiz-adv-x="655" d="M360 0h-65l28 266l-225 434h81l184 -371l263 371h78l-316 -435z" />
<glyph unicode="Z" horiz-adv-x="547" d="M506 0h-465l6 59l443 582h-382l7 59h465l-7 -59l-446 -582h385z" />
<glyph unicode="[" horiz-adv-x="292" d="M237 -297h-188l112 1064h188l-6 -53h-133l-100 -958h133z" />
<glyph unicode="\" horiz-adv-x="368" d="M311 -248h-60l-146 948h59z" />
<glyph unicode="]" horiz-adv-x="292" d="M181 -297h-188l6 53h133l100 958h-133l6 53h188z" />
<glyph unicode="^" horiz-adv-x="488" d="M492 513h-54l-118 211l-163 -211h-53l187 257h69z" />
<glyph unicode="_" horiz-adv-x="472" d="M400 -51h-338l5 46h338z" />
<glyph unicode="`" horiz-adv-x="239" d="M248 547h-58l-77 191h76z" />
<glyph unicode="a" horiz-adv-x="510" d="M499 57l8 -34q-39 -29 -91 -29q-27 0 -43 13.5t-13 38.5l1 10q-76 -71 -177 -71q-63 0 -100 27.5t-37 79.5q0 142 244 142q47 0 85 -10l11 101q6 54 -22.5 79t-97.5 25q-35 0 -71.5 -7t-55.5 -14l-19 -7l-9 50q78 31 173 31q88 0 129.5 -36.5t34.5 -108.5l-28 -268 q-3 -27 20 -27q10 0 24.5 3.5t24.5 7.5zM364 105l8 73q-40 8 -85 8q-179 0 -179 -87q0 -62 93 -62q87 0 163 68z" />
<glyph unicode="b" horiz-adv-x="535" d="M74 50l72 681l64 19l-36 -338q75 70 160 70q90 0 135.5 -60t45.5 -156q0 -124 -71.5 -202.5t-191.5 -78.5q-50 0 -94.5 16.5t-63.5 32.5zM168 359l-30 -288q46 -33 123 -33q89 0 141 59.5t52 165.5q0 78 -34 122t-102 44q-83 0 -150 -70z" />
<glyph unicode="c" horiz-adv-x="479" d="M439 97l16 -47q-8 -7 -23 -18t-62.5 -29t-96.5 -18q-101 0 -153 61t-52 157q0 120 68.5 199.5t189.5 79.5q44 0 81 -11t51 -23l15 -11l-29 -47q-4 4 -12 10.5t-39.5 17.5t-70.5 11q-90 0 -140.5 -61.5t-50.5 -159.5q0 -75 37.5 -122.5t111.5 -47.5q42 0 81.5 15t58.5 29z " />
<glyph unicode="d" horiz-adv-x="563" d="M551 57l9 -34q-39 -29 -92 -29q-51 0 -56 53v7q-77 -69 -162 -69q-89 0 -135 60t-46 157q0 123 71 201.5t189 78.5q65 0 123 -32l29 283l64 19l-72 -683q-3 -27 20 -27q10 0 24.5 3.5t24.5 7.5zM417 107l30 287q-51 35 -123 35q-90 0 -142 -59.5t-52 -165.5 q0 -78 34 -122t103 -44q81 0 150 69z" />
<glyph unicode="e" horiz-adv-x="509" d="M481 211h-350q-2 -77 35 -125t114 -48q41 0 81 15t59 29l19 15l16 -42q-8 -8 -23 -19.5t-62.5 -31t-95.5 -19.5q-102 0 -154 61t-52 157q0 120 65.5 199.5t184.5 79.5q89 0 134 -56.5t45 -134.5q0 -22 -4 -42t-8 -29zM136 260h301l1 13q6 72 -26 114t-99 42 q-72 0 -118 -46t-59 -123z" />
<glyph unicode="f" horiz-adv-x="333" d="M163 0h-61l44 416h-77l20 52h63l11 109q9 89 53 131.5t113 42.5q28 0 51.5 -6.5t33.5 -12.5l9 -7l-26 -43q-24 15 -69 15q-91 0 -104 -118l-12 -111h154l-5 -52h-154z" />
<glyph unicode="g" horiz-adv-x="501" d="M270 112l-26 1q-6 0 -17 -1.5t-30 -6t-31.5 -16.5t-12.5 -29q0 -37 105 -37q203 0 203 -130q0 -78 -58.5 -124t-173.5 -46q-100 0 -152 36t-52 97q0 97 113 137q-45 19 -45 60q0 50 71 77q-89 39 -89 147q0 86 59 145.5t174 59.5q39 0 80 -12q80 4 98 166h60 q-16 -152 -109 -192q58 -45 58 -129q0 -91 -59.5 -147t-165.5 -56zM434 310q0 50 -33.5 84.5t-98.5 34.5q-82 0 -124 -43.5t-42 -104.5q0 -56 35.5 -86t104.5 -30q75 0 116.5 38t41.5 107zM189 -27q-102 -31 -102 -108q0 -89 147 -89q165 0 165 111q0 83 -142 83 q-29 0 -68 3z" />
<glyph unicode="h" horiz-adv-x="549" d="M539 57l8 -34q-38 -29 -92 -29q-34 0 -46.5 18t-8.5 57l25 238q7 64 -14 93t-74 29q-89 0 -167 -82l-36 -347h-62l77 731l64 19l-37 -352q84 84 181 84q148 0 130 -170l-26 -243q-3 -27 19 -27q10 0 25 3.5t25 7.5z" />
<glyph unicode="i" horiz-adv-x="206" d="M134 0h-62l49 468h62zM211 612q0 -22 -14.5 -36.5t-35.5 -14.5q-17 0 -28 12t-11 30q0 22 14.5 37t34.5 15q18 0 29 -12.5t11 -30.5z" />
<glyph unicode="j" horiz-adv-x="206" d="M2 -267l-22 35q8 5 20.5 15.5t35 48t27.5 81.5l58 555h62l-58 -553q-4 -41 -18.5 -74.5t-31.5 -52.5t-34 -32.5t-28 -17.5zM211 612q0 -22 -15 -36.5t-36 -14.5q-17 0 -28 12t-11 30q0 22 14.5 37t34.5 15q18 0 29.5 -12.5t11.5 -30.5z" />
<glyph unicode="k" horiz-adv-x="537" d="M520 63l13 -31q-33 -38 -90 -38q-31 0 -48.5 12.5t-30.5 40.5l-65 142q-13 -3 -28 -3h-117l-20 -186h-62l77 731l64 19l-54 -512h114q64 0 101 56.5t49 173.5h62q-21 -209 -130 -263l66 -136q13 -27 41 -27q12 0 26.5 5t23.5 11z" />
<glyph unicode="l" horiz-adv-x="253" d="M249 59l8 -34q-47 -31 -112 -31q-41 0 -56 20t-10 67l68 650l63 19l-70 -665q-4 -43 33 -43q14 0 33 4t31 8z" />
<glyph unicode="m" horiz-adv-x="857" d="M847 57l8 -34q-39 -29 -92 -29q-35 0 -47.5 18t-8.5 57l25 238q7 65 -13.5 93.5t-73.5 28.5q-81 0 -159 -73q2 -23 -1 -44l-33 -312h-61l32 307q7 64 -14 93t-74 29q-89 0 -167 -82l-36 -347h-61l48 455l63 19l-8 -76q84 84 181 84q106 0 126 -88q13 14 30.5 29.5t63 37 t90.5 21.5q147 0 129 -170l-26 -243q-3 -27 20 -27q10 0 25 3.5t25 7.5z" />
<glyph unicode="n" d="M537 57l9 -34q-39 -29 -92 -29q-35 0 -47.5 18t-8.5 57l25 238q7 62 -14 90.5t-74 28.5q-81 0 -167 -79l-36 -347h-61l48 455l63 19l-8 -76q84 84 181 84q148 0 130 -170l-26 -243q-3 -27 20 -27q10 0 24.5 3.5t24.5 7.5z" />
<glyph unicode="o" d="M529 263q0 -120 -68 -199t-188 -79q-100 0 -153 60t-53 157q0 118 67 199t190 81q101 0 153 -61.5t52 -157.5zM279 38q89 0 139 61.5t50 158.5q0 75 -37 123t-112 48q-91 0 -140.5 -65.5t-49.5 -158.5q0 -76 38.5 -121.5t111.5 -45.5z" />
<glyph unicode="p" horiz-adv-x="537" d="M104 -263h-61l75 718l63 19l-6 -65q68 73 161 73q90 0 135.5 -59t45.5 -156q0 -128 -69 -205t-187 -77q-70 0 -128 31zM169 360l-30 -288q50 -34 129 -34q87 0 137.5 59t50.5 167q0 78 -34 121.5t-103 43.5q-84 0 -150 -69z" />
<glyph unicode="q" horiz-adv-x="534" d="M438 -263h-61l33 315q-77 -67 -160 -67q-90 0 -136 60t-46 157q0 124 72 202t192 78q31 0 60.5 -7t50 -16.5t36 -19.5t23 -16.5t7.5 -7.5zM416 106l30 288q-48 35 -123 35q-89 0 -141 -60t-52 -166q0 -78 34 -121.5t102 -43.5q82 0 150 68z" />
<glyph unicode="r" horiz-adv-x="356" d="M132 0h-61l48 455l63 19l-11 -102q75 110 161 110q19 0 35 -4t22 -8l6 -3l-23 -53q-16 12 -55 12q-75 0 -152 -110z" />
<glyph unicode="s" horiz-adv-x="466" d="M463 435l-29 -46q-5 4 -16 11t-48 18t-79 11q-67 0 -104.5 -26t-37.5 -68q0 -16 7.5 -28t17 -19.5t28.5 -13.5t32.5 -9t38.5 -7q34 -6 58 -13t50.5 -21t40 -37.5t13.5 -56.5q0 -68 -53.5 -106.5t-149.5 -38.5q-37 0 -69.5 6.5t-53 16t-35.5 18.5t-22 16l-6 6l27 48 q6 -6 18 -16t55 -26t91 -16q62 0 99 24t37 62q0 34 -28.5 49.5t-84.5 26.5q-91 17 -122 36q-51 30 -51 92q0 64 52 109t157 45q50 0 91.5 -12t58.5 -24z" />
<glyph unicode="t" horiz-adv-x="356" d="M330 67l19 -44q-45 -38 -116 -38q-62 0 -93.5 37t-23.5 113l30 281h-77l20 52h62l13 120l63 21l-15 -141h154l-5 -52h-154l-30 -284q-10 -93 66 -93q25 0 46.5 7t30.5 14z" />
<glyph unicode="u" horiz-adv-x="544" d="M532 57l9 -34q-39 -29 -91 -29q-29 0 -44.5 14.5t-12.5 40.5l1 10q-79 -74 -179 -74q-148 0 -130 170l33 313h60l-32 -308q-7 -64 14 -93t74 -29q87 0 163 70l36 346l64 19l-42 -404q-3 -27 19 -27q10 0 24.5 3.5t23.5 7.5z" />
<glyph unicode="v" horiz-adv-x="490" d="M277 0h-64l-139 468h67l111 -402l194 402h68z" />
<glyph unicode="w" horiz-adv-x="721" d="M534 0h-66l-68 392l-146 -392h-67l-110 468h66l82 -400l151 400h63l69 -403l168 403h66z" />
<glyph unicode="x" horiz-adv-x="470" d="M445 0h-80l-111 187l-149 -187h-79l190 222l-145 246h79l113 -198l156 198h78l-197 -239z" />
<glyph unicode="y" horiz-adv-x="487" d="M144 -263h-57l131 263h-7l-137 468h66l112 -402l193 402h66z" />
<glyph unicode="z" horiz-adv-x="475" d="M432 0h-388l5 52l351 364h-312l5 52h388l-5 -52l-348 -364h309z" />
<glyph unicode="{" horiz-adv-x="269" d="M214 -230l-6 -53q-145 0 -129 157l28 276q6 62 -42 62h-10l6 54h10q48 0 55 63l28 265q16 156 163 156l-6 -53q-43 0 -70 -26t-32 -78l-29 -277q-3 -26 -13 -44t-18 -24t-15 -7q36 -18 30 -75l-31 -292q-11 -104 81 -104z" />
<glyph unicode="|" horiz-adv-x="214" d="M103 -297h-54l112 1061h54z" />
<glyph unicode="}" horiz-adv-x="269" d="M1 -283l6 53q44 0 69.5 24t31.5 80l31 292q6 53 44 75q-6 1 -12.5 7t-12.5 24t-3 44l29 277q10 104 -80 104l6 53q145 0 129 -156l-28 -265q-3 -33 9.5 -48t33.5 -15h9l-6 -54h-9q-21 0 -37 -14.5t-19 -47.5l-28 -276q-16 -157 -163 -157z" />
<glyph unicode="~" horiz-adv-x="441" d="M388 381l32 -21q-1 -3 -3.5 -8.5t-12 -19t-20 -24t-28 -19t-37.5 -8.5q-30 0 -62.5 30t-54.5 30q-17 0 -36.5 -12.5t-29.5 -24.5l-11 -12l-29 27q2 3 5 8t14 17t23 21.5t31 17.5t39 8q32 0 67.5 -30.5t50.5 -30.5q16 0 31.5 13t22.5 25z" />
<glyph unicode="&#xa1;" horiz-adv-x="216" d="M204 433q0 -24 -16.5 -42t-39.5 -18q-20 0 -32.5 14.5t-12.5 35.5q0 24 16.5 41.5t39.5 17.5q20 0 32.5 -14t12.5 -35zM121 -233h-74l68 517h48z" />
<glyph unicode="&#xa2;" horiz-adv-x="466" d="M426 97l15 -45q-3 -3 -8.5 -7.5t-24 -16t-38 -20.5t-49.5 -16t-61 -7q-102 0 -153.5 61t-51.5 157q0 120 68 199.5t189 79.5q44 0 81 -12t52 -24l15 -11l-29 -46q-4 4 -12 11t-40 18t-71 11q-89 0 -140 -62t-51 -159q0 -75 37.5 -122.5t111.5 -47.5q41 0 81 15t59 29z M345 527h-45l10 169h60zM271 -240h-60l26 169h45z" />
<glyph unicode="&#xa3;" horiz-adv-x="567" d="M452 246h-191q2 -18 2 -27q0 -41 -19.5 -80t-34 -55t-25.5 -25h345l-6 -59h-429l6 59q4 3 10.5 7.5t23 20.5t29 33t23 43t10.5 52q0 15 -3 31h-126l6 59h103q-1 4 -7 19t-8 20.5t-7 20t-7 22.5l-5.5 22t-5 25t-2.5 25t-1 28q0 99 65.5 162.5t179.5 63.5q59 0 111 -18.5 t74 -36.5l22 -18l-36 -52q-7 7 -20.5 18t-59 29.5t-96.5 18.5q-83 0 -127.5 -47t-44.5 -118q0 -27 5 -55.5t10 -44t16 -45.5t14 -39h212z" />
<glyph unicode="&#xa5;" horiz-adv-x="655" d="M151 162l5 44h161l6 60l-224 434h81l183 -371l263 371h79l-316 -435l-6 -59h148l-5 -44h-148l-17 -162h-66l17 162h-161zM275 305l-25 44h-103l-5 -44h133zM446 305l35 44h103l-5 -44h-133z" />
<glyph unicode="&#xa6;" horiz-adv-x="217" d="M171 336h-53l45 428h53zM104 -297h-53l48 460h53z" />
<glyph unicode="&#xa7;" horiz-adv-x="612" d="M581 209q0 -104 -83 -169q53 -37 53 -114q0 -97 -71 -160.5t-201 -63.5q-55 0 -101.5 10.5t-73.5 25.5t-46.5 30.5t-26.5 25.5l-7 11l40 50q3 -4 8 -10t24.5 -22.5t43 -29t62.5 -22.5t83 -10q91 0 143 40t52 110q0 54 -39 78.5t-134 45.5q-54 11 -89.5 23t-68.5 32 t-49 50.5t-16 72.5q0 101 86 164q-57 40 -57 119q0 90 71.5 153.5t200.5 63.5q68 0 127 -18.5t84 -36.5l25 -18l-32 -57q-3 3 -8.5 7.5t-25.5 16.5t-42 21t-58 16.5t-75 7.5q-95 0 -144.5 -41t-49.5 -103q0 -56 41.5 -83t126.5 -44q59 -12 94.5 -22.5t69 -29.5t48.5 -48.5 t15 -71.5zM337 318q-69 15 -103 27q-77 -39 -77 -120q0 -56 41 -83t126 -44q73 -14 111 -27q74 41 74 123q0 54 -38.5 78.5t-133.5 45.5z" />
<glyph unicode="&#xa8;" horiz-adv-x="307" d="M182 608q0 -20 -13.5 -34.5t-32.5 -14.5q-16 0 -26 11.5t-10 28.5q0 20 13 34.5t32 14.5q16 0 26.5 -11.5t10.5 -28.5zM332 608q0 -20 -13.5 -34.5t-32.5 -14.5q-17 0 -27 11.5t-10 28.5q0 20 13.5 34.5t32.5 14.5q16 0 26.5 -11.5t10.5 -28.5z" />
<glyph unicode="&#xa9;" horiz-adv-x="632" d="M459 321l19 -31q-6 -6 -17.5 -14t-46.5 -22t-70 -14q-71 0 -106 44.5t-35 115.5q0 91 47.5 147.5t131.5 56.5q32 0 58 -10t36 -20l11 -9l-24 -32q-30 30 -85 30q-65 0 -99 -42.5t-34 -116.5q0 -54 25.5 -88.5t77.5 -34.5q31 0 58.5 10t39.5 20zM621 465q0 -89 -30 -162.5 t-97.5 -122.5t-162.5 -49q-116 0 -174 72.5t-58 185.5q0 142 77 233t216 91q112 0 170.5 -68.5t58.5 -179.5zM336 171q119 0 182 84t63 205q0 97 -50.5 155t-142.5 58q-114 0 -181 -77t-67 -203q0 -99 49 -160.5t147 -61.5z" />
<glyph unicode="&#xaa;" horiz-adv-x="365" d="M354 506l3 -26q-17 -11 -41 -11q-33 0 -33 30v2q-35 -37 -87 -37q-35 0 -53.5 15t-18.5 41q0 75 131 75q10 0 37 -3l4 41q2 23 -11.5 33.5t-48.5 10.5q-20 0 -37 -3.5t-25 -6.5l-7 -3l-8 31q30 18 81 18q50 0 72 -19.5t18 -60.5l-12 -117q-1 -16 11 -16zM336 385h-230 l4 38h230zM286 533l3 30q-18 2 -37 2q-92 0 -92 -40q0 -28 41 -28q42 0 85 36z" />
<glyph unicode="&#xab;" horiz-adv-x="473" d="M262 51l-41 -39l-155 182l5 48l193 183l32 -39l-160 -168zM430 51l-41 -39l-155 182l5 48l193 183l32 -39l-160 -168z" />
<glyph unicode="&#xac;" horiz-adv-x="509" d="M450 113h-62l14 135h-304l6 59h366z" />
<glyph unicode="&#xad;" horiz-adv-x="377" d="M336 248h-243l6 59h243z" />
<glyph unicode="&#xae;" horiz-adv-x="632" d="M622 466q0 -89 -30 -162.5t-97.5 -122.5t-162.5 -49q-116 0 -174 72.5t-58 185.5q0 142 77 233t216 91q112 0 170.5 -68.5t58.5 -179.5zM337 172q119 0 182 84t63 205q0 97 -50.5 155t-142.5 58q-114 0 -181 -77t-67 -203q0 -99 49 -160.5t147 -61.5zM499 292l10 -30 q-20 -16 -45 -16q-46 0 -59 39l-36 100q-7 -1 -24 -1h-62l-14 -135h-43l36 350h119q102 0 102 -92q0 -89 -70 -114l31 -86q9 -24 28 -24q8 0 14.5 2.5t9.5 4.5zM287 424h65q48 0 68.5 18.5t20.5 59.5q0 57 -64 57h-76z" />
<glyph unicode="&#xaf;" horiz-adv-x="225" d="M262 553h-174l5 49h174z" />
<glyph unicode="&#xb0;" horiz-adv-x="364" d="M381 634q0 -72 -40 -119.5t-109 -47.5q-57 0 -87.5 36t-30.5 94q0 73 40.5 118.5t107.5 45.5q57 0 88 -34.5t31 -92.5zM236 512q47 0 73 33.5t26 84.5q0 40 -20.5 63t-56.5 23q-44 0 -71 -30.5t-27 -83.5q0 -41 19.5 -65.5t56.5 -24.5z" />
<glyph unicode="&#xb1;" horiz-adv-x="440" d="M406 326h-122l-15 -141h-57l15 141h-124l6 59h124l15 141h57l-15 -141h122zM380 83h-303l6 59h303z" />
<glyph unicode="&#xb2;" horiz-adv-x="358" d="M328 356h-225l4 37l98 77q6 5 24 18.5t25.5 19.5t20.5 18.5t18.5 22t10.5 24t5 29.5q0 29 -20 47.5t-53 18.5q-25 0 -48.5 -8t-34.5 -16l-11 -9l-17 34q6 5 16 12.5t40.5 19.5t60.5 12q53 0 83 -29.5t30 -76.5q0 -22 -7.5 -43.5t-14 -33.5t-27.5 -32t-27 -25t-34 -27 l-55 -44h143z" />
<glyph unicode="&#xb3;" horiz-adv-x="358" d="M207 513l5 45q99 0 99 62q0 22 -18.5 35t-50.5 13q-24 0 -47 -8t-35 -16l-11 -9l-18 34q51 44 116 44q52 0 82 -23.5t30 -60.5q0 -78 -76 -93q69 -11 69 -75q0 -51 -39 -82t-102 -31q-34 0 -63.5 12.5t-42.5 25.5l-13 12l28 35q2 -4 10 -12t31.5 -18t52.5 -10q91 0 91 62 q0 58 -98 58z" />
<glyph unicode="&#xb4;" horiz-adv-x="270" d="M172 547h-58l100 191h76z" />
<glyph unicode="&#xb5;" horiz-adv-x="505" d="M536 57l9 -34q-39 -29 -91 -29q-29 0 -44.5 14.5t-12.5 40.5l1 10q-79 -74 -179 -74q-52 0 -86 23l-28 -271h-61l78 731h60l-32 -308q-7 -64 14 -93t74 -29q87 0 163 70l36 346l64 19l-42 -404q-3 -27 19 -27q10 0 24.5 3.5t23.5 7.5z" />
<glyph unicode="&#xb6;" horiz-adv-x="615" d="M367 0h-66l24 228h-26q-103 0 -159.5 51t-56.5 153q0 134 70 201t196 67h92zM526 0h-66l74 700h66z" />
<glyph unicode="&#xb7;" horiz-adv-x="231" d="M200 319q0 -24 -17 -41.5t-40 -17.5q-20 0 -32.5 14t-12.5 35q0 24 16.5 41.5t39.5 17.5q20 0 33 -14t13 -35z" />
<glyph unicode="&#xb8;" horiz-adv-x="238" d="M32 -152l18 29q15 -17 48 -17q40 0 40 35q0 34 -68 34l30 72h40l-20 -44q24 -2 41 -15.5t17 -41.5q0 -34 -22.5 -55.5t-62.5 -21.5q-18 0 -33 6.5t-22 12.5z" />
<glyph unicode="&#xb9;" horiz-adv-x="288" d="M253 356h-47l32 297l-131 -80l-18 37q153 96 154 96h47z" />
<glyph unicode="&#xba;" horiz-adv-x="371" d="M325 599q0 34 -17 55.5t-52 21.5q-44 0 -66 -29.5t-22 -71.5q0 -35 17.5 -54.5t51.5 -19.5q42 0 65 26.5t23 71.5zM344 423l-4 -38h-230l4 38h230zM360 603q0 -60 -34.5 -99.5t-92.5 -39.5q-48 0 -74 30t-26 78q0 59 32 100t94 41q50 0 75.5 -31t25.5 -79z" />
<glyph unicode="&#xbb;" horiz-adv-x="473" d="M448 194l-193 -182l-34 39l162 167l-126 168l41 39l155 -183zM279 194l-193 -182l-33 39l162 167l-126 168l40 39l155 -183z" />
<glyph unicode="&#xbc;" horiz-adv-x="633" d="M555 -3h-45l9 82h-164l5 45l145 220h48l-142 -220h113l9 89h45l-9 -89h39l-5 -45h-39zM256 356h-47l31 297l-131 -80l-17 37q153 96 154 96h47zM119 -15h-57l527 728h57z" />
<glyph unicode="&#xbd;" horiz-adv-x="661" d="M256 356h-47l31 297l-131 -80l-17 37q153 96 154 96h47zM119 -15h-57l527 728h57zM612 0h-226l3 37l99 77q5 4 24 18t25 19.5t20 18.5t19 22.5t10 24t5 29.5q0 29 -19.5 47.5t-53.5 18.5q-25 0 -48 -8t-34 -16l-11 -9l-18 34q6 5 16 12.5t40.5 19.5t60.5 12q54 0 84 -29 t30 -76q0 -28 -8 -51.5t-28 -45t-32.5 -32t-41.5 -33.5l-56 -44h144z" />
<glyph unicode="&#xbe;" horiz-adv-x="646" d="M157 -15h-58l527 728h57zM192 513l5 45q98 0 98 62q0 48 -69 48q-24 0 -47 -8t-34 -16l-11 -9l-18 34q6 5 16 12.5t40.5 19.5t59.5 12q52 0 81.5 -23.5t29.5 -60.5q0 -78 -76 -93q70 -11 70 -75q0 -51 -39 -82t-102 -31q-34 0 -63.5 12.5t-42.5 25.5l-13 12l28 35 q2 -4 10 -12t31.5 -18t52.5 -10q91 0 91 62q0 58 -98 58zM563 -3h-45l8 82h-164l5 45l145 220h47l-141 -220h113l10 89h45l-10 -89h39l-5 -45h-39z" />
<glyph unicode="&#xbf;" horiz-adv-x="485" d="M420 -120l25 -51q-4 -3 -10.5 -8t-28.5 -18t-45.5 -23t-60 -18t-73.5 -8q-93 0 -144 52t-51 138q0 57 23 108t56 82t66 54.5t56 33.5l23 9l9 85h65l-12 -116q-9 -3 -23.5 -8.5t-52.5 -27t-67 -47.5t-52.5 -70.5t-23.5 -95.5q0 -62 36.5 -100t97.5 -38q48 0 94.5 16.5 t69.5 33.5zM361 434q0 -25 -16 -42.5t-40 -17.5q-20 0 -31.5 13.5t-11.5 34.5q0 25 16 42.5t39 17.5q20 0 32 -13.5t12 -34.5z" />
<glyph unicode="&#xc0;" horiz-adv-x="629" d="M606 0h-70l-49 197h-302l-92 -197h-69l329 700h71zM470 256l-90 358l-167 -358h257zM416 754h-58l-77 191h76z" />
<glyph unicode="&#xc1;" horiz-adv-x="629" d="M606 0h-70l-49 197h-302l-92 -197h-69l329 700h71zM470 256l-90 358l-167 -358h257zM424 753h-58l100 191h76z" />
<glyph unicode="&#xc2;" horiz-adv-x="629" d="M532 754h-56l-67 135l-98 -135h-55l121 191h75zM606 0h-70l-49 197h-302l-92 -197h-69l329 700h71zM470 256l-90 358l-167 -358h257z" />
<glyph unicode="&#xc3;" horiz-adv-x="629" d="M606 0h-70l-49 197h-302l-92 -197h-69l329 700h71zM470 256l-90 358l-167 -358h257zM528 853l33 -21q-1 -3 -3.5 -8.5t-12 -19t-20 -23.5t-28 -18.5t-37.5 -8.5q-29 0 -61.5 30t-54.5 30q-18 0 -37 -12t-29 -24l-11 -13l-30 27l5 7.5t14 17t23 22t31 17t39 7.5 q32 0 67.5 -30.5t50.5 -30.5q16 0 31 13t22 25z" />
<glyph unicode="&#xc4;" horiz-adv-x="629" d="M364 803q0 -20 -13.5 -34.5t-32.5 -14.5q-16 0 -26 11.5t-10 28.5q0 20 13 34.5t32 14.5q16 0 26.5 -11.5t10.5 -28.5zM514 803q0 -20 -13.5 -34.5t-32.5 -14.5q-17 0 -27 11.5t-10 28.5q0 20 13.5 34.5t32.5 14.5q16 0 26.5 -11.5t10.5 -28.5zM606 0h-70l-49 197h-302 l-92 -197h-69l329 700h71zM470 256l-90 358l-167 -358h257z" />
<glyph unicode="&#xc5;" horiz-adv-x="629" d="M606 0h-70l-49 197h-302l-92 -197h-69l329 700h71zM470 256l-90 358l-167 -358h257zM394 754q-25 0 -40 16t-15 42q0 32 19.5 52t49.5 20q25 0 39 -15.5t14 -41.5q0 -32 -19 -52.5t-48 -20.5zM430 823q0 30 -26 30q-15 0 -24 -10.5t-9 -27.5q0 -30 26 -30q15 0 24 10.5 t9 27.5z" />
<glyph unicode="&#xc6;" horiz-adv-x="959" d="M912 0h-465l21 197h-247l-131 -197h-70l472 700h494l-7 -59h-399l-28 -269h328l-6 -59h-328l-27 -254h399zM474 256l40 379l-251 -379h211z" />
<glyph unicode="&#xc7;" horiz-adv-x="662" d="M291 -152l18 29q15 -17 48 -17q40 0 40 35q0 34 -68 34l23 57q-70 5 -122.5 32t-83.5 70.5t-46 97.5t-15 119q0 183 100.5 295.5t275.5 112.5q65 0 117.5 -16.5t71.5 -32.5l20 -16l-34 -53q-7 7 -20 16.5t-59.5 26t-101.5 16.5q-140 0 -221 -91.5t-81 -250.5 q0 -119 58.5 -193.5t180.5 -74.5q61 0 120.5 20t89.5 40l29 20l17 -52q-4 -3 -11.5 -9t-33.5 -20.5t-54 -26t-71 -21t-87 -10.5l-12 -28q24 -2 41 -15.5t17 -41.5q0 -34 -22.5 -55.5t-62.5 -21.5q-18 0 -33 6.5t-21 12.5z" />
<glyph unicode="&#xc8;" horiz-adv-x="601" d="M553 0h-465l74 700h465l-7 -59h-398l-28 -269h327l-6 -59h-327l-27 -254h398zM447 754h-58l-77 191h76z" />
<glyph unicode="&#xc9;" horiz-adv-x="601" d="M420 753h-58l100 191h76zM553 0h-465l74 700h465l-7 -59h-398l-28 -269h327l-6 -59h-327l-27 -254h398z" />
<glyph unicode="&#xca;" horiz-adv-x="601" d="M543 753h-56l-67 135l-98 -135h-55l121 191h75zM553 0h-465l74 700h465l-7 -59h-398l-28 -269h327l-6 -59h-327l-27 -254h398z" />
<glyph unicode="&#xcb;" horiz-adv-x="601" d="M379 803q0 -20 -13.5 -34.5t-32.5 -14.5q-16 0 -26 11.5t-10 28.5q0 20 13 34.5t32 14.5q16 0 26.5 -11.5t10.5 -28.5zM529 803q0 -20 -13.5 -34.5t-32.5 -14.5q-17 0 -27 11.5t-10 28.5q0 20 13.5 34.5t32.5 14.5q16 0 26.5 -11.5t10.5 -28.5zM553 0h-465l74 700h465 l-7 -59h-398l-28 -269h327l-6 -59h-327l-27 -254h398z" />
<glyph unicode="&#xcc;" horiz-adv-x="243" d="M155 0h-67l74 700h67zM229 754h-58l-77 191h76z" />
<glyph unicode="&#xcd;" horiz-adv-x="243" d="M155 0h-67l74 700h67zM228 754h-58l100 191h76z" />
<glyph unicode="&#xce;" horiz-adv-x="243" d="M338 754h-56l-67 135l-98 -135h-55l121 191h75zM155 0h-67l74 700h67z" />
<glyph unicode="&#xcf;" horiz-adv-x="243" d="M173 803q0 -20 -13.5 -34.5t-32.5 -14.5q-16 0 -26 11.5t-10 28.5q0 20 13 34.5t32 14.5q16 0 26.5 -11.5t10.5 -28.5zM323 803q0 -20 -13.5 -34.5t-32.5 -14.5q-17 0 -27 11.5t-10 28.5q0 20 13.5 34.5t32.5 14.5q16 0 26.5 -11.5t10.5 -28.5zM155 0h-67l74 700h67z" />
<glyph unicode="&#xd0;" horiz-adv-x="695" d="M298 0h-206l32 309h-59l6 56h59l36 335h214q147 0 224.5 -76.5t77.5 -225.5q0 -198 -98 -298t-286 -100zM165 59h129q167 0 244 80t77 254q0 248 -254 248h-135l-29 -276h82l-6 -56h-82z" />
<glyph unicode="&#xd1;" horiz-adv-x="684" d="M562 853l33 -21q-1 -3 -3.5 -8.5t-12 -19t-20 -23.5t-28 -18.5t-37.5 -8.5q-29 0 -61.5 30t-54.5 30q-18 0 -37 -12t-29 -24l-11 -13l-30 27l5 7.5t14 17t23 22t31 17t39 7.5q32 0 67.5 -30.5t50.5 -30.5q16 0 31 13t22 25zM595 0h-56l-323 578l-61 -578h-67l74 700h59 l322 -581l61 581h65z" />
<glyph unicode="&#xd2;" horiz-adv-x="749" d="M486 754h-58l-77 191h76zM739 397q0 -82 -22.5 -155t-66.5 -131t-115.5 -92t-161.5 -34q-144 0 -216.5 89.5t-72.5 230.5q0 181 100.5 294.5t265.5 113.5q135 0 212 -86.5t77 -229.5zM672 395q0 121 -60.5 190t-167.5 69q-132 0 -212.5 -93t-80.5 -251q0 -117 57 -191.5 t172 -74.5q96 0 163.5 50.5t98 128t30.5 172.5z" />
<glyph unicode="&#xd3;" horiz-adv-x="749" d="M477 754h-58l100 191h76zM739 397q0 -82 -22.5 -155t-66.5 -131t-115.5 -92t-161.5 -34q-144 0 -216.5 89.5t-72.5 230.5q0 181 100.5 294.5t265.5 113.5q135 0 212 -86.5t77 -229.5zM672 395q0 121 -60.5 190t-167.5 69q-132 0 -212.5 -93t-80.5 -251q0 -117 57 -191.5 t172 -74.5q96 0 163.5 50.5t98 128t30.5 172.5z" />
<glyph unicode="&#xd4;" horiz-adv-x="749" d="M591 753h-56l-67 135l-98 -135h-55l121 191h75zM739 397q0 -82 -22.5 -155t-66.5 -131t-115.5 -92t-161.5 -34q-144 0 -216.5 89.5t-72.5 230.5q0 181 100.5 294.5t265.5 113.5q135 0 212 -86.5t77 -229.5zM672 395q0 121 -60.5 190t-167.5 69q-132 0 -212.5 -93 t-80.5 -251q0 -117 57 -191.5t172 -74.5q96 0 163.5 50.5t98 128t30.5 172.5z" />
<glyph unicode="&#xd5;" horiz-adv-x="749" d="M739 397q0 -82 -22.5 -155t-66.5 -131t-115.5 -92t-161.5 -34q-144 0 -216.5 89.5t-72.5 230.5q0 181 100.5 294.5t265.5 113.5q135 0 212 -86.5t77 -229.5zM672 395q0 121 -60.5 190t-167.5 69q-132 0 -212.5 -93t-80.5 -251q0 -117 57 -191.5t172 -74.5 q96 0 163.5 50.5t98 128t30.5 172.5zM588 853l33 -21q-1 -3 -3.5 -8.5t-12 -19t-20 -23.5t-28 -18.5t-37.5 -8.5q-29 0 -61.5 30t-54.5 30q-18 0 -37 -12t-29 -24l-11 -13l-30 27l5 7.5t14 17t23 22t31 17t39 7.5q32 0 67.5 -30.5t50.5 -30.5q16 0 31 13t22 25z" />
<glyph unicode="&#xd6;" horiz-adv-x="749" d="M423 803q0 -20 -13.5 -34.5t-32.5 -14.5q-16 0 -26 11.5t-10 28.5q0 20 13 34.5t32 14.5q16 0 26.5 -11.5t10.5 -28.5zM573 803q0 -20 -13.5 -34.5t-32.5 -14.5q-17 0 -27 11.5t-10 28.5q0 20 13.5 34.5t32.5 14.5q16 0 26.5 -11.5t10.5 -28.5zM739 397q0 -82 -22.5 -155 t-66.5 -131t-115.5 -92t-161.5 -34q-144 0 -216.5 89.5t-72.5 230.5q0 181 100.5 294.5t265.5 113.5q135 0 212 -86.5t77 -229.5zM672 395q0 121 -60.5 190t-167.5 69q-132 0 -212.5 -93t-80.5 -251q0 -117 57 -191.5t172 -74.5q96 0 163.5 50.5t98 128t30.5 172.5z" />
<glyph unicode="&#xd7;" horiz-adv-x="404" d="M313 137l-84 104l-107 -104l-37 41l107 105l-87 106l46 42l86 -107l106 104l37 -41l-106 -104l84 -105z" />
<glyph unicode="&#xd8;" horiz-adv-x="749" d="M739 397q0 -82 -22.5 -155t-66.5 -131t-115.5 -92t-161.5 -34q-36 0 -68 6l-51 -140h-54l56 153q-86 33 -129 113t-43 188q0 181 100.5 294.5t265.5 113.5q23 0 63 -6l34 92h54l-39 -105q85 -32 131 -110t46 -187zM672 395q0 89 -34 151.5t-97 88.5l-215 -586 q28 -5 54 -5q96 0 163.5 50.5t98 128t30.5 172.5zM151 310q0 -87 31.5 -152t95.5 -94l214 586q-30 4 -48 4q-132 0 -212.5 -93t-80.5 -251z" />
<glyph unicode="&#xd9;" horiz-adv-x="675" d="M557 286l43 414h66l-43 -409q-17 -165 -84.5 -234.5t-205.5 -70.5q-133 0 -185.5 70t-35.5 235l43 409h66l-44 -414q-14 -132 24 -187.5t138 -55.5q103 0 153.5 54t64.5 189zM442 754h-58l-77 191h76z" />
<glyph unicode="&#xda;" horiz-adv-x="675" d="M428 754h-58l100 191h76zM557 286l43 414h66l-43 -409q-17 -165 -84.5 -234.5t-205.5 -70.5q-133 0 -185.5 70t-35.5 235l43 409h66l-44 -414q-14 -132 24 -187.5t138 -55.5q103 0 153.5 54t64.5 189z" />
<glyph unicode="&#xdb;" horiz-adv-x="675" d="M551 754h-56l-67 135l-98 -135h-55l121 191h75zM557 286l43 414h66l-43 -409q-17 -165 -84.5 -234.5t-205.5 -70.5q-133 0 -185.5 70t-35.5 235l43 409h66l-44 -414q-14 -132 24 -187.5t138 -55.5q103 0 153.5 54t64.5 189z" />
<glyph unicode="&#xdc;" horiz-adv-x="675" d="M385 803q0 -20 -13.5 -34.5t-32.5 -14.5q-16 0 -26 11.5t-10 28.5q0 20 13 34.5t32 14.5q16 0 26.5 -11.5t10.5 -28.5zM535 803q0 -20 -13.5 -34.5t-32.5 -14.5q-17 0 -27 11.5t-10 28.5q0 20 13.5 34.5t32.5 14.5q16 0 26.5 -11.5t10.5 -28.5zM557 286l43 414h66 l-43 -409q-17 -165 -84.5 -234.5t-205.5 -70.5q-133 0 -185.5 70t-35.5 235l43 409h66l-44 -414q-14 -132 24 -187.5t138 -55.5q103 0 153.5 54t64.5 189z" />
<glyph unicode="&#xdd;" horiz-adv-x="655" d="M360 0h-65l28 266l-225 434h81l184 -371l263 371h78l-316 -435zM419 727h-58l100 191h76z" />
<glyph unicode="&#xde;" horiz-adv-x="632" d="M360 111h-193l-12 -111h-67l74 700h67l-11 -104h193q105 0 163 -53.5t58 -159.5q0 -135 -72 -203.5t-200 -68.5zM173 170h193q198 0 198 208q0 159 -160 159h-193z" />
<glyph unicode="&#xdf;" horiz-adv-x="636" d="M163 0h-61l44 416h-77l20 52h62l11 101q9 89 62.5 135.5t132.5 46.5q81 0 129 -37.5t48 -110.5q0 -46 -14.5 -82t-35 -58.5t-40.5 -41t-34.5 -37.5t-14.5 -40q0 -23 23 -38.5t55.5 -27.5t65.5 -27t56 -44.5t23 -72.5q0 -69 -50 -109t-137 -40q-55 0 -96.5 19.5 t-56.5 38.5l-14 19l27 41q1 -3 4.5 -7t15.5 -15.5t26.5 -20t41 -15.5t56.5 -7q56 0 87.5 25t31.5 66q0 33 -23 54.5t-55 33t-64.5 24t-55.5 36t-23 60.5q0 28 14.5 53t34.5 44.5t40.5 41t35 52t14.5 68.5q0 50 -32.5 75t-86.5 25q-53 0 -88 -32.5t-42 -92.5z" />
<glyph unicode="&#xe0;" horiz-adv-x="510" d="M499 57l8 -34q-39 -29 -91 -29q-27 0 -43 13.5t-13 38.5l1 10q-76 -71 -177 -71q-63 0 -100 27.5t-37 79.5q0 142 244 142q47 0 85 -10l11 101q6 54 -22.5 79t-97.5 25q-35 0 -71.5 -7t-55.5 -14l-19 -7l-9 50q78 31 173 31q88 0 129.5 -36.5t34.5 -108.5l-28 -268 q-3 -27 20 -27q10 0 24.5 3.5t24.5 7.5zM364 105l8 73q-40 8 -85 8q-179 0 -179 -87q0 -62 93 -62q87 0 163 68zM345 547h-58l-77 191h76z" />
<glyph unicode="&#xe1;" horiz-adv-x="510" d="M499 57l8 -34q-39 -29 -91 -29q-27 0 -43 13.5t-13 38.5l1 10q-76 -71 -177 -71q-63 0 -100 27.5t-37 79.5q0 142 244 142q47 0 85 -10l11 101q6 54 -22.5 79t-97.5 25q-35 0 -71.5 -7t-55.5 -14l-19 -7l-9 50q78 31 173 31q88 0 129.5 -36.5t34.5 -108.5l-28 -268 q-3 -27 20 -27q10 0 24.5 3.5t24.5 7.5zM364 105l8 73q-40 8 -85 8q-179 0 -179 -87q0 -62 93 -62q87 0 163 68zM320 547h-58l100 191h76z" />
<glyph unicode="&#xe2;" horiz-adv-x="510" d="M438 547h-56l-67 135l-98 -135h-55l121 191h75zM499 57l8 -34q-39 -29 -91 -29q-27 0 -43 13.5t-13 38.5l1 10q-76 -71 -177 -71q-63 0 -100 27.5t-37 79.5q0 142 244 142q47 0 85 -10l11 101q6 54 -22.5 79t-97.5 25q-35 0 -71.5 -7t-55.5 -14l-19 -7l-9 50 q78 31 173 31q88 0 129.5 -36.5t34.5 -108.5l-28 -268q-3 -27 20 -27q10 0 24.5 3.5t24.5 7.5zM364 105l8 73q-40 8 -85 8q-179 0 -179 -87q0 -62 93 -62q87 0 163 68z" />
<glyph unicode="&#xe3;" horiz-adv-x="510" d="M499 57l8 -34q-39 -29 -91 -29q-27 0 -43 13.5t-13 38.5l1 10q-76 -71 -177 -71q-63 0 -100 27.5t-37 79.5q0 142 244 142q47 0 85 -10l11 101q6 54 -22.5 79t-97.5 25q-35 0 -71.5 -7t-55.5 -14l-19 -7l-9 50q78 31 173 31q88 0 129.5 -36.5t34.5 -108.5l-28 -268 q-3 -27 20 -27q10 0 24.5 3.5t24.5 7.5zM364 105l8 73q-40 8 -85 8q-179 0 -179 -87q0 -62 93 -62q87 0 163 68zM432 633l33 -21q-1 -3 -3.5 -8.5t-12 -19t-20 -23.5t-28 -18.5t-37.5 -8.5q-29 0 -61.5 30t-54.5 30q-18 0 -37 -12t-29 -24l-11 -13l-30 27l5 7.5t14 17t23 22 t31 17t39 7.5q32 0 67.5 -30.5t50.5 -30.5q16 0 31 13t22 25z" />
<glyph unicode="&#xe4;" horiz-adv-x="510" d="M273 608q0 -20 -13.5 -34.5t-32.5 -14.5q-16 0 -26 11.5t-10 28.5q0 20 13 34.5t32 14.5q16 0 26.5 -11.5t10.5 -28.5zM423 608q0 -20 -13.5 -34.5t-32.5 -14.5q-17 0 -27 11.5t-10 28.5q0 20 13.5 34.5t32.5 14.5q16 0 26.5 -11.5t10.5 -28.5zM499 57l8 -34 q-39 -29 -91 -29q-27 0 -43 13.5t-13 38.5l1 10q-76 -71 -177 -71q-63 0 -100 27.5t-37 79.5q0 142 244 142q47 0 85 -10l11 101q6 54 -22.5 79t-97.5 25q-35 0 -71.5 -7t-55.5 -14l-19 -7l-9 50q78 31 173 31q88 0 129.5 -36.5t34.5 -108.5l-28 -268q-3 -27 20 -27 q10 0 24.5 3.5t24.5 7.5zM364 105l8 73q-40 8 -85 8q-179 0 -179 -87q0 -62 93 -62q87 0 163 68z" />
<glyph unicode="&#xe5;" horiz-adv-x="510" d="M499 57l8 -34q-39 -29 -91 -29q-27 0 -43 13.5t-13 38.5l1 10q-76 -71 -177 -71q-63 0 -100 27.5t-37 79.5q0 142 244 142q47 0 85 -10l11 101q6 54 -22.5 79t-97.5 25q-35 0 -71.5 -7t-55.5 -14l-19 -7l-9 50q78 31 173 31q88 0 129.5 -36.5t34.5 -108.5l-28 -268 q-3 -27 20 -27q10 0 24.5 3.5t24.5 7.5zM364 105l8 73q-40 8 -85 8q-179 0 -179 -87q0 -62 93 -62q87 0 163 68zM296 542q-25 0 -40 16t-15 42q0 32 19.5 52t49.5 20q25 0 39 -15.5t14 -41.5q0 -32 -19 -52.5t-48 -20.5zM332 611q0 30 -26 30q-15 0 -24 -10.5t-9 -27.5 q0 -30 26 -30q15 0 24 10.5t9 27.5z" />
<glyph unicode="&#xe6;" horiz-adv-x="817" d="M788 211h-350q-2 -77 35 -125t114 -48q41 0 81 15t59 29l19 15l16 -42q-8 -8 -23 -19.5t-62.5 -31t-95.5 -19.5q-124 0 -174 92q-105 -92 -223 -92q-63 0 -100 27.5t-37 79.5q0 142 244 142q47 0 85 -10l11 101q6 54 -22.5 79t-97.5 25q-35 0 -71.5 -7t-55.5 -14l-19 -7 l-9 50q78 31 173 31q129 0 158 -79q66 79 182 79q89 0 134 -56.5t45 -134.5q0 -22 -4 -42t-8 -29zM443 260h301l1 13q6 72 -26 114t-99 42q-72 0 -118 -46t-59 -123zM201 37q97 0 189 78q-10 30 -11 62q-38 9 -92 9q-179 0 -179 -87q0 -62 93 -62z" />
<glyph unicode="&#xe7;" horiz-adv-x="480" d="M191 -152l18 29q15 -17 48 -17q40 0 40 35q0 34 -68 34l23 57q-91 6 -137.5 66t-46.5 151q0 120 68.5 199.5t189.5 79.5q44 0 81 -11t51 -23l15 -11l-29 -47q-4 4 -12 10.5t-39.5 17.5t-70.5 11q-90 0 -140.5 -61.5t-50.5 -159.5q0 -75 37.5 -122.5t111.5 -47.5 q42 0 81.5 15t58.5 29l19 15l16 -47q-7 -6 -20.5 -16t-56 -27.5t-86.5 -20.5l-13 -29q24 -2 41 -15.5t17 -41.5q0 -34 -22.5 -55.5t-62.5 -21.5q-18 0 -33 6.5t-21 12.5z" />
<glyph unicode="&#xe8;" horiz-adv-x="509" d="M481 211h-350q-2 -77 35 -125t114 -48q41 0 81 15t59 29l19 15l16 -42q-8 -8 -23 -19.5t-62.5 -31t-95.5 -19.5q-102 0 -154 61t-52 157q0 120 65.5 199.5t184.5 79.5q89 0 134 -56.5t45 -134.5q0 -22 -4 -42t-8 -29zM136 260h301l1 13q6 72 -26 114t-99 42 q-72 0 -118 -46t-59 -123zM351 547h-58l-77 191h76z" />
<glyph unicode="&#xe9;" horiz-adv-x="509" d="M341 547h-58l100 191h76zM481 211h-350q-2 -77 35 -125t114 -48q41 0 81 15t59 29l19 15l16 -42q-8 -8 -23 -19.5t-62.5 -31t-95.5 -19.5q-102 0 -154 61t-52 157q0 120 65.5 199.5t184.5 79.5q89 0 134 -56.5t45 -134.5q0 -22 -4 -42t-8 -29zM136 260h301l1 13 q6 72 -26 114t-99 42q-72 0 -118 -46t-59 -123z" />
<glyph unicode="&#xea;" horiz-adv-x="509" d="M458 547h-56l-67 135l-98 -135h-55l121 191h75zM481 211h-350q-2 -77 35 -125t114 -48q41 0 81 15t59 29l19 15l16 -42q-8 -8 -23 -19.5t-62.5 -31t-95.5 -19.5q-102 0 -154 61t-52 157q0 120 65.5 199.5t184.5 79.5q89 0 134 -56.5t45 -134.5q0 -22 -4 -42t-8 -29z M136 260h301l1 13q6 72 -26 114t-99 42q-72 0 -118 -46t-59 -123z" />
<glyph unicode="&#xeb;" horiz-adv-x="509" d="M294 608q0 -20 -13.5 -34.5t-32.5 -14.5q-16 0 -26 11.5t-10 28.5q0 20 13 34.5t32 14.5q16 0 26.5 -11.5t10.5 -28.5zM444 608q0 -20 -13.5 -34.5t-32.5 -14.5q-17 0 -27 11.5t-10 28.5q0 20 13.5 34.5t32.5 14.5q16 0 26.5 -11.5t10.5 -28.5zM481 211h-350 q-2 -77 35 -125t114 -48q41 0 81 15t59 29l19 15l16 -42q-8 -8 -23 -19.5t-62.5 -31t-95.5 -19.5q-102 0 -154 61t-52 157q0 120 65.5 199.5t184.5 79.5q89 0 134 -56.5t45 -134.5q0 -22 -4 -42t-8 -29zM136 260h301l1 13q6 72 -26 114t-99 42q-72 0 -118 -46t-59 -123z" />
<glyph unicode="&#xec;" horiz-adv-x="206" d="M134 0h-62l49 468h62zM191 547h-58l-77 191h76z" />
<glyph unicode="&#xed;" horiz-adv-x="206" d="M191 547h-58l100 191h76zM134 0h-62l49 468h62z" />
<glyph unicode="&#xee;" horiz-adv-x="206" d="M300 547h-56l-67 135l-98 -135h-55l121 191h75zM134 0h-62l49 468h62z" />
<glyph unicode="&#xef;" horiz-adv-x="206" d="M132 608q0 -20 -13.5 -34.5t-32.5 -14.5q-16 0 -26 11.5t-10 28.5q0 20 13 34.5t32 14.5q16 0 26.5 -11.5t10.5 -28.5zM282 608q0 -20 -13.5 -34.5t-32.5 -14.5q-17 0 -27 11.5t-10 28.5q0 20 13.5 34.5t32.5 14.5q16 0 26.5 -11.5t10.5 -28.5zM134 0h-62l49 468h62z" />
<glyph unicode="&#xf0;" horiz-adv-x="584" d="M312 529l-26 32l84 84q-27 9 -61 9q-37 0 -71.5 -12t-51.5 -24l-16 -11l-23 51q7 6 21 15t58 24.5t91 15.5q60 0 103 -18l71 71l25 -33l-57 -57q57 -35 87 -105.5t30 -163.5q0 -82 -18 -155.5t-54 -134t-97.5 -96.5t-140.5 -36q-90 0 -144.5 56.5t-54.5 145.5 q0 119 68 186.5t186 67.5q112 0 185 -82q17 201 -95 269zM272 44q84 0 144 66.5t82 187.5q-80 83 -184 83q-80 0 -129.5 -51.5t-49.5 -137.5q0 -64 37.5 -106t99.5 -42z" />
<glyph unicode="&#xf1;" d="M461 633l33 -21q-1 -3 -3.5 -8.5t-12 -19t-20 -23.5t-28 -18.5t-37.5 -8.5q-29 0 -61.5 30t-54.5 30q-18 0 -37 -12t-30 -24l-10 -13l-30 27l5 7.5t14 17t23 22t31 17t39 7.5q32 0 67.5 -30.5t50.5 -30.5q16 0 31 13t23 25zM537 57l9 -34q-39 -29 -92 -29q-35 0 -47.5 18 t-8.5 57l25 238q7 62 -14 90.5t-74 28.5q-81 0 -167 -79l-36 -347h-61l48 455l63 19l-8 -76q84 84 181 84q148 0 130 -170l-26 -243q-3 -27 20 -27q10 0 24.5 3.5t24.5 7.5z" />
<glyph unicode="&#xf2;" d="M362 547h-58l-77 191h76zM529 263q0 -120 -68 -199t-188 -79q-100 0 -153 60t-53 157q0 118 67 199t190 81q101 0 153 -61.5t52 -157.5zM279 38q89 0 139 61.5t50 158.5q0 75 -37 123t-112 48q-91 0 -140.5 -65.5t-49.5 -158.5q0 -76 38.5 -121.5t111.5 -45.5z" />
<glyph unicode="&#xf3;" d="M351 547h-58l100 191h76zM529 263q0 -120 -68 -199t-188 -79q-100 0 -153 60t-53 157q0 118 67 199t190 81q101 0 153 -61.5t52 -157.5zM279 38q89 0 139 61.5t50 158.5q0 75 -37 123t-112 48q-91 0 -140.5 -65.5t-49.5 -158.5q0 -76 38.5 -121.5t111.5 -45.5z" />
<glyph unicode="&#xf4;" d="M467 547h-56l-67 135l-98 -135h-55l121 191h75zM529 263q0 -120 -68 -199t-188 -79q-100 0 -153 60t-53 157q0 118 67 199t190 81q101 0 153 -61.5t52 -157.5zM279 38q89 0 139 61.5t50 158.5q0 75 -37 123t-112 48q-91 0 -140.5 -65.5t-49.5 -158.5q0 -76 38.5 -121.5 t111.5 -45.5z" />
<glyph unicode="&#xf5;" d="M529 263q0 -120 -68 -199t-188 -79q-100 0 -153 60t-53 157q0 118 67 199t190 81q101 0 153 -61.5t52 -157.5zM279 38q89 0 139 61.5t50 158.5q0 75 -37 123t-112 48q-91 0 -140.5 -65.5t-49.5 -158.5q0 -76 38.5 -121.5t111.5 -45.5zM466 633l33 -21q-1 -3 -3.5 -8.5 t-12 -19t-20 -23.5t-28 -18.5t-37.5 -8.5q-29 0 -61.5 30t-54.5 30q-18 0 -37 -12t-29 -24l-11 -13l-30 27l5 7.5t14 17t23 22t31 17t39 7.5q32 0 67.5 -30.5t50.5 -30.5q16 0 31 13t22 25z" />
<glyph unicode="&#xf6;" d="M306 608q0 -20 -13.5 -34.5t-32.5 -14.5q-16 0 -26 11.5t-10 28.5q0 20 13 34.5t32 14.5q16 0 26.5 -11.5t10.5 -28.5zM456 608q0 -20 -13.5 -34.5t-32.5 -14.5q-17 0 -27 11.5t-10 28.5q0 20 13.5 34.5t32.5 14.5q16 0 26.5 -11.5t10.5 -28.5zM529 263q0 -120 -68 -199 t-188 -79q-100 0 -153 60t-53 157q0 118 67 199t190 81q101 0 153 -61.5t52 -157.5zM279 38q89 0 139 61.5t50 158.5q0 75 -37 123t-112 48q-91 0 -140.5 -65.5t-49.5 -158.5q0 -76 38.5 -121.5t111.5 -45.5z" />
<glyph unicode="&#xf7;" horiz-adv-x="426" d="M263 44q0 -24 -16.5 -41.5t-39.5 -17.5q-20 0 -32.5 14t-12.5 35q0 24 16.5 41.5t39.5 17.5q20 0 32.5 -14t12.5 -35zM303 435q0 -24 -16.5 -41.5t-39.5 -17.5q-19 0 -31.5 14t-12.5 35q0 24 16.5 41.5t38.5 17.5q20 0 32.5 -14t12.5 -35zM384 195h-303l6 59h303z" />
<glyph unicode="&#xf8;" d="M529 263q0 -120 -68 -199t-188 -79q-13 0 -35 2l-21 -59h-55l26 72q-60 22 -90.5 75.5t-30.5 126.5q0 118 67 199t190 81q20 0 38 -3l18 48h55l-23 -61q58 -24 87.5 -78t29.5 -125zM129 205q0 -115 78 -152l136 374q-16 2 -24 2q-91 0 -140.5 -65.5t-49.5 -158.5zM279 38 q89 0 139 61.5t50 158.5q0 114 -75 154l-136 -373q7 -1 22 -1z" />
<glyph unicode="&#xf9;" horiz-adv-x="544" d="M532 57l9 -34q-39 -29 -91 -29q-29 0 -44.5 14.5t-12.5 40.5l1 10q-79 -74 -179 -74q-148 0 -130 170l33 313h60l-32 -308q-7 -64 14 -93t74 -29q87 0 163 70l36 346l64 19l-42 -404q-3 -27 19 -27q10 0 24.5 3.5t23.5 7.5zM362 547h-58l-77 191h76z" />
<glyph unicode="&#xfa;" horiz-adv-x="544" d="M339 547h-58l100 191h76zM532 57l9 -34q-39 -29 -91 -29q-29 0 -44.5 14.5t-12.5 40.5l1 10q-79 -74 -179 -74q-148 0 -130 170l33 313h60l-32 -308q-7 -64 14 -93t74 -29q87 0 163 70l36 346l64 19l-42 -404q-3 -27 19 -27q10 0 24.5 3.5t23.5 7.5z" />
<glyph unicode="&#xfb;" horiz-adv-x="544" d="M457 547h-56l-67 135l-98 -135h-55l121 191h75zM532 57l9 -34q-39 -29 -91 -29q-29 0 -44.5 14.5t-12.5 40.5l1 10q-79 -74 -179 -74q-148 0 -130 170l33 313h60l-32 -308q-7 -64 14 -93t74 -29q87 0 163 70l36 346l64 19l-42 -404q-3 -27 19 -27q10 0 24.5 3.5t23.5 7.5 z" />
<glyph unicode="&#xfc;" horiz-adv-x="544" d="M294 608q0 -20 -13.5 -34.5t-32.5 -14.5q-16 0 -26 11.5t-10 28.5q0 20 13 34.5t32 14.5q16 0 26.5 -11.5t10.5 -28.5zM444 608q0 -20 -13.5 -34.5t-32.5 -14.5q-17 0 -27 11.5t-10 28.5q0 20 13.5 34.5t32.5 14.5q16 0 26.5 -11.5t10.5 -28.5zM532 57l9 -34 q-39 -29 -91 -29q-29 0 -44.5 14.5t-12.5 40.5l1 10q-79 -74 -179 -74q-148 0 -130 170l33 313h60l-32 -308q-7 -64 14 -93t74 -29q87 0 163 70l36 346l64 19l-42 -404q-3 -27 19 -27q10 0 24.5 3.5t23.5 7.5z" />
<glyph unicode="&#xfd;" horiz-adv-x="487" d="M144 -263h-57l131 263h-7l-137 468h66l112 -402l193 402h66zM314 547h-58l100 191h76z" />
<glyph unicode="&#xfe;" horiz-adv-x="538" d="M106 -263h-62l104 994l64 19l-36 -346q69 78 162 78q88 0 134 -60.5t46 -156.5q0 -123 -69.5 -201.5t-185.5 -78.5q-74 0 -128 29zM171 355l-30 -285q44 -32 128 -32q86 0 137 60.5t51 161.5q0 77 -34.5 123t-101.5 46q-82 0 -150 -74z" />
<glyph unicode="&#xff;" horiz-adv-x="487" d="M275 608q0 -20 -13.5 -34.5t-32.5 -14.5q-16 0 -26 11.5t-10 28.5q0 20 13 34.5t32 14.5q16 0 26.5 -11.5t10.5 -28.5zM425 608q0 -20 -13.5 -34.5t-32.5 -14.5q-17 0 -27 11.5t-10 28.5q0 20 13.5 34.5t32.5 14.5q16 0 26.5 -11.5t10.5 -28.5zM144 -263h-57l131 263h-7 l-137 468h66l112 -402l193 402h66z" />
<glyph unicode="&#x152;" horiz-adv-x="1147" d="M1099 0h-465l14 133q-96 -148 -275 -148q-144 0 -216.5 89.5t-72.5 230.5q0 181 100.5 294.5t265.5 113.5q86 0 149 -39t95 -108l14 134h465l-7 -59h-399l-28 -269h328l-6 -59h-328l-27 -254h399zM672 395q0 121 -60.5 190t-167.5 69q-132 0 -212.5 -93t-80.5 -251 q0 -117 57 -191.5t172 -74.5q96 0 163.5 50.5t98 128t30.5 172.5z" />
<glyph unicode="&#x153;" horiz-adv-x="910" d="M881 211h-350q-2 -77 35 -125t115 -48q41 0 81 15t59 29l19 15l15 -42q-8 -8 -23 -19.5t-62.5 -31t-95.5 -19.5q-147 0 -188 126q-68 -126 -213 -126q-100 0 -153 60t-53 157q0 118 67 199t190 81q74 0 121 -34t66 -93q66 127 207 127q90 0 134.5 -56.5t44.5 -134.5 q0 -22 -4 -42t-8 -29zM279 38q89 0 139 61.5t50 158.5q0 75 -37 123t-112 48q-91 0 -140.5 -65.5t-49.5 -158.5q0 -76 38.5 -121.5t111.5 -45.5zM536 260h301l1 13q6 72 -26 114t-99 42q-72 0 -118 -46t-59 -123z" />
<glyph unicode="&#x178;" horiz-adv-x="655" d="M360 0h-65l28 266l-225 434h81l184 -371l263 371h78l-316 -435zM378 803q0 -20 -13.5 -34.5t-32.5 -14.5q-16 0 -26 11.5t-10 28.5q0 20 13 34.5t32 14.5q16 0 26.5 -11.5t10.5 -28.5zM528 803q0 -20 -13.5 -34.5t-32.5 -14.5q-17 0 -27 11.5t-10 28.5q0 20 13.5 34.5 t32.5 14.5q16 0 26.5 -11.5t10.5 -28.5z" />
<glyph unicode="&#x2c6;" horiz-adv-x="376" d="M382 547h-56l-67 135l-98 -135h-55l121 191h75z" />
<glyph unicode="&#x2dc;" horiz-adv-x="399" d="M391 633l33 -21q-1 -3 -3.5 -8.5t-12 -19t-20 -23.5t-28 -18.5t-37.5 -8.5q-29 0 -61.5 30t-54.5 30q-18 0 -37 -12t-30 -24l-10 -13l-30 27l5 7.5t14 17t23 22t31 17t39 7.5q32 0 67.5 -30.5t50.5 -30.5q16 0 31 13t23 25z" />
<glyph unicode="&#x2000;" horiz-adv-x="481" />
<glyph unicode="&#x2001;" horiz-adv-x="962" />
<glyph unicode="&#x2002;" horiz-adv-x="481" />
<glyph unicode="&#x2003;" horiz-adv-x="962" />
<glyph unicode="&#x2004;" horiz-adv-x="320" />
<glyph unicode="&#x2005;" horiz-adv-x="240" />
<glyph unicode="&#x2006;" horiz-adv-x="160" />
<glyph unicode="&#x2007;" horiz-adv-x="160" />
<glyph unicode="&#x2008;" horiz-adv-x="120" />
<glyph unicode="&#x2009;" horiz-adv-x="192" />
<glyph unicode="&#x200a;" horiz-adv-x="53" />
<glyph unicode="&#x2010;" horiz-adv-x="377" d="M336 248h-243l6 59h243z" />
<glyph unicode="&#x2011;" horiz-adv-x="377" d="M336 248h-243l6 59h243z" />
<glyph unicode="&#x2012;" horiz-adv-x="377" d="M336 248h-243l6 59h243z" />
<glyph unicode="&#x2013;" horiz-adv-x="523" d="M480 256h-383l5 46h383z" />
<glyph unicode="&#x2014;" horiz-adv-x="846" d="M804 256h-707l5 46h707z" />
<glyph unicode="&#x2018;" horiz-adv-x="189" d="M164 729q4 1 10 1q19 0 31 -14t12 -35q0 -24 -16.5 -41.5t-38.5 -17.5q-48 0 -48 59q0 45 9.5 82t23 57t27.5 34t24 18l9 5l14 -21q-5 -3 -12.5 -11t-23 -38.5t-20.5 -70.5z" />
<glyph unicode="&#x2019;" horiz-adv-x="199" d="M132 502l-14 21q5 3 12.5 11t23 38.5t20.5 70.5l1 7q-4 -1 -9 -1q-21 0 -33 14t-12 35q0 24 16.5 41.5t40.5 17.5q47 0 47 -58q0 -45 -9.5 -82t-23.5 -57.5t-27.5 -34.5t-22.5 -19z" />
<glyph unicode="&#x201a;" horiz-adv-x="226" d="M75 -162l-13 21q5 3 12.5 11t22.5 38.5t20 70.5l1 7q-4 -1 -9 -1q-21 0 -33 14t-12 35q0 24 16.5 41.5t40.5 17.5q47 0 47 -58q0 -45 -9.5 -82t-23 -57.5t-27.5 -34.5t-24 -19z" />
<glyph unicode="&#x201c;" horiz-adv-x="339" d="M164 729q4 1 10 1q19 0 31 -14t12 -35q0 -24 -16.5 -41.5t-38.5 -17.5q-48 0 -48 59q0 45 9.5 82t23 57t27.5 34t24 18l9 5l14 -21q-5 -3 -12.5 -11t-23 -38.5t-20.5 -70.5zM315 729q3 1 9 1q20 0 32 -14t12 -35q0 -24 -16 -41.5t-40 -17.5q-48 0 -48 59q0 45 9.5 82 t23.5 57t28 34t23 18l10 5l13 -21q-5 -3 -12.5 -11t-22.5 -38.5t-20 -70.5z" />
<glyph unicode="&#x201d;" horiz-adv-x="342" d="M132 502l-14 21q5 3 12.5 11t23 38.5t20.5 70.5l1 7q-4 -1 -9 -1q-21 0 -33 14t-12 35q0 24 16.5 41.5t40.5 17.5q47 0 47 -58q0 -45 -9.5 -82t-23.5 -57.5t-27.5 -34.5t-22.5 -19zM273 502l-13 21q5 3 12.5 11t23 38.5t20.5 70.5l1 7q-4 -1 -10 -1q-20 0 -32 14t-12 35 q0 24 16.5 41.5t39.5 17.5q48 0 48 -59q0 -45 -9.5 -82t-23.5 -57t-28 -34t-24 -19z" />
<glyph unicode="&#x201e;" horiz-adv-x="357" d="M75 -162l-13 21q5 3 12.5 11t22.5 38.5t20 70.5l1 7q-4 -1 -9 -1q-21 0 -33 14t-12 35q0 24 16.5 41.5t40.5 17.5q47 0 47 -58q0 -45 -9.5 -82t-23 -57.5t-27.5 -34.5t-24 -19zM206 -162l-13 21q5 3 12.5 11t22.5 38.5t20 70.5l1 7q-4 -1 -9 -1q-20 0 -32 13.5t-12 34.5 q0 25 16 42.5t40 17.5q47 0 47 -58q0 -45 -9.5 -82t-23 -57.5t-27.5 -34.5t-23 -19z" />
<glyph unicode="&#x2022;" horiz-adv-x="389" d="M110 306q0 57 39 98.5t93 41.5q45 0 75 -33.5t30 -82.5q0 -57 -39.5 -98.5t-92.5 -41.5q-45 0 -75 33.5t-30 82.5z" />
<glyph unicode="&#x2026;" horiz-adv-x="490" d="M166 44q0 -24 -16.5 -41.5t-39.5 -17.5q-21 0 -33.5 14t-12.5 35q0 24 16.5 41.5t40.5 17.5q19 0 32 -14t13 -35zM300 44q0 -24 -16.5 -41.5t-39.5 -17.5q-21 0 -33.5 14t-12.5 35q0 24 16.5 41.5t40.5 17.5q20 0 32.5 -14t12.5 -35zM434 44q0 -24 -16.5 -41.5 t-39.5 -17.5q-20 0 -32.5 14t-12.5 35q0 24 16.5 41.5t39.5 17.5q20 0 32.5 -14t12.5 -35z" />
<glyph unicode="&#x202f;" horiz-adv-x="192" />
<glyph unicode="&#x2039;" horiz-adv-x="305" d="M262 51l-41 -39l-155 182l5 48l193 183l32 -39l-160 -168z" />
<glyph unicode="&#x203a;" horiz-adv-x="305" d="M279 194l-193 -182l-33 39l162 167l-126 168l40 39l155 -183z" />
<glyph unicode="&#x205f;" horiz-adv-x="240" />
<glyph unicode="&#x20ac;" horiz-adv-x="731" d="M493 242h-282q14 -92 69 -145t155 -53q64 0 126 21t93 42l30 21l17 -52q-4 -4 -12.5 -10t-35.5 -21.5t-57 -27.5t-75.5 -22t-92.5 -10q-134 0 -204.5 69.5t-83.5 187.5h-69l5 52h422zM509 395h-422l6 52h66q35 123 125 194.5t221 71.5q68 0 122.5 -18.5t74.5 -36.5 l21 -18l-35 -48q-2 3 -7 7t-22.5 14.5t-37.5 19t-53.5 15t-69.5 6.5q-100 0 -169.5 -54t-100.5 -153h287z" />
<glyph unicode="&#x2122;" horiz-adv-x="812" d="M259 325h-47l32 306h-129l5 44h302l-5 -44h-126zM769 325h-47l27 257l-129 -257h-52l-73 257l-27 -257h-46l37 350h53l87 -311l152 311h55z" />
<glyph unicode="&#xfb01;" horiz-adv-x="553" d="M481 0h-61l44 416h-257l-44 -416h-61l44 416h-77l20 52h63l11 109q9 89 53 131.5t114 42.5q27 0 50 -6.5t32 -12.5l10 -7l-25 -43q-24 15 -68 15q-92 0 -105 -118l-12 -111h318zM558 613q0 -22 -14.5 -37t-34.5 -15q-18 0 -29 12t-11 30q0 22 14.5 37t35.5 15 q17 0 28 -12t11 -30z" />
<glyph unicode="&#xfb02;" horiz-adv-x="597" d="M163 0h-61l44 416h-77l20 52h63l11 109q9 89 53 131.5t114 42.5q28 0 51 -6.5t33 -12.5l9 -7l-25 -43q-24 15 -69 15q-92 0 -105 -118l-12 -111h154l-5 -52h-154zM593 59l8 -34q-46 -31 -111 -31q-41 0 -56.5 20t-10.5 67l68 650l63 19l-70 -665q-4 -43 34 -43 q13 0 31.5 4t30.5 8z" />
</font>
</defs>
</svg>
