<?xml version="1.0" standalone="no"?>
<!DOCTYPE svg PUBLIC "-//W3C//DTD SVG 1.1//EN" "http://www.w3.org/Graphics/SVG/1.1/DTD/svg11.dtd" >
<svg xmlns="http://www.w3.org/2000/svg">
<metadata></metadata>
<defs>
<font id="magallanes_cond_mediummedium" horiz-adv-x="649" >
<font-face units-per-em="1000" ascent="750" descent="-250" />
<missing-glyph horiz-adv-x="219" />
<glyph horiz-adv-x="0" />
<glyph horiz-adv-x="333" />
<glyph unicode=" "  horiz-adv-x="219" />
<glyph unicode="&#x09;" horiz-adv-x="219" />
<glyph unicode="&#xa0;" horiz-adv-x="219" />
<glyph unicode="!" horiz-adv-x="258" d="M173 200h-88l-20 500h127zM200 58q0 -30 -20.5 -51.5t-50.5 -21.5t-51 21.5t-21 51.5t21 51.5t51 21.5t50.5 -21.5t20.5 -51.5z" />
<glyph unicode="&#x22;" horiz-adv-x="336" d="M132 556h-71l-15 199h101zM275 556h-72l-15 199h101z" />
<glyph unicode="#" horiz-adv-x="615" d="M522 135h-91l-34 -135h-92l34 135h-132l-34 -135h-93l35 135h-71v90h95l27 103h-72v90h97l28 111h92l-28 -111h132l28 111h92l-27 -111h64v-90h-90l-26 -103h66v-90zM363 225l27 103h-132l-26 -103h131z" />
<glyph unicode="$" horiz-adv-x="610" d="M347 749h-72l-15 221h101zM361 -292h-101l15 221h72zM572 641l-40 -98q-3 3 -9.5 7.5t-27.5 16t-45 20.5t-62 16t-78 7q-74 0 -110.5 -26.5t-36.5 -69.5q0 -48 40 -73t120 -41q136 -26 195 -69t59 -137q0 -92 -69 -150.5t-200 -58.5q-58 0 -108 10t-80.5 24.5t-53 29.5 t-31.5 25l-9 10l51 89q3 -4 9.5 -9.5t28.5 -21t47 -27t64.5 -21t81.5 -9.5q71 0 110 26.5t39 73.5t-29.5 68t-123.5 41q-63 13 -104.5 26.5t-80 37t-57 60t-18.5 87.5q0 87 68.5 147.5t196.5 60.5q73 0 139 -18t95 -36z" />
<glyph unicode="%" horiz-adv-x="645" d="M144 -15h-92l449 728h91zM612 135q0 -67 -36.5 -108.5t-101.5 -41.5t-102 41.5t-37 108.5q0 68 36.5 108.5t102.5 40.5t102 -40.5t36 -108.5zM474 50q32 0 51 23.5t19 61.5t-18.5 59.5t-51.5 21.5t-52 -21.5t-19 -59.5t19 -61.5t52 -23.5zM311 565q0 -68 -36.5 -109.5 t-101.5 -41.5t-102 41.5t-37 109.5q0 67 36.5 107.5t102.5 40.5t102 -40.5t36 -107.5zM173 480q33 0 51.5 23t18.5 62q0 38 -18.5 59t-51.5 21t-52 -21.5t-19 -58.5q0 -39 19 -62t52 -23z" />
<glyph unicode="&#x26;" horiz-adv-x="637" d="M607 31l-70 -71l-63 71q-73 -47 -170 -47q-119 0 -185 55t-66 157q0 111 109 191v1q-52 71 -52 149t53.5 127t147.5 49q62 0 112 -18.5t69 -36.5l20 -18l-44 -83q-5 6 -15.5 15.5t-47.5 25t-80 15.5q-47 0 -71.5 -24.5t-24.5 -61.5q0 -35 15.5 -64t48.5 -69l183 -212 q20 45 20 94h103q0 -97 -53 -174zM304 82q61 0 103 25l-189 216q-59 -43 -59 -124q0 -55 38 -86t107 -31z" />
<glyph unicode="'" horiz-adv-x="193" d="M132 556h-71l-15 199h101z" />
<glyph unicode="(" horiz-adv-x="281" d="M261 -247l-82 -50q-6 8 -15.5 23t-33.5 67t-42.5 110t-33.5 150t-15 188q0 97 14.5 188t35 152t41 108t34.5 69l15 22l82 -50q-5 -7 -13.5 -20t-30.5 -59t-38.5 -98t-30 -136.5t-13.5 -174.5q0 -91 13 -174.5t31.5 -138.5t37 -96.5t31.5 -60.5z" />
<glyph unicode=")" horiz-adv-x="281" d="M102 -297l-82 50q5 7 13.5 20t30.5 59t38.5 98t30 136.5t13.5 175.5q0 90 -13 174t-31.5 138.5t-37 96t-31.5 60.5l-13 19l82 50q6 -8 15.5 -23t33.5 -67t43 -110t34 -150t15 -189q0 -96 -14.5 -187t-35.5 -152t-41.5 -108t-35.5 -69z" />
<glyph unicode="*" horiz-adv-x="464" d="M379 413l-115 90l12 -157h-88l12 158l-115 -91l-44 79l127 69l-127 67l44 79l115 -89l-12 157h88l-12 -156l115 88l44 -79l-127 -67l127 -69z" />
<glyph unicode="+" horiz-adv-x="533" d="M315 108h-97v208h-184v97h184v208h97v-208h185v-97h-185v-208z" />
<glyph unicode="," horiz-adv-x="255" d="M116 -169l-31 34q5 4 12.5 11.5t20 37t12.5 65.5v7q-2 -1 -6 -1q-32 0 -53.5 22t-21.5 53t21.5 53t53.5 22q40 0 60.5 -27.5t20.5 -71.5q0 -48 -9 -87t-22.5 -60t-26.5 -35t-22 -18z" />
<glyph unicode="-" horiz-adv-x="379" d="M320 230h-261v98h261v-98z" />
<glyph unicode="." horiz-adv-x="247" d="M198 60q0 -31 -21.5 -53t-52.5 -22q-32 0 -53.5 22t-21.5 53t21.5 53t53.5 22q31 0 52.5 -22t21.5 -53z" />
<glyph unicode="/" horiz-adv-x="401" d="M128 -248h-101l247 948h101z" />
<glyph unicode="0" horiz-adv-x="655" d="M328 -15q-138 0 -211.5 104t-73.5 266q0 160 78.5 259t206.5 99q127 0 206 -99t79 -259q0 -162 -73.5 -266t-211.5 -104zM328 87q85 0 127 75.5t42 192.5q0 119 -46 188t-123 69t-123 -68.5t-46 -188.5q0 -118 42 -193t127 -75z" />
<glyph unicode="1" horiz-adv-x="452" d="M374 0h-116v572l-198 -137l-56 91l262 174h108v-700z" />
<glyph unicode="2" horiz-adv-x="558" d="M515 0h-470v90l196 156q41 33 63 52.5t43.5 47.5t29.5 59.5t8 72.5q0 58 -36 95.5t-97 37.5q-48 0 -91.5 -16.5t-62.5 -32.5l-20 -17l-48 93q3 3 9.5 8t28.5 18t47 23t64 18t80 8q116 0 179 -64t63 -167q0 -94 -33.5 -153.5t-115.5 -129.5l-120 -99h283v-100z" />
<glyph unicode="3" horiz-adv-x="585" d="M237 309v98q168 0 168 107q0 44 -34 70.5t-97 26.5q-45 0 -87.5 -16.5t-62.5 -32.5l-20 -17l-47 95q3 3 9.5 8t28 17.5t45 22t60 17.5t74.5 8q115 0 181 -53t66 -138q0 -138 -122 -163q60 -6 101.5 -47t41.5 -127q0 -91 -72 -145.5t-198 -54.5q-68 0 -131 23.5t-92 47.5 l-29 23l52 90q3 -3 9 -8.5t26 -20t41.5 -25t55.5 -19.5t68 -9q71 0 113 27.5t42 77.5q0 117 -190 117z" />
<glyph unicode="4" horiz-adv-x="558" d="M459 0h-113v149h-322v84l210 460h123l-200 -445h189v188h113v-188h75v-99h-75v-149z" />
<glyph unicode="5" horiz-adv-x="584" d="M509 600h-310l-13 -174q52 14 110 14q50 0 91.5 -10.5t79 -35t59 -72t21.5 -113.5q0 -108 -68 -166.5t-191 -58.5q-71 0 -136.5 20.5t-95.5 41.5l-31 20l49 88q10 -8 27.5 -19.5t71.5 -30.5t109 -19q152 0 152 124q0 132 -156 132q-47 0 -98.5 -10t-79.5 -20l-28 -10 l27 399h410v-100z" />
<glyph unicode="6" horiz-adv-x="598" d="M346 611q-83 0 -133 -59.5t-56 -170.5q70 60 157 60q119 0 183 -59.5t64 -171.5q0 -99 -67.5 -162t-177.5 -63q-136 0 -204 101.5t-68 269.5q0 162 77 259.5t220 97.5q55 0 104.5 -14.5t70.5 -28.5l22 -15l-49 -91q-6 5 -17 13t-48 21t-78 13zM312 346q-84 0 -153 -60 q10 -100 51 -150t106 -50q129 0 129 128q0 62 -35.5 97t-97.5 35z" />
<glyph unicode="7" horiz-adv-x="507" d="M253 0h-130l236 600h-344v100h475v-86z" />
<glyph unicode="8" horiz-adv-x="613" d="M448 371q123 -59 123 -184q0 -88 -64.5 -145t-198.5 -57q-138 0 -201.5 55t-63.5 142q0 122 136 180q-115 46 -115 169q0 81 65.5 131.5t178.5 50.5q111 0 176 -51t65 -131q0 -115 -101 -160zM308 332q-28 -7 -49.5 -15.5t-47 -24t-40 -41t-14.5 -59.5q0 -46 38 -78 t113 -32q76 0 112.5 33t36.5 82q0 110 -149 135zM308 410l36 -7q43 12 66 38.5t23 78.5q0 43 -34.5 70t-90.5 27q-58 0 -94 -27t-36 -69q0 -18 5 -33t11.5 -25t18 -19t21 -13.5t23 -9t20.5 -6t18.5 -3.5t12.5 -2z" />
<glyph unicode="9" horiz-adv-x="599" d="M254 87q83 0 132.5 59t56.5 170q-69 -59 -157 -59q-118 0 -182.5 60t-64.5 171q0 99 67.5 162t177.5 63q136 0 204.5 -101.5t68.5 -269.5q0 -162 -77 -259.5t-220 -97.5q-56 0 -105.5 14.5t-70.5 28.5l-22 15l49 91q6 -5 17 -13t48.5 -21t77.5 -13zM288 352q87 0 153 60 q-10 100 -51 150t-106 50q-129 0 -129 -128q0 -62 36 -97t97 -35z" />
<glyph unicode=":" horiz-adv-x="257" d="M201 58q0 -30 -21 -51.5t-51 -21.5t-51 21.5t-21 51.5t21 51.5t51 21.5t51 -21.5t21 -51.5zM200 411q0 -30 -21 -51.5t-51 -21.5t-51 21.5t-21 51.5t21 51.5t51 21.5t51 -21.5t21 -51.5z" />
<glyph unicode=";" horiz-adv-x="267" d="M202 411q0 -30 -21 -51.5t-51 -21.5t-51 21.5t-21 51.5t21 51.5t51 21.5t51 -21.5t21 -51.5zM122 -169l-31 33q5 4 12.5 11.5t20 37.5t12.5 66v7q-2 -1 -6 -1q-31 0 -52 21t-21 51q0 31 21 52.5t52 21.5q40 0 61 -26t21 -69q0 -49 -9.5 -88t-22.5 -60t-26 -35t-22 -18z " />
<glyph unicode="&#x3c;" horiz-adv-x="366" d="M314 17l-277 190v104l277 191v-109l-190 -134l190 -134v-108z" />
<glyph unicode="=" horiz-adv-x="484" d="M425 347h-366v97h366v-97zM425 121h-366v98h366v-98z" />
<glyph unicode="&#x3e;" horiz-adv-x="366" d="M329 207l-278 -190v108l190 134l-190 134v109l278 -191v-104z" />
<glyph unicode="?" horiz-adv-x="519" d="M295 179h-102v122q7 2 18.5 6.5t41 21t52.5 36.5t41.5 55.5t18.5 76.5q0 51 -32.5 83.5t-85.5 32.5q-46 0 -89.5 -16.5t-63.5 -33.5l-21 -17l-47 88q4 3 10.5 8.5t29 19t47 24t63 19t78.5 8.5q107 0 166.5 -60t59.5 -156q0 -50 -19 -94t-46 -71.5t-54.5 -47.5t-46.5 -28 l-19 -9v-68zM312 58q0 -30 -21 -51.5t-51 -21.5t-51 21.5t-21 51.5t21 51.5t51 21.5t51 -21.5t21 -51.5z" />
<glyph unicode="@" horiz-adv-x="942" d="M324 -121l-51 -82q-116 62 -174 184t-58 271q0 207 120 335.5t319 128.5q196 0 314 -121.5t118 -317.5q0 -142 -68.5 -212.5t-177.5 -70.5q-70 0 -84 58h-1q-54 -67 -146 -67q-97 0 -150 70t-53 182q0 108 66.5 176.5t179.5 68.5q58 0 108.5 -19t71.5 -38l22 -19v-301 q1 -16 6 -21.5t17 -5.5q54 0 81.5 47t27.5 152q0 161 -91.5 255.5t-240.5 94.5q-152 0 -244 -101t-92 -274q0 -258 180 -373zM578 133v231q-38 29 -105 29q-62 0 -99 -42.5t-37 -114.5q0 -79 32.5 -120.5t95.5 -41.5q66 0 113 59z" />
<glyph unicode="A" d="M637 0h-119l-58 172h-271l-58 -172h-119l251 700h123zM424 268l-100 298l-101 -298h201z" />
<glyph unicode="B" horiz-adv-x="632" d="M372 0h-295v700h284q103 0 153 -47.5t50 -129.5q0 -132 -106 -165q73 -14 105 -55.5t32 -116.5q0 -87 -61 -136.5t-162 -49.5zM359 309h-169v-209h178q114 0 114 100q0 54 -33 81.5t-90 27.5zM351 600h-161v-203h164q40 0 67.5 29t27.5 82q0 42 -25.5 67t-72.5 25z" />
<glyph unicode="C" horiz-adv-x="678" d="M630 166l32 -94q-4 -4 -11 -9.5t-32 -20.5t-53.5 -26.5t-74.5 -21t-95 -9.5q-93 0 -163 29.5t-111 81.5t-61 117t-20 143q0 163 93 260t262 97q72 0 129.5 -16.5t79.5 -32.5l22 -17l-46 -94l-6.5 6.5t-21 14.5t-36 18t-52.5 14.5t-69 6.5q-109 0 -174 -69t-65 -188 q0 -120 60.5 -195.5t182.5 -75.5q60 0 117.5 20.5t84.5 40.5z" />
<glyph unicode="D" horiz-adv-x="699" d="M317 0h-240v700h240q165 0 252.5 -90.5t87.5 -263.5q0 -170 -90 -258t-250 -88zM190 100h112q119 -1 180 58t61 188q0 131 -61 192.5t-183 61.5h-109v-500z" />
<glyph unicode="E" horiz-adv-x="611" d="M570 0h-493v700h493v-100h-380v-208h305v-95h-305v-197h380v-100z" />
<glyph unicode="F" horiz-adv-x="588" d="M495 293h-305v-293h-113v700h493v-100h-380v-212h305v-95z" />
<glyph unicode="G" horiz-adv-x="697" d="M541 122v147h-199v93h307v-290q-4 -4 -10.5 -9.5t-30.5 -20.5t-51 -26.5t-70.5 -21t-90.5 -9.5q-93 0 -163 29.5t-111 81.5t-61 117t-20 143q0 163 93 260t262 97q72 0 129.5 -16.5t79.5 -32.5l22 -17l-46 -95q-6 7 -19 17t-60.5 27t-105.5 17q-109 0 -174 -69t-65 -188 q0 -120 60.5 -195.5t182.5 -75.5q71 0 141 37z" />
<glyph unicode="H" horiz-adv-x="704" d="M627 0h-112v295h-325v-295h-113v700h113v-305h325v305h112v-700z" />
<glyph unicode="I" horiz-adv-x="267" d="M190 0h-113v700h113v-700z" />
<glyph unicode="J" horiz-adv-x="272" d="M92 -38l-63 54l6 6t14.5 17t18 28t14 39.5t6.5 50.5v543h112v-541q0 -44 -11 -80.5t-27 -57t-32 -35t-27 -19.5z" />
<glyph unicode="K" horiz-adv-x="666" d="M638 100l29 -67q-44 -39 -112 -39q-52 0 -86 21.5t-58 69.5l-88 176q-10 -1 -29 -1h-104v-260h-113v700h113v-340h106q87 0 123.5 79.5t36.5 260.5h112q0 -170 -31.5 -271t-105.5 -141l88 -165q22 -41 64 -41q12 0 25.5 4.5t21.5 9.5z" />
<glyph unicode="L" horiz-adv-x="558" d="M554 0h-477v700h113v-600h364v-100z" />
<glyph unicode="M" horiz-adv-x="786" d="M709 0h-112v438l-169 -438h-71l-167 438v-438h-113v700h101l217 -527l213 527h101v-700z" />
<glyph unicode="N" horiz-adv-x="694" d="M617 0h-91l-336 494v-494h-113v700h93l335 -503v503h112v-700z" />
<glyph unicode="O" horiz-adv-x="761" d="M721 351q0 -159 -87 -262.5t-253 -103.5q-85 0 -151.5 29t-107.5 80t-61.5 116t-20.5 141q0 163 91.5 262.5t249.5 99.5q157 0 248.5 -99.5t91.5 -262.5zM607 351q0 121 -60.5 191.5t-165.5 70.5t-166 -70.5t-61 -191.5q0 -117 56.5 -191.5t170.5 -74.5q113 0 169.5 74.5 t56.5 191.5z" />
<glyph unicode="P" horiz-adv-x="644" d="M190 0h-113v700h284q122 0 189.5 -64t67.5 -192q0 -122 -67.5 -182.5t-189.5 -60.5h-171v-201zM190 301h171q72 0 107.5 34.5t35.5 108.5q0 80 -35.5 118t-107.5 38h-171v-299z" />
<glyph unicode="Q" horiz-adv-x="763" d="M594 -168v-101q-130 0 -197.5 59.5t-71.5 197.5q-140 16 -212 116.5t-72 246.5q0 163 91.5 262.5t249.5 99.5q157 0 248.5 -99.5t91.5 -262.5q0 -147 -74 -248t-215 -115q3 -88 41.5 -122t119.5 -34zM608 351q0 121 -60.5 191.5t-165.5 70.5t-166 -70.5t-61 -191.5 q0 -117 56.5 -191.5t170.5 -74.5q113 0 169.5 74.5t56.5 191.5z" />
<glyph unicode="R" horiz-adv-x="659" d="M631 100l31 -67q-5 -4 -13.5 -10.5t-37.5 -17.5t-61 -11q-56 0 -87 20t-52 71l-67 165q-21 -3 -47 -3h-107v-247h-113v700h249q244 0 244 -223q0 -154 -114 -205l63 -149q17 -41 54 -41q12 0 26.5 4.5t22.5 9.5zM190 344h120q77 0 112 33t35 100q0 63 -30 93t-95 30h-142 v-256z" />
<glyph unicode="S" horiz-adv-x="622" d="M577 641l-40 -98q-9 8 -26 19t-74 29.5t-121 18.5q-74 0 -110.5 -26.5t-36.5 -69.5q0 -48 40 -73t119 -41q136 -26 195 -69t59 -137q0 -92 -69 -150.5t-200 -58.5q-58 0 -108 10t-80.5 24.5t-53 29.5t-31.5 25l-9 10l51 89q3 -4 9.5 -9.5t29 -21t47 -27t64 -21t81.5 -9.5 q71 0 110 26.5t39 73.5t-29.5 68t-123.5 41q-63 13 -104.5 26.5t-80 37t-57 60t-18.5 87.5q-1 87 67.5 147.5t197.5 60.5q74 0 139.5 -18t94.5 -36z" />
<glyph unicode="T" horiz-adv-x="632" d="M372 0h-113v601h-253v99h620v-99h-254v-601z" />
<glyph unicode="U" horiz-adv-x="682" d="M500 291v409h112v-404q0 -168 -64 -238.5t-209 -72.5q-140 2 -204.5 73t-64.5 238v404h112v-409q0 -111 37 -159t120 -48q86 0 123.5 46.5t37.5 160.5z" />
<glyph unicode="V" horiz-adv-x="680" d="M405 0h-129l-267 700h135l196 -565l198 565h133z" />
<glyph unicode="W" horiz-adv-x="1012" d="M776 0h-129l-142 517l-140 -517h-129l-221 700h134l150 -544l148 544h116l149 -544l150 544h133z" />
<glyph unicode="X" horiz-adv-x="656" d="M650 0h-140l-186 272l-181 -272h-136l245 351l-245 349h140l185 -274l181 274h137l-246 -353z" />
<glyph unicode="Y" horiz-adv-x="671" d="M392 0h-112v261l-269 439h136l189 -328l191 328h133l-268 -440v-260z" />
<glyph unicode="Z" horiz-adv-x="578" d="M538 0h-498v95l351 505h-351v100h498v-94l-352 -506h352v-100z" />
<glyph unicode="[" horiz-adv-x="329" d="M302 -297h-232v1064h232v-91h-136v-882h136v-91z" />
<glyph unicode="\" horiz-adv-x="401" d="M375 -248h-101l-248 948h101z" />
<glyph unicode="]" horiz-adv-x="329" d="M259 -297h-233v91h137v882h-137v91h233v-1064z" />
<glyph unicode="^" horiz-adv-x="487" d="M443 513h-84l-113 193l-119 -193h-84l148 264h110z" />
<glyph unicode="_" horiz-adv-x="468" d="M409 -78h-350v73h350v-73z" />
<glyph unicode="`" horiz-adv-x="253" d="M221 547h-96l-109 200h126z" />
<glyph unicode="a" horiz-adv-x="519" d="M503 90l16 -63q-42 -33 -101 -33q-68 0 -84 56h-1q-65 -65 -158 -65q-67 0 -106.5 32.5t-39.5 96.5q0 132 234 132q34 0 64 -7v65q0 48 -25.5 68.5t-87.5 20.5q-32 0 -66.5 -7t-53.5 -14l-18 -7l-20 85q83 32 184 32q96 0 144 -40t48 -115v-221q0 -29 23 -29q8 0 20 3.5 t20 6.5zM327 114v61q-28 5 -61 5q-132 0 -132 -60q0 -52 71 -52q74 0 122 46z" />
<glyph unicode="b" horiz-adv-x="544" d="M59 61v659l105 30v-330q57 62 139 62q99 0 152 -70t53 -182q0 -108 -67 -176.5t-179 -68.5q-58 0 -108.5 19t-72.5 38zM162 338v-237q35 -28 105 -28q62 0 99 41.5t37 116.5q0 163 -128 163q-69 0 -113 -56z" />
<glyph unicode="c" horiz-adv-x="479" d="M423 132l34 -81q-3 -3 -8 -7.5t-23 -15.5t-38 -20t-51.5 -16t-65.5 -7q-111 0 -173 69.5t-62 179.5q0 107 61 177.5t177 70.5q48 0 89 -11.5t58 -22.5l17 -12l-38 -81q-4 4 -12 10t-38.5 16t-67.5 10q-68 0 -103.5 -44t-35.5 -113q0 -70 36 -114t101 -44q41 0 77 14 t51 28z" />
<glyph unicode="d" horiz-adv-x="577" d="M558 90l15 -63q-41 -33 -101 -33q-67 0 -84 58h-1q-59 -67 -146 -67q-98 0 -151 70t-53 182q0 108 63 176.5t168 68.5q63 0 113 -28v266l105 30v-644q0 -29 23 -29q8 0 20.5 3.5t20.5 6.5zM384 131v230q-39 32 -105 32q-63 0 -100 -41t-37 -115q0 -163 129 -163 q65 0 113 57z" />
<glyph unicode="e" horiz-adv-x="509" d="M467 203h-326q8 -60 42.5 -95t95.5 -35q41 0 77 12.5t52 24.5l16 13l32 -69q-3 -3 -8.5 -7.5t-23.5 -16.5t-37.5 -21t-50.5 -16.5t-62 -7.5q-116 0 -177.5 70.5t-61.5 178.5q0 107 60 177.5t174 70.5q45 0 81.5 -14.5t59.5 -37.5t38.5 -52t22 -55.5t6.5 -51.5 q0 -18 -2.5 -35t-4.5 -25zM140 271h240v8q0 50 -29 84.5t-83 34.5q-55 0 -88 -34.5t-40 -92.5z" />
<glyph unicode="f" horiz-adv-x="364" d="M201 0h-105v379h-76l18 89h58v89q0 194 170 194q30 0 58 -7.5t41 -15.5l13 -7l-32 -79q-26 15 -70 15q-39 0 -57 -23.5t-18 -76.5v-89h149v-89h-149v-379z" />
<glyph unicode="g" horiz-adv-x="510" d="M263 105l-24 1q-6 0 -14.5 -1.5t-22 -5t-22.5 -13.5t-9 -24q0 -19 21.5 -25.5t67.5 -6.5q232 0 232 -151q0 -72 -58 -114t-172 -42q-113 0 -173 39.5t-60 106.5q0 81 86 117q-41 22 -41 70t57 75q-96 47 -96 161q0 81 56.5 135.5t170.5 54.5q35 0 81 -11q60 9 60 170h99 q0 -157 -88 -205q66 -53 66 -144q0 -85 -57 -136t-160 -51zM374 289q0 45 -29.5 75.5t-84.5 30.5q-59 0 -89 -30.5t-30 -75.5q0 -103 121 -103q55 0 83.5 26.5t28.5 76.5zM189 -48q-57 -22 -57 -73q0 -75 130 -75q127 0 127 74q0 71 -129 71q-37 0 -71 3z" />
<glyph unicode="h" horiz-adv-x="560" d="M545 90l16 -63q-42 -33 -102 -33q-49 0 -69.5 24t-20.5 78v185q0 58 -19 83t-63 25q-64 0 -120 -63v-326h-105v720l105 30v-344l5 6q5 5 8 7.5t10 9t12.5 10.5t14.5 10t16.5 10t18.5 9t21 7.5t22.5 4.5t24.5 2q76 0 115 -46t39 -132v-198q0 -16 4.5 -22.5t17.5 -6.5 q9 0 21 3.5t20 6.5z" />
<glyph unicode="i" horiz-adv-x="229" d="M167 0h-105v468h105v-468zM182 617q0 -30 -19 -49.5t-49 -19.5t-49 19.5t-19 49.5q0 29 19 48.5t49 19.5t49 -19.5t19 -48.5z" />
<glyph unicode="j" horiz-adv-x="229" d="M58 -270l-56 54q2 2 6.5 6t14.5 17t18 28t14.5 39.5t6.5 50.5v543h105v-541q0 -44 -11 -80.5t-27.5 -57t-32.5 -35t-27 -19.5zM182 617q0 -30 -19 -49.5t-49 -19.5t-49 19.5t-19 49.5q0 29 19 48.5t49 19.5t49 -19.5t19 -48.5z" />
<glyph unicode="k" horiz-adv-x="550" d="M522 94l24 -60q-4 -4 -12 -11t-35 -18t-56 -11q-45 0 -72.5 19.5t-49.5 61.5l-53 102q-16 -2 -23 -2h-78v-175h-105v720l105 30v-490h78q57 0 85 49.5t28 158.5h105q0 -201 -97 -266l54 -96q17 -29 47 -29q12 0 25.5 4.5t21.5 8.5z" />
<glyph unicode="l" horiz-adv-x="272" d="M260 93l15 -64q-49 -35 -121 -35q-51 0 -72.5 24t-21.5 78v624l105 30v-640q0 -33 28 -33q12 0 28.5 4t27.5 8z" />
<glyph unicode="m" horiz-adv-x="853" d="M839 90l15 -63q-41 -33 -101 -33q-49 0 -70 24t-21 78v185q0 58 -19 83t-62 25q-58 0 -112 -54q3 -22 3 -45v-290h-105v281q0 58 -19 83t-62 25q-65 0 -121 -63v-326h-105v446l105 30v-70l5 6q5 5 8 7.5t10 9t12.5 10.5t14.5 10t16.5 10t18.5 9t21 7.5t22.5 4.5t24.5 2 q103 0 137 -85q5 8 15.5 18.5t30.5 27.5t50 28t63 11q76 0 114.5 -46t38.5 -132v-198q0 -29 23 -29q8 0 20.5 3.5t20.5 6.5z" />
<glyph unicode="n" horiz-adv-x="558" d="M543 90l16 -63q-42 -33 -101 -33q-49 0 -70 24t-21 78v185q0 56 -19 80.5t-62 24.5q-58 0 -121 -60v-326h-105v446l105 30v-70l5 6q5 5 8 7.5t10 9t12.5 10.5t14.5 10t16.5 10t18.5 9t21 7.5t22.5 4.5t24.5 2q76 0 115 -46t39 -132v-198q0 -29 22 -29q9 0 21 3.5t20 6.5z " />
<glyph unicode="o" horiz-adv-x="548" d="M512 233q0 -107 -62 -177.5t-176 -70.5t-176.5 70.5t-62.5 177.5t62 178t177 71t176.5 -71t61.5 -178zM274 74q64 0 98.5 44t34.5 115q0 70 -34 115t-99 45t-99 -45t-34 -115q0 -71 34.5 -115t98.5 -44z" />
<glyph unicode="p" horiz-adv-x="548" d="M165 -263h-105v709l105 30v-61q52 67 142 67q98 0 150.5 -69t52.5 -183q0 -113 -61 -179t-164 -66q-68 0 -120 28v-276zM163 335v-230q38 -31 111 -31q60 0 95.5 40.5t35.5 115.5q0 163 -129 163q-67 0 -113 -58z" />
<glyph unicode="q" horiz-adv-x="543" d="M484 -263h-105v308q-57 -60 -139 -60q-97 0 -150.5 70.5t-53.5 181.5q0 108 67 176.5t180 68.5q36 0 70 -8t57 -19t40.5 -22.5t26 -19t7.5 -8.5v-668zM382 128v237q-38 29 -104 29q-63 0 -100 -41.5t-37 -116.5q0 -163 127 -163q64 0 114 55z" />
<glyph unicode="r" horiz-adv-x="380" d="M165 0h-105v446l105 30v-93q1 1 5.5 8t8.5 12t11 13.5t13.5 15t15.5 15t18.5 14t20.5 11t23.5 8t25.5 2.5q21 0 38.5 -4.5t24.5 -9.5l6 -4l-29 -91q-16 13 -60 13q-64 0 -122 -89v-297z" />
<glyph unicode="s" horiz-adv-x="475" d="M431 437l-30 -82q-6 4 -16.5 10.5t-48.5 17.5t-80 11q-100 0 -100 -63q0 -16 7 -26.5t22.5 -17.5t29 -10t38.5 -8q7 -1 11 -2q37 -7 62 -14.5t54.5 -23t45 -42.5t15.5 -65q0 -64 -52 -100.5t-150 -36.5q-62 0 -114.5 15t-73.5 30l-21 15l34 78q7 -6 20.5 -14.5t58 -23 t91.5 -14.5q44 0 69 14t25 38q0 21 -15.5 34t-32.5 18t-53 12q-91 18 -124 37q-60 35 -60 111q0 60 51.5 103.5t156.5 43.5q51 0 96 -11t65 -23z" />
<glyph unicode="t" horiz-adv-x="390" d="M346 104l32 -79q-51 -40 -128 -40q-155 0 -155 164v230h-76l18 89h58v112l105 30v-142h151v-89h-151v-223q0 -41 15.5 -59t49.5 -18q23 0 43 6.5t29 12.5z" />
<glyph unicode="u" horiz-adv-x="559" d="M539 90l16 -63q-42 -33 -101 -33q-70 0 -85 60h-1q-69 -69 -158 -69q-76 0 -115 46t-39 132v298l105 10v-285q0 -58 19.5 -83t61.5 -25q65 0 121 53v315l105 30v-370q0 -29 22 -29q9 0 21 3.5t20 6.5z" />
<glyph unicode="v" horiz-adv-x="516" d="M315 0h-115l-187 468h121l123 -360l124 360h121z" />
<glyph unicode="w" horiz-adv-x="744" d="M571 0h-120l-81 325l-76 -325h-120l-156 468h114l100 -362l87 362h101l92 -365l101 365h114z" />
<glyph unicode="x" horiz-adv-x="508" d="M492 0h-131l-107 165l-108 -165h-131l166 223l-166 245h129l108 -174l112 174h131l-171 -236z" />
<glyph unicode="y" horiz-adv-x="506" d="M208 -263h-104l104 263h-12l-181 468h114l126 -358l122 358h116z" />
<glyph unicode="z" horiz-adv-x="491" d="M451 0h-410v84l270 295h-270v89h410v-81l-267 -297h267v-90z" />
<glyph unicode="{" horiz-adv-x="313" d="M281 -192v-91q-87 0 -137.5 43t-50.5 149v221q0 62 -51 62h-13v91h13q22 0 36.5 15t14.5 48v212q0 106 50.5 149t137.5 43v-91q-92 0 -92 -104v-234q0 -28 -9.5 -47t-18.5 -25.5t-17 -7.5q45 -18 45 -80v-249q0 -56 23.5 -80t68.5 -24z" />
<glyph unicode="|" horiz-adv-x="235" d="M165 -297h-95v1061h95v-1061z" />
<glyph unicode="}" horiz-adv-x="313" d="M31 -283v91q45 0 68.5 24t23.5 80v249q0 62 45 80q-7 1 -16 7.5t-19 25.5t-10 47v234q0 104 -92 104v91q87 0 137.5 -43t50.5 -149v-212q0 -33 15 -48t37 -15h12v-91h-12q-22 0 -37 -14.5t-15 -47.5v-221q0 -106 -50.5 -149t-137.5 -43z" />
<glyph unicode="~" horiz-adv-x="468" d="M364 401l58 -35q-1 -4 -4 -10t-13 -22t-22.5 -28.5t-34 -22.5t-46.5 -10q-33 0 -70.5 29t-59.5 29q-18 0 -35.5 -12.5t-26.5 -24.5l-8 -12l-55 45q1 3 4 8.5t14 19.5t24.5 24.5t35.5 19.5t47 9q36 0 76.5 -29t55.5 -29q16 0 31 13t22 25z" />
<glyph unicode="&#xa1;" horiz-adv-x="241" d="M193 409q0 -30 -21 -51.5t-51 -21.5t-51 21.5t-21 51.5t21 51.5t51 21.5t51 -21.5t21 -51.5zM184 -233h-128l21 500h87z" />
<glyph unicode="&#xa2;" horiz-adv-x="478" d="M416 132l34 -81q-7 -7 -21.5 -18t-63 -29.5t-102.5 -18.5q-111 0 -173 69.5t-62 179.5q0 107 61.5 177.5t176.5 70.5q49 0 90 -11.5t58 -22.5l17 -12l-38 -81q-4 4 -12.5 10t-39.5 16t-68 10q-66 0 -101.5 -44t-35.5 -113q0 -70 35.5 -114t101.5 -44q41 0 76.5 14 t50.5 28zM311 525h-70l-14 185h98zM325 -252h-98l14 185h70z" />
<glyph unicode="&#xa3;" horiz-adv-x="572" d="M436 240h-164q2 -16 2 -25q0 -64 -51 -115h309v-100h-445v100q8 5 20 14.5t32.5 39.5t20.5 61q0 13 -3 25h-118v83h84q-18 34 -27 54t-19 57.5t-10 76.5q0 87 62.5 144.5t173.5 57.5q63 0 119.5 -18t81.5 -36l25 -18l-46 -90q-3 3 -7.5 7t-21.5 14.5t-35.5 19t-48 15 t-60.5 6.5q-62 0 -93.5 -32t-31.5 -77q0 -17 1.5 -33t5.5 -31.5t7 -25.5t10.5 -26t10.5 -21.5t12 -23t11 -20.5h193v-83z" />
<glyph unicode="&#xa5;" horiz-adv-x="693" d="M129 142v68h161v51l-267 439h135l189 -328l191 328h132l-267 -440v-50h151v-68h-151v-142h-113v142h-161zM246 285l-46 68h-103v-68h149zM447 285l46 68h103v-68h-149z" />
<glyph unicode="&#xa6;" horiz-adv-x="238" d="M166 336h-94v428h94v-428zM166 -297h-94v460h94v-460z" />
<glyph unicode="&#xa7;" horiz-adv-x="632" d="M587 194q0 -87 -61 -144q61 -46 61 -138t-69 -150.5t-200 -58.5q-58 0 -108 10t-80.5 24.5t-53 29.5t-31.5 25l-9 10l51 89q3 -4 9.5 -9.5t29 -21t47 -27t64 -21t81.5 -9.5q71 0 110 26.5t39 73.5t-29.5 68t-123.5 41q-63 13 -104.5 26.5t-80 37t-57 60t-18.5 87.5 q-2 87 62 143q-62 49 -62 139q-1 87 67.5 147.5t197.5 60.5q74 0 139.5 -18t94.5 -36l29 -18l-40 -98q-9 8 -26 19t-74 29.5t-121 18.5q-74 0 -110.5 -26.5t-36.5 -69.5q0 -48 40 -73t119 -41q136 -26 195 -69t59 -137zM314 294q-49 10 -82 19q-58 -25 -58 -81q0 -48 40 -73 t119 -41q37 -7 76 -17q58 27 58 84q0 47 -29.5 68t-123.5 41z" />
<glyph unicode="&#xa8;" horiz-adv-x="342" d="M145 606q0 -27 -18.5 -46t-45.5 -19q-26 0 -44.5 19.5t-18.5 45.5q0 27 18.5 46t44.5 19q27 0 45.5 -19t18.5 -46zM322 606q0 -27 -18.5 -46t-45.5 -19t-45 19t-18 46t18 46t45 19t45.5 -19t18.5 -46z" />
<glyph unicode="&#xa9;" horiz-adv-x="647" d="M433 341l31 -48q-6 -6 -17.5 -15t-47 -23.5t-72.5 -14.5q-80 0 -121.5 52.5t-41.5 132.5q0 81 43 130t120 49q34 0 63.5 -10t41.5 -20l13 -11l-30 -50q-33 31 -88 31q-99 0 -99 -119q0 -53 25 -89t74 -36q31 0 57.5 10t37.5 20zM600 428q0 -132 -70 -219.5t-204 -87.5 q-136 0 -207.5 87.5t-71.5 219.5q0 130 72 213t207 83q134 0 204 -83t70 -213zM326 180q105 0 159.5 70t54.5 178q0 104 -57 170t-157 66q-101 0 -159.5 -65t-58.5 -171q0 -110 55.5 -179t162.5 -69z" />
<glyph unicode="&#xaa;" horiz-adv-x="359" d="M302 517l6 -37q-19 -11 -44 -11q-35 0 -43 27v1q-31 -33 -77 -33q-40 0 -61 18t-21 47q0 37 27.5 54.5t90.5 17.5q18 0 38 -2v25q0 21 -12 30t-43 9q-20 0 -37.5 -3.5t-25.5 -6.5l-7 -3l-15 44q32 19 86 19q104 0 104 -86v-98q0 -17 13 -17zM299 374h-241v54h241v-54z M218 536v25q-15 3 -37 3q-69 0 -69 -31q0 -24 35 -24q37 0 71 27z" />
<glyph unicode="&#xab;" horiz-adv-x="523" d="M284 50l-58 -59l-186 189v73l186 190l56 -59l-142 -168zM485 50l-58 -59l-186 189v73l186 190l56 -59l-142 -168z" />
<glyph unicode="&#xac;" horiz-adv-x="510" d="M446 102h-90v131h-297v88h387v-219z" />
<glyph unicode="&#xad;" horiz-adv-x="379" d="M320 230h-261v98h261v-98z" />
<glyph unicode="&#xae;" horiz-adv-x="647" d="M600 428q0 -132 -70 -219.5t-204 -87.5q-136 0 -207.5 87.5t-71.5 219.5q0 130 72 213t207 83q134 0 204 -83t70 -213zM326 180q105 0 159.5 70t54.5 178q0 104 -57 170t-157 66q-101 0 -159.5 -65t-58.5 -171q0 -110 55.5 -179t162.5 -69zM476 306l15 -44 q-20 -16 -48 -16q-55 0 -75 43l-40 90q-8 -1 -20 -1h-40v-129h-63v350h121q118 0 118 -108q0 -77 -56 -101l33 -69q11 -23 30 -23q8 0 14 2t9 4zM268 435h47q34 0 49.5 13t15.5 42q0 51 -54 51h-58v-106z" />
<glyph unicode="&#xaf;" horiz-adv-x="244" d="M224 548h-193v80h193v-80z" />
<glyph unicode="&#xb0;" horiz-adv-x="364" d="M321 616q0 -67 -37 -108.5t-102 -41.5t-102 41.5t-37 108.5q0 68 36.5 108.5t102.5 40.5t102.5 -40.5t36.5 -108.5zM182 531q33 0 52 23t19 62q0 38 -19 59.5t-52 21.5q-32 0 -51 -22t-19 -59q0 -39 18.5 -62t51.5 -23z" />
<glyph unicode="&#xb1;" horiz-adv-x="441" d="M380 315h-115v-128h-84v128h-122v88h122v135h84v-135h115v-88zM380 66h-321v88h321v-88z" />
<glyph unicode="&#xb2;" horiz-adv-x="360" d="M300 356h-238v56l90 74q5 4 18 14.5t18.5 15.5t15.5 15t14 17.5t7.5 18.5t3.5 23q0 23 -16.5 38t-46.5 15q-26 0 -49.5 -8.5t-34.5 -16.5l-10 -8l-26 58q6 5 16 12.5t42.5 20t65.5 12.5q61 0 96 -33t35 -85q0 -32 -13.5 -59.5t-27 -41.5t-42.5 -40l-34 -30h116v-68z" />
<glyph unicode="&#xb3;" horiz-adv-x="354" d="M140 502v65q26 0 42 2t30 12t14 29q0 36 -58 36q-24 0 -46.5 -8t-33.5 -16l-10 -9l-26 55q6 5 16 12.5t40.5 20t61.5 12.5q58 0 92.5 -25.5t34.5 -65.5q0 -73 -66 -86q77 -12 77 -87q0 -45 -37 -73t-99 -28q-36 0 -68.5 13.5t-47.5 26.5l-14 14l28 54q4 -5 11.5 -11.5 t33.5 -18t55 -11.5q67 0 67 38q0 49 -97 49z" />
<glyph unicode="&#xb4;" horiz-adv-x="287" d="M137 547h-96l79 200h127z" />
<glyph unicode="&#xb5;" horiz-adv-x="520" d="M546 90l16 -63q-42 -33 -101 -33q-70 0 -85 60h-1q-69 -69 -158 -69q-27 0 -49 6v-254h-105v724l105 10v-285q0 -58 19.5 -83t61.5 -25q65 0 121 53v315l105 30v-370q0 -29 22 -29q9 0 21 3.5t20 6.5z" />
<glyph unicode="&#xb6;" horiz-adv-x="683" d="M399 0h-112v228h-16q-115 0 -177.5 59t-62.5 178t62.5 177t177.5 58h128v-700zM604 0h-112v700h112v-700z" />
<glyph unicode="&#xb7;" horiz-adv-x="254" d="M201 314q0 -32 -21.5 -53.5t-52.5 -21.5q-32 0 -53.5 21.5t-21.5 53.5q0 31 21.5 53t53.5 22q31 0 52.5 -22t21.5 -53z" />
<glyph unicode="&#xb8;" horiz-adv-x="225" d="M31 -161l19 42q18 -16 53 -16q32 0 32 26q0 29 -76 29l26 81h57l-15 -43q27 -2 46.5 -18.5t19.5 -48.5q0 -35 -23 -56.5t-64 -21.5q-20 0 -38.5 6.5t-27.5 12.5z" />
<glyph unicode="&#xb9;" horiz-adv-x="305" d="M241 356h-71v274l-119 -78l-32 55q150 99 151 99h71v-350z" />
<glyph unicode="&#xba;" horiz-adv-x="362" d="M247 587q0 75 -66 75q-34 0 -50 -20.5t-16 -54.5q0 -33 17 -52.5t49 -19.5q33 0 49.5 19.5t16.5 52.5zM301 428v-54h-241v54h241zM298 587q0 -53 -31 -88t-86 -35q-54 0 -85 35t-31 88q0 55 29 90.5t87 35.5t87.5 -35.5t29.5 -90.5z" />
<glyph unicode="&#xbb;" horiz-adv-x="523" d="M485 180l-187 -189l-58 59l143 166l-142 168l57 59l187 -190v-73zM283 180l-187 -189l-57 59l143 166l-142 168l56 59l187 -190v-73z" />
<glyph unicode="&#xbc;" horiz-adv-x="676" d="M606 -3h-68v76h-162v60l110 211h70l-104 -207h86v80h68v-80h36v-64h-36v-76zM247 356h-72v274l-118 -78l-31 55q148 99 149 99h72v-350zM159 -15h-91l448 728h91z" />
<glyph unicode="&#xbd;" horiz-adv-x="704" d="M247 356h-72v274l-118 -78l-31 55q148 99 149 99h72v-350zM159 -15h-91l448 728h91zM660 0h-239v56l92 74q4 3 21 17t22.5 19.5t15.5 17.5t13.5 24t3.5 26q0 23 -17 38t-46 15q-26 0 -50 -8.5t-34 -16.5l-11 -8l-26 58q6 5 16.5 12.5t43 20t65.5 12.5q61 0 96 -33t35 -85 q0 -32 -13.5 -59.5t-27 -41.5t-42.5 -40l-34 -30h116v-68z" />
<glyph unicode="&#xbe;" horiz-adv-x="684" d="M190 -15h-92l449 728h91zM129 502v65q25 0 41 2t30 12t14 29q0 36 -57 36q-24 0 -46.5 -8t-32.5 -16l-11 -9l-26 55q6 5 16 12.5t40.5 20t61.5 12.5q57 0 91.5 -25.5t34.5 -65.5q0 -73 -65 -86q77 -12 77 -87q0 -45 -37 -73t-100 -28q-36 0 -68.5 13.5t-47.5 26.5l-14 14 l29 54q4 -5 11.5 -11.5t33.5 -18t55 -11.5q67 0 67 38q0 49 -97 49zM611 -3h-68v76h-162v60l110 211h69l-103 -207h86v80h68v-80h36v-64h-36v-76z" />
<glyph unicode="&#xbf;" horiz-adv-x="509" d="M440 -79l48 -88q-4 -3 -10.5 -8.5t-29 -19t-47 -24t-63 -19t-78.5 -8.5q-107 0 -167 60t-60 156q0 50 19 94t46.5 71.5t54.5 47.5t46 29l19 8v68h102v-122q-7 -2 -18.5 -6.5t-41 -21t-52 -36.5t-41 -55.5t-18.5 -76.5q0 -51 32.5 -83.5t85.5 -32.5q46 0 89.5 17t63.5 33z M345 409q0 -30 -21 -51.5t-51 -21.5t-51 21.5t-21 51.5t21 51.5t51 21.5t51 -21.5t21 -51.5z" />
<glyph unicode="&#xc0;" d="M637 0h-119l-58 172h-271l-58 -172h-119l251 700h123zM424 268l-100 298l-101 -298h201zM366 754h-96l-109 200h126z" />
<glyph unicode="&#xc1;" d="M637 0h-119l-58 172h-271l-58 -172h-119l251 700h123zM424 268l-100 298l-101 -298h201zM375 752h-96l79 200h127z" />
<glyph unicode="&#xc2;" d="M478 754h-86l-68 117l-68 -117h-86l96 200h116zM637 0h-119l-58 172h-271l-58 -172h-119l251 700h123zM424 268l-100 298l-101 -298h201z" />
<glyph unicode="&#xc3;" d="M637 0h-119l-58 172h-271l-58 -172h-119l251 700h123zM424 268l-100 298l-101 -298h201zM451 881l59 -34q-1 -4 -4 -10t-13 -22t-22.5 -28.5t-34 -22.5t-46.5 -10q-33 0 -70.5 29t-58.5 29q-19 0 -36.5 -12.5t-26.5 -25.5l-8 -12l-54 45q1 3 4 8.5t14 20t24.5 25 t35.5 19.5t47 9q35 0 75 -29.5t55 -29.5q17 0 32 13t21 25z" />
<glyph unicode="&#xc4;" d="M298 818q0 -27 -18.5 -46t-45.5 -19q-26 0 -44.5 19.5t-18.5 45.5q0 27 18.5 46t44.5 19q27 0 45.5 -19t18.5 -46zM475 818q0 -27 -18.5 -46t-45.5 -19t-45 19t-18 46t18 46t45 19t45.5 -19t18.5 -46zM637 0h-119l-58 172h-271l-58 -172h-119l251 700h123zM424 268 l-100 298l-101 -298h201z" />
<glyph unicode="&#xc5;" d="M637 0h-119l-58 172h-271l-58 -172h-119l251 700h123zM424 268l-100 298l-101 -298h201zM323 750q-32 0 -52 21.5t-20 55.5t20 55.5t52 21.5t52 -21.5t20 -55.5t-20 -55.5t-52 -21.5zM348 827q0 29 -25 29t-25 -29t25 -29t25 29z" />
<glyph unicode="&#xc6;" horiz-adv-x="988" d="M947 0h-493v172h-235l-93 -172h-119l393 700h547v-100h-381v-208h306v-95h-306v-197h381v-100zM454 268v326l-175 -326h175z" />
<glyph unicode="&#xc7;" horiz-adv-x="678" d="M304 -161l19 42q18 -16 53 -16q32 0 32 26q0 29 -76 29l21 67q-82 7 -143.5 38.5t-97.5 82t-53.5 112.5t-17.5 136q0 163 93 260t262 97q72 0 129.5 -16.5t79.5 -32.5l22 -17l-46 -94l-6.5 6.5t-21 14.5t-36 18t-52.5 14.5t-69 6.5q-109 0 -174 -69t-65 -188 q0 -120 60.5 -195.5t182.5 -75.5q60 0 117.5 20.5t84.5 40.5l28 20l32 -94q-4 -3 -10.5 -8.5t-30.5 -20t-51 -26t-71 -21.5t-90 -11l-9 -27q27 -2 46.5 -18.5t19.5 -48.5q0 -35 -23 -56.5t-64 -21.5q-20 0 -38.5 6.5t-27.5 12.5z" />
<glyph unicode="&#xc8;" horiz-adv-x="611" d="M570 0h-493v700h493v-100h-380v-208h305v-95h-305v-197h380v-100zM382 754h-96l-109 200h126z" />
<glyph unicode="&#xc9;" horiz-adv-x="611" d="M362 752h-96l79 200h127zM570 0h-493v700h493v-100h-380v-208h305v-95h-305v-197h380v-100z" />
<glyph unicode="&#xca;" horiz-adv-x="611" d="M484 753h-86l-68 117l-68 -117h-86l96 200h116zM570 0h-493v700h493v-100h-380v-208h305v-95h-305v-197h380v-100z" />
<glyph unicode="&#xcb;" horiz-adv-x="611" d="M306 818q0 -27 -18.5 -46t-45.5 -19q-26 0 -44.5 19.5t-18.5 45.5q0 27 18.5 46t44.5 19q27 0 45.5 -19t18.5 -46zM483 818q0 -27 -18.5 -46t-45.5 -19t-45 19t-18 46t18 46t45 19t45.5 -19t18.5 -46zM570 0h-493v700h493v-100h-380v-208h305v-95h-305v-197h380v-100z " />
<glyph unicode="&#xcc;" horiz-adv-x="267" d="M190 0h-113v700h113v-700zM182 754h-96l-109 200h126z" />
<glyph unicode="&#xcd;" horiz-adv-x="267" d="M190 0h-113v700h113v-700zM180 754h-96l79 200h127z" />
<glyph unicode="&#xce;" horiz-adv-x="267" d="M287 754h-86l-68 117l-68 -117h-86l96 200h116zM190 0h-113v700h113v-700z" />
<glyph unicode="&#xcf;" horiz-adv-x="267" d="M109 818q0 -27 -18.5 -46t-45.5 -19q-26 0 -44.5 19.5t-18.5 45.5q0 27 18.5 46t44.5 19q27 0 45.5 -19t18.5 -46zM286 818q0 -27 -18.5 -46t-45.5 -19t-45 19t-18 46t18 46t45 19t45.5 -19t18.5 -46zM190 0h-113v700h113v-700z" />
<glyph unicode="&#xd0;" horiz-adv-x="704" d="M321 0h-240v294h-57v88h57v318h240q165 0 252.5 -90.5t87.5 -263.5q0 -170 -90 -258t-250 -88zM194 100h112q119 -1 180 58t61 188q0 131 -61 192.5t-183 61.5h-109v-218h92v-88h-92v-194z" />
<glyph unicode="&#xd1;" horiz-adv-x="694" d="M476 881l59 -34q-1 -4 -4 -10t-13 -22t-22.5 -28.5t-34 -22.5t-46.5 -10q-33 0 -70.5 29t-58.5 29q-19 0 -36.5 -12.5t-25.5 -25.5l-9 -12l-54 45q1 3 4 8.5t14 20t24.5 25t35.5 19.5t47 9q27 0 52 -14.5t44.5 -29.5t33.5 -15q17 0 32 13t22 25zM617 0h-91l-336 494v-494 h-113v700h93l335 -503v503h112v-700z" />
<glyph unicode="&#xd2;" horiz-adv-x="761" d="M434 754h-96l-109 200h126zM721 351q0 -159 -87 -262.5t-253 -103.5q-85 0 -151.5 29t-107.5 80t-61.5 116t-20.5 141q0 163 91.5 262.5t249.5 99.5q157 0 248.5 -99.5t91.5 -262.5zM607 351q0 121 -60.5 191.5t-165.5 70.5t-166 -70.5t-61 -191.5q0 -117 56.5 -191.5 t170.5 -74.5q113 0 169.5 74.5t56.5 191.5z" />
<glyph unicode="&#xd3;" horiz-adv-x="761" d="M423 754h-96l79 200h127zM721 351q0 -159 -87 -262.5t-253 -103.5q-85 0 -151.5 29t-107.5 80t-61.5 116t-20.5 141q0 163 91.5 262.5t249.5 99.5q157 0 248.5 -99.5t91.5 -262.5zM607 351q0 121 -60.5 191.5t-165.5 70.5t-166 -70.5t-61 -191.5q0 -117 56.5 -191.5 t170.5 -74.5q113 0 169.5 74.5t56.5 191.5z" />
<glyph unicode="&#xd4;" horiz-adv-x="761" d="M534 753h-86l-68 117l-68 -117h-86l96 200h116zM721 351q0 -159 -87 -262.5t-253 -103.5q-85 0 -151.5 29t-107.5 80t-61.5 116t-20.5 141q0 163 91.5 262.5t249.5 99.5q157 0 248.5 -99.5t91.5 -262.5zM607 351q0 121 -60.5 191.5t-165.5 70.5t-166 -70.5t-61 -191.5 q0 -117 56.5 -191.5t170.5 -74.5q113 0 169.5 74.5t56.5 191.5z" />
<glyph unicode="&#xd5;" horiz-adv-x="761" d="M721 351q0 -159 -87 -262.5t-253 -103.5q-85 0 -151.5 29t-107.5 80t-61.5 116t-20.5 141q0 163 91.5 262.5t249.5 99.5q157 0 248.5 -99.5t91.5 -262.5zM607 351q0 121 -60.5 191.5t-165.5 70.5t-166 -70.5t-61 -191.5q0 -117 56.5 -191.5t170.5 -74.5q113 0 169.5 74.5 t56.5 191.5zM508 881l59 -34q-1 -4 -4 -10t-13 -22t-22.5 -28.5t-34 -22.5t-46.5 -10q-33 0 -70.5 29t-58.5 29q-19 0 -36.5 -12.5t-25.5 -25.5l-9 -12l-54 45q1 3 4 8.5t14 20t24.5 25t35.5 19.5t47 9q27 0 52 -14.5t44.5 -29.5t33.5 -15q17 0 32 13t22 25z" />
<glyph unicode="&#xd6;" horiz-adv-x="761" d="M355 818q0 -27 -18.5 -46t-45.5 -19q-26 0 -44.5 19.5t-18.5 45.5q0 27 18.5 46t44.5 19q27 0 45.5 -19t18.5 -46zM532 818q0 -27 -18.5 -46t-45.5 -19t-45 19t-18 46t18 46t45 19t45.5 -19t18.5 -46zM721 351q0 -159 -87 -262.5t-253 -103.5q-85 0 -151.5 29t-107.5 80 t-61.5 116t-20.5 141q0 163 91.5 262.5t249.5 99.5q157 0 248.5 -99.5t91.5 -262.5zM607 351q0 121 -60.5 191.5t-165.5 70.5t-166 -70.5t-61 -191.5q0 -117 56.5 -191.5t170.5 -74.5q113 0 169.5 74.5t56.5 191.5z" />
<glyph unicode="&#xd7;" horiz-adv-x="452" d="M330 106l-104 111l-105 -111l-68 69l105 111l-105 112l68 69l105 -112l104 112l68 -69l-104 -112l104 -111z" />
<glyph unicode="&#xd8;" horiz-adv-x="761" d="M721 351q0 -159 -87 -262.5t-253 -103.5q-23 0 -59 4l-36 -138h-70l40 153q-107 35 -161.5 128.5t-54.5 218.5q0 163 91.5 262.5t249.5 99.5q27 0 59 -5l24 91h70l-28 -106q102 -35 158.5 -125.5t56.5 -216.5zM154 351q0 -87 32 -152.5t96 -94.5l133 507q-22 2 -34 2 q-105 0 -166 -70.5t-61 -191.5zM607 351q0 88 -33.5 150.5t-93.5 90.5l-133 -505q22 -2 34 -2q113 0 169.5 74.5t56.5 191.5z" />
<glyph unicode="&#xd9;" horiz-adv-x="682" d="M500 291v409h112v-404q0 -168 -64 -238.5t-209 -72.5q-140 2 -204.5 73t-64.5 238v404h112v-409q0 -111 37 -159t120 -48q86 0 123.5 46.5t37.5 160.5zM384 754h-96l-109 200h126z" />
<glyph unicode="&#xda;" horiz-adv-x="682" d="M373 754h-96l79 200h127zM500 291v409h112v-404q0 -168 -64 -238.5t-209 -72.5q-140 2 -204.5 73t-64.5 238v404h112v-409q0 -111 37 -159t120 -48q86 0 123.5 46.5t37.5 160.5z" />
<glyph unicode="&#xdb;" horiz-adv-x="682" d="M493 754h-86l-68 117l-68 -117h-86l96 200h116zM500 291v409h112v-404q0 -168 -64 -238.5t-209 -72.5q-140 2 -204.5 73t-64.5 238v404h112v-409q0 -111 37 -159t120 -48q86 0 123.5 46.5t37.5 160.5z" />
<glyph unicode="&#xdc;" horiz-adv-x="682" d="M315 818q0 -27 -18.5 -46t-45.5 -19q-26 0 -44.5 19.5t-18.5 45.5q0 27 18.5 46t44.5 19q27 0 45.5 -19t18.5 -46zM492 818q0 -27 -18.5 -46t-45.5 -19t-45 19t-18 46t18 46t45 19t45.5 -19t18.5 -46zM500 291v409h112v-404q0 -168 -64 -238.5t-209 -72.5 q-140 2 -204.5 73t-64.5 238v404h112v-409q0 -111 37 -159t120 -48q86 0 123.5 46.5t37.5 160.5z" />
<glyph unicode="&#xdd;" horiz-adv-x="671" d="M392 0h-112v261l-269 439h136l189 -328l191 328h133l-268 -440v-260zM372 722h-96l79 200h127z" />
<glyph unicode="&#xde;" d="M361 102h-171v-102h-113v700h113v-99h171q122 0 189.5 -64t67.5 -192q0 -122 -67.5 -182.5t-189.5 -60.5zM190 202h171q143 0 143 143q0 80 -35.5 118t-107.5 38h-171v-299z" />
<glyph unicode="&#xdf;" horiz-adv-x="650" d="M200 0h-105v379h-75l18 89h57v92q0 95 52.5 143t143.5 48q95 0 150.5 -45t55.5 -132q0 -46 -16 -82t-34.5 -54.5t-34.5 -40.5t-16 -43q0 -22 24 -37.5t58 -28.5t68 -30.5t58 -52.5t24 -85q0 -63 -49 -99t-137 -36q-55 0 -100 17t-62 34l-17 16l31 73q6 -5 16.5 -13 t47 -21.5t77.5 -13.5q38 0 58.5 15.5t20.5 40.5q0 30 -23 50t-55.5 32t-65 26.5t-55.5 42.5t-23 70q0 28 15.5 54.5t33.5 45t33.5 49.5t15.5 67q0 42 -27.5 64t-71.5 22q-42 0 -66.5 -25t-24.5 -71v-560z" />
<glyph unicode="&#xe0;" horiz-adv-x="519" d="M503 90l16 -63q-42 -33 -101 -33q-68 0 -84 56h-1q-65 -65 -158 -65q-67 0 -106.5 32.5t-39.5 96.5q0 132 234 132q34 0 64 -7v65q0 48 -25.5 68.5t-87.5 20.5q-32 0 -66.5 -7t-53.5 -14l-18 -7l-20 85q83 32 184 32q96 0 144 -40t48 -115v-221q0 -29 23 -29q8 0 20 3.5 t20 6.5zM327 114v61q-28 5 -61 5q-132 0 -132 -60q0 -52 71 -52q74 0 122 46zM310 547h-96l-109 200h126z" />
<glyph unicode="&#xe1;" horiz-adv-x="519" d="M503 90l16 -63q-42 -33 -101 -33q-68 0 -84 56h-1q-65 -65 -158 -65q-67 0 -106.5 32.5t-39.5 96.5q0 132 234 132q34 0 64 -7v65q0 48 -25.5 68.5t-87.5 20.5q-32 0 -66.5 -7t-53.5 -14l-18 -7l-20 85q83 32 184 32q96 0 144 -40t48 -115v-221q0 -29 23 -29q8 0 20 3.5 t20 6.5zM327 114v61q-28 5 -61 5q-132 0 -132 -60q0 -52 71 -52q74 0 122 46zM281 548h-96l79 200h127z" />
<glyph unicode="&#xe2;" horiz-adv-x="519" d="M406 546h-86l-68 117l-68 -117h-86l96 200h116zM503 90l16 -63q-42 -33 -101 -33q-68 0 -84 56h-1q-65 -65 -158 -65q-67 0 -106.5 32.5t-39.5 96.5q0 132 234 132q34 0 64 -7v65q0 48 -25.5 68.5t-87.5 20.5q-32 0 -66.5 -7t-53.5 -14l-18 -7l-20 85q83 32 184 32 q96 0 144 -40t48 -115v-221q0 -29 23 -29q8 0 20 3.5t20 6.5zM327 114v61q-28 5 -61 5q-132 0 -132 -60q0 -52 71 -52q74 0 122 46z" />
<glyph unicode="&#xe3;" horiz-adv-x="519" d="M503 90l16 -63q-42 -33 -101 -33q-68 0 -84 56h-1q-65 -65 -158 -65q-67 0 -106.5 32.5t-39.5 96.5q0 132 234 132q34 0 64 -7v65q0 48 -25.5 68.5t-87.5 20.5q-32 0 -66.5 -7t-53.5 -14l-18 -7l-20 85q83 32 184 32q96 0 144 -40t48 -115v-221q0 -29 23 -29q8 0 20 3.5 t20 6.5zM327 114v61q-28 5 -61 5q-132 0 -132 -60q0 -52 71 -52q74 0 122 46zM378 657l59 -34q-1 -4 -4 -10t-13 -22t-22.5 -28.5t-34 -22.5t-46.5 -10q-33 0 -70.5 29t-58.5 29q-19 0 -36.5 -12.5t-25.5 -25.5l-9 -12l-54 45q1 3 4 8.5t14 20t24.5 25t35.5 19.5t47 9 q27 0 52 -14.5t44.5 -29.5t33.5 -15q17 0 32 13t22 25z" />
<glyph unicode="&#xe4;" horiz-adv-x="519" d="M221 606q0 -27 -18.5 -46t-45.5 -19q-26 0 -44.5 19.5t-18.5 45.5q0 27 18.5 46t44.5 19q27 0 45.5 -19t18.5 -46zM398 606q0 -27 -18.5 -46t-45.5 -19t-45 19t-18 46t18 46t45 19t45.5 -19t18.5 -46zM503 90l16 -63q-42 -33 -101 -33q-68 0 -84 56h-1q-65 -65 -158 -65 q-67 0 -106.5 32.5t-39.5 96.5q0 132 234 132q34 0 64 -7v65q0 48 -25.5 68.5t-87.5 20.5q-32 0 -66.5 -7t-53.5 -14l-18 -7l-20 85q83 32 184 32q96 0 144 -40t48 -115v-221q0 -29 23 -29q8 0 20 3.5t20 6.5zM327 114v61q-28 5 -61 5q-132 0 -132 -60q0 -52 71 -52 q74 0 122 46z" />
<glyph unicode="&#xe5;" horiz-adv-x="519" d="M503 90l16 -63q-42 -33 -101 -33q-68 0 -84 56h-1q-65 -65 -158 -65q-67 0 -106.5 32.5t-39.5 96.5q0 132 234 132q34 0 64 -7v65q0 48 -25.5 68.5t-87.5 20.5q-32 0 -66.5 -7t-53.5 -14l-18 -7l-20 85q83 32 184 32q96 0 144 -40t48 -115v-221q0 -29 23 -29q8 0 20 3.5 t20 6.5zM327 114v61q-28 5 -61 5q-132 0 -132 -60q0 -52 71 -52q74 0 122 46zM241 530q-32 0 -52 21.5t-20 55.5t20 55.5t52 21.5t52 -21.5t20 -55.5t-20 -55.5t-52 -21.5zM266 607q0 29 -25 29t-25 -29t25 -29t25 29z" />
<glyph unicode="&#xe6;" horiz-adv-x="803" d="M719 123l31 -69q-8 -8 -22.5 -19.5t-62 -30.5t-97.5 -19q-123 0 -188 85q-79 -85 -205 -85q-67 0 -106.5 32.5t-39.5 96.5q0 132 234 132q34 0 64 -7v65q0 48 -25.5 68.5t-87.5 20.5q-32 0 -66.5 -7t-53.5 -14l-18 -7l-20 85q83 32 184 32q115 0 161 -66q61 66 163 66 q55 0 97.5 -21.5t65 -55.5t33.5 -68t11 -66q0 -18 -2.5 -35t-4.5 -25l-2 -8h-327q8 -60 43 -95t96 -35q40 0 76.5 12.5t52.5 24.5zM675 271v7q0 51 -29 85.5t-83 34.5q-55 0 -88 -34.5t-41 -92.5h241zM335 175q-30 5 -69 5q-132 0 -132 -60q0 -52 71 -52q86 0 143 55 q-10 31 -13 52z" />
<glyph unicode="&#xe7;" horiz-adv-x="479" d="M194 -161l19 42q18 -16 53 -16q32 0 32 26q0 29 -76 29l21 67q-99 9 -153 76.5t-54 170.5q0 107 61 177.5t177 70.5q48 0 89 -11.5t58 -22.5l17 -12l-38 -81q-4 4 -12 10t-38.5 16t-67.5 10q-68 0 -103.5 -44t-35.5 -113q0 -70 36 -114t101 -44q41 0 77 14t51 28l15 14 l34 -81q-6 -6 -18 -15.5t-53 -27t-86 -21.5l-10 -29q27 -2 46.5 -18.5t19.5 -48.5q0 -35 -23 -56.5t-64 -21.5q-20 0 -38.5 6.5t-27.5 12.5z" />
<glyph unicode="&#xe8;" horiz-adv-x="509" d="M467 203h-326q8 -60 42.5 -95t95.5 -35q41 0 77 12.5t52 24.5l16 13l32 -69q-3 -3 -8.5 -7.5t-23.5 -16.5t-37.5 -21t-50.5 -16.5t-62 -7.5q-116 0 -177.5 70.5t-61.5 178.5q0 107 60 177.5t174 70.5q45 0 81.5 -14.5t59.5 -37.5t38.5 -52t22 -55.5t6.5 -51.5 q0 -18 -2.5 -35t-4.5 -25zM140 271h240v8q0 50 -29 84.5t-83 34.5q-55 0 -88 -34.5t-40 -92.5zM318 547h-96l-109 200h126z" />
<glyph unicode="&#xe9;" horiz-adv-x="509" d="M306 547h-96l79 200h127zM467 203h-326q8 -60 42.5 -95t95.5 -35q41 0 77 12.5t52 24.5l16 13l32 -69q-3 -3 -8.5 -7.5t-23.5 -16.5t-37.5 -21t-50.5 -16.5t-62 -7.5q-116 0 -177.5 70.5t-61.5 178.5q0 107 60 177.5t174 70.5q45 0 81.5 -14.5t59.5 -37.5t38.5 -52 t22 -55.5t6.5 -51.5q0 -18 -2.5 -35t-4.5 -25zM140 271h240v8q0 50 -29 84.5t-83 34.5q-55 0 -88 -34.5t-40 -92.5z" />
<glyph unicode="&#xea;" horiz-adv-x="509" d="M419 547h-86l-68 117l-68 -117h-86l96 200h116zM467 203h-326q8 -60 42.5 -95t95.5 -35q41 0 77 12.5t52 24.5l16 13l32 -69q-3 -3 -8.5 -7.5t-23.5 -16.5t-37.5 -21t-50.5 -16.5t-62 -7.5q-116 0 -177.5 70.5t-61.5 178.5q0 107 60 177.5t174 70.5q45 0 81.5 -14.5 t59.5 -37.5t38.5 -52t22 -55.5t6.5 -51.5q0 -18 -2.5 -35t-4.5 -25zM140 271h240v8q0 50 -29 84.5t-83 34.5q-55 0 -88 -34.5t-40 -92.5z" />
<glyph unicode="&#xeb;" horiz-adv-x="509" d="M244 606q0 -27 -18.5 -46t-45.5 -19q-26 0 -44.5 19.5t-18.5 45.5q0 27 18.5 46t44.5 19q27 0 45.5 -19t18.5 -46zM421 606q0 -27 -18.5 -46t-45.5 -19t-45 19t-18 46t18 46t45 19t45.5 -19t18.5 -46zM467 203h-326q8 -60 42.5 -95t95.5 -35q41 0 77 12.5t52 24.5l16 13 l32 -69q-3 -3 -8.5 -7.5t-23.5 -16.5t-37.5 -21t-50.5 -16.5t-62 -7.5q-116 0 -177.5 70.5t-61.5 178.5q0 107 60 177.5t174 70.5q45 0 81.5 -14.5t59.5 -37.5t38.5 -52t22 -55.5t6.5 -51.5q0 -18 -2.5 -35t-4.5 -25zM140 271h240v8q0 50 -29 84.5t-83 34.5q-55 0 -88 -34.5 t-40 -92.5z" />
<glyph unicode="&#xec;" horiz-adv-x="229" d="M167 0h-105v468h105v-468zM164 547h-96l-109 200h126z" />
<glyph unicode="&#xed;" horiz-adv-x="229" d="M166 547h-96l79 200h127zM167 0h-105v468h105v-468z" />
<glyph unicode="&#xee;" horiz-adv-x="229" d="M271 547h-86l-68 117l-68 -117h-86l96 200h116zM167 0h-105v468h105v-468z" />
<glyph unicode="&#xef;" horiz-adv-x="229" d="M90 606q0 -27 -18.5 -46t-45.5 -19q-26 0 -44.5 19.5t-18.5 45.5q0 27 18.5 46t44.5 19q27 0 45.5 -19t18.5 -46zM267 606q0 -27 -18.5 -46t-45.5 -19t-45 19t-18 46t18 46t45 19t45.5 -19t18.5 -46zM167 0h-105v468h105v-468z" />
<glyph unicode="&#xf0;" horiz-adv-x="594" d="M264 504l-39 41l55 63q-18 3 -37 3q-38 0 -71.5 -11.5t-47.5 -23.5l-15 -12l-49 91q8 6 22.5 16t63.5 26t102 16q58 0 109 -17l66 75l38 -41l-51 -59q71 -43 108 -125t37 -190q0 -78 -16 -143t-48.5 -117t-88.5 -81.5t-130 -29.5q-104 0 -169.5 63.5t-65.5 161.5 q0 111 62.5 171t177.5 60q86 0 163 -59q-10 151 -104 205zM272 86q66 0 110 51t55 150q-71 59 -160 59q-57 0 -90.5 -35t-33.5 -97q0 -55 33 -91.5t86 -36.5z" />
<glyph unicode="&#xf1;" horiz-adv-x="558" d="M397 657l59 -34q-1 -4 -4 -10t-13 -22t-22.5 -28.5t-34 -22.5t-46.5 -10q-33 0 -70.5 29t-58.5 29q-19 0 -36.5 -12.5t-26.5 -25.5l-8 -12l-54 45q1 3 4 8.5t14 20t24.5 25t35.5 19.5t47 9q35 0 75 -29.5t55 -29.5q17 0 32 13t21 25zM543 90l16 -63q-42 -33 -101 -33 q-49 0 -70 24t-21 78v185q0 56 -19 80.5t-62 24.5q-58 0 -121 -60v-326h-105v446l105 30v-70l5 6q5 5 8 7.5t10 9t12.5 10.5t14.5 10t16.5 10t18.5 9t21 7.5t22.5 4.5t24.5 2q76 0 115 -46t39 -132v-198q0 -29 22 -29q9 0 21 3.5t20 6.5z" />
<glyph unicode="&#xf2;" horiz-adv-x="548" d="M323 547h-96l-109 200h126zM512 233q0 -107 -62 -177.5t-176 -70.5t-176.5 70.5t-62.5 177.5t62 178t177 71t176.5 -71t61.5 -178zM274 74q64 0 98.5 44t34.5 115q0 70 -34 115t-99 45t-99 -45t-34 -115q0 -71 34.5 -115t98.5 -44z" />
<glyph unicode="&#xf3;" horiz-adv-x="548" d="M314 547h-96l79 200h127zM512 233q0 -107 -62 -177.5t-176 -70.5t-176.5 70.5t-62.5 177.5t62 178t177 71t176.5 -71t61.5 -178zM274 74q64 0 98.5 44t34.5 115q0 70 -34 115t-99 45t-99 -45t-34 -115q0 -71 34.5 -115t98.5 -44z" />
<glyph unicode="&#xf4;" horiz-adv-x="548" d="M426 547h-86l-68 117l-68 -117h-86l96 200h116zM512 233q0 -107 -62 -177.5t-176 -70.5t-176.5 70.5t-62.5 177.5t62 178t177 71t176.5 -71t61.5 -178zM274 74q64 0 98.5 44t34.5 115q0 70 -34 115t-99 45t-99 -45t-34 -115q0 -71 34.5 -115t98.5 -44z" />
<glyph unicode="&#xf5;" horiz-adv-x="548" d="M512 233q0 -107 -62 -177.5t-176 -70.5t-176.5 70.5t-62.5 177.5t62 178t177 71t176.5 -71t61.5 -178zM274 74q64 0 98.5 44t34.5 115q0 70 -34 115t-99 45t-99 -45t-34 -115q0 -71 34.5 -115t98.5 -44zM402 657l59 -34q-1 -4 -4 -10t-13 -22t-22.5 -28.5t-34 -22.5 t-46.5 -10q-33 0 -70.5 29t-58.5 29q-19 0 -36.5 -12.5t-25.5 -25.5l-9 -12l-54 45q1 3 4 8.5t14 20t24.5 25t35.5 19.5t47 9q27 0 52 -14.5t44.5 -29.5t33.5 -15q17 0 32 13t22 25z" />
<glyph unicode="&#xf6;" horiz-adv-x="548" d="M250 606q0 -27 -18.5 -46t-45.5 -19q-26 0 -44.5 19.5t-18.5 45.5q0 27 18.5 46t44.5 19q27 0 45.5 -19t18.5 -46zM427 606q0 -27 -18.5 -46t-45.5 -19t-45 19t-18 46t18 46t45 19t45.5 -19t18.5 -46zM512 233q0 -107 -62 -177.5t-176 -70.5t-176.5 70.5t-62.5 177.5 t62 178t177 71t176.5 -71t61.5 -178zM274 74q64 0 98.5 44t34.5 115q0 70 -34 115t-99 45t-99 -45t-34 -115q0 -71 34.5 -115t98.5 -44z" />
<glyph unicode="&#xf7;" horiz-adv-x="416" d="M277 58q0 -30 -21 -51.5t-51 -21.5t-51 21.5t-21 51.5t21 51.5t51 21.5t51 -21.5t21 -51.5zM276 446q0 -31 -20.5 -52t-51.5 -21q-30 0 -50.5 21t-20.5 52q0 30 20.5 51.5t50.5 21.5t51 -21.5t21 -51.5zM368 196h-321v97h321v-97z" />
<glyph unicode="&#xf8;" horiz-adv-x="548" d="M512 233q0 -107 -62 -177.5t-176 -70.5q-11 0 -33 2l-15 -59h-70l19 74q-68 27 -104 89t-36 142q0 107 62 178t177 71q4 0 12.5 -0.5t12.5 -0.5l12 46h71l-16 -61q71 -25 108.5 -88t37.5 -145zM274 74q64 0 98.5 44t34.5 115q0 104 -65 142l-78 -301h10zM141 233 q0 -98 58 -138l77 298h-2q-65 0 -99 -45t-34 -115z" />
<glyph unicode="&#xf9;" horiz-adv-x="559" d="M539 90l16 -63q-42 -33 -101 -33q-70 0 -85 60h-1q-69 -69 -158 -69q-76 0 -115 46t-39 132v298l105 10v-285q0 -58 19.5 -83t61.5 -25q65 0 121 53v315l105 30v-370q0 -29 22 -29q9 0 21 3.5t20 6.5zM326 547h-96l-109 200h126z" />
<glyph unicode="&#xfa;" horiz-adv-x="559" d="M308 547h-96l79 200h127zM539 90l16 -63q-42 -33 -101 -33q-70 0 -85 60h-1q-69 -69 -158 -69q-76 0 -115 46t-39 132v298l105 10v-285q0 -58 19.5 -83t61.5 -25q65 0 121 53v315l105 30v-370q0 -29 22 -29q9 0 21 3.5t20 6.5z" />
<glyph unicode="&#xfb;" horiz-adv-x="559" d="M420 547h-86l-68 117l-68 -117h-86l96 200h116zM539 90l16 -63q-42 -33 -101 -33q-70 0 -85 60h-1q-69 -69 -158 -69q-76 0 -115 46t-39 132v298l105 10v-285q0 -58 19.5 -83t61.5 -25q65 0 121 53v315l105 30v-370q0 -29 22 -29q9 0 21 3.5t20 6.5z" />
<glyph unicode="&#xfc;" horiz-adv-x="559" d="M243 606q0 -27 -18.5 -46t-45.5 -19q-26 0 -44.5 19.5t-18.5 45.5q0 27 18.5 46t44.5 19q27 0 45.5 -19t18.5 -46zM420 606q0 -27 -18.5 -46t-45.5 -19t-45 19t-18 46t18 46t45 19t45.5 -19t18.5 -46zM539 90l16 -63q-42 -33 -101 -33q-70 0 -85 60h-1q-69 -69 -158 -69 q-76 0 -115 46t-39 132v298l105 10v-285q0 -58 19.5 -83t61.5 -25q65 0 121 53v315l105 30v-370q0 -29 22 -29q9 0 21 3.5t20 6.5z" />
<glyph unicode="&#xfd;" horiz-adv-x="506" d="M208 -263h-104l104 263h-12l-181 468h114l126 -358l122 358h116zM286 547h-96l79 200h127z" />
<glyph unicode="&#xfe;" horiz-adv-x="549" d="M167 -263h-105v983l105 30v-335q52 67 142 67q97 0 150 -70.5t53 -181.5q0 -108 -61.5 -176.5t-163.5 -68.5q-68 0 -120 28v-276zM165 335v-230q38 -31 111 -31q59 0 95 42.5t36 113.5q0 78 -33 120.5t-96 42.5q-67 0 -113 -58z" />
<glyph unicode="&#xff;" horiz-adv-x="506" d="M230 606q0 -27 -18.5 -46t-45.5 -19q-26 0 -44.5 19.5t-18.5 45.5q0 27 18.5 46t44.5 19q27 0 45.5 -19t18.5 -46zM407 606q0 -27 -18.5 -46t-45.5 -19t-45 19t-18 46t18 46t45 19t45.5 -19t18.5 -46zM208 -263h-104l104 263h-12l-181 468h114l126 -358l122 358h116z" />
<glyph unicode="&#x152;" horiz-adv-x="1144" d="M1102 0h-493v79q-86 -94 -228 -94q-85 0 -151.5 29t-107.5 80t-61.5 116t-20.5 141q0 163 91.5 262.5t249.5 99.5q139 0 228 -95v82h493v-100h-380v-208h305v-95h-305v-197h380v-100zM607 351q0 121 -60.5 191.5t-165.5 70.5t-166 -70.5t-61 -191.5q0 -117 56.5 -191.5 t170.5 -74.5q113 0 169.5 74.5t56.5 191.5z" />
<glyph unicode="&#x153;" horiz-adv-x="888" d="M846 203h-327q8 -60 43 -95t96 -35q41 0 77 12.5t52 24.5l16 13l32 -69q-8 -8 -23 -19.5t-62.5 -30.5t-97.5 -19q-128 0 -189 96q-63 -96 -189 -96q-114 0 -176.5 70.5t-62.5 177.5t62 178t177 71q124 0 188 -97q62 97 186 97q45 0 81.5 -14.5t59.5 -37.5t38.5 -52 t22 -55.5t6.5 -51.5q0 -18 -2.5 -35t-5.5 -25zM274 74q64 0 98.5 44t34.5 115q0 70 -34 115t-99 45t-99 -45t-34 -115q0 -71 34.5 -115t98.5 -44zM518 271h240v7q-1 52 -29 86t-82 34q-55 0 -88 -34.5t-41 -92.5z" />
<glyph unicode="&#x178;" horiz-adv-x="671" d="M392 0h-112v261l-269 439h136l189 -328l191 328h133l-268 -440v-260zM313 818q0 -27 -18.5 -46t-45.5 -19q-26 0 -44.5 19.5t-18.5 45.5q0 27 18.5 46t44.5 19q27 0 45.5 -19t18.5 -46zM490 818q0 -27 -18.5 -46t-45.5 -19t-45 19t-18 46t18 46t45 19t45.5 -19t18.5 -46z " />
<glyph unicode="&#x2c6;" horiz-adv-x="373" d="M339 547h-86l-68 117l-68 -117h-86l96 200h116z" />
<glyph unicode="&#x2dc;" horiz-adv-x="417" d="M337 657l59 -34q-1 -4 -4 -10t-13 -22t-22.5 -28.5t-34 -22.5t-46.5 -10q-33 0 -70.5 29t-58.5 29q-19 0 -36.5 -12.5t-26.5 -25.5l-8 -12l-54 45q1 3 4 8.5t14 20t24.5 25t35.5 19.5t47 9q35 0 75 -29.5t55 -29.5q17 0 32 13t21 25z" />
<glyph unicode="&#x2000;" horiz-adv-x="485" />
<glyph unicode="&#x2001;" horiz-adv-x="970" />
<glyph unicode="&#x2002;" horiz-adv-x="485" />
<glyph unicode="&#x2003;" horiz-adv-x="970" />
<glyph unicode="&#x2004;" horiz-adv-x="323" />
<glyph unicode="&#x2005;" horiz-adv-x="242" />
<glyph unicode="&#x2006;" horiz-adv-x="161" />
<glyph unicode="&#x2007;" horiz-adv-x="161" />
<glyph unicode="&#x2008;" horiz-adv-x="121" />
<glyph unicode="&#x2009;" horiz-adv-x="194" />
<glyph unicode="&#x200a;" horiz-adv-x="53" />
<glyph unicode="&#x2010;" horiz-adv-x="379" d="M320 230h-261v98h261v-98z" />
<glyph unicode="&#x2011;" horiz-adv-x="379" d="M320 230h-261v98h261v-98z" />
<glyph unicode="&#x2012;" horiz-adv-x="379" d="M320 230h-261v98h261v-98z" />
<glyph unicode="&#x2013;" horiz-adv-x="526" d="M464 240h-403v82h403v-82z" />
<glyph unicode="&#x2014;" horiz-adv-x="849" d="M788 240h-727v82h727v-82z" />
<glyph unicode="&#x2018;" horiz-adv-x="242" d="M118 729q2 1 6 1q31 0 53 -22t22 -53t-22 -53t-53 -22q-40 0 -60.5 27.5t-20.5 71.5q0 48 9.5 87t22.5 60t26 35t23 19l9 4l30 -34q-5 -4 -12.5 -11.5t-20 -37t-12.5 -65.5v-7z" />
<glyph unicode="&#x2019;" horiz-adv-x="219" d="M91 495l-30 34q5 4 12.5 11.5t20 37t12.5 65.5v7l-6 -1q-32 0 -53.5 22t-21.5 53t21.5 53t53.5 22q40 0 60 -27t20 -72q0 -48 -9 -87t-22 -60t-26.5 -35t-22.5 -18z" />
<glyph unicode="&#x201a;" horiz-adv-x="255" d="M116 -169l-31 34q5 4 12.5 11.5t20 37t12.5 65.5v7q-2 -1 -6 -1q-32 0 -53.5 22t-21.5 53t21.5 53t53.5 22q40 0 60.5 -27.5t20.5 -71.5q0 -48 -9 -87t-22.5 -60t-26.5 -35t-22 -18z" />
<glyph unicode="&#x201c;" horiz-adv-x="445" d="M118 729q2 1 6 1q31 0 53 -22t22 -53t-22 -53t-53 -22q-40 0 -60.5 27.5t-20.5 71.5q0 48 9.5 87t22.5 60t26 35t23 19l9 4l30 -34q-5 -4 -12.5 -11.5t-20 -37t-12.5 -65.5v-7zM322 729q1 1 6 1q31 0 52.5 -22t21.5 -53t-21.5 -53t-52.5 -22q-40 0 -60.5 27.5t-20.5 71.5 q0 48 9 87t22.5 60t26.5 35t22 19l9 4l31 -34q-5 -4 -12.5 -11.5t-20 -37t-12.5 -65.5v-7z" />
<glyph unicode="&#x201d;" horiz-adv-x="412" d="M91 495l-30 34q5 4 12.5 11.5t20 37t12.5 65.5v7l-6 -1q-32 0 -53.5 22t-21.5 53t21.5 53t53.5 22q40 0 60 -27t20 -72q0 -48 -9 -87t-22 -60t-26.5 -35t-22.5 -18zM284 495l-31 34q5 4 12.5 11.5t20 37t12.5 65.5v7q-1 -1 -6 -1q-31 0 -52.5 22t-21.5 53t21.5 53 t52.5 22q40 0 60.5 -27.5t20.5 -71.5q0 -48 -9 -87t-22.5 -60t-26.5 -35t-22 -18z" />
<glyph unicode="&#x201e;" horiz-adv-x="440" d="M116 -169l-31 34q5 4 12.5 11.5t20 37t12.5 65.5v7q-2 -1 -6 -1q-32 0 -53.5 22t-21.5 53t21.5 53t53.5 22q40 0 60.5 -27.5t20.5 -71.5q0 -48 -9 -87t-22.5 -60t-26.5 -35t-22 -18zM300 -169l-30 34q5 4 12.5 11.5t20 37t12.5 65.5v7q-2 -1 -6 -1q-32 0 -53 22t-21 53 t21 53t53 22q40 0 60.5 -27.5t20.5 -71.5q0 -48 -9.5 -87t-22.5 -60t-26 -35t-22 -18z" />
<glyph unicode="&#x2022;" horiz-adv-x="420" d="M68 318q0 63 41.5 107.5t101.5 44.5q59 0 101 -44.5t42 -107.5t-42 -107.5t-101 -44.5q-60 0 -101.5 44.5t-41.5 107.5z" />
<glyph unicode="&#x2026;" horiz-adv-x="631" d="M198 60q0 -31 -21.5 -53t-52.5 -22q-32 0 -53.5 22t-21.5 53t21.5 53t53.5 22q31 0 52.5 -22t21.5 -53zM392 60q0 -31 -21.5 -53t-52.5 -22q-32 0 -53.5 22t-21.5 53t21.5 53t53.5 22q31 0 52.5 -22t21.5 -53zM582 60q0 -31 -21.5 -53t-53.5 -22q-31 0 -52.5 22t-21.5 53 t21.5 53t52.5 22q32 0 53.5 -22t21.5 -53z" />
<glyph unicode="&#x202f;" horiz-adv-x="194" />
<glyph unicode="&#x2039;" horiz-adv-x="323" d="M284 50l-58 -59l-186 189v73l186 190l56 -59l-142 -168z" />
<glyph unicode="&#x203a;" horiz-adv-x="323" d="M283 180l-187 -189l-57 59l143 166l-142 168l56 59l187 -190v-73z" />
<glyph unicode="&#x205f;" horiz-adv-x="242" />
<glyph unicode="&#x20ac;" horiz-adv-x="755" d="M492 225h-249q53 -140 207 -140q40 0 79.5 9t67 21.5t50 25t33.5 21.5l11 9l32 -94q-4 -4 -11.5 -10t-33.5 -22t-55.5 -28t-77 -22t-98.5 -10q-136 0 -217 65t-111 175h-75v75h448v-75zM492 385h-448v75h69q26 118 111.5 185.5t222.5 67.5q75 0 135 -18t83 -36l23 -18 l-45 -89q-7 7 -20.5 17t-64 27t-111.5 17q-78 0 -133 -40t-79 -113h257v-75z" />
<glyph unicode="&#x2122;" horiz-adv-x="862" d="M247 325h-75v280h-123v70h316v-70h-118v-280zM794 325h-73v227l-90 -227h-74l-87 227v-227h-72v350h91l106 -281l105 281h94v-350z" />
<glyph unicode="&#x25fc;" horiz-adv-x="470" d="M0 470h470v-470h-470v470z" />
<glyph unicode="&#xfb01;" horiz-adv-x="594" d="M533 0h-105v379h-227v-379h-105v379h-76l18 89h58v89q0 194 172 194q28 0 55 -7.5t39 -15.5l13 -7l-32 -79q-24 15 -65 15q-40 0 -58.5 -23.5t-18.5 -76.5v-89h332v-468zM548 617q0 -30 -19 -49.5t-49 -19.5t-49 19.5t-19 49.5q0 29 19 48.5t49 19.5t49 -19.5t19 -48.5z " />
<glyph unicode="&#xfb02;" horiz-adv-x="640" d="M201 0h-105v379h-76l18 89h58v89q0 194 172 194q31 0 59.5 -7.5t42.5 -15.5l13 -7l-32 -79q-27 15 -73 15q-40 0 -58.5 -23.5t-18.5 -76.5v-89h149v-89h-149v-379zM628 93l15 -64q-50 -35 -121 -35q-51 0 -72.5 24t-21.5 78v624l105 30v-640q0 -33 28 -33q12 0 28.5 4 t27.5 8z" />
</font>
</defs>
</svg>
