<?xml version="1.0" standalone="no"?>
<!DOCTYPE svg PUBLIC "-//W3C//DTD SVG 1.1//EN" "http://www.w3.org/Graphics/SVG/1.1/DTD/svg11.dtd" >
<svg xmlns="http://www.w3.org/2000/svg">
<metadata></metadata>
<defs>
<font id="magallanes_cond_lightlight" horiz-adv-x="548" >
<font-face units-per-em="1000" ascent="750" descent="-250" />
<missing-glyph horiz-adv-x="236" />
<glyph horiz-adv-x="0" />
<glyph horiz-adv-x="333" />
<glyph unicode=" "  horiz-adv-x="236" />
<glyph unicode="&#x09;" horiz-adv-x="236" />
<glyph unicode="&#xa0;" horiz-adv-x="236" />
<glyph unicode="!" horiz-adv-x="235" d="M142 183h-47l-14 517h73zM167 39q0 -23 -14 -38.5t-35 -15.5q-22 0 -36 15.5t-14 38.5t14 38.5t36 15.5q21 0 35 -15.5t14 -38.5z" />
<glyph unicode="&#x22;" horiz-adv-x="296" d="M109 556h-44l-8 169h61zM231 556h-45l-8 169h60z" />
<glyph unicode="#" horiz-adv-x="591" d="M496 151h-90l-38 -151h-60l38 151h-167l-38 -151h-61l39 151h-75v59h91l34 131h-77v59h93l33 129h60l-33 -129h168l33 129h60l-33 -129h72v-59h-89l-33 -131h73v-59zM362 210l34 131h-168l-33 -131h167z" />
<glyph unicode="$" horiz-adv-x="578" d="M316 749h-45l-9 213h62zM324 -283h-62l9 212h45zM537 640l-26 -57q-9 8 -26 19.5t-73.5 30.5t-117.5 19q-88 0 -133.5 -37t-45.5 -93q0 -63 44 -92.5t138 -48.5q51 -10 83.5 -18.5t66.5 -23t53 -33.5t31 -49t12 -69q0 -89 -64.5 -146t-185.5 -57q-55 0 -102.5 10.5 t-76 25.5t-49.5 30.5t-29 26.5l-8 10l35 50q3 -4 9 -10t27 -22.5t45.5 -29t64.5 -22.5t84 -10q85 0 132 36t47 99q0 64 -40 90.5t-145 48.5q-60 12 -98 24.5t-74.5 34.5t-53.5 56t-17 83q0 83 64.5 140t185.5 57q68 0 128.5 -18.5t87.5 -36.5z" />
<glyph unicode="%" horiz-adv-x="631" d="M119 -15h-57l450 728h57zM593 134q0 -65 -35 -107t-97 -42q-63 0 -98 41.5t-35 107.5q0 65 35.5 105t97.5 40q61 0 96.5 -40t35.5 -105zM461 29q41 0 63.5 29.5t22.5 75.5t-23.5 73t-62.5 27q-40 0 -63.5 -27t-23.5 -73t23 -75.5t64 -29.5zM303 568q0 -66 -35 -107.5 t-98 -41.5q-62 0 -97 42t-35 107t35.5 105t96.5 40q62 0 97.5 -39.5t35.5 -105.5zM170 463q41 0 64 29.5t23 75.5t-23.5 73t-63.5 27q-39 0 -62.5 -27t-23.5 -73t22.5 -75.5t63.5 -29.5z" />
<glyph unicode="&#x26;" horiz-adv-x="620" d="M577 16l-44 -43l-57 67q-72 -56 -175 -56q-111 0 -175 53t-64 151q0 35 10.5 67t22.5 51.5t33.5 40t29.5 26l24 16.5q-59 79 -59 153q0 76 48.5 123.5t134.5 47.5q56 0 102 -18t64 -36l19 -18l-28 -46q-6 7 -18 16.5t-52 26t-84 16.5q-55 0 -87 -31t-32 -81 q0 -14 2.5 -27.5t8.5 -27.5t10.5 -23.5t15 -24t15 -20.5t17.5 -21.5t16 -19.5l205 -247q36 53 36 125h63q0 -98 -59 -173zM301 43q80 0 137 42l-223 264q-90 -63 -90 -160q0 -70 47.5 -108t128.5 -38z" />
<glyph unicode="'" horiz-adv-x="175" d="M109 556h-44l-8 169h61z" />
<glyph unicode="(" horiz-adv-x="254" d="M231 -256l-46 -32q-6 8 -15 22.5t-33 66t-42 108t-33 147t-15 185.5t14 184.5t34.5 149.5t41 106.5t34.5 68.5l14 21l46 -32q-5 -7 -14 -20.5t-31.5 -61t-39.5 -100.5t-31 -138.5t-14 -176.5t13.5 -176t32.5 -141t38 -99t33 -62z" />
<glyph unicode=")" horiz-adv-x="254" d="M69 -288l-46 32q5 7 14 20.5t31 61t39 100.5t31 139t14 177t-13.5 175.5t-32 140.5t-37.5 99t-33 63l-13 19l46 32q6 -8 15 -22.5t33 -66t42.5 -108.5t33.5 -147.5t15 -185.5t-14.5 -184.5t-35 -149t-40.5 -106t-34 -67.5z" />
<glyph unicode="*" horiz-adv-x="445" d="M364 437l-120 90l8 -163h-60l10 163l-121 -90l-30 54l130 74l-130 72l30 55l121 -90l-10 162h60l-9 -162l121 90l30 -55l-130 -72l130 -74z" />
<glyph unicode="+" horiz-adv-x="512" d="M286 122h-60v213h-189v60h189v214h60v-214h190v-60h-190v-213z" />
<glyph unicode="," horiz-adv-x="226" d="M92 -162l-15 21q5 3 12 11t18.5 38.5t11.5 70.5v7q-3 -1 -8 -1q-22 0 -36.5 15.5t-14.5 38.5t14.5 38.5t36.5 15.5q54 0 54 -70q0 -44 -7.5 -79t-18.5 -54t-21.5 -31.5t-17.5 -16.5z" />
<glyph unicode="-" horiz-adv-x="377" d="M310 248h-243v59h243v-59z" />
<glyph unicode="." horiz-adv-x="221" d="M161 39q0 -23 -14.5 -38.5t-35.5 -15.5q-22 0 -36.5 15.5t-14.5 38.5t14.5 38.5t36.5 15.5q21 0 35.5 -15.5t14.5 -38.5z" />
<glyph unicode="/" horiz-adv-x="368" d="M91 -248h-60l247 948h60z" />
<glyph unicode="0" horiz-adv-x="644" d="M322 -15q-68 0 -120.5 29.5t-84.5 81t-48 117.5t-16 143q0 159 73.5 258t195.5 99t196 -99t74 -258q0 -161 -68.5 -266t-201.5 -105zM322 44q100 0 151 89.5t51 222.5q0 137 -55.5 217.5t-146.5 80.5q-90 0 -146 -80.5t-56 -217.5q0 -85 20.5 -153.5t67.5 -113.5t114 -45 z" />
<glyph unicode="1" horiz-adv-x="429" d="M341 0h-67v627l-232 -157l-32 51l266 179h65v-700z" />
<glyph unicode="2" horiz-adv-x="537" d="M488 0h-445v52l191 158q88 72 113 102q62 71 62 168q0 76 -44.5 125t-119.5 49q-49 0 -93 -17t-64 -33l-19 -17l-30 51q3 3 8.5 8t25.5 18t42 23t57.5 18t73.5 8q111 0 171 -64.5t60 -168.5q0 -51 -12 -93t-40 -79.5t-54.5 -64t-74.5 -66.5l-142 -118h334v-59z" />
<glyph unicode="3" horiz-adv-x="566" d="M240 329v60q185 0 185 137q0 58 -43 93t-118 35q-45 0 -88 -17t-63 -33l-20 -17l-29 52q3 3 9 8t25.5 18t41 22.5t55.5 17.5t69 8q107 0 168 -52.5t61 -134.5q0 -79 -35.5 -117t-96.5 -50q67 -7 110.5 -47.5t43.5 -126.5q0 -91 -67 -145.5t-184 -54.5q-40 0 -79.5 9.5 t-66.5 22.5t-48 26.5t-32 22.5l-10 10l34 50q3 -3 9 -8.5t26 -20t42 -25t56 -19.5t69 -9q84 0 133.5 37t49.5 104q0 144 -207 144z" />
<glyph unicode="4" horiz-adv-x="523" d="M419 0h-66v169h-328v50l236 474h72l-230 -465h250v203h66v-203h78v-59h-78v-169z" />
<glyph unicode="5" horiz-adv-x="566" d="M484 641h-320l-18 -228q67 18 134 18q38 0 71 -6t65.5 -22t55.5 -41t37 -65.5t14 -93.5q0 -105 -64.5 -162t-181.5 -57q-65 0 -125 22t-88 44l-28 22l30 49q10 -9 28.5 -22t73.5 -34.5t108 -21.5q87 0 133.5 41t46.5 119q0 48 -15.5 82t-42 52t-56.5 25.5t-66 7.5 q-41 0 -90.5 -9t-79.5 -19l-29 -9l27 367h380v-59z" />
<glyph unicode="6" horiz-adv-x="584" d="M338 654q-102 0 -159.5 -79t-59.5 -216q79 82 189 82t171.5 -60t61.5 -171q0 -98 -64 -161.5t-167 -63.5q-128 0 -192.5 102t-64.5 269q0 162 73 259.5t210 97.5q49 0 93 -13.5t63 -27.5l19 -14l-29 -51q-6 5 -17.5 13t-49 21t-77.5 13zM308 381q-106 0 -187 -85 q9 -120 58.5 -186t130.5 -66q80 0 121.5 44t41.5 122q0 80 -44.5 125.5t-120.5 45.5z" />
<glyph unicode="7" horiz-adv-x="474" d="M207 0h-77l251 641h-368v59h445v-49z" />
<glyph unicode="8" horiz-adv-x="597" d="M403 371q143 -50 143 -191q0 -85 -60.5 -140t-185.5 -55q-128 0 -188 54t-60 137q0 140 157 189q-136 45 -136 171q0 78 61 127.5t166 49.5q103 0 163 -49.5t60 -127.5q0 -118 -120 -165zM300 346q-23 -5 -31.5 -7.5t-36 -11t-42.5 -20t-34 -28.5t-28 -42.5t-9 -56.5 q0 -58 45 -96.5t136 -38.5q90 0 134 39.5t44 98.5q0 35 -12.5 62.5t-29.5 44t-44 28.5t-46 17.5t-46 10.5zM300 397l29 -6q126 28 126 141q0 54 -42.5 88t-112.5 34q-71 0 -115 -34t-44 -88q0 -16 4 -31t9 -26t15 -21t17.5 -16.5t21 -13t21 -9.5t22 -7t19.5 -5t18 -3z" />
<glyph unicode="9" horiz-adv-x="585" d="M249 44q101 0 158 79t60 215q-78 -81 -189 -81q-110 0 -171 60t-61 171q0 98 64 161.5t166 63.5q128 0 193 -102t65 -269q0 -162 -73 -259.5t-210 -97.5q-49 0 -93 13.5t-64 27.5l-19 14l30 51q6 -5 17.5 -13t49 -21t77.5 -13zM278 317q104 0 187 83q-8 121 -57.5 187.5 t-131.5 66.5q-80 0 -121.5 -44t-41.5 -122q0 -80 44.5 -125.5t120.5 -45.5z" />
<glyph unicode=":" horiz-adv-x="234" d="M167 39q0 -23 -14 -38.5t-36 -15.5t-36 15.5t-14 38.5t14 38.5t36 15.5t36 -15.5t14 -38.5zM166 430q0 -23 -14 -38.5t-36 -15.5q-21 0 -35 15.5t-14 38.5t14 38.5t35 15.5q22 0 36 -15.5t14 -38.5z" />
<glyph unicode=";" horiz-adv-x="241" d="M169 430q0 -23 -14.5 -38.5t-35.5 -15.5q-22 0 -36 15.5t-14 38.5t14 38.5t36 15.5q21 0 35.5 -15.5t14.5 -38.5zM100 -162l-15 21q5 3 12 11t18.5 38.5t11.5 70.5v7q-3 -1 -8 -1q-22 0 -36 15.5t-14 38.5t14 38.5t36 15.5q55 0 55 -70q0 -44 -7.5 -79t-18.5 -54 t-22 -31.5t-18 -16.5z" />
<glyph unicode="&#x3c;" horiz-adv-x="359" d="M304 24l-261 203v65l261 203v-69l-213 -167l213 -166v-69z" />
<glyph unicode="=" horiz-adv-x="479" d="M411 367h-342v59h342v-59zM411 144h-342v59h342v-59z" />
<glyph unicode="&#x3e;" horiz-adv-x="359" d="M316 227l-261 -203v69l213 166l-213 167v69l261 -203v-65z" />
<glyph unicode="?" horiz-adv-x="496" d="M257 151h-65v116q8 3 21 8t46 25t58.5 44t46.5 65.5t21 89.5q0 69 -40.5 112t-108.5 43q-48 0 -93 -17t-66 -33l-21 -17l-29 51q3 3 9 8t26.5 18t43 23t58 18t72.5 8q102 0 159 -59t57 -155q0 -52 -20 -98.5t-49 -75.5t-57.5 -50t-48.5 -30l-20 -9v-85zM273 39 q0 -23 -14 -38.5t-36 -15.5t-36 15.5t-14 38.5t14 38.5t36 15.5t36 -15.5t14 -38.5z" />
<glyph unicode="@" horiz-adv-x="911" d="M287 -137l-32 -49q-104 62 -155.5 177.5t-51.5 260.5q0 207 113.5 335.5t301.5 128.5q187 0 300 -121.5t113 -317.5q0 -144 -63 -213.5t-166 -69.5q-61 0 -61 53v7q-66 -69 -156 -69q-99 0 -151.5 70.5t-52.5 181.5q0 109 62.5 177t172.5 68q50 0 96 -16.5t67 -33.5 l21 -16v-346q0 -27 22 -27q149 0 149 234q0 178 -97 282t-256 104q-160 0 -257 -111t-97 -300q0 -129 44.5 -230.5t133.5 -158.5zM584 107v287q-51 35 -126 35q-80 0 -125.5 -52t-45.5 -140q0 -92 39 -145.5t116 -53.5q81 0 142 69z" />
<glyph unicode="A" horiz-adv-x="629" d="M606 0h-70l-70 197h-302l-71 -197h-69l255 700h71zM443 256l-128 358l-129 -358h257z" />
<glyph unicode="B" horiz-adv-x="625" d="M354 0h-266v700h254q204 0 204 -177q0 -130 -111 -164q75 -14 109 -56t34 -117q0 -89 -58 -137.5t-166 -48.5zM352 327h-197v-268h198q81 0 120 31.5t39 98.5q0 69 -42 103.5t-118 34.5zM340 641h-185v-258h196q54 0 91 35t37 102q0 58 -35 89.5t-104 31.5z" />
<glyph unicode="C" horiz-adv-x="662" d="M618 124l22 -52q-4 -4 -11 -9.5t-32 -20.5t-52 -26.5t-70.5 -21t-88.5 -9.5q-88 0 -154 29.5t-104.5 81.5t-57.5 117t-19 143q0 162 88 259.5t247 97.5q65 0 119 -16.5t75 -32.5l22 -16l-29 -53q-7 7 -21 16.5t-62.5 26t-103.5 16.5q-126 0 -196.5 -79t-70.5 -219 q0 -137 66 -224.5t202 -87.5q61 0 118.5 20t84.5 40z" />
<glyph unicode="D" horiz-adv-x="690" d="M294 0h-206v700h214q163 0 249.5 -89.5t86.5 -264.5q0 -346 -344 -346zM155 59h129q148 -1 217.5 67.5t69.5 219.5q0 295 -281 295h-135v-582z" />
<glyph unicode="E" horiz-adv-x="601" d="M553 0h-465v700h465v-59h-398v-269h327v-59h-327v-254h398v-59z" />
<glyph unicode="F" horiz-adv-x="578" d="M483 313h-328v-313h-67v700h465v-59h-398v-269h328v-59z" />
<glyph unicode="G" horiz-adv-x="683" d="M564 96v190h-212v58h274v-272q-4 -4 -10.5 -9.5t-30.5 -20.5t-50.5 -26.5t-68 -21t-85.5 -9.5q-86 0 -151 29.5t-103.5 81.5t-57 117t-18.5 143q0 162 88 259.5t247 97.5q65 0 119 -17t75 -34l22 -17l-29 -53q-3 3 -8 7t-22.5 14.5t-37.5 19t-52.5 15t-66.5 6.5 q-126 0 -196.5 -79t-70.5 -219q0 -137 65 -224.5t198 -87.5q94 0 182 52z" />
<glyph unicode="H" horiz-adv-x="692" d="M604 0h-66v319h-383v-319h-67v700h67v-322h383v322h66v-700z" />
<glyph unicode="I" horiz-adv-x="243" d="M155 0h-67v700h67v-700z" />
<glyph unicode="J" horiz-adv-x="253" d="M66 -35l-31 35q3 2 7.5 5.5t16.5 16.5t21 28.5t16.5 41t7.5 53.5v555h66v-553q0 -41 -10.5 -74.5t-26 -52.5t-31 -32.5t-26.5 -17.5z" />
<glyph unicode="K" horiz-adv-x="653" d="M630 68l20 -38q-36 -36 -95 -36q-75 0 -112 66l-113 217q-10 -2 -29 -2h-146v-275h-67v700h67v-366h146q96 0 136.5 89.5t40.5 276.5h66q0 -177 -34.5 -277.5t-114.5 -132.5l108 -201q23 -43 67 -43q14 0 29 5.5t23 10.5z" />
<glyph unicode="L" horiz-adv-x="553" d="M550 0h-462v700h67v-641h395v-59z" />
<glyph unicode="M" horiz-adv-x="775" d="M687 0h-66v537l-209 -537h-49l-208 536v-536h-67v700h60l241 -600l238 600h60v-700z" />
<glyph unicode="N" horiz-adv-x="684" d="M595 0h-56l-384 578v-578h-67v700h59l383 -581v581h65v-700z" />
<glyph unicode="O" horiz-adv-x="749" d="M699 353q0 -76 -19.5 -141.5t-58 -117t-102 -80.5t-144.5 -29q-160 0 -242.5 104t-82.5 264q0 162 87.5 261t237.5 99q149 0 236.5 -99t87.5 -261zM632 353q0 141 -69 221t-188 80t-188.5 -80t-69.5 -221q0 -135 65 -222t193 -87q127 0 192 87.5t65 221.5z" />
<glyph unicode="P" horiz-adv-x="628" d="M155 0h-67v700h260q116 0 180.5 -62t64.5 -186q0 -119 -64.5 -178t-180.5 -59h-193v-215zM155 274h193q177 0 177 178q0 189 -177 189h-193v-367z" />
<glyph unicode="Q" horiz-adv-x="751" d="M580 -197v-59q-116 0 -175.5 56t-62.5 187q-144 9 -217.5 111t-73.5 255q0 162 87.5 261t236.5 99t237 -99.5t88 -260.5q0 -152 -74.5 -254.5t-217.5 -111.5q2 -103 43 -143.5t129 -40.5zM633 353q0 141 -69.5 221t-188.5 80t-188 -80t-69 -221q0 -135 64.5 -222 t192.5 -87t193 87t65 222z" />
<glyph unicode="R" horiz-adv-x="649" d="M631 68l20 -38q-36 -36 -95 -36q-39 0 -62.5 14t-41.5 52l-91 210q-32 -5 -64 -5h-142v-265h-67v700h231q230 0 230 -217q0 -153 -123 -199l86 -195q17 -43 56 -43q14 0 29.5 5.5t24.5 10.5zM155 324h144q97 0 139.5 39t42.5 120t-38 119.5t-122 38.5h-166v-317z" />
<glyph unicode="S" horiz-adv-x="605" d="M550 640l-26 -57q-3 3 -9 7.5t-27 16.5t-44.5 21t-60 16.5t-75.5 7.5q-89 0 -134 -37t-45 -93q0 -63 44 -93t137 -48q51 -10 84 -18.5t66.5 -23t52.5 -34t31 -49t12 -68.5q0 -89 -64 -146t-185 -57q-55 0 -103 10.5t-76.5 25.5t-49 30.5t-28.5 26.5l-9 10l35 50 q3 -4 9 -10t27 -22.5t45.5 -29t65 -22.5t84.5 -10q84 0 131.5 36t47.5 99t-40.5 90t-145.5 49q-60 12 -98 24.5t-74.5 34.5t-53.5 56t-17 83q0 83 64.5 140t185.5 57q68 0 128.5 -18.5t87.5 -36.5z" />
<glyph unicode="T" horiz-adv-x="610" d="M338 0h-66v641h-266v59h598v-59h-266v-641z" />
<glyph unicode="U" horiz-adv-x="675" d="M527 286v414h66v-409q0 -165 -60 -234t-198 -72q-134 2 -193.5 71.5t-59.5 234.5v409h65v-414q0 -132 44 -187.5t144 -55.5q103 0 147.5 54t44.5 189z" />
<glyph unicode="V" horiz-adv-x="657" d="M364 0h-71l-272 700h78l229 -617l232 617h76z" />
<glyph unicode="W" horiz-adv-x="979" d="M730 0h-70l-171 598l-169 -598h-71l-222 700h76l180 -597l171 597h70l171 -597l181 597h76z" />
<glyph unicode="X" horiz-adv-x="617" d="M601 0h-84l-212 302l-209 -302h-80l249 351l-249 349h84l212 -303l211 303h79l-250 -352z" />
<glyph unicode="Y" horiz-adv-x="655" d="M360 0h-65v266l-271 434h81l223 -371l224 371h78l-270 -435v-265z" />
<glyph unicode="Z" horiz-adv-x="547" d="M506 0h-465v59l382 582h-382v59h465v-59l-385 -582h385v-59z" />
<glyph unicode="[" horiz-adv-x="292" d="M268 -297h-188v1064h188v-53h-133v-958h133v-53z" />
<glyph unicode="\" horiz-adv-x="368" d="M337 -248h-60l-246 948h59z" />
<glyph unicode="]" horiz-adv-x="292" d="M212 -297h-188v53h133v958h-133v53h188v-1064z" />
<glyph unicode="^" horiz-adv-x="488" d="M438 513h-54l-140 211l-141 -211h-53l160 257h69z" />
<glyph unicode="_" horiz-adv-x="472" d="M405 -51h-338v46h338v-46z" />
<glyph unicode="`" horiz-adv-x="239" d="M190 547h-58l-97 191h76z" />
<glyph unicode="a" horiz-adv-x="510" d="M493 57l12 -34q-36 -29 -88 -29q-27 0 -44.5 13.5t-17.5 38.5v10q-68 -71 -169 -71q-68 0 -108.5 30.5t-40.5 89.5q0 129 230 129q46 0 86 -10v101q0 54 -31 79t-100 25q-35 0 -71 -7t-54 -14l-18 -7l-14 50q75 31 170 31q179 0 179 -145v-268q0 -27 23 -27q10 0 24 4 t23 8zM353 105v73q-40 8 -85 8q-170 0 -170 -80q0 -35 27 -52t72 -17q88 0 156 68z" />
<glyph unicode="b" horiz-adv-x="535" d="M69 50v681l62 19v-338q67 70 153 70q101 0 153 -70.5t52 -181.5q0 -109 -63 -177t-172 -68q-50 0 -96 16.5t-68 32.5zM131 359v-288q48 -33 126 -33q80 0 125.5 50.5t45.5 141.5q0 93 -39 146t-116 53q-83 0 -142 -70z" />
<glyph unicode="c" horiz-adv-x="479" d="M428 97l21 -47q-7 -7 -21 -18t-59.5 -29t-94.5 -18q-112 0 -170.5 70.5t-58.5 178.5q0 109 59.5 178.5t170.5 69.5q44 0 82 -11t54 -23l16 -11l-24 -47q-4 4 -13.5 10.5t-42 17.5t-71.5 11q-81 0 -124.5 -53.5t-43.5 -141.5q0 -85 42.5 -140.5t125.5 -55.5q42 0 80 15 t55 29z" />
<glyph unicode="d" horiz-adv-x="563" d="M545 57l12 -34q-36 -29 -89 -29q-52 0 -61 53l-1 7q-69 -69 -155 -69q-100 0 -152.5 70.5t-52.5 181.5q0 109 62 177t170 68q66 0 126 -32v283l61 19v-683q0 -27 23 -27q10 0 24.5 4t23.5 8zM405 107v287q-54 35 -127 35q-80 0 -125.5 -50.5t-45.5 -141.5 q0 -94 39 -146.5t117 -52.5q81 0 142 69z" />
<glyph unicode="e" horiz-adv-x="509" d="M458 211h-350q6 -77 48.5 -125t119.5 -48q41 0 79 15t55 29l18 15l21 -42q-3 -3 -8 -7.5t-22 -16.5t-36 -21.5t-48.5 -17t-59.5 -7.5q-113 0 -171.5 70.5t-58.5 178.5q0 109 57.5 178.5t164.5 69.5q98 0 149 -64t51 -149q0 -15 -2.5 -29.5t-4.5 -21.5zM108 260h301v13 q0 71 -37 113.5t-105 42.5q-72 0 -113 -46t-46 -123z" />
<glyph unicode="f" horiz-adv-x="333" d="M163 0h-61v416h-77l15 52h62v109q0 89 39.5 131.5t108.5 42.5q28 0 52 -6.5t34 -12.5l11 -7l-22 -43q-26 15 -71 15q-91 0 -91 -118v-111h154v-52h-154v-416z" />
<glyph unicode="g" horiz-adv-x="501" d="M259 112l-27 1q-6 0 -16 -1.5t-27.5 -5.5t-29.5 -15.5t-12 -27.5q0 -40 109 -40q217 0 217 -145q0 -72 -54 -113.5t-161 -41.5q-106 0 -162 39.5t-56 105.5q0 89 99 125q-52 21 -52 67t64 70q-106 44 -106 167q0 79 53.5 132t159.5 53q38 0 81 -12q80 4 80 166h60 q0 -72 -22.5 -122.5t-65.5 -69.5q72 -51 72 -147q0 -84 -53.5 -134.5t-150.5 -50.5zM402 297q0 54 -37 93t-108 39q-75 0 -113 -38.5t-38 -93.5q0 -64 39 -98t114 -34q69 0 106 34t37 98zM192 -27q-91 -30 -91 -99q0 -98 157 -98q154 0 154 102q0 91 -152 92q-29 0 -68 3z " />
<glyph unicode="h" horiz-adv-x="549" d="M533 57l12 -34q-35 -29 -89 -29q-34 0 -48.5 18t-14.5 57v238q0 64 -24 93t-77 29q-90 0 -158 -82v-347h-62v731l62 19v-352q78 84 172 84q148 0 148 -170v-243q0 -27 22 -27q10 0 24.5 4t23.5 8z" />
<glyph unicode="i" horiz-adv-x="206" d="M134 0h-62v468h62v-468zM147 608q0 -20 -13 -33.5t-32 -13.5t-31.5 13.5t-12.5 33.5t12.5 33.5t31.5 13.5t32 -13.5t13 -33.5z" />
<glyph unicode="j" horiz-adv-x="206" d="M30 -267l-26 35q3 2 7.5 5.5t16 16.5t20.5 28.5t16.5 41t7.5 53.5v555h62v-553q0 -41 -10.5 -74.5t-26 -52.5t-31 -32.5t-26.5 -17.5zM146 608q0 -20 -13 -33.5t-32 -13.5t-31.5 13.5t-12.5 33.5t12.5 33.5t31.5 13.5t32 -13.5t13 -33.5z" />
<glyph unicode="k" horiz-adv-x="537" d="M513 63l17 -31q-3 -4 -9.5 -10.5t-29 -17t-47.5 -10.5q-31 0 -49.5 12.5t-36.5 40.5l-78 142q-15 -3 -29 -3h-117v-186h-62v731l62 19v-512h114q64 0 95 56.5t31 173.5h62q0 -210 -102 -263l79 -136q17 -27 45 -27q12 0 26 5t22 11z" />
<glyph unicode="l" horiz-adv-x="253" d="M243 59l11 -34q-43 -31 -108 -31q-41 0 -58.5 20t-17.5 67v650l61 19v-665q0 -43 37 -43q14 0 32.5 4t30.5 8z" />
<glyph unicode="m" horiz-adv-x="857" d="M841 57l12 -34q-36 -29 -89 -29q-35 0 -49.5 18t-14.5 57v238q0 65 -23.5 93.5t-76.5 28.5q-81 0 -151 -73q3 -21 3 -44v-312h-61v307q0 64 -24 93t-77 29q-52 0 -93.5 -27t-64.5 -55v-347h-61v455l61 19v-76q78 84 172 84q106 0 136 -88q6 8 17.5 19.5t34 28.5t55 28.5 t67.5 11.5q147 0 147 -170v-243q0 -27 23 -27q10 0 24.5 4t23.5 8z" />
<glyph unicode="n" d="M531 57l13 -34q-36 -29 -89 -29q-35 0 -49.5 18t-14.5 57v238q0 62 -24 90.5t-77 28.5q-83 0 -158 -79v-347h-61v455l61 19v-76q78 84 172 84q148 0 148 -170v-243q0 -27 23 -27q10 0 24 4t23 8z" />
<glyph unicode="o" d="M503 232q0 -109 -59.5 -178t-168.5 -69q-111 0 -170.5 69t-59.5 178q0 108 59 179t170 71q112 0 170.5 -71t58.5 -179zM275 38q80 0 123.5 53t43.5 141q0 85 -42.5 141t-125.5 56q-82 0 -124.5 -56t-42.5 -141q0 -88 43.5 -141t124.5 -53z" />
<glyph unicode="p" horiz-adv-x="537" d="M132 -263h-61v718l61 19v-65q60 73 154 73q100 0 152.5 -69.5t52.5 -182.5q0 -112 -60.5 -178.5t-167.5 -66.5q-71 0 -131 31v-279zM132 360v-288q52 -34 132 -34q78 0 122 50t44 142q0 94 -39 146.5t-117 52.5q-84 0 -142 -69z" />
<glyph unicode="q" horiz-adv-x="534" d="M465 -263h-61v315q-70 -67 -153 -67q-100 0 -153 70.5t-53 181.5q0 109 63 177t173 68q49 0 95 -17t67.5 -32.5t21.5 -17.5v-678zM404 106v288q-51 35 -126 35q-80 0 -125.5 -50.5t-45.5 -141.5q0 -94 38.5 -146.5t116.5 -52.5q82 0 142 68z" />
<glyph unicode="r" horiz-adv-x="356" d="M132 0h-61v455l61 19v-102q65 110 149 110q19 0 35.5 -4t23.5 -8l6 -3l-18 -53q-17 12 -56 12q-24 0 -47.5 -12t-42 -31.5t-30 -35t-20.5 -31.5v-316z" />
<glyph unicode="s" horiz-adv-x="466" d="M417 435l-24 -46q-6 4 -17 11t-49.5 18t-80.5 11q-64 0 -98 -24t-34 -63q0 -18 8 -31.5t18 -21t30.5 -14.5t34.5 -9.5t41 -7.5q37 -6 63 -14t54.5 -23t43.5 -41t15 -63q0 -62 -49.5 -97t-138.5 -35q-37 0 -70 6.5t-54.5 15.5t-38 18.5t-23.5 16.5l-7 6l22 48q7 -6 20 -16 t57.5 -26t92.5 -16q59 0 93 22t34 57q0 39 -31 56t-90 27q-91 18 -121 33q-66 33 -66 109q0 59 47.5 99.5t145.5 40.5q50 0 93 -12t61 -24z" />
<glyph unicode="t" horiz-adv-x="356" d="M323 67l23 -44q-5 -4 -13.5 -10.5t-37.5 -17t-61 -10.5q-62 0 -97 37t-35 113v281h-77l15 52h62v120l61 21v-141h154v-52h-154v-284q0 -93 76 -93q25 0 46 7t29 14z" />
<glyph unicode="u" horiz-adv-x="544" d="M526 57l12 -34q-36 -29 -88 -29q-29 0 -46 14.5t-17 40.5v10q-72 -74 -171 -74q-148 0 -148 170v313h61v-308q0 -64 24 -93t77 -29q85 0 155 70v346l62 19v-404q0 -27 22 -27q10 0 24.5 4t23.5 8z" />
<glyph unicode="v" horiz-adv-x="490" d="M277 0h-64l-188 468h67l153 -402l152 402h68z" />
<glyph unicode="w" horiz-adv-x="721" d="M534 0h-66l-109 392l-105 -392h-67l-159 468h66l124 -400l109 400h63l111 -403l126 403h66z" />
<glyph unicode="x" horiz-adv-x="470" d="M445 0h-80l-131 187l-129 -187h-79l167 222l-171 246h79l134 -198l135 198h78l-172 -239z" />
<glyph unicode="y" horiz-adv-x="487" d="M172 -263h-57l103 263h-7l-186 468h66l154 -402l151 402h66z" />
<glyph unicode="z" horiz-adv-x="475" d="M432 0h-388v52l312 364h-312v52h388v-52l-309 -364h309v-52z" />
<glyph unicode="{" horiz-adv-x="269" d="M238 -230v-53q-146 0 -146 157v276q0 62 -49 62h-10v54h10q21 0 35 15t14 48v265q0 156 146 156v-53q-91 0 -91 -104v-277q0 -26 -8 -44t-15.5 -24t-14.5 -7q38 -19 38 -75v-292q0 -56 23.5 -80t67.5 -24z" />
<glyph unicode="|" horiz-adv-x="214" d="M134 -297h-54v1061h54v-1061z" />
<glyph unicode="}" horiz-adv-x="269" d="M31 -283v53q44 0 67.5 24t23.5 80v292q0 54 36 75q-6 2 -13 7.5t-15 23.5t-8 44v277q0 104 -91 104v53q146 0 146 -156v-265q0 -33 14 -48t35 -15h9v-54h-9q-49 0 -49 -62v-276q0 -157 -146 -157z" />
<glyph unicode="~" horiz-adv-x="441" d="M347 381l35 -21q-1 -3 -3 -8.5t-9.5 -19t-17.5 -24t-26.5 -19t-36.5 -8.5q-30 0 -65.5 30t-57.5 30q-17 0 -35 -12.5t-27 -24.5l-10 -12l-32 27q1 3 4 8t12.5 17t20.5 21.5t29 17.5t38 8q32 0 71 -30.5t54 -30.5q16 0 30 13t20 25z" />
<glyph unicode="&#xa1;" horiz-adv-x="216" d="M158 428q0 -23 -14.5 -39t-35.5 -16t-35.5 16t-14.5 39t14 38.5t36 15.5t36 -15.5t14 -38.5zM145 -233h-74l14 517h48z" />
<glyph unicode="&#xa2;" horiz-adv-x="466" d="M415 97l20 -45q-3 -3 -8 -7.5t-22 -16t-36 -20.5t-48 -16t-60 -7q-113 0 -171 70.5t-58 178.5q0 109 59.5 178.5t169.5 69.5q44 0 82.5 -12t54.5 -24l16 -11l-24 -46q-4 4 -13.5 11t-42.5 18t-72 11q-80 0 -124 -53.5t-44 -141.5q0 -85 42.5 -140.5t125.5 -55.5 q41 0 79.5 15t56.5 29zM289 527h-45l-8 169h60zM296 -240h-60l8 169h45z" />
<glyph unicode="&#xa3;" horiz-adv-x="567" d="M426 246h-190q5 -23 5 -44q0 -36 -15.5 -71.5t-27 -49.5t-20.5 -22h345v-59h-429v59q9 7 22.5 19t35.5 49.5t22 74.5q0 18 -7 44h-126v59h103q-1 2 -9.5 18.5t-10.5 20.5t-9 19.5t-9.5 23t-8 22t-7.5 25t-5 25t-4 29t-1 29.5q0 84 59 140t164 56q59 0 113 -18.5t78 -36.5 l24 -18l-31 -52q-8 7 -22.5 18t-62 29.5t-98.5 18.5q-77 0 -116.5 -40.5t-39.5 -96.5q0 -27 3.5 -51.5t12.5 -48.5t15 -38t19 -39.5t17 -34.5h211v-59z" />
<glyph unicode="&#xa5;" horiz-adv-x="655" d="M134 162v44h161v60l-270 434h81l222 -371l224 371h79l-270 -435v-59h148v-44h-148v-162h-66v162h-161zM243 305l-30 44h-103v-44h133zM414 305l30 44h103v-44h-133z" />
<glyph unicode="&#xa6;" horiz-adv-x="217" d="M135 336h-53v428h53v-428zM135 -297h-53v460h53v-460z" />
<glyph unicode="&#xa7;" horiz-adv-x="612" d="M559 188q0 -92 -66 -148q66 -44 66 -135q0 -89 -64 -146t-185 -57q-55 0 -103 10.5t-76.5 26t-49 30.5t-29.5 25l-8 11l35 50q3 -4 9 -10t27 -22.5t45.5 -29t65 -22.5t84.5 -10q84 0 131.5 36t47.5 99t-40.5 90t-145.5 49q-60 12 -98 24.5t-74.5 34.5t-53.5 56t-17 83 q0 89 70 144q-70 46 -70 139q0 83 64.5 140t185.5 57q68 0 128.5 -18.5t87.5 -36.5l27 -18l-26 -57q-3 3 -9 7.5t-27 16.5t-44.5 21t-60 16.5t-75.5 7.5q-89 0 -134 -37t-45 -93q0 -64 44 -93.5t137 -47.5q51 -10 84 -18.5t67 -23.5t52.5 -34t30.5 -48.5t12 -68.5zM303 318 q-71 15 -106 27q-65 -35 -65 -106q0 -63 44 -93t137 -48q75 -14 114 -27q62 36 62 108q0 63 -40.5 90t-145.5 49z" />
<glyph unicode="&#xa8;" horiz-adv-x="307" d="M118 603q0 -18 -11.5 -31t-29.5 -13q-17 0 -28.5 13t-11.5 31q0 19 11.5 32t28.5 13q18 0 29.5 -13t11.5 -32zM268 603q0 -18 -11.5 -31t-29.5 -13t-29.5 13t-11.5 31q0 19 11.5 32t29.5 13t29.5 -13t11.5 -32z" />
<glyph unicode="&#xa9;" horiz-adv-x="632" d="M426 321l22 -31q-6 -6 -16.5 -14t-44 -22t-68.5 -14q-80 0 -119.5 52t-39.5 133t41.5 130t117.5 49q32 0 59 -10t38 -20l12 -9l-21 -32q-33 30 -88 30q-58 0 -87.5 -36t-29.5 -102q0 -62 29 -103t88 -41q31 0 57.5 10t37.5 20zM574 428q0 -128 -64.5 -212.5t-191.5 -84.5 q-129 0 -195 84.5t-66 212.5q0 127 67.5 206t193.5 79q124 0 190 -79.5t66 -205.5zM318 171q107 0 161.5 72.5t54.5 184.5q0 110 -57 177.5t-159 67.5q-103 0 -161.5 -66.5t-58.5 -178.5q0 -113 55.5 -185t164.5 -72z" />
<glyph unicode="&#xaa;" horiz-adv-x="365" d="M301 506l6 -26q-16 -11 -40 -11q-36 0 -36 30v2q-32 -37 -83 -37q-37 0 -57.5 17t-20.5 45q0 69 123 69q10 0 37 -3v41q0 23 -15 33.5t-50 10.5q-20 0 -36.5 -3.5t-23.5 -6.5l-7 -3l-12 31q29 18 80 18q98 0 98 -80v-117q0 -16 13 -16zM296 385h-230v38h230v-38zM230 533 v30q-18 2 -37 2q-88 0 -88 -37q0 -31 44 -31q41 0 81 36z" />
<glyph unicode="&#xab;" horiz-adv-x="473" d="M257 51l-37 -39l-174 182v48l174 183l36 -39l-143 -168zM425 51l-37 -39l-174 182v48l174 183l36 -39l-143 -168z" />
<glyph unicode="&#xac;" horiz-adv-x="509" d="M438 113h-62v135h-304v59h366v-194z" />
<glyph unicode="&#xad;" horiz-adv-x="377" d="M310 248h-243v59h243v-59z" />
<glyph unicode="&#xae;" horiz-adv-x="632" d="M574 429q0 -128 -64.5 -212.5t-191.5 -84.5q-129 0 -195 84.5t-66 212.5q0 127 67.5 206t193.5 79q124 0 190 -79.5t66 -205.5zM318 172q107 0 161.5 72.5t54.5 184.5q0 110 -57 177.5t-159 67.5q-103 0 -161.5 -66.5t-58.5 -178.5q0 -113 55.5 -185t164.5 -72zM468 292 l13 -30q-18 -16 -43 -16q-45 0 -63 39l-46 100q-8 -1 -25 -1h-62v-135h-43v350h119q112 0 112 -108q0 -77 -59 -98l40 -86q11 -24 31 -24q8 0 14.5 2.5t9.5 4.5zM242 424h65q43 0 62 16t19 51t-16.5 51.5t-53.5 16.5h-76v-135z" />
<glyph unicode="&#xaf;" horiz-adv-x="225" d="M204 553h-174v49h174v-49z" />
<glyph unicode="&#xb0;" horiz-adv-x="364" d="M315 616q0 -66 -35 -107.5t-98 -41.5q-62 0 -97 42t-35 107t35.5 105t96.5 40q62 0 97.5 -39.5t35.5 -105.5zM182 512q42 0 64.5 29t22.5 75q0 47 -23.5 73.5t-63.5 26.5q-39 0 -62.5 -26.5t-23.5 -73.5q0 -46 22.5 -75t63.5 -29z" />
<glyph unicode="&#xb1;" horiz-adv-x="440" d="M371 326h-122v-141h-57v141h-124v59h124v141h57v-141h122v-59zM371 83h-303v59h303v-59z" />
<glyph unicode="&#xb2;" horiz-adv-x="358" d="M291 356h-225v37l90 77q5 4 18.5 15t19 15.5t16 14.5t15 17.5t10.5 18t8.5 21.5t2.5 23q0 32 -22 52.5t-58 20.5q-25 0 -47.5 -8t-32.5 -16l-10 -9l-21 34q5 5 14 12.5t38.5 19.5t59.5 12q58 0 91.5 -33t33.5 -85q0 -12 -1.5 -22.5t-5.5 -20.5t-6.5 -17.5t-10.5 -17.5 t-11 -15t-14 -15.5t-13.5 -13t-15.5 -14t-15 -13.5l-51 -44h143v-46z" />
<glyph unicode="&#xb3;" horiz-adv-x="358" d="M153 513v45q42 0 67.5 11.5t25.5 46.5q0 24 -20 38t-54 14q-24 0 -46.5 -8t-33.5 -16l-10 -9l-21 34q5 5 14.5 12.5t38.5 19.5t58 12q55 0 88 -25.5t33 -65.5q0 -73 -67 -86q78 -11 78 -87q0 -45 -35.5 -73t-94.5 -28q-34 0 -65 12.5t-45 25.5l-14 12l24 36 q4 -5 11.5 -11.5t33 -18t54.5 -11.5q84 0 84 56q0 64 -104 64z" />
<glyph unicode="&#xb4;" horiz-adv-x="270" d="M115 547h-58l80 191h76z" />
<glyph unicode="&#xb5;" horiz-adv-x="505" d="M530 57l12 -34q-36 -29 -88 -29q-29 0 -46 14.5t-17 40.5v10q-72 -74 -171 -74q-51 0 -87 22v-270h-61v731h61v-308q0 -64 24 -93t77 -29q85 0 155 70v346l62 19v-404q0 -27 22 -27q10 0 24.5 4t23.5 8z" />
<glyph unicode="&#xb6;" horiz-adv-x="615" d="M367 0h-66v228h-26q-114 0 -176.5 59t-62.5 178t62.5 177t176.5 58h92v-700zM526 0h-66v700h66v-700z" />
<glyph unicode="&#xb7;" horiz-adv-x="231" d="M166 314q0 -23 -14.5 -38.5t-36.5 -15.5t-36 15.5t-14 38.5t14 38.5t36 15.5t36.5 -15.5t14.5 -38.5z" />
<glyph unicode="&#xb8;" horiz-adv-x="238" d="M48 -152l15 29q17 -17 50 -17q36 0 36 33q0 36 -72 36l23 72h40l-15 -44q26 -2 45 -17.5t19 -46.5q0 -32 -20 -51t-57 -19q-18 0 -34 6.5t-23 12.5z" />
<glyph unicode="&#xb9;" horiz-adv-x="288" d="M216 356h-47v297l-122 -80l-22 37q143 96 144 96h47v-350z" />
<glyph unicode="&#xba;" horiz-adv-x="371" d="M263 587q0 39 -19 64t-59 25t-58.5 -25t-18.5 -64q0 -40 20 -63t57 -23q38 0 58 23t20 63zM300 423v-38h-230v38h230zM298 587q0 -54 -30 -88.5t-83 -34.5t-82.5 34.5t-29.5 88.5q0 55 28.5 90.5t83.5 35.5q56 0 84.5 -35.5t28.5 -90.5z" />
<glyph unicode="&#xbb;" horiz-adv-x="473" d="M428 194l-174 -182l-38 39l144 167l-143 168l37 39l174 -183v-48zM259 194l-174 -182l-37 39l144 167l-143 168l36 39l174 -183v-48z" />
<glyph unicode="&#xbc;" horiz-adv-x="633" d="M556 -3h-45v82h-164v45l122 220h48l-119 -220h113v89h45v-89h39v-45h-39v-82zM219 356h-47v297l-123 -80l-21 37q143 96 144 96h47v-350zM121 -15h-57l450 728h57z" />
<glyph unicode="&#xbd;" horiz-adv-x="661" d="M219 356h-47v297l-123 -80l-21 37q143 96 144 96h47v-350zM121 -15h-57l450 728h57zM612 0h-226v37l91 77q4 4 20.5 17.5t22 18.5t17 17.5t16 21.5t9 22.5t4.5 27.5q0 32 -22 52.5t-58 20.5q-25 0 -47.5 -8t-32.5 -16l-10 -9l-21 34q5 5 14.5 12.5t38.5 19.5t59 12 q59 0 92 -33t33 -85q0 -33 -15.5 -63t-31 -44.5t-46.5 -41.5l-51 -44h144v-46z" />
<glyph unicode="&#xbe;" horiz-adv-x="646" d="M158 -15h-58l451 728h57zM138 513v45q92 0 92 58q0 24 -20 38t-54 14q-24 0 -46 -8t-32 -16l-11 -9l-21 34q5 5 14.5 12.5t38.5 19.5t58 12q55 0 87.5 -25.5t32.5 -65.5q0 -73 -67 -86q79 -11 79 -87q0 -45 -35.5 -73t-94.5 -28q-34 0 -65 12.5t-45 25.5l-14 12l24 36 q4 -5 11.5 -11.5t33 -18t54.5 -11.5q84 0 84 56q0 64 -104 64zM563 -3h-45v82h-164v45l122 220h47l-118 -220h113v89h45v-89h39v-45h-39v-82z" />
<glyph unicode="&#xbf;" horiz-adv-x="485" d="M433 -120l30 -51q-3 -3 -9 -8t-26.5 -18t-43.5 -23t-58.5 -18t-72.5 -8q-101 0 -158.5 59.5t-57.5 154.5q0 52 20 98.5t48.5 75.5t57.5 50t49 30l20 9v85h65v-116q-8 -3 -21 -8t-46 -25t-58.5 -44t-46.5 -65.5t-21 -89.5q0 -69 41 -112t108 -43q48 0 93 16.5t66 33.5z M316 428q0 -23 -14 -38.5t-36 -15.5q-21 0 -35 15.5t-14 38.5t14 38.5t35 15.5q22 0 36 -15.5t14 -38.5z" />
<glyph unicode="&#xc0;" horiz-adv-x="629" d="M606 0h-70l-70 197h-302l-71 -197h-69l255 700h71zM443 256l-128 358l-129 -358h257zM337 754h-58l-97 191h76z" />
<glyph unicode="&#xc1;" horiz-adv-x="629" d="M606 0h-70l-70 197h-302l-71 -197h-69l255 700h71zM443 256l-128 358l-129 -358h257zM345 753h-58l80 191h76z" />
<glyph unicode="&#xc2;" horiz-adv-x="629" d="M453 754h-56l-81 135l-84 -135h-55l101 191h75zM606 0h-70l-70 197h-302l-71 -197h-69l255 700h71zM443 256l-128 358l-129 -358h257z" />
<glyph unicode="&#xc3;" horiz-adv-x="629" d="M606 0h-70l-70 197h-302l-71 -197h-69l255 700h71zM443 256l-128 358l-129 -358h257zM439 853l35 -21q-1 -3 -3 -8.5t-9.5 -19t-17.5 -23.5t-26.5 -18.5t-36.5 -8.5q-29 0 -64.5 30t-57.5 30q-18 0 -36 -12t-27 -24l-9 -13l-33 27q1 3 4 7.5t12.5 17t21 22t29.5 17 t38 7.5q32 0 70.5 -30.5t53.5 -30.5q16 0 30 13t20 25z" />
<glyph unicode="&#xc4;" horiz-adv-x="629" d="M280 798q0 -18 -11.5 -31t-29.5 -13q-17 0 -28.5 13t-11.5 31q0 19 11.5 32t28.5 13q18 0 29.5 -13t11.5 -32zM430 798q0 -18 -11.5 -31t-29.5 -13t-29.5 13t-11.5 31q0 19 11.5 32t29.5 13t29.5 -13t11.5 -32zM606 0h-70l-70 197h-302l-71 -197h-69l255 700h71zM443 256 l-128 358l-129 -358h257z" />
<glyph unicode="&#xc5;" horiz-adv-x="629" d="M606 0h-70l-70 197h-302l-71 -197h-69l255 700h71zM443 256l-128 358l-129 -358h257zM314 754q-27 0 -44 18t-17 47t17 47t44 18t43.5 -18t16.5 -47t-16.5 -47t-43.5 -18zM343 819q0 15 -8 24.5t-21 9.5q-30 0 -30 -34t30 -34q13 0 21 9.5t8 24.5z" />
<glyph unicode="&#xc6;" horiz-adv-x="959" d="M912 0h-465v197h-247l-110 -197h-70l398 700h494v-59h-399v-269h328v-59h-328v-254h399v-59zM447 256v379l-211 -379h211z" />
<glyph unicode="&#xc7;" horiz-adv-x="662" d="M307 -152l15 29q17 -17 50 -17q36 0 36 33q0 36 -72 36l18 58q-79 5 -139 36t-95 82t-52 114t-17 137q0 162 88 259.5t247 97.5q65 0 119 -16.5t75 -32.5l22 -16l-29 -53q-7 7 -21 16.5t-62.5 26t-103.5 16.5q-126 0 -196.5 -79t-70.5 -219q0 -137 66 -224.5t202 -87.5 q61 0 118.5 20t84.5 40l28 20l22 -52q-4 -3 -11 -9t-31 -20.5t-50.5 -26t-68.5 -21t-86 -10.5l-9 -28q26 -2 45 -17.5t19 -46.5q0 -32 -20 -51t-57 -19q-18 0 -34 6.5t-23 12.5z" />
<glyph unicode="&#xc8;" horiz-adv-x="601" d="M553 0h-465v700h465v-59h-398v-269h327v-59h-327v-254h398v-59zM368 754h-58l-97 191h76z" />
<glyph unicode="&#xc9;" horiz-adv-x="601" d="M341 753h-58l80 191h76zM553 0h-465v700h465v-59h-398v-269h327v-59h-327v-254h398v-59z" />
<glyph unicode="&#xca;" horiz-adv-x="601" d="M464 753h-56l-81 135l-84 -135h-55l101 191h75zM553 0h-465v700h465v-59h-398v-269h327v-59h-327v-254h398v-59z" />
<glyph unicode="&#xcb;" horiz-adv-x="601" d="M295 798q0 -18 -11.5 -31t-29.5 -13q-17 0 -28.5 13t-11.5 31q0 19 11.5 32t28.5 13q18 0 29.5 -13t11.5 -32zM445 798q0 -18 -11.5 -31t-29.5 -13t-29.5 13t-11.5 31q0 19 11.5 32t29.5 13t29.5 -13t11.5 -32zM553 0h-465v700h465v-59h-398v-269h327v-59h-327v-254h398 v-59z" />
<glyph unicode="&#xcc;" horiz-adv-x="243" d="M155 0h-67v700h67v-700zM150 754h-58l-97 191h76z" />
<glyph unicode="&#xcd;" horiz-adv-x="243" d="M155 0h-67v700h67v-700zM149 754h-58l80 191h76z" />
<glyph unicode="&#xce;" horiz-adv-x="243" d="M259 754h-56l-81 135l-84 -135h-55l101 191h75zM155 0h-67v700h67v-700z" />
<glyph unicode="&#xcf;" horiz-adv-x="243" d="M88 798q0 -18 -11.5 -31t-29.5 -13q-17 0 -28.5 13t-11.5 31q0 19 11.5 32t28.5 13q18 0 29.5 -13t11.5 -32zM238 798q0 -18 -11.5 -31t-29.5 -13t-29.5 13t-11.5 31q0 19 11.5 32t29.5 13t29.5 -13t11.5 -32zM155 0h-67v700h67v-700z" />
<glyph unicode="&#xd0;" horiz-adv-x="695" d="M298 0h-206v309h-59v56h59v335h214q163 0 249.5 -89.5t86.5 -264.5q0 -346 -344 -346zM159 59h129q148 -1 217.5 67.5t69.5 219.5q0 295 -281 295h-135v-276h82v-56h-82v-250z" />
<glyph unicode="&#xd1;" horiz-adv-x="684" d="M473 853l35 -21q-1 -3 -3 -8.5t-9.5 -19t-17.5 -23.5t-26.5 -18.5t-36.5 -8.5q-29 0 -64.5 30t-57.5 30q-18 0 -36 -12t-27 -24l-9 -13l-33 27q1 3 4 7.5t12.5 17t21 22t29.5 17t38 7.5q32 0 70.5 -30.5t53.5 -30.5q16 0 30 13t20 25zM595 0h-56l-384 578v-578h-67v700 h59l383 -581v581h65v-700z" />
<glyph unicode="&#xd2;" horiz-adv-x="749" d="M407 754h-58l-97 191h76zM699 353q0 -76 -19.5 -141.5t-58 -117t-102 -80.5t-144.5 -29q-160 0 -242.5 104t-82.5 264q0 162 87.5 261t237.5 99q149 0 236.5 -99t87.5 -261zM632 353q0 141 -69 221t-188 80t-188.5 -80t-69.5 -221q0 -135 65 -222t193 -87q127 0 192 87.5 t65 221.5z" />
<glyph unicode="&#xd3;" horiz-adv-x="749" d="M398 754h-58l80 191h76zM699 353q0 -76 -19.5 -141.5t-58 -117t-102 -80.5t-144.5 -29q-160 0 -242.5 104t-82.5 264q0 162 87.5 261t237.5 99q149 0 236.5 -99t87.5 -261zM632 353q0 141 -69 221t-188 80t-188.5 -80t-69.5 -221q0 -135 65 -222t193 -87q127 0 192 87.5 t65 221.5z" />
<glyph unicode="&#xd4;" horiz-adv-x="749" d="M512 753h-56l-81 135l-84 -135h-55l101 191h75zM699 353q0 -76 -19.5 -141.5t-58 -117t-102 -80.5t-144.5 -29q-160 0 -242.5 104t-82.5 264q0 162 87.5 261t237.5 99q149 0 236.5 -99t87.5 -261zM632 353q0 141 -69 221t-188 80t-188.5 -80t-69.5 -221q0 -135 65 -222 t193 -87q127 0 192 87.5t65 221.5z" />
<glyph unicode="&#xd5;" horiz-adv-x="749" d="M699 353q0 -76 -19.5 -141.5t-58 -117t-102 -80.5t-144.5 -29q-160 0 -242.5 104t-82.5 264q0 162 87.5 261t237.5 99q149 0 236.5 -99t87.5 -261zM632 353q0 141 -69 221t-188 80t-188.5 -80t-69.5 -221q0 -135 65 -222t193 -87q127 0 192 87.5t65 221.5zM499 853 l35 -21q-1 -3 -3 -8.5t-9.5 -19t-17.5 -23.5t-26.5 -18.5t-36.5 -8.5q-29 0 -64.5 30t-57.5 30q-18 0 -36 -12t-27 -24l-9 -13l-33 27q1 3 4 7.5t12.5 17t21 22t29.5 17t38 7.5q32 0 70.5 -30.5t53.5 -30.5q16 0 30 13t20 25z" />
<glyph unicode="&#xd6;" horiz-adv-x="749" d="M339 798q0 -18 -11.5 -31t-29.5 -13q-17 0 -28.5 13t-11.5 31q0 19 11.5 32t28.5 13q18 0 29.5 -13t11.5 -32zM489 798q0 -18 -11.5 -31t-29.5 -13t-29.5 13t-11.5 31q0 19 11.5 32t29.5 13t29.5 -13t11.5 -32zM699 353q0 -76 -19.5 -141.5t-58 -117t-102 -80.5 t-144.5 -29q-160 0 -242.5 104t-82.5 264q0 162 87.5 261t237.5 99q149 0 236.5 -99t87.5 -261zM632 353q0 141 -69 221t-188 80t-188.5 -80t-69.5 -221q0 -135 65 -222t193 -87q127 0 192 87.5t65 221.5z" />
<glyph unicode="&#xd7;" horiz-adv-x="404" d="M298 137l-95 104l-96 -104l-41 41l96 105l-98 106l41 42l98 -107l95 104l41 -41l-95 -104l95 -105z" />
<glyph unicode="&#xd8;" horiz-adv-x="749" d="M699 353q0 -76 -19.5 -141.5t-58 -117t-102 -80.5t-144.5 -29q-36 0 -69 6l-36 -140h-54l40 153q-102 35 -154 129t-52 220q0 162 87.5 261t237.5 99q33 0 64 -6l24 92h54l-28 -105q99 -34 154.5 -124t55.5 -217zM632 353q0 108 -41.5 181t-116.5 102l-153 -588 q23 -4 54 -4q127 0 192 87.5t65 221.5zM117 353q0 -103 38.5 -180.5t115.5 -109.5l153 587q-32 4 -49 4q-119 0 -188.5 -80t-69.5 -221z" />
<glyph unicode="&#xd9;" horiz-adv-x="675" d="M527 286v414h66v-409q0 -165 -60 -234t-198 -72q-134 2 -193.5 71.5t-59.5 234.5v409h65v-414q0 -132 44 -187.5t144 -55.5q103 0 147.5 54t44.5 189zM363 754h-58l-97 191h76z" />
<glyph unicode="&#xda;" horiz-adv-x="675" d="M349 754h-58l80 191h76zM527 286v414h66v-409q0 -165 -60 -234t-198 -72q-134 2 -193.5 71.5t-59.5 234.5v409h65v-414q0 -132 44 -187.5t144 -55.5q103 0 147.5 54t44.5 189z" />
<glyph unicode="&#xdb;" horiz-adv-x="675" d="M472 754h-56l-81 135l-84 -135h-55l101 191h75zM527 286v414h66v-409q0 -165 -60 -234t-198 -72q-134 2 -193.5 71.5t-59.5 234.5v409h65v-414q0 -132 44 -187.5t144 -55.5q103 0 147.5 54t44.5 189z" />
<glyph unicode="&#xdc;" horiz-adv-x="675" d="M301 798q0 -18 -11.5 -31t-29.5 -13q-17 0 -28.5 13t-11.5 31q0 19 11.5 32t28.5 13q18 0 29.5 -13t11.5 -32zM451 798q0 -18 -11.5 -31t-29.5 -13t-29.5 13t-11.5 31q0 19 11.5 32t29.5 13t29.5 -13t11.5 -32zM527 286v414h66v-409q0 -165 -60 -234t-198 -72 q-134 2 -193.5 71.5t-59.5 234.5v409h65v-414q0 -132 44 -187.5t144 -55.5q103 0 147.5 54t44.5 189z" />
<glyph unicode="&#xdd;" horiz-adv-x="655" d="M360 0h-65v266l-271 434h81l223 -371l224 371h78l-270 -435v-265zM343 727h-58l80 191h76z" />
<glyph unicode="&#xde;" horiz-adv-x="632" d="M348 111h-193v-111h-67v700h67v-104h193q116 0 180.5 -62t64.5 -186q0 -119 -64.5 -178t-180.5 -59zM155 170h193q177 0 177 178q0 189 -177 189h-193v-367z" />
<glyph unicode="&#xdf;" horiz-adv-x="636" d="M163 0h-61v416h-77l15 52h62v101q0 89 48 135.5t128 46.5q88 0 140.5 -42.5t52.5 -124.5q0 -39 -11.5 -71.5t-28.5 -53.5t-33.5 -38.5t-28 -35.5t-11.5 -37q0 -25 25.5 -41.5t61.5 -29t72 -28t61.5 -48.5t25.5 -81q0 -63 -45.5 -99t-126.5 -36q-55 0 -98.5 19.5 t-59.5 38.5l-17 19l23 41q5 -7 15 -18t49 -29t87 -18q52 0 81 22.5t29 59.5t-25 60.5t-61 35.5t-72 25t-61 39t-25 68q0 24 11.5 46.5t28.5 41t33.5 38t28 48t11.5 61.5q0 56 -36 84.5t-94 28.5q-54 0 -85.5 -32.5t-31.5 -92.5v-571z" />
<glyph unicode="&#xe0;" horiz-adv-x="510" d="M493 57l12 -34q-36 -29 -88 -29q-27 0 -44.5 13.5t-17.5 38.5v10q-68 -71 -169 -71q-68 0 -108.5 30.5t-40.5 89.5q0 129 230 129q46 0 86 -10v101q0 54 -31 79t-100 25q-35 0 -71 -7t-54 -14l-18 -7l-14 50q75 31 170 31q179 0 179 -145v-268q0 -27 23 -27q10 0 24 4 t23 8zM353 105v73q-40 8 -85 8q-170 0 -170 -80q0 -35 27 -52t72 -17q88 0 156 68zM287 547h-58l-97 191h76z" />
<glyph unicode="&#xe1;" horiz-adv-x="510" d="M493 57l12 -34q-36 -29 -88 -29q-27 0 -44.5 13.5t-17.5 38.5v10q-68 -71 -169 -71q-68 0 -108.5 30.5t-40.5 89.5q0 129 230 129q46 0 86 -10v101q0 54 -31 79t-100 25q-35 0 -71 -7t-54 -14l-18 -7l-14 50q75 31 170 31q179 0 179 -145v-268q0 -27 23 -27q10 0 24 4 t23 8zM353 105v73q-40 8 -85 8q-170 0 -170 -80q0 -35 27 -52t72 -17q88 0 156 68zM262 548h-58l80 191h76z" />
<glyph unicode="&#xe2;" horiz-adv-x="510" d="M381 546h-56l-81 135l-84 -135h-55l101 191h75zM493 57l12 -34q-36 -29 -88 -29q-27 0 -44.5 13.5t-17.5 38.5v10q-68 -71 -169 -71q-68 0 -108.5 30.5t-40.5 89.5q0 129 230 129q46 0 86 -10v101q0 54 -31 79t-100 25q-35 0 -71 -7t-54 -14l-18 -7l-14 50q75 31 170 31 q179 0 179 -145v-268q0 -27 23 -27q10 0 24 4t23 8zM353 105v73q-40 8 -85 8q-170 0 -170 -80q0 -35 27 -52t72 -17q88 0 156 68z" />
<glyph unicode="&#xe3;" horiz-adv-x="510" d="M493 57l12 -34q-36 -29 -88 -29q-27 0 -44.5 13.5t-17.5 38.5v10q-68 -71 -169 -71q-68 0 -108.5 30.5t-40.5 89.5q0 129 230 129q46 0 86 -10v101q0 54 -31 79t-100 25q-35 0 -71 -7t-54 -14l-18 -7l-14 50q75 31 170 31q179 0 179 -145v-268q0 -27 23 -27q10 0 24 4 t23 8zM353 105v73q-40 8 -85 8q-170 0 -170 -80q0 -35 27 -52t72 -17q88 0 156 68zM366 633l35 -21q-1 -3 -3 -8.5t-9.5 -19t-17.5 -23.5t-26.5 -18.5t-36.5 -8.5q-29 0 -64.5 30t-57.5 30q-18 0 -36 -12t-27 -24l-9 -13l-33 27q1 3 4 7.5t12.5 17t21 22t29.5 17t38 7.5 q32 0 70.5 -30.5t53.5 -30.5q16 0 30 13t20 25z" />
<glyph unicode="&#xe4;" horiz-adv-x="510" d="M209 603q0 -18 -11.5 -31t-29.5 -13q-17 0 -28.5 13t-11.5 31q0 19 11.5 32t28.5 13q18 0 29.5 -13t11.5 -32zM359 603q0 -18 -11.5 -31t-29.5 -13t-29.5 13t-11.5 31q0 19 11.5 32t29.5 13t29.5 -13t11.5 -32zM493 57l12 -34q-36 -29 -88 -29q-27 0 -44.5 13.5 t-17.5 38.5v10q-68 -71 -169 -71q-68 0 -108.5 30.5t-40.5 89.5q0 129 230 129q46 0 86 -10v101q0 54 -31 79t-100 25q-35 0 -71 -7t-54 -14l-18 -7l-14 50q75 31 170 31q179 0 179 -145v-268q0 -27 23 -27q10 0 24 4t23 8zM353 105v73q-40 8 -85 8q-170 0 -170 -80 q0 -35 27 -52t72 -17q88 0 156 68z" />
<glyph unicode="&#xe5;" horiz-adv-x="510" d="M493 57l12 -34q-36 -29 -88 -29q-27 0 -44.5 13.5t-17.5 38.5v10q-68 -71 -169 -71q-68 0 -108.5 30.5t-40.5 89.5q0 129 230 129q46 0 86 -10v101q0 54 -31 79t-100 25q-35 0 -71 -7t-54 -14l-18 -7l-14 50q75 31 170 31q179 0 179 -145v-268q0 -27 23 -27q10 0 24 4 t23 8zM353 105v73q-40 8 -85 8q-170 0 -170 -80q0 -35 27 -52t72 -17q88 0 156 68zM239 542q-27 0 -44 18t-17 47t17 47t44 18t43.5 -18t16.5 -47t-16.5 -47t-43.5 -18zM268 607q0 15 -8 24.5t-21 9.5q-30 0 -30 -34t30 -34q13 0 21 9.5t8 24.5z" />
<glyph unicode="&#xe6;" horiz-adv-x="817" d="M736 97l20 -42q-7 -8 -21 -19.5t-59 -31t-93 -19.5q-127 0 -187 92q-88 -92 -210 -92q-68 0 -108.5 30.5t-40.5 89.5q0 129 230 129q45 0 87 -10q-1 4 -1 101q0 54 -31 79t-100 25q-35 0 -71 -7t-54 -14l-18 -7l-14 50q75 31 170 31q134 0 165 -91q57 91 175 91 q98 0 149 -64t51 -149q0 -15 -2.5 -29.5t-4.5 -21.5l-2 -7h-350q6 -77 48 -125t119 -48q41 0 79.5 15t55.5 29zM357 178q-32 8 -89 8q-170 0 -170 -80q0 -35 27 -52t72 -17q88 0 179 74q-15 35 -19 67zM717 260v13q0 71 -37.5 113.5t-104.5 42.5q-72 0 -113.5 -46 t-46.5 -123h302z" />
<glyph unicode="&#xe7;" horiz-adv-x="480" d="M207 -152l15 29q17 -17 50 -17q36 0 36 33q0 36 -72 36l18 57q-102 6 -155.5 75.5t-53.5 172.5q0 109 59.5 178.5t170.5 69.5q44 0 82 -11t54 -23l16 -11l-24 -47q-4 4 -13.5 10.5t-42 17.5t-71.5 11q-81 0 -124.5 -53.5t-43.5 -141.5q0 -85 42.5 -140.5t125.5 -55.5 q42 0 80 15t55 29l17 15l21 -47q-7 -6 -19 -16t-52.5 -27.5t-83.5 -20.5l-10 -29q26 -2 45 -17.5t19 -46.5q0 -32 -20 -51t-57 -19q-18 0 -34 6.5t-23 12.5z" />
<glyph unicode="&#xe8;" horiz-adv-x="509" d="M458 211h-350q6 -77 48.5 -125t119.5 -48q41 0 79 15t55 29l18 15l21 -42q-3 -3 -8 -7.5t-22 -16.5t-36 -21.5t-48.5 -17t-59.5 -7.5q-113 0 -171.5 70.5t-58.5 178.5q0 109 57.5 178.5t164.5 69.5q98 0 149 -64t51 -149q0 -15 -2.5 -29.5t-4.5 -21.5zM108 260h301v13 q0 71 -37 113.5t-105 42.5q-72 0 -113 -46t-46 -123zM293 547h-58l-97 191h76z" />
<glyph unicode="&#xe9;" horiz-adv-x="509" d="M284 547h-58l80 191h76zM458 211h-350q6 -77 48.5 -125t119.5 -48q41 0 79 15t55 29l18 15l21 -42q-3 -3 -8 -7.5t-22 -16.5t-36 -21.5t-48.5 -17t-59.5 -7.5q-113 0 -171.5 70.5t-58.5 178.5q0 109 57.5 178.5t164.5 69.5q98 0 149 -64t51 -149q0 -15 -2.5 -29.5 t-4.5 -21.5zM108 260h301v13q0 71 -37 113.5t-105 42.5q-72 0 -113 -46t-46 -123z" />
<glyph unicode="&#xea;" horiz-adv-x="509" d="M401 547h-56l-81 135l-84 -135h-55l101 191h75zM458 211h-350q6 -77 48.5 -125t119.5 -48q41 0 79 15t55 29l18 15l21 -42q-3 -3 -8 -7.5t-22 -16.5t-36 -21.5t-48.5 -17t-59.5 -7.5q-113 0 -171.5 70.5t-58.5 178.5q0 109 57.5 178.5t164.5 69.5q98 0 149 -64t51 -149 q0 -15 -2.5 -29.5t-4.5 -21.5zM108 260h301v13q0 71 -37 113.5t-105 42.5q-72 0 -113 -46t-46 -123z" />
<glyph unicode="&#xeb;" horiz-adv-x="509" d="M230 603q0 -18 -11.5 -31t-29.5 -13q-17 0 -28.5 13t-11.5 31q0 19 11.5 32t28.5 13q18 0 29.5 -13t11.5 -32zM380 603q0 -18 -11.5 -31t-29.5 -13t-29.5 13t-11.5 31q0 19 11.5 32t29.5 13t29.5 -13t11.5 -32zM458 211h-350q6 -77 48.5 -125t119.5 -48q41 0 79 15t55 29 l18 15l21 -42q-3 -3 -8 -7.5t-22 -16.5t-36 -21.5t-48.5 -17t-59.5 -7.5q-113 0 -171.5 70.5t-58.5 178.5q0 109 57.5 178.5t164.5 69.5q98 0 149 -64t51 -149q0 -15 -2.5 -29.5t-4.5 -21.5zM108 260h301v13q0 71 -37 113.5t-105 42.5q-72 0 -113 -46t-46 -123z" />
<glyph unicode="&#xec;" horiz-adv-x="206" d="M134 0h-62v468h62v-468zM133 547h-58l-97 191h76z" />
<glyph unicode="&#xed;" horiz-adv-x="206" d="M134 547h-58l80 191h76zM134 0h-62v468h62v-468z" />
<glyph unicode="&#xee;" horiz-adv-x="206" d="M243 547h-56l-81 135l-84 -135h-55l101 191h75zM134 0h-62v468h62v-468z" />
<glyph unicode="&#xef;" horiz-adv-x="206" d="M68 603q0 -18 -11.5 -31t-29.5 -13q-17 0 -28.5 13t-11.5 31q0 19 11.5 32t28.5 13q18 0 29.5 -13t11.5 -32zM218 603q0 -18 -11.5 -31t-29.5 -13t-29.5 13t-11.5 31q0 19 11.5 32t29.5 13t29.5 -13t11.5 -32zM134 0h-62v468h62v-468z" />
<glyph unicode="&#xf0;" horiz-adv-x="584" d="M256 529l-29 32l75 84q-29 9 -62 9q-37 0 -70.5 -12t-48.5 -24l-15 -11l-29 51q7 6 19.5 15t55.5 24.5t90 15.5q58 0 105 -18l63 71l29 -33l-51 -57q72 -42 109.5 -125t37.5 -195q0 -105 -26 -186t-88 -133t-154 -52q-98 0 -159.5 63.5t-61.5 161.5q0 111 60.5 171 t167.5 60q112 0 194 -82q-5 201 -123 269zM267 44q84 0 136.5 66.5t62.5 187.5q-86 83 -192 83q-73 0 -116.5 -45.5t-43.5 -125.5q0 -71 43 -118.5t110 -47.5z" />
<glyph unicode="&#xf1;" d="M395 633l35 -21q-1 -3 -3 -8.5t-9.5 -19t-17.5 -23.5t-26.5 -18.5t-36.5 -8.5q-29 0 -64.5 30t-57.5 30q-18 0 -36 -12t-27 -24l-9 -13l-33 27q1 3 4 7.5t12.5 17t21 22t29.5 17t38 7.5q32 0 70.5 -30.5t53.5 -30.5q16 0 30 13t20 25zM531 57l13 -34q-36 -29 -89 -29 q-35 0 -49.5 18t-14.5 57v238q0 62 -24 90.5t-77 28.5q-83 0 -158 -79v-347h-61v455l61 19v-76q78 84 172 84q148 0 148 -170v-243q0 -27 23 -27q10 0 24 4t23 8z" />
<glyph unicode="&#xf2;" d="M304 547h-58l-97 191h76zM503 232q0 -109 -59.5 -178t-168.5 -69q-111 0 -170.5 69t-59.5 178q0 108 59 179t170 71q112 0 170.5 -71t58.5 -179zM275 38q80 0 123.5 53t43.5 141q0 85 -42.5 141t-125.5 56q-82 0 -124.5 -56t-42.5 -141q0 -88 43.5 -141t124.5 -53z" />
<glyph unicode="&#xf3;" d="M294 547h-58l80 191h76zM503 232q0 -109 -59.5 -178t-168.5 -69q-111 0 -170.5 69t-59.5 178q0 108 59 179t170 71q112 0 170.5 -71t58.5 -179zM275 38q80 0 123.5 53t43.5 141q0 85 -42.5 141t-125.5 56q-82 0 -124.5 -56t-42.5 -141q0 -88 43.5 -141t124.5 -53z" />
<glyph unicode="&#xf4;" d="M410 547h-56l-81 135l-84 -135h-55l101 191h75zM503 232q0 -109 -59.5 -178t-168.5 -69q-111 0 -170.5 69t-59.5 178q0 108 59 179t170 71q112 0 170.5 -71t58.5 -179zM275 38q80 0 123.5 53t43.5 141q0 85 -42.5 141t-125.5 56q-82 0 -124.5 -56t-42.5 -141 q0 -88 43.5 -141t124.5 -53z" />
<glyph unicode="&#xf5;" d="M503 232q0 -109 -59.5 -178t-168.5 -69q-111 0 -170.5 69t-59.5 178q0 108 59 179t170 71q112 0 170.5 -71t58.5 -179zM275 38q80 0 123.5 53t43.5 141q0 85 -42.5 141t-125.5 56q-82 0 -124.5 -56t-42.5 -141q0 -88 43.5 -141t124.5 -53zM400 633l35 -21q-1 -3 -3 -8.5 t-9.5 -19t-17.5 -23.5t-26.5 -18.5t-36.5 -8.5q-29 0 -64.5 30t-57.5 30q-18 0 -36 -12t-27 -24l-9 -13l-33 27q1 3 4 7.5t12.5 17t21 22t29.5 17t38 7.5q32 0 70.5 -30.5t53.5 -30.5q16 0 30 13t20 25z" />
<glyph unicode="&#xf6;" d="M242 603q0 -18 -11.5 -31t-29.5 -13q-17 0 -28.5 13t-11.5 31q0 19 11.5 32t28.5 13q18 0 29.5 -13t11.5 -32zM392 603q0 -18 -11.5 -31t-29.5 -13t-29.5 13t-11.5 31q0 19 11.5 32t29.5 13t29.5 -13t11.5 -32zM503 232q0 -109 -59.5 -178t-168.5 -69q-111 0 -170.5 69 t-59.5 178q0 108 59 179t170 71q112 0 170.5 -71t58.5 -179zM275 38q80 0 123.5 53t43.5 141q0 85 -42.5 141t-125.5 56q-82 0 -124.5 -56t-42.5 -141q0 -88 43.5 -141t124.5 -53z" />
<glyph unicode="&#xf7;" horiz-adv-x="426" d="M259 39q0 -23 -14 -38.5t-36 -15.5t-36 15.5t-14 38.5t14 38.5t36 15.5t36 -15.5t14 -38.5zM258 430q0 -23 -14 -38.5t-36 -15.5q-21 0 -35 15.5t-14 38.5t14 38.5t35 15.5q22 0 36 -15.5t14 -38.5zM364 195h-303v59h303v-59z" />
<glyph unicode="&#xf8;" d="M503 232q0 -109 -59.5 -178t-168.5 -69q-13 0 -35 2l-15 -59h-55l18 71q-70 24 -106.5 86t-36.5 147q0 108 59 179t170 71q20 0 38 -3l13 48h55l-16 -61q69 -25 104 -88t35 -146zM107 232q0 -138 95 -180l97 375q-16 2 -25 2q-82 0 -124.5 -56t-42.5 -141zM275 38 q80 0 123.5 53t43.5 141q0 61 -23 109.5t-69 70.5l-96 -373q7 -1 21 -1z" />
<glyph unicode="&#xf9;" horiz-adv-x="544" d="M526 57l12 -34q-36 -29 -88 -29q-29 0 -46 14.5t-17 40.5v10q-72 -74 -171 -74q-148 0 -148 170v313h61v-308q0 -64 24 -93t77 -29q85 0 155 70v346l62 19v-404q0 -27 22 -27q10 0 24.5 4t23.5 8zM304 547h-58l-97 191h76z" />
<glyph unicode="&#xfa;" horiz-adv-x="544" d="M282 547h-58l80 191h76zM526 57l12 -34q-36 -29 -88 -29q-29 0 -46 14.5t-17 40.5v10q-72 -74 -171 -74q-148 0 -148 170v313h61v-308q0 -64 24 -93t77 -29q85 0 155 70v346l62 19v-404q0 -27 22 -27q10 0 24.5 4t23.5 8z" />
<glyph unicode="&#xfb;" horiz-adv-x="544" d="M400 547h-56l-81 135l-84 -135h-55l101 191h75zM526 57l12 -34q-36 -29 -88 -29q-29 0 -46 14.5t-17 40.5v10q-72 -74 -171 -74q-148 0 -148 170v313h61v-308q0 -64 24 -93t77 -29q85 0 155 70v346l62 19v-404q0 -27 22 -27q10 0 24.5 4t23.5 8z" />
<glyph unicode="&#xfc;" horiz-adv-x="544" d="M230 603q0 -18 -11.5 -31t-29.5 -13q-17 0 -28.5 13t-11.5 31q0 19 11.5 32t28.5 13q18 0 29.5 -13t11.5 -32zM380 603q0 -18 -11.5 -31t-29.5 -13t-29.5 13t-11.5 31q0 19 11.5 32t29.5 13t29.5 -13t11.5 -32zM526 57l12 -34q-36 -29 -88 -29q-29 0 -46 14.5t-17 40.5 v10q-72 -74 -171 -74q-148 0 -148 170v313h61v-308q0 -64 24 -93t77 -29q85 0 155 70v346l62 19v-404q0 -27 22 -27q10 0 24.5 4t23.5 8z" />
<glyph unicode="&#xfd;" horiz-adv-x="487" d="M172 -263h-57l103 263h-7l-186 468h66l154 -402l151 402h66zM257 547h-58l80 191h76z" />
<glyph unicode="&#xfe;" horiz-adv-x="538" d="M134 -263h-62v994l62 19v-346q60 78 154 78q99 0 151.5 -70.5t52.5 -181.5q0 -109 -60.5 -177t-166.5 -68q-75 0 -131 29v-277zM134 355v-285q47 -32 131 -32q77 0 121.5 52t44.5 140q0 89 -39.5 144t-115.5 55q-47 0 -83.5 -23.5t-58.5 -50.5z" />
<glyph unicode="&#xff;" horiz-adv-x="487" d="M211 603q0 -18 -11.5 -31t-29.5 -13q-17 0 -28.5 13t-11.5 31q0 19 11.5 32t28.5 13q18 0 29.5 -13t11.5 -32zM361 603q0 -18 -11.5 -31t-29.5 -13t-29.5 13t-11.5 31q0 19 11.5 32t29.5 13t29.5 -13t11.5 -32zM172 -263h-57l103 263h-7l-186 468h66l154 -402l151 402h66 z" />
<glyph unicode="&#x152;" horiz-adv-x="1147" d="M1099 0h-465v133q-81 -148 -259 -148q-160 0 -242.5 104t-82.5 264q0 162 87.5 261t237.5 99q86 0 153 -39t106 -108v134h465v-59h-399v-269h328v-59h-328v-254h399v-59zM632 353q0 141 -69 221t-188 80t-188.5 -80t-69.5 -221q0 -135 65 -222t193 -87q127 0 192 87.5 t65 221.5z" />
<glyph unicode="&#x153;" horiz-adv-x="910" d="M859 211h-350q6 -77 48 -125t120 -48q41 0 79.5 15t55.5 29l18 15l20 -42q-3 -3 -8 -7.5t-22 -16.5t-36 -21.5t-48.5 -17t-59.5 -7.5q-147 0 -201 126q-55 -126 -200 -126q-111 0 -170.5 69t-59.5 178q0 108 59 179t170 71q74 0 124.5 -34t75.5 -93q53 127 194 127 q51 0 91 -19t63 -50.5t34.5 -68t11.5 -75.5q0 -15 -2 -29.5t-4 -21.5zM275 38q80 0 123.5 53t43.5 141q0 85 -42.5 141t-125.5 56q-82 0 -124.5 -56t-42.5 -141q0 -88 43.5 -141t124.5 -53zM509 260h301v13q0 71 -37 113.5t-105 42.5q-72 0 -113 -46t-46 -123z" />
<glyph unicode="&#x178;" horiz-adv-x="655" d="M360 0h-65v266l-271 434h81l223 -371l224 371h78l-270 -435v-265zM294 798q0 -18 -11.5 -31t-29.5 -13q-17 0 -28.5 13t-11.5 31q0 19 11.5 32t28.5 13q18 0 29.5 -13t11.5 -32zM444 798q0 -18 -11.5 -31t-29.5 -13t-29.5 13t-11.5 31q0 19 11.5 32t29.5 13t29.5 -13 t11.5 -32z" />
<glyph unicode="&#x2c6;" horiz-adv-x="376" d="M325 547h-56l-81 135l-84 -135h-55l101 191h75z" />
<glyph unicode="&#x2dc;" horiz-adv-x="399" d="M325 633l35 -21q-1 -3 -3 -8.5t-9.5 -19t-17.5 -23.5t-26.5 -18.5t-36.5 -8.5q-29 0 -64.5 30t-57.5 30q-18 0 -36 -12t-27 -24l-9 -13l-33 27q1 3 4 7.5t12.5 17t21 22t29.5 17t38 7.5q32 0 70.5 -30.5t53.5 -30.5q16 0 30 13t20 25z" />
<glyph unicode="&#x2000;" horiz-adv-x="481" />
<glyph unicode="&#x2001;" horiz-adv-x="962" />
<glyph unicode="&#x2002;" horiz-adv-x="481" />
<glyph unicode="&#x2003;" horiz-adv-x="962" />
<glyph unicode="&#x2004;" horiz-adv-x="320" />
<glyph unicode="&#x2005;" horiz-adv-x="240" />
<glyph unicode="&#x2006;" horiz-adv-x="160" />
<glyph unicode="&#x2007;" horiz-adv-x="160" />
<glyph unicode="&#x2008;" horiz-adv-x="120" />
<glyph unicode="&#x2009;" horiz-adv-x="192" />
<glyph unicode="&#x200a;" horiz-adv-x="53" />
<glyph unicode="&#x2010;" horiz-adv-x="377" d="M310 248h-243v59h243v-59z" />
<glyph unicode="&#x2011;" horiz-adv-x="377" d="M310 248h-243v59h243v-59z" />
<glyph unicode="&#x2012;" horiz-adv-x="377" d="M310 248h-243v59h243v-59z" />
<glyph unicode="&#x2013;" horiz-adv-x="523" d="M453 256h-383v46h383v-46z" />
<glyph unicode="&#x2014;" horiz-adv-x="846" d="M777 256h-707v46h707v-46z" />
<glyph unicode="&#x2018;" horiz-adv-x="189" d="M88 729q3 1 9 1q21 0 35 -15.5t14 -38.5t-14 -38.5t-35 -15.5q-55 0 -55 70q0 44 7.5 79t18 54t21.5 31.5t19 16.5l7 4l16 -21q-5 -3 -12 -11t-19 -38.5t-12 -70.5v-7z" />
<glyph unicode="&#x2019;" horiz-adv-x="199" d="M79 502l-16 21q5 3 12 11t19 38.5t12 70.5v7q-3 -1 -8 -1q-22 0 -36.5 15.5t-14.5 38.5t14.5 38.5t36.5 15.5q54 0 54 -70q0 -44 -7.5 -79t-18.5 -54t-21.5 -31.5t-18.5 -16.5z" />
<glyph unicode="&#x201a;" horiz-adv-x="226" d="M92 -162l-15 21q5 3 12 11t18.5 38.5t11.5 70.5v7q-3 -1 -8 -1q-22 0 -36.5 15.5t-14.5 38.5t14.5 38.5t36.5 15.5q54 0 54 -70q0 -44 -7.5 -79t-18.5 -54t-21.5 -31.5t-17.5 -16.5z" />
<glyph unicode="&#x201c;" horiz-adv-x="339" d="M88 729q3 1 9 1q21 0 35 -15.5t14 -38.5t-14 -38.5t-35 -15.5q-55 0 -55 70q0 44 7.5 79t18 54t21.5 31.5t19 16.5l7 4l16 -21q-5 -3 -12 -11t-19 -38.5t-12 -70.5v-7zM239 729q2 1 8 1q22 0 36 -15.5t14 -38.5t-14 -38.5t-36 -15.5q-55 0 -55 70q0 44 7.5 79t18.5 54 t22 31.5t18 16.5l8 4l15 -21q-5 -3 -12 -11t-18.5 -38.5t-11.5 -70.5v-7z" />
<glyph unicode="&#x201d;" horiz-adv-x="342" d="M79 502l-16 21q5 3 12 11t19 38.5t12 70.5v7q-3 -1 -8 -1q-22 0 -36.5 15.5t-14.5 38.5t14.5 38.5t36.5 15.5q54 0 54 -70q0 -44 -7.5 -79t-18.5 -54t-21.5 -31.5t-18.5 -16.5zM220 502l-15 21q5 3 12 11t19 38.5t12 70.5v7q-3 -1 -9 -1q-22 0 -36 15.5t-14 38.5t14 38.5 t36 15.5q55 0 55 -70q0 -44 -7.5 -79t-18.5 -54t-22 -31.5t-18 -16.5z" />
<glyph unicode="&#x201e;" horiz-adv-x="357" d="M92 -162l-15 21q5 3 12 11t18.5 38.5t11.5 70.5v7q-3 -1 -8 -1q-22 0 -36.5 15.5t-14.5 38.5t14.5 38.5t36.5 15.5q54 0 54 -70q0 -44 -7.5 -79t-18.5 -54t-21.5 -31.5t-17.5 -16.5zM223 -162l-15 21q5 3 12 11t18.5 38.5t11.5 70.5v7q-3 -1 -8 -1q-22 0 -36 15.5 t-14 38.5t14 38.5t36 15.5q54 0 54 -70q0 -44 -7.5 -79t-18 -54t-21.5 -31.5t-19 -16.5z" />
<glyph unicode="&#x2022;" horiz-adv-x="389" d="M77 318q0 53 34.5 90.5t83.5 37.5t83.5 -37.5t34.5 -90.5t-34.5 -90.5t-83.5 -37.5t-83.5 37.5t-34.5 90.5z" />
<glyph unicode="&#x2026;" horiz-adv-x="490" d="M161 39q0 -23 -14.5 -38.5t-35.5 -15.5q-22 0 -36.5 15.5t-14.5 38.5t14.5 38.5t36.5 15.5q21 0 35.5 -15.5t14.5 -38.5zM295 39q0 -23 -14 -38.5t-36 -15.5t-36.5 15.5t-14.5 38.5t14.5 38.5t36.5 15.5t36 -15.5t14 -38.5zM429 39q0 -23 -14 -38.5t-36 -15.5t-36 15.5 t-14 38.5t14 38.5t36 15.5t36 -15.5t14 -38.5z" />
<glyph unicode="&#x202f;" horiz-adv-x="192" />
<glyph unicode="&#x2039;" horiz-adv-x="305" d="M257 51l-37 -39l-174 182v48l174 183l36 -39l-143 -168z" />
<glyph unicode="&#x203a;" horiz-adv-x="305" d="M259 194l-174 -182l-37 39l144 167l-143 168l36 39l174 -183v-48z" />
<glyph unicode="&#x205f;" horiz-adv-x="240" />
<glyph unicode="&#x20ac;" horiz-adv-x="731" d="M468 242h-282q23 -92 84 -145t161 -53q40 0 79.5 8.5t67 21t49.5 25t33 21.5l11 8l22 -52q-4 -4 -11.5 -10t-33 -21.5t-54 -27.5t-73 -22t-91.5 -10q-134 0 -211.5 69.5t-102.5 187.5h-70v52h422v-52zM468 395h-422v52h66q22 123 104.5 194.5t213.5 71.5 q68 0 124.5 -18.5t79.5 -36.5l22 -18l-30 -48q-7 7 -22 17.5t-65.5 27.5t-108.5 17q-100 0 -164 -54t-85 -153h287v-52z" />
<glyph unicode="&#x2122;" horiz-adv-x="812" d="M225 325h-47v306h-129v44h302v-44h-126v-306zM735 325h-47v257l-102 -257h-52l-100 257v-257h-46v350h53l120 -311l119 311h55v-350z" />
<glyph unicode="&#x25fc;" horiz-adv-x="470" d="M0 470h470v-470h-470v470z" />
<glyph unicode="&#xfb01;" horiz-adv-x="553" d="M481 0h-61v416h-257v-416h-61v416h-77l15 52h62v109q0 89 39.5 131.5t109.5 42.5q27 0 50.5 -6.5t34.5 -12.5l10 -7l-21 -43q-26 15 -70 15q-92 0 -92 -118v-111h318v-468zM494 608q0 -20 -12.5 -33.5t-31.5 -13.5t-32 13.5t-13 33.5t13 33.5t32 13.5t31.5 -13.5 t12.5 -33.5z" />
<glyph unicode="&#xfb02;" horiz-adv-x="597" d="M163 0h-61v416h-77l15 52h62v109q0 89 39.5 131.5t109.5 42.5q28 0 52 -6.5t34 -12.5l10 -7l-21 -43q-26 15 -71 15q-92 0 -92 -118v-111h154v-52h-154v-416zM587 59l11 -34q-43 -31 -108 -31q-41 0 -58.5 20t-17.5 67v650l61 19v-665q0 -43 38 -43q13 0 31.5 4t30.5 8z " />
</font>
</defs>
</svg>
