<?xml version="1.0" standalone="no"?>
<!DOCTYPE svg PUBLIC "-//W3C//DTD SVG 1.1//EN" "http://www.w3.org/Graphics/SVG/1.1/DTD/svg11.dtd" >
<svg xmlns="http://www.w3.org/2000/svg">
<metadata></metadata>
<defs>
<font id="magallanes_cond_extraligXLtIt" horiz-adv-x="623" >
<font-face units-per-em="1000" ascent="750" descent="-250" />
<missing-glyph horiz-adv-x="244" />
<glyph horiz-adv-x="0" />
<glyph horiz-adv-x="333" />
<glyph unicode=" "  horiz-adv-x="244" />
<glyph unicode="&#x09;" horiz-adv-x="244" />
<glyph unicode="&#xa0;" horiz-adv-x="244" />
<glyph unicode="!" horiz-adv-x="228" d="M149 183h-32l47 517h47zM159 36q0 -21 -13.5 -36t-34.5 -15q-16 0 -26 11.5t-10 29.5q0 21 13.5 36.5t32.5 15.5q17 0 27.5 -12t10.5 -30z" />
<glyph unicode="&#x22;" horiz-adv-x="286" d="M156 556h-31l11 156h41zM276 556h-31l11 156h41z" />
<glyph unicode="#" horiz-adv-x="579" d="M500 156h-91l-55 -156h-42l56 156h-190l-55 -156h-42l56 156h-78l4 41h89l57 157h-80l4 40h91l49 135h42l-49 -135h190l48 135h42l-49 -135h76l-4 -40h-88l-56 -157h79zM383 197l57 157h-190l-57 -157h190z" />
<glyph unicode="$" horiz-adv-x="559" d="M375 750h-32l17 209h43zM273 -280h-43l27 209h32zM582 641l-23 -38q-3 3 -8.5 7.5t-25.5 16.5t-42 21t-57 16.5t-73 7.5q-99 0 -152.5 -47.5t-53.5 -114.5q0 -61 43.5 -89t130.5 -46q44 -9 70 -15.5t59.5 -20t51 -30t30.5 -43.5t13 -63q0 -95 -69.5 -156.5t-191.5 -61.5 q-54 0 -99 11t-70.5 26.5t-44 31.5t-24.5 27l-7 11l31 32q2 -4 7 -10.5t23.5 -24t41 -30.5t62 -23.5t84.5 -10.5q98 0 153.5 45.5t55.5 123.5q0 27 -10 47.5t-23.5 33.5t-41.5 24t-50 17t-62 15t-66 16t-56.5 20.5t-47.5 30t-29 43t-12 61.5q0 89 68.5 150t189.5 61 q64 0 120.5 -18t80.5 -36z" />
<glyph unicode="%" horiz-adv-x="629" d="M108 -15h-43l530 728h42zM603 152q0 -70 -38.5 -118.5t-107.5 -48.5q-57 0 -86.5 36.5t-29.5 93.5q0 72 41 118t106 46q53 0 84 -35t31 -92zM460 18q52 0 80.5 38.5t28.5 92.5q0 45 -23 70.5t-62 25.5q-48 0 -78 -34t-30 -92q0 -44 21.5 -72.5t62.5 -28.5zM361 586 q0 -70 -39 -118.5t-107 -48.5q-57 0 -86.5 36.5t-29.5 93.5q0 72 40.5 118t106.5 46q54 0 84.5 -35t30.5 -92zM218 452q51 0 79.5 38.5t28.5 92.5q0 45 -22.5 70.5t-61.5 25.5q-49 0 -79 -34t-30 -92q0 -44 22 -72.5t63 -28.5z" />
<glyph unicode="&#x26;" horiz-adv-x="615" d="M565 7l-34 -29l-49 65q-78 -59 -179 -59q-102 0 -160.5 47.5t-58.5 133.5q0 22 3.5 42.5t9.5 37t15 32.5t17.5 28t20.5 23.5t20.5 19t20 15.5t17.5 11.5t14 8.5l9 5v1q-47 69 -47 136q0 81 52.5 134.5t142.5 53.5q33 0 63 -7.5t49.5 -17.5t34 -20.5t20.5 -17.5l7 -8 l-24 -32q-6 7 -17.5 17.5t-51 28t-83.5 17.5q-66 0 -106.5 -40.5t-40.5 -102.5q0 -16 4 -32.5t8.5 -29t14 -30t15 -25.5t17 -25.5t14.5 -21.5l191 -262q54 59 63 145h43q-10 -100 -83 -176zM307 24q87 0 154 50l-210 287q-15 -9 -29 -19.5t-39 -34.5t-40 -59.5t-15 -77.5 q0 -70 48 -108t131 -38z" />
<glyph unicode="'" horiz-adv-x="165" d="M156 556h-31l11 156h41z" />
<glyph unicode="(" horiz-adv-x="244" d="M193 -256l-35 -23q-4 6 -9.5 18t-21 52.5t-27 85.5t-21 116.5t-9.5 146.5q0 111 20.5 216t49 175.5t57.5 125t49 79.5l21 26l31 -23q-8 -8 -20.5 -24.5t-45 -73.5t-57.5 -121t-45.5 -166.5t-20.5 -211.5q0 -72 8.5 -139.5t21 -112.5t25 -79.5t20.5 -50.5z" />
<glyph unicode=")" horiz-adv-x="245" d="M28 -279l-30 23q8 9 20.5 25t45 73t57 121.5t45 167t20.5 211.5q0 115 -21 214t-41 141l-21 42l34 23q4 -6 10 -18t21 -52.5t27 -86t21.5 -117t9.5 -146.5q0 -111 -20.5 -215.5t-49.5 -175t-58 -125t-50 -80.5z" />
<glyph unicode="*" horiz-adv-x="435" d="M403 447l-114 90l-10 -165h-46l25 166l-132 -91l-19 42l139 75l-123 76l27 41l114 -89l9 165h46l-25 -166l133 90l19 -41l-140 -76l124 -75z" />
<glyph unicode="+" horiz-adv-x="504" d="M286 127h-42l23 217h-192l4 42h192l23 217h42l-23 -217h192l-4 -42h-192z" />
<glyph unicode="," horiz-adv-x="219" d="M66 -163l-10 19q5 4 13 12.5t24 40.5t22 72l1 6q-6 -2 -9 -2q-17 0 -27.5 11.5t-10.5 29.5q0 21 13.5 36.5t33.5 15.5q40 0 40 -50q0 -43 -9.5 -79t-22.5 -55.5t-26 -33.5t-22 -18z" />
<glyph unicode="-" horiz-adv-x="375" d="M331 258h-233l4 40h233z" />
<glyph unicode="." horiz-adv-x="216" d="M154 36q0 -22 -14 -36.5t-34 -14.5q-17 0 -27 11.5t-10 29.5q0 21 13.5 36.5t33.5 15.5q16 0 27 -12.5t11 -29.5z" />
<glyph unicode="/" horiz-adv-x="355" d="M50 -248h-43l347 948h42z" />
<glyph unicode="0" horiz-adv-x="635" d="M316 -15q-113 0 -169 87t-56 224q0 183 84.5 300t217.5 117q104 0 164 -83.5t60 -221.5q0 -82 -18.5 -156.5t-54.5 -135t-95 -96t-133 -35.5zM320 25q82 0 141 58t84.5 142t25.5 183q0 123 -49.5 194t-133.5 71q-109 0 -180.5 -102.5t-71.5 -270.5q0 -120 46 -197.5 t138 -77.5z" />
<glyph unicode="1" horiz-adv-x="416" d="M322 0h-45l68 649l-260 -162l-17 34q284 179 285 179h43z" />
<glyph unicode="2" horiz-adv-x="525" d="M471 0h-430l4 37l210 164q6 5 32.5 25.5t33.5 26t29.5 24t29.5 26t24 25.5t23 29.5t17 30t15 35t7.5 36.5t3.5 42q0 76 -42 124t-116 48q-49 0 -95 -16.5t-67 -33.5l-22 -17l-18 34q3 3 9 8t26.5 17.5t43 22t57.5 17.5t71 8q97 0 148.5 -56.5t51.5 -149.5 q0 -72 -34 -134.5t-67 -93.5t-107 -89q-11 -9 -16 -13l-173 -137h355z" />
<glyph unicode="3" horiz-adv-x="556" d="M276 339l4 40q209 0 209 164q0 59 -42 94.5t-117 35.5q-46 0 -90.5 -16.5t-66.5 -33.5l-22 -17l-16 35q9 8 25.5 20t68.5 32t105 20q95 0 148 -46t53 -121q0 -158 -153 -187q139 -17 139 -150q0 -101 -70.5 -162.5t-190.5 -61.5q-62 0 -116.5 22.5t-78.5 44.5l-24 22 l26 33l8.5 -8.5t24.5 -20t40 -25t55 -19.5t69 -9q95 0 153 47.5t58 130.5q0 136 -199 136z" />
<glyph unicode="4" horiz-adv-x="506" d="M401 0h-45l19 177h-331l4 36l291 480h49l-287 -476h278l23 214h45l-23 -214h78l-4 -40h-78z" />
<glyph unicode="5" horiz-adv-x="556" d="M538 660h-322l-46 -253q75 18 147 18q216 0 216 -194q0 -117 -71 -182t-196 -65q-60 0 -114 22t-78 44l-24 22l26 34q3 -3 9 -8.5t25.5 -20t40.5 -25t53 -19.5t65 -9q103 0 160.5 52.5t57.5 149.5q0 159 -177 159q-35 0 -83 -8t-79 -16l-30 -8l62 347h362z" />
<glyph unicode="6" horiz-adv-x="577" d="M404 673q-109 0 -178 -87.5t-86 -235.5q18 19 41.5 36.5t71.5 36t99 18.5q95 0 148 -52.5t53 -148.5q0 -111 -70 -183t-178 -72t-161 84.5t-53 221.5q0 189 83.5 305.5t232.5 116.5q47 0 87 -13.5t56 -26.5l17 -13l-23 -33q-6 5 -17 12.5t-47.5 20.5t-75.5 13zM348 400 q-48 0 -97 -20.5t-73 -38.5t-42 -36q-6 -126 39.5 -203t134.5 -77t143.5 58.5t54.5 150.5q0 78 -43 122t-117 44z" />
<glyph unicode="7" horiz-adv-x="457" d="M185 0h-51l325 660h-379l4 40h430l-4 -36z" />
<glyph unicode="8" horiz-adv-x="587" d="M414 372q61 -18 99 -57t38 -116q0 -92 -64.5 -153.5t-194.5 -61.5q-112 0 -165.5 47.5t-53.5 122.5q0 171 192 213q-131 39 -131 155q0 84 64 137.5t171 53.5q93 0 145.5 -44t52.5 -114q0 -133 -153 -183zM331 353q-71 -13 -104 -28q-108 -49 -108 -165q0 -59 44 -97 t134 -38q106 0 157 48t51 123q0 42 -15.5 72t-44 46t-51 23.5t-52.5 13.5q-7 1 -11 2zM335 390l26 -5q26 6 50 16t50.5 28.5t42.5 49.5t16 71q0 55 -42 89t-113 34q-82 0 -133.5 -41.5t-51.5 -106.5q0 -105 155 -135z" />
<glyph unicode="9" horiz-adv-x="577" d="M248 25q109 0 177.5 87t85.5 235q-18 -18 -41.5 -35.5t-71.5 -36t-99 -18.5q-94 0 -147.5 52.5t-53.5 148.5q0 111 70.5 183t178.5 72t161 -84.5t53 -221.5q0 -189 -83.5 -305.5t-233.5 -116.5q-46 0 -86 13.5t-56 26.5l-17 13l22 33q6 -5 17 -12.5t48 -20.5t76 -13z M303 298q49 0 97.5 20.5t72.5 38.5t42 36q5 126 -39 203t-133 77q-90 0 -144 -58t-54 -151q0 -78 42 -122t116 -44z" />
<glyph unicode=":" horiz-adv-x="227" d="M159 36q0 -21 -13.5 -36t-34.5 -15q-16 0 -26 11.5t-10 29.5q0 21 13.5 36.5t32.5 15.5q17 0 27.5 -12t10.5 -30zM201 442q0 -22 -13.5 -36.5t-33.5 -14.5q-17 0 -27 11.5t-10 29.5q0 21 13.5 36.5t33.5 15.5q16 0 26.5 -12t10.5 -30z" />
<glyph unicode=";" horiz-adv-x="234" d="M204 442q0 -22 -13.5 -36.5t-33.5 -14.5q-17 0 -27 11.5t-10 29.5q0 21 13.5 36.5t33.5 15.5q16 0 26.5 -12t10.5 -30zM73 -163l-9 19q5 4 13 12.5t24 40.5t22 72l1 6q-6 -2 -9 -2q-17 0 -27.5 11.5t-10.5 29.5q0 21 13.5 36.5t33.5 15.5q41 0 41 -50q0 -43 -9.5 -79 t-23 -55.5t-27 -33.5t-23.5 -18z" />
<glyph unicode="&#x3c;" horiz-adv-x="355" d="M303 30l-232 207l5 45l275 207l-4 -46l-242 -184l203 -183z" />
<glyph unicode="=" horiz-adv-x="477" d="M444 378h-330l4 40h330zM420 153h-330l4 40h330z" />
<glyph unicode="&#x3e;" horiz-adv-x="355" d="M334 237l-276 -207l5 46l241 183l-203 184l5 46l232 -207z" />
<glyph unicode="?" horiz-adv-x="483" d="M251 145h-44l12 116q9 3 24.5 9t54.5 28.5t68.5 50t54 73.5t24.5 98q0 68 -40 110.5t-108 42.5q-48 0 -94.5 -16.5t-69.5 -33.5l-23 -17l-16 34q3 3 9.5 8t27.5 17.5t44 22t57.5 17.5t69.5 8q90 0 139.5 -52t49.5 -136q0 -57 -23.5 -108t-57.5 -82t-68 -54.5t-58 -32.5 l-23 -10zM259 36q0 -21 -13.5 -36t-33.5 -15q-17 0 -27 11.5t-10 29.5q0 21 13.5 36.5t33.5 15.5q17 0 27 -12t10 -30z" />
<glyph unicode="@" horiz-adv-x="907" d="M255 -144l-26 -34q-77 53 -116 149.5t-39 215.5q0 233 129 381t333 148q168 0 266 -106.5t98 -281.5q0 -170 -69.5 -252t-184.5 -82q-54 0 -47 51l2 13q-76 -73 -172 -73q-89 0 -132.5 59.5t-43.5 154.5q0 127 68.5 205t185.5 78q49 0 92 -16t62 -32l19 -15l-38 -364 q-2 -15 3 -21t18 -6q90 0 142.5 71t52.5 228q0 164 -88 258.5t-238 94.5q-183 0 -299.5 -133.5t-116.5 -355.5q0 -109 35 -198t104 -137zM605 96l32 309q-54 41 -134 41q-97 0 -152.5 -65.5t-55.5 -179.5q0 -81 35.5 -130.5t108.5 -49.5q84 0 166 75z" />
<glyph unicode="A" d="M594 0h-47l-54 207h-319l-98 -207h-47l332 700h49zM481 247l-102 395l-186 -395h288z" />
<glyph unicode="B" d="M343 0h-249l74 700h237q190 0 190 -153q0 -143 -129 -187q125 -25 125 -149q0 -211 -248 -211zM386 338h-211l-32 -298h204q107 0 153 40.5t46 124.5q0 66 -41.5 99.5t-118.5 33.5zM400 660h-192l-29 -284h210q66 0 112.5 42t46.5 122q0 120 -148 120z" />
<glyph unicode="C" horiz-adv-x="652" d="M619 106l15 -34q-4 -4 -12 -9.5t-34.5 -20.5t-54.5 -26.5t-71 -21t-86 -9.5q-146 0 -216 88t-70 230q0 183 97 296.5t265 113.5q61 0 112 -16.5t71 -32.5l20 -16l-23 -35q-3 2 -8 6.5t-22.5 14.5t-37.5 18t-51.5 14.5t-64.5 6.5q-146 0 -229 -98.5t-83 -267.5 q0 -125 59.5 -203.5t184.5 -78.5q62 0 121.5 20.5t88.5 40.5z" />
<glyph unicode="D" horiz-adv-x="685" d="M280 0h-186l74 700h202q146 0 221.5 -75.5t75.5 -224.5q0 -203 -93.5 -301.5t-293.5 -98.5zM143 40h137q185 0 263.5 86t78.5 270q0 264 -262 264h-152z" />
<glyph unicode="E" horiz-adv-x="599" d="M546 0h-452l74 700h452l-5 -40h-407l-31 -296h337l-4 -40h-337l-30 -284h407z" />
<glyph unicode="F" horiz-adv-x="576" d="M513 324h-340l-34 -324h-45l74 700h452l-5 -40h-407l-31 -296h340z" />
<glyph unicode="G" horiz-adv-x="672" d="M578 87l22 211h-211l5 39h254l-28 -265q-4 -4 -12 -9.5t-33.5 -20.5t-53 -26.5t-70 -21t-84.5 -9.5q-141 0 -209 88t-68 229q0 184 97 297.5t265 113.5q61 0 112 -17.5t71 -35.5l20 -17l-24 -34q-7 7 -21 17.5t-61.5 28.5t-100.5 18q-146 0 -229 -98.5t-83 -268.5 q0 -125 57.5 -203t177.5 -78q111 0 207 62z" />
<glyph unicode="H" horiz-adv-x="686" d="M592 0h-45l35 329h-408l-35 -329h-45l74 700h45l-35 -331h408l35 331h45z" />
<glyph unicode="I" horiz-adv-x="233" d="M139 0h-45l74 700h45z" />
<glyph unicode="J" horiz-adv-x="246" d="M53 -33l-17 25q3 2 8.5 5.5t20 17t26 30t22.5 44t14 58.5l58 553h46l-58 -551q-4 -41 -18 -74.5t-31 -52.5t-33 -32.5t-27 -17.5z" />
<glyph unicode="K" horiz-adv-x="646" d="M632 53l12 -25q-38 -34 -90 -34q-63 0 -89 59l-101 233q-22 -2 -34 -2h-161l-30 -284h-45l74 700h45l-40 -376h161q103 0 156 92t73 284h45q-19 -179 -65.5 -278t-133.5 -127l98 -223q18 -43 61 -43q14 0 30 6t25 12z" />
<glyph unicode="L" horiz-adv-x="548" d="M544 0h-450l74 700h45l-70 -660h405z" />
<glyph unicode="M" horiz-adv-x="772" d="M679 0h-45l62 591l-291 -591h-37l-167 590l-62 -590h-45l74 700h42l184 -637l317 637h42z" />
<glyph unicode="N" horiz-adv-x="682" d="M588 0h-41l-343 621l-65 -621h-45l74 700h41l343 -620l66 620h44z" />
<glyph unicode="O" horiz-adv-x="743" d="M728 399q0 -82 -22.5 -155.5t-65 -132t-112.5 -92.5t-158 -34q-140 0 -210.5 89.5t-70.5 230.5q0 180 99.5 294t258.5 114q130 0 205.5 -86.5t75.5 -227.5zM683 398q0 128 -64.5 201.5t-175.5 73.5q-137 0 -223 -99t-86 -265q0 -124 60.5 -204t180.5 -80q61 0 112.5 20.5 t87 56t60.5 83t36.5 101.5t11.5 112z" />
<glyph unicode="P" horiz-adv-x="616" d="M139 0h-45l74 700h241q105 0 162 -51.5t57 -155.5q0 -135 -71.5 -203t-198.5 -68h-196zM167 262h196q218 0 218 228q0 170 -177 170h-196z" />
<glyph unicode="Q" horiz-adv-x="744" d="M548 -209l-4 -40q-108 0 -157 54.5t-38 180.5q-130 6 -195 94.5t-65 224.5q0 180 99.5 294t258.5 114q131 0 206 -86t75 -228q0 -108 -35.5 -197.5t-113 -150t-185.5 -65.5q-9 -109 28 -152t126 -43zM683 398q0 128 -64.5 201.5t-175.5 73.5q-137 0 -222.5 -98.5 t-85.5 -265.5q0 -125 60 -204.5t180 -79.5q61 0 112.5 20.5t87 56t60.5 83t36.5 101.5t11.5 112z" />
<glyph unicode="R" horiz-adv-x="644" d="M635 53l12 -25q-38 -34 -90 -34q-61 0 -81 59l-78 227q-33 -6 -76 -6h-154l-29 -274h-45l74 700h222q201 0 201 -185q0 -178 -148 -225l74 -218q8 -24 20 -33.5t32 -9.5q15 0 31.5 6t25.5 12zM172 314h155q119 0 169 49t50 149q0 75 -38.5 111.5t-122.5 36.5h-177z" />
<glyph unicode="S" horiz-adv-x="593" d="M599 641l-23 -38q-3 3 -8.5 7.5t-25.5 16.5t-42 21t-57 16.5t-73 7.5q-99 0 -152.5 -47.5t-53.5 -114.5q0 -61 43.5 -89t130.5 -46q44 -9 70 -15.5t59.5 -20t51 -30t30.5 -43.5t13 -63q0 -95 -69.5 -156.5t-191.5 -61.5q-54 0 -99 11t-70.5 26.5t-44 31.5t-25.5 27l-6 11 l31 32q2 -4 7 -10.5t23.5 -24t41 -30.5t62 -23.5t84.5 -10.5q97 0 153 45.5t56 123.5q0 27 -10 47.5t-23.5 33.5t-41.5 24t-50 17t-62 15t-66 16t-56.5 20.5t-47.5 30t-29 43t-12 61.5q0 89 68.5 150t189.5 61q64 0 120.5 -18t80.5 -36z" />
<glyph unicode="T" horiz-adv-x="597" d="M321 0h-45l69 660h-270l4 40h585l-4 -40h-270z" />
<glyph unicode="U" horiz-adv-x="670" d="M567 280l45 420h45l-44 -415q-17 -162 -82.5 -230t-199.5 -69q-130 0 -180.5 68.5t-33.5 230.5l44 415h44l-44 -420q-15 -140 26 -198t148 -58q110 0 163.5 56.5t68.5 199.5z" />
<glyph unicode="V" horiz-adv-x="648" d="M348 0h-48l-200 700h52l177 -645l315 645h51z" />
<glyph unicode="W" horiz-adv-x="964" d="M710 0h-47l-115 633l-247 -633h-47l-147 700h49l129 -632l247 632h47l116 -632l260 632h50z" />
<glyph unicode="X" horiz-adv-x="599" d="M577 0h-58l-189 316l-254 -316h-55l285 350l-211 350h58l189 -318l258 318h55l-288 -352z" />
<glyph unicode="Y" horiz-adv-x="640" d="M343 0h-45l28 266l-222 434h53l197 -393l279 393h51l-313 -434z" />
<glyph unicode="Z" horiz-adv-x="536" d="M495 0h-454l4 40l466 620h-401l5 40h454l-5 -40l-467 -620h402z" />
<glyph unicode="[" horiz-adv-x="281" d="M227 -297h-174l112 1064h174l-4 -38h-134l-104 -988h134z" />
<glyph unicode="\" horiz-adv-x="355" d="M296 -248h-43l-146 948h42z" />
<glyph unicode="]" horiz-adv-x="281" d="M166 -297h-175l4 38h135l104 988h-135l4 38h175z" />
<glyph unicode="^" horiz-adv-x="483" d="M484 513h-40l-126 218l-171 -218h-40l190 251h50z" />
<glyph unicode="_" horiz-adv-x="474" d="M399 -39h-332l4 34h332z" />
<glyph unicode="`" horiz-adv-x="248" d="M246 547h-41l-74 185h54z" />
<glyph unicode="a" horiz-adv-x="503" d="M490 42l7 -23q-34 -25 -80 -25q-52 0 -47 50l2 21q-77 -80 -183 -80q-63 0 -100 26.5t-37 76.5q0 139 235 139q53 0 100 -11l13 119q6 58 -24.5 84.5t-101.5 26.5q-39 0 -76 -7t-55 -15l-18 -7l-8 34q70 31 168 31q85 0 124.5 -35t32.5 -107l-30 -286q-2 -15 2.5 -21 t18.5 -6q10 0 24 3.5t23 7.5zM375 102l9 81q-57 10 -99 10q-192 0 -192 -101q0 -35 28.5 -53t77.5 -18q95 0 176 81z" />
<glyph unicode="b" horiz-adv-x="532" d="M80 44l73 694l42 12l-36 -344q81 76 172 76q90 0 133.5 -59.5t43.5 -154.5q0 -127 -68.5 -205t-186.5 -78q-49 0 -92 14.5t-62 29.5zM155 367l-33 -309q59 -37 136 -37q97 0 152.5 65t55.5 178q0 82 -36 132t-108 50q-91 0 -167 -79z" />
<glyph unicode="c" horiz-adv-x="480" d="M438 84l14 -32q-3 -3 -8.5 -7.5t-24 -16t-38 -20.5t-49 -16t-58.5 -7q-100 0 -150 60.5t-50 157.5q0 122 67 200.5t185 78.5q42 0 77 -11t49 -22l15 -11l-20 -34q-5 5 -14 12t-41.5 18.5t-68.5 11.5q-97 0 -152 -65.5t-55 -172.5q0 -81 40.5 -134t121.5 -53q41 0 81 15.5 t59 31.5z" />
<glyph unicode="d" horiz-adv-x="556" d="M541 42l7 -23q-35 -25 -81 -25q-45 0 -47 51l2 13q-81 -73 -173 -73q-88 0 -132 59.5t-44 155.5q0 126 68 204t185 78q73 0 135 -38l31 297l44 13l-74 -700q-2 -15 2.5 -21t18.5 -6q10 0 24.5 3.5t24.5 7.5zM425 96l32 309q-54 41 -135 41q-97 0 -152 -65.5t-55 -179.5 q0 -82 35 -131t109 -49q88 0 166 75z" />
<glyph unicode="e" horiz-adv-x="508" d="M476 218h-360q-4 -87 35.5 -142t126.5 -55q41 0 81 15.5t59 31.5l20 16l14 -29q-8 -8 -23 -19.5t-61.5 -31t-93.5 -19.5q-100 0 -150 60.5t-50 157.5q0 122 64 200.5t177 78.5q82 0 128.5 -51.5t46.5 -135.5q0 -22 -3.5 -41.5t-6.5 -27.5zM120 253h326l3 17 q14 84 -25 130t-113 46q-79 0 -128.5 -51.5t-62.5 -141.5z" />
<glyph unicode="f" horiz-adv-x="319" d="M148 0h-41l45 432h-79l15 36h68l13 121q9 82 50 122t104 40q27 0 48.5 -5.5t28.5 -11.5l8 -6l-18 -29q-24 15 -68 15q-46 0 -75.5 -31.5t-36.5 -91.5l-13 -123h155l-4 -36h-155z" />
<glyph unicode="g" horiz-adv-x="500" d="M271 114l-28 1q-7 0 -20 -1.5t-33.5 -6t-35 -16.5t-14.5 -29q0 -41 118 -41q197 0 197 -128q0 -78 -57 -124t-170 -46q-95 0 -146 36t-51 97q0 34 13.5 61.5t36 43.5t40.5 24.5t37 13.5q-59 17 -59 59q0 47 76 70q-96 38 -96 150q0 85 58 144.5t170 59.5q41 0 80 -12 q94 3 112 166h41q-8 -72 -37 -121t-76 -65q63 -44 63 -133q0 -91 -58 -147t-161 -56zM449 313q0 56 -36 94.5t-109 38.5q-90 0 -136.5 -49t-46.5 -116q0 -63 39 -97t114 -34q83 0 129 43.5t46 119.5zM202 -13q-18 -5 -34 -11.5t-40.5 -21t-39.5 -38.5t-15 -55 q0 -50 40.5 -76t117.5 -26q91 0 136.5 34t45.5 96q0 95 -152 95q-19 0 -59 3z" />
<glyph unicode="h" horiz-adv-x="544" d="M530 42l8 -23q-35 -25 -82 -25q-52 0 -45 60l27 264q7 67 -16 97.5t-79 30.5q-97 0 -186 -89l-38 -357h-41l78 738l42 12l-38 -356q92 88 195 88q142 0 126 -162l-28 -266q-2 -15 2.5 -21t18.5 -6q10 0 24 3.5t23 7.5z" />
<glyph unicode="i" horiz-adv-x="197" d="M119 0h-41l49 468h41zM195 608q0 -15 -11 -26.5t-25 -11.5q-13 0 -21 9t-8 22q0 16 10.5 27t25.5 11q13 0 21 -8.5t8 -22.5z" />
<glyph unicode="j" horiz-adv-x="197" d="M-8 -265l-14 25q3 2 8.5 5.5t20 17t26 30t22.5 44t14 58.5l58 553h42l-58 -551q-4 -41 -18 -74.5t-30.5 -52.5t-32.5 -32.5t-27 -17.5zM193 608q0 -15 -11 -26.5t-25 -11.5q-13 0 -20.5 9t-7.5 23q0 15 10.5 26t24.5 11q13 0 21 -8.5t8 -22.5z" />
<glyph unicode="k" horiz-adv-x="533" d="M515 49l11 -20q-29 -35 -80 -35q-45 0 -68 46l-73 154q-20 -2 -31 -2h-135l-20 -192h-41l78 738l42 12l-55 -522h132q69 0 107.5 59.5t51.5 180.5h41q-23 -214 -130 -262l74 -152q13 -27 42 -27q12 0 25.5 5.5t21.5 11.5z" />
<glyph unicode="l" horiz-adv-x="244" d="M241 43l4 -23q-40 -26 -98 -26q-39 0 -54 19.5t-10 65.5l69 659l44 12l-70 -670q-6 -53 38 -53q14 0 33 4t31 8z" />
<glyph unicode="m" horiz-adv-x="860" d="M847 42l7 -23q-35 -25 -81 -25q-53 0 -46 60l27 264q7 67 -16 97.5t-79 30.5q-91 0 -179 -82q2 -23 -1 -44l-34 -320h-41l33 318q7 67 -16 97.5t-79 30.5q-97 0 -186 -89l-38 -357h-42l49 462l43 12l-9 -80q92 88 194 88q108 0 124 -90q14 16 35.5 33t67 37t91.5 20 q142 0 126 -162l-28 -266q-2 -15 2.5 -21t18.5 -6q10 0 24 3.5t24 7.5z" />
<glyph unicode="n" horiz-adv-x="542" d="M529 42l7 -23q-34 -25 -80 -25q-53 0 -46 60l27 264q7 66 -16 96t-79 30q-95 0 -186 -87l-38 -357h-42l49 462l43 12l-9 -80q92 88 194 88q142 0 126 -162l-28 -266q-3 -27 21 -27q10 0 24.5 3.5t23.5 7.5z" />
<glyph unicode="o" horiz-adv-x="548" d="M524 263q0 -122 -67 -200t-184 -78q-97 0 -148.5 58.5t-51.5 155.5q0 119 65 201t186 82q99 0 149.5 -61.5t50.5 -157.5zM277 21q96 0 150.5 65.5t54.5 173.5q0 81 -39.5 133.5t-121.5 52.5q-69 0 -117 -37t-68.5 -90.5t-20.5 -117.5q0 -84 41.5 -132t120.5 -48z" />
<glyph unicode="p" horiz-adv-x="534" d="M90 -263h-42l76 725l43 12l-7 -67q78 75 172 75q89 0 133 -59.5t44 -154.5q0 -128 -67.5 -205.5t-183.5 -77.5q-80 0 -138 38zM157 371l-33 -309q53 -41 137 -41q97 0 151.5 65t54.5 180q0 82 -35 131t-109 49q-91 0 -166 -75z" />
<glyph unicode="q" horiz-adv-x="531" d="M429 -263h-42l34 320q-80 -72 -172 -72q-88 0 -132 59.5t-44 155.5q0 126 68.5 204t186.5 78q49 0 92 -16t62 -32l19 -15zM425 96l32 309q-57 41 -135 41q-97 0 -152 -65t-55 -181q0 -82 35 -130.5t109 -48.5q88 0 166 75z" />
<glyph unicode="r" horiz-adv-x="344" d="M118 0h-42l49 462l43 12l-12 -108q81 116 165 116q17 0 32 -4t21 -8l7 -3l-16 -34q-19 11 -53 11q-78 0 -160 -120z" />
<glyph unicode="s" horiz-adv-x="462" d="M455 437l-22 -32q-5 5 -16 11.5t-48.5 18t-80.5 11.5q-72 0 -113 -30.5t-41 -78.5q0 -21 10 -36.5t31.5 -24.5t40 -13.5t50.5 -10.5q34 -6 58 -13t49.5 -20t39 -35t13.5 -53q0 -68 -51.5 -107t-142.5 -39q-59 0 -104.5 16.5t-61.5 32.5l-16 17l20 34q2 -3 6 -7t19 -15 t32.5 -19.5t46.5 -15.5t61 -7q68 0 108.5 29t40.5 76q0 39 -33.5 57.5t-92.5 28.5q-30 5 -47.5 9t-43 13t-40 20.5t-25 31.5t-10.5 46q0 62 50 106t149 44q50 0 91 -11t57 -23z" />
<glyph unicode="t" horiz-adv-x="345" d="M325 52l13 -31q-40 -36 -116 -36q-54 0 -82 35.5t-20 107.5l32 304h-79l15 36h68l13 125l42 15l-14 -140h155l-4 -36h-155l-32 -307q-5 -50 13.5 -76.5t55.5 -26.5q28 0 52 7.5t34 14.5z" />
<glyph unicode="u" horiz-adv-x="536" d="M523 42l5 -23q-34 -25 -80 -25q-51 0 -46 52l2 19q-86 -80 -188 -80q-145 0 -127 162l34 321h42l-34 -319q-7 -67 16 -97.5t79 -30.5q88 0 181 80l37 359l43 13l-44 -419q-3 -27 21 -27q10 0 25 3.5t25 7.5z" />
<glyph unicode="v" horiz-adv-x="482" d="M264 0h-46l-139 468h47l120 -420l207 420h47z" />
<glyph unicode="w" horiz-adv-x="711" d="M520 0h-45l-78 413l-161 -413h-45l-108 468h44l90 -418l166 418h41l79 -419l179 419h44z" />
<glyph unicode="x" horiz-adv-x="455" d="M427 0h-55l-124 200l-164 -200h-53l193 227l-149 241h54l126 -209l167 209h53l-195 -238z" />
<glyph unicode="y" horiz-adv-x="478" d="M130 -263h-40l131 263h-4l-138 468h46l121 -421l206 421h44z" />
<glyph unicode="z" horiz-adv-x="468" d="M424 0h-380l4 36l371 396h-330l4 36h380l-4 -36l-368 -396h327z" />
<glyph unicode="{" horiz-adv-x="254" d="M198 -245l-4 -38q-131 0 -116 141l31 301q6 62 -42 62h-9l4 38h9q21 0 37 15t19 48l30 287q15 141 146 141l-4 -38q-44 0 -71 -26t-32 -78l-31 -292q-3 -26 -12.5 -44t-17.5 -23.5t-14 -7.5q34 -19 28 -75l-32 -308q-6 -56 15 -79.5t66 -23.5z" />
<glyph unicode="|" horiz-adv-x="208" d="M93 -297h-40l112 1061h40z" />
<glyph unicode="}" horiz-adv-x="254" d="M0 -283l4 38q45 0 71 23.5t32 79.5l32 308q6 54 42 75q-6 1 -12 7t-11.5 24t-2.5 44l31 292q10 104 -81 104l4 38q132 0 117 -141l-30 -287q-3 -33 9 -48t32 -15h9l-4 -38h-9q-20 0 -35.5 -14.5t-18.5 -47.5l-32 -301q-15 -141 -147 -141z" />
<glyph unicode="~" horiz-adv-x="432" d="M379 369l23 -15q-3 -8 -9.5 -20t-29.5 -31.5t-49 -19.5q-28 0 -59.5 30t-54.5 30q-17 0 -36.5 -12.5t-29.5 -24.5l-11 -12l-20 19q5 7 13.5 18t34.5 29.5t53 18.5q30 0 65 -30.5t51 -30.5q15 0 30 13t22 25z" />
<glyph unicode="&#xa1;" horiz-adv-x="207" d="M192 440q0 -21 -14.5 -36.5t-33.5 -15.5q-17 0 -27.5 12t-10.5 30q0 22 14 36.5t34 14.5q16 0 27 -12t11 -29zM103 -234h-48l62 517h33z" />
<glyph unicode="&#xa2;" horiz-adv-x="462" d="M423 84l13 -30q-3 -3 -8.5 -7.5t-24 -16.5t-38 -21t-49 -16.5t-58.5 -7.5q-101 0 -150.5 60.5t-49.5 156.5q0 123 67 201.5t185 78.5q42 0 77.5 -12t50.5 -24l14 -12l-21 -31q-5 5 -14 12t-41 19t-69 12q-97 0 -152 -65.5t-55 -172.5q0 -81 40.5 -134t122.5 -53 q41 0 81 15.5t60 31.5zM335 529h-33l12 162h42zM258 -238h-42l23 163h33z" />
<glyph unicode="&#xa3;" horiz-adv-x="564" d="M447 259h-206q4 -16 4 -40q0 -47 -22 -91.5t-39.5 -63.5t-25.5 -24h364l-4 -40h-424l4 40q3 0 26.5 21.5t49 65t25.5 88.5q0 21 -5 44h-126l4 40h109q-1 4 -11 29.5t-13.5 36.5t-9.5 34t-8.5 44t-2.5 44q0 98 64.5 162t176.5 64q57 0 107 -18.5t71 -36.5l21 -18l-26 -35 q-2 3 -7 7.5t-22 16t-36 20.5t-49.5 16.5t-62.5 7.5q-92 0 -141.5 -52.5t-49.5 -129.5q0 -28 5.5 -57t11.5 -47t16.5 -47t14.5 -41h221z" />
<glyph unicode="&#xa5;" horiz-adv-x="631" d="M155 172l3 34h157l6 60l-221 434h53l196 -393l279 393h52l-314 -434l-6 -60h144l-3 -34h-144l-19 -172h-45l19 172h-157zM275 315l-20 34h-102l-3 -34h125zM428 315l25 34h102l-3 -34h-124z" />
<glyph unicode="&#xa6;" horiz-adv-x="212" d="M162 336h-40l45 428h40zM95 -297h-40l48 460h40z" />
<glyph unicode="&#xa7;" horiz-adv-x="600" d="M564 203q0 -104 -87 -168q57 -39 57 -117q0 -95 -69.5 -156.5t-191.5 -61.5q-54 0 -99 11t-70.5 27t-44 31.5t-25.5 26.5l-6 11l31 32q2 -4 7 -10.5t23.5 -24t41 -30.5t62 -23.5t84.5 -10.5q97 0 153 45.5t56 123.5q0 27 -10 47.5t-23.5 33.5t-41.5 24t-50 17t-62 15 t-66 16t-56.5 20.5t-47.5 30t-29 43t-12 61.5q0 106 89 165q-59 41 -59 120q0 89 68.5 150t189.5 61q64 0 120.5 -18t80.5 -36l24 -18l-23 -38q-3 3 -8.5 7.5t-25.5 16.5t-42 21t-57 16.5t-73 7.5q-99 0 -153 -47.5t-54 -114.5q0 -61 44 -89t131 -46q44 -9 70 -15.5 t59.5 -20t51 -30t30.5 -43.5t13 -63zM329 331q-68 14 -108 29q-85 -43 -85 -135q0 -61 43.5 -89t130.5 -46q95 -20 128 -34q78 46 78 138q0 27 -10 48t-24 34t-41 24t-50 17t-62 14z" />
<glyph unicode="&#xa8;" horiz-adv-x="314" d="M180 606q0 -15 -10.5 -26t-24.5 -11q-11 0 -19 9t-8 22q0 14 10.5 25t23.5 11t20.5 -8.5t7.5 -21.5zM322 606q0 -15 -10.5 -26t-24.5 -11q-12 0 -19.5 8.5t-7.5 22.5t10.5 25t23.5 11t20.5 -8.5t7.5 -21.5z" />
<glyph unicode="&#xa9;" horiz-adv-x="630" d="M457 311l15 -24q-6 -5 -17 -13t-45 -21t-68 -13q-70 0 -104.5 44.5t-34.5 114.5q0 92 47.5 148.5t129.5 56.5q31 0 56.5 -9t35.5 -19l10 -9l-19 -25q-29 30 -86 30q-69 0 -105 -45t-36 -125q0 -58 26.5 -94.5t82.5 -36.5q31 0 59 10t40 20zM615 466q0 -90 -28.5 -163.5 t-95 -122.5t-161.5 -49q-114 0 -170 71.5t-56 184.5q0 144 76 235t211 91q109 0 166.5 -67.5t57.5 -179.5zM333 162q84 0 142 44.5t83 110.5t25 147q0 101 -50.5 159.5t-145.5 58.5q-117 0 -184 -79.5t-67 -212.5q0 -101 48.5 -164.5t148.5 -63.5z" />
<glyph unicode="&#xaa;" horiz-adv-x="368" d="M353 500l4 -20q-16 -11 -39 -11q-29 0 -29 32v3q-37 -40 -90 -40q-33 0 -52 14.5t-19 39.5q0 72 134 72q24 0 35 -3l5 50q3 25 -12.5 36t-51.5 11q-20 0 -37 -3t-25 -7l-7 -3l-8 25q31 17 81 17q48 0 70 -18.5t18 -57.5l-13 -128q-1 -15 10 -15zM335 389h-222l3 30h222z M291 532l3 31q-10 3 -34 3q-105 0 -105 -44q0 -31 47 -31q53 0 89 41z" />
<glyph unicode="&#xab;" horiz-adv-x="446" d="M246 53l-29 -28l-147 177l4 36l184 177l24 -27l-162 -168zM398 53l-29 -28l-147 177l4 36l184 177l23 -27l-161 -168z" />
<glyph unicode="&#xac;" horiz-adv-x="507" d="M445 116h-43l15 142h-310l4 40h353z" />
<glyph unicode="&#xad;" horiz-adv-x="375" d="M331 258h-233l4 40h233z" />
<glyph unicode="&#xae;" horiz-adv-x="630" d="M615 468q0 -90 -28.5 -163.5t-95 -122.5t-161.5 -49q-114 0 -170 71.5t-56 184.5q0 144 76 235t211 91q109 0 166.5 -67.5t57.5 -179.5zM333 164q84 0 142.5 44.5t83 110.5t24.5 147q0 101 -50.5 159.5t-145.5 58.5q-117 0 -184 -79.5t-67 -212.5q0 -101 48.5 -164.5 t148.5 -63.5zM498 284l8 -22q-18 -16 -42 -16q-21 0 -33 8t-20 29l-37 106q-9 -2 -30 -2h-73l-14 -138h-32l36 350h118q100 0 100 -92q0 -89 -72 -112l34 -97q8 -24 27 -24q8 0 15.5 2.5t10.5 5.5zM274 418h75q54 0 76 21t22 65q0 64 -71 64h-86z" />
<glyph unicode="&#xaf;" horiz-adv-x="211" d="M248 558h-166l4 36h166z" />
<glyph unicode="&#xb0;" horiz-adv-x="366" d="M378 634q0 -70 -38.5 -118.5t-107.5 -48.5q-57 0 -86.5 36.5t-29.5 93.5q0 72 40.5 118t105.5 46q55 0 85.5 -35t30.5 -92zM235 500q51 0 79.5 38.5t28.5 92.5q0 45 -22.5 70t-61.5 25q-49 0 -79 -33.5t-30 -91.5q0 -44 22 -72.5t63 -28.5z" />
<glyph unicode="&#xb1;" horiz-adv-x="440" d="M403 335h-126l-16 -147h-40l16 147h-127l4 40h127l15 149h40l-15 -149h126zM377 92h-293l4 40h293z" />
<glyph unicode="&#xb2;" horiz-adv-x="359" d="M325 356h-222l2 24l104 80q5 4 22 17t23 18t19 17t18.5 20t13 20t10 25t2.5 27q0 34 -21 54.5t-59 20.5q-25 0 -48.5 -8.5t-34.5 -16.5l-11 -8l-13 25q47 42 112 42q51 0 80 -29t29 -76q0 -12 -2 -23t-4 -20t-8.5 -19.5t-9.5 -16.5t-12.5 -16t-13 -14t-15 -14.5 t-14.5 -13t-16.5 -13t-15.5 -12.5l-69 -56h158z" />
<glyph unicode="&#xb3;" horiz-adv-x="357" d="M213 519l4 33q103 0 103 72q0 26 -20.5 40.5t-55.5 14.5q-24 0 -47.5 -8.5t-34.5 -16.5l-12 -8l-12 25q47 42 109 42q50 0 78.5 -23t28.5 -60q0 -79 -76 -94q70 -11 70 -76q0 -50 -38 -81t-100 -31q-32 0 -60 12t-40 24l-12 11l21 27q2 -4 10.5 -12t32 -18t52.5 -10 q45 0 72 19t27 56q0 62 -100 62z" />
<glyph unicode="&#xb4;" horiz-adv-x="262" d="M162 547h-41l100 185h53z" />
<glyph unicode="&#xb5;" horiz-adv-x="498" d="M523 42l5 -23q-34 -25 -80 -25q-51 0 -46 52l2 19q-86 -80 -188 -80q-66 0 -98 33l-30 -282h-42l77 732h42l-36 -341q-12 -106 97 -106q88 0 181 80l37 359l43 13l-44 -419q-3 -27 21 -27q10 0 25 3.5t25 7.5z" />
<glyph unicode="&#xb6;" horiz-adv-x="593" d="M356 0h-45l24 228h-33q-103 0 -159.5 51t-56.5 153q0 134 70 201t196 67h78zM499 0h-45l74 700h45z" />
<glyph unicode="&#xb7;" horiz-adv-x="225" d="M189 318q0 -22 -14.5 -36.5t-34.5 -14.5q-16 0 -26.5 12t-10.5 29q0 21 14 36.5t33 15.5q17 0 28 -12t11 -30z" />
<glyph unicode="&#xb8;" horiz-adv-x="250" d="M44 -148l13 22q16 -17 47 -17q44 0 44 39t-66 39l29 66h30l-20 -44q24 -2 40.5 -15.5t16.5 -41.5q0 -32 -21 -51.5t-57 -19.5q-17 0 -31 5.5t-19 11.5z" />
<glyph unicode="&#xb9;" horiz-adv-x="276" d="M238 356h-34l33 310l-132 -80l-13 27q148 93 149 93h34z" />
<glyph unicode="&#xba;" horiz-adv-x="374" d="M332 601q0 36 -18 59t-56 23q-46 0 -69 -32t-23 -78q0 -79 73 -79q44 0 68.5 29t24.5 78zM342 419l-3 -30h-223l3 30h223zM361 603q0 -61 -33.5 -100t-91.5 -39q-48 0 -73.5 29t-25.5 78q0 60 32 101t92 41q50 0 75 -31t25 -79z" />
<glyph unicode="&#xbb;" horiz-adv-x="446" d="M419 202l-184 -177l-24 28l163 167l-128 168l30 27l146 -177zM267 202l-184 -177l-24 28l162 167l-126 168l29 27l146 -177z" />
<glyph unicode="&#xbc;" horiz-adv-x="621" d="M538 -3h-33l9 87h-166l4 34l147 226h36l-144 -226h127l10 95h33l-10 -95h39l-4 -34h-39zM239 356h-35l33 310l-131 -80l-13 27q147 93 148 93h35zM108 -15h-42l528 728h43z" />
<glyph unicode="&#xbd;" horiz-adv-x="651" d="M239 356h-35l33 310l-131 -80l-13 27q147 93 148 93h35zM108 -15h-42l528 728h43zM599 0h-222l2 24l103 80q2 1 21.5 16.5t23 18.5t18.5 16.5t19 20.5t12 20t10.5 25.5t2.5 26.5q0 34 -21 54.5t-57 20.5q-25 0 -48.5 -8.5t-34.5 -16.5l-11 -8l-13 25q46 42 110 42 q53 0 82 -29t29 -76q0 -15 -3 -28.5t-6.5 -24t-12.5 -23t-14 -19.5t-18 -19t-17.5 -16t-20.5 -16.5t-19 -15.5l-70 -56h158z" />
<glyph unicode="&#xbe;" horiz-adv-x="636" d="M143 -15h-43l528 728h43zM196 519l4 33q103 0 103 72q0 26 -20.5 40.5t-55.5 14.5q-24 0 -47 -8.5t-34 -16.5l-12 -8l-13 25q47 42 109 42q51 0 79.5 -23t28.5 -60q0 -79 -77 -94q70 -11 70 -75q0 -51 -37.5 -82t-99.5 -31q-32 0 -60 12t-40 24l-13 11l22 27 q2 -4 10.5 -12t32 -18t52.5 -10q46 0 72.5 19t26.5 55q0 63 -101 63zM549 -3h-33l9 87h-166l4 34l147 226h35l-144 -226h128l10 95h33l-10 -95h39l-4 -34h-39z" />
<glyph unicode="&#xbf;" horiz-adv-x="472" d="M415 -139l17 -34q-3 -3 -9.5 -8t-27.5 -17.5t-44 -22t-57.5 -17.5t-69.5 -8q-90 0 -139.5 52t-49.5 136q0 42 12.5 80.5t33 66.5t45 52t48.5 40t44.5 27t33.5 16l12 5l10 93h45l-12 -116q-9 -3 -24.5 -9t-54.5 -28.5t-69 -50t-54.5 -73.5t-24.5 -98q0 -68 40 -110.5 t109 -42.5q48 0 94.5 17t68.5 33zM350 441q0 -22 -13 -37t-34 -15q-16 0 -26.5 12t-10.5 30q0 22 13.5 36.5t33.5 14.5q17 0 27 -11.5t10 -29.5z" />
<glyph unicode="&#xc0;" d="M594 0h-47l-54 207h-319l-98 -207h-47l332 700h49zM481 247l-102 395l-186 -395h288zM408 754h-41l-74 185h54z" />
<glyph unicode="&#xc1;" d="M594 0h-47l-54 207h-319l-98 -207h-47l332 700h49zM481 247l-102 395l-186 -395h288zM411 753h-41l100 185h53z" />
<glyph unicode="&#xc2;" d="M523 754h-41l-76 147l-108 -147h-40l126 185h52zM594 0h-47l-54 207h-319l-98 -207h-47l332 700h49zM481 247l-102 395l-186 -395h288z" />
<glyph unicode="&#xc3;" d="M594 0h-47l-54 207h-319l-98 -207h-47l332 700h49zM481 247l-102 395l-186 -395h288zM522 840l23 -15q-3 -8 -9.5 -20t-29 -31.5t-48.5 -19.5q-28 0 -60 30t-54 30q-18 0 -37 -12t-29 -24l-11 -13l-21 19l5 7.5t13.5 15.5t21.5 20t28 16t34 7q30 0 65 -30.5t50 -30.5 t30 12.5t22 25.5z" />
<glyph unicode="&#xc4;" d="M354 790q0 -15 -10.5 -26t-24.5 -11q-11 0 -19 9t-8 22q0 14 10.5 25t23.5 11t20.5 -8.5t7.5 -21.5zM496 790q0 -15 -10.5 -26t-24.5 -11q-12 0 -19.5 8.5t-7.5 22.5t10.5 25t23.5 11t20.5 -8.5t7.5 -21.5zM594 0h-47l-54 207h-319l-98 -207h-47l332 700h49zM481 247 l-102 395l-186 -395h288z" />
<glyph unicode="&#xc5;" d="M594 0h-47l-54 207h-319l-98 -207h-47l332 700h49zM481 247l-102 395l-186 -395h288zM390 754q-22 0 -36 15t-14 40q0 30 18 49.5t45 19.5q24 0 37.5 -15t13.5 -40q0 -31 -18 -50t-46 -19zM431 820q0 33 -30 33q-17 0 -27 -11.5t-10 -30.5q0 -32 29 -32q17 0 27.5 11.5 t10.5 29.5z" />
<glyph unicode="&#xc6;" horiz-adv-x="951" d="M899 0h-454l22 207h-253l-140 -207h-49l479 700h469l-5 -40h-409l-31 -296h338l-4 -40h-338l-30 -284h409zM471 247l42 403l-270 -403h228z" />
<glyph unicode="&#xc7;" horiz-adv-x="652" d="M294 -148l13 22q16 -17 47 -17q44 0 44 39t-66 39l22 51q-91 4 -152 49t-86.5 112.5t-25.5 155.5q0 183 97 296.5t265 113.5q61 0 112 -16.5t71 -32.5l20 -16l-23 -35q-3 2 -8 6.5t-22.5 14.5t-37.5 18t-51.5 14.5t-64.5 6.5q-146 0 -229 -98.5t-83 -267.5 q0 -125 59.5 -203.5t184.5 -78.5q62 0 121.5 20.5t88.5 40.5l29 20l15 -34l-12 -9t-33.5 -20.5t-52.5 -26t-69 -21t-84 -10.5l-12 -28q24 -2 40.5 -15.5t16.5 -41.5q0 -32 -21 -51.5t-57 -19.5q-17 0 -31 5.5t-19 11.5z" />
<glyph unicode="&#xc8;" horiz-adv-x="599" d="M546 0h-452l74 700h452l-5 -40h-407l-31 -296h337l-4 -40h-337l-30 -284h407zM442 754h-41l-74 185h54z" />
<glyph unicode="&#xc9;" horiz-adv-x="599" d="M410 753h-41l100 185h53zM546 0h-452l74 700h452l-5 -40h-407l-31 -296h337l-4 -40h-337l-30 -284h407z" />
<glyph unicode="&#xca;" horiz-adv-x="599" d="M534 754h-41l-76 147l-108 -147h-40l126 185h52zM546 0h-452l74 700h452l-5 -40h-407l-31 -296h337l-4 -40h-337l-30 -284h407z" />
<glyph unicode="&#xcb;" horiz-adv-x="599" d="M370 791q0 -15 -10.5 -26t-24.5 -11q-11 0 -19 9t-8 22q0 14 10.5 25t23.5 11t20.5 -8.5t7.5 -21.5zM512 791q0 -15 -10.5 -26t-24.5 -11q-12 0 -19.5 8.5t-7.5 22.5t10.5 25t23.5 11t20.5 -8.5t7.5 -21.5zM546 0h-452l74 700h452l-5 -40h-407l-31 -296h337l-4 -40h-337 l-30 -284h407z" />
<glyph unicode="&#xcc;" horiz-adv-x="233" d="M139 0h-45l74 700h45zM216 754h-41l-74 185h54z" />
<glyph unicode="&#xcd;" horiz-adv-x="233" d="M139 0h-45l74 700h45zM215 754h-41l100 185h53z" />
<glyph unicode="&#xce;" horiz-adv-x="233" d="M328 754h-41l-76 147l-108 -147h-40l126 185h52zM139 0h-45l74 700h45z" />
<glyph unicode="&#xcf;" horiz-adv-x="233" d="M159 791q0 -15 -10.5 -26t-24.5 -11q-11 0 -19 9t-8 22q0 14 10.5 25t23.5 11t20.5 -8.5t7.5 -21.5zM301 791q0 -15 -10.5 -26t-24.5 -11q-12 0 -19.5 8.5t-7.5 22.5t10.5 25t23.5 11t20.5 -8.5t7.5 -21.5zM139 0h-45l74 700h45z" />
<glyph unicode="&#xd0;" horiz-adv-x="691" d="M285 0h-186l33 318h-63l4 39h63l37 343h202q146 0 221.5 -75.5t75.5 -224.5q0 -203 -93.5 -301.5t-293.5 -98.5zM148 40h137q185 0 263.5 86t78.5 270q0 264 -262 264h-152l-32 -303h75l-4 -39h-75z" />
<glyph unicode="&#xd1;" horiz-adv-x="682" d="M561 840l23 -15q-3 -8 -9.5 -20t-29 -31.5t-48.5 -19.5q-28 0 -60 30t-54 30q-18 0 -37 -12t-30 -24l-10 -13l-21 19l5 7.5t13.5 15.5t21.5 20t28 16t34 7q30 0 65 -30.5t50 -30.5t30 12.5t22 25.5zM588 0h-41l-343 621l-65 -621h-45l74 700h41l343 -620l66 620h44z" />
<glyph unicode="&#xd2;" horiz-adv-x="743" d="M474 754h-41l-74 185h54zM728 399q0 -82 -22.5 -155.5t-65 -132t-112.5 -92.5t-158 -34q-140 0 -210.5 89.5t-70.5 230.5q0 180 99.5 294t258.5 114q130 0 205.5 -86.5t75.5 -227.5zM683 398q0 128 -64.5 201.5t-175.5 73.5q-137 0 -223 -99t-86 -265q0 -124 60.5 -204 t180.5 -80q61 0 112.5 20.5t87 56t60.5 83t36.5 101.5t11.5 112z" />
<glyph unicode="&#xd3;" horiz-adv-x="743" d="M465 754h-41l100 185h53zM728 399q0 -82 -22.5 -155.5t-65 -132t-112.5 -92.5t-158 -34q-140 0 -210.5 89.5t-70.5 230.5q0 180 99.5 294t258.5 114q130 0 205.5 -86.5t75.5 -227.5zM683 398q0 128 -64.5 201.5t-175.5 73.5q-137 0 -223 -99t-86 -265q0 -124 60.5 -204 t180.5 -80q61 0 112.5 20.5t87 56t60.5 83t36.5 101.5t11.5 112z" />
<glyph unicode="&#xd4;" horiz-adv-x="743" d="M582 754h-41l-76 147l-108 -147h-40l126 185h52zM728 399q0 -82 -22.5 -155.5t-65 -132t-112.5 -92.5t-158 -34q-140 0 -210.5 89.5t-70.5 230.5q0 180 99.5 294t258.5 114q130 0 205.5 -86.5t75.5 -227.5zM683 398q0 128 -64.5 201.5t-175.5 73.5q-137 0 -223 -99 t-86 -265q0 -124 60.5 -204t180.5 -80q61 0 112.5 20.5t87 56t60.5 83t36.5 101.5t11.5 112z" />
<glyph unicode="&#xd5;" horiz-adv-x="743" d="M728 399q0 -82 -22.5 -155.5t-65 -132t-112.5 -92.5t-158 -34q-140 0 -210.5 89.5t-70.5 230.5q0 180 99.5 294t258.5 114q130 0 205.5 -86.5t75.5 -227.5zM683 398q0 128 -64.5 201.5t-175.5 73.5q-137 0 -223 -99t-86 -265q0 -124 60.5 -204t180.5 -80q61 0 112.5 20.5 t87 56t60.5 83t36.5 101.5t11.5 112zM579 840l23 -15q-3 -8 -9.5 -20t-29 -31.5t-48.5 -19.5q-28 0 -60 30t-54 30q-18 0 -37 -12t-30 -24l-10 -13l-21 19l5 7.5t13.5 15.5t21.5 20t28 16t34 7q30 0 65 -30.5t50 -30.5t30 12.5t22 25.5z" />
<glyph unicode="&#xd6;" horiz-adv-x="743" d="M413 791q0 -15 -10.5 -26t-24.5 -11q-11 0 -19 9t-8 22q0 14 10.5 25t23.5 11t20.5 -8.5t7.5 -21.5zM555 791q0 -15 -10.5 -26t-24.5 -11q-12 0 -19.5 8.5t-7.5 22.5t10.5 25t23.5 11t20.5 -8.5t7.5 -21.5zM728 399q0 -82 -22.5 -155.5t-65 -132t-112.5 -92.5t-158 -34 q-140 0 -210.5 89.5t-70.5 230.5q0 180 99.5 294t258.5 114q130 0 205.5 -86.5t75.5 -227.5zM683 398q0 128 -64.5 201.5t-175.5 73.5q-137 0 -223 -99t-86 -265q0 -124 60.5 -204t180.5 -80q61 0 112.5 20.5t87 56t60.5 83t36.5 101.5t11.5 112z" />
<glyph unicode="&#xd7;" horiz-adv-x="392" d="M309 146l-86 107l-107 -107l-25 29l107 106l-89 111l32 29l88 -111l108 106l24 -29l-106 -106l84 -106z" />
<glyph unicode="&#xd8;" horiz-adv-x="743" d="M728 399q0 -82 -22.5 -155.5t-65 -132t-112.5 -92.5t-158 -34q-42 0 -77 9l-52 -143h-38l56 153q-85 32 -127.5 112t-42.5 189q0 180 99.5 294t258.5 114q29 0 68 -7l34 93h39l-38 -103q85 -31 131.5 -109t46.5 -188zM683 398q0 97 -38.5 164.5t-108.5 93.5l-229 -623 q34 -8 68 -8q61 0 112.5 20.5t87 56t60.5 83t36.5 101.5t11.5 112zM134 309q0 -93 35 -164t104 -101l228 623q-27 6 -58 6q-137 0 -223 -99t-86 -265z" />
<glyph unicode="&#xd9;" horiz-adv-x="670" d="M567 280l45 420h45l-44 -415q-17 -162 -82.5 -230t-199.5 -69q-130 0 -180.5 68.5t-33.5 230.5l44 415h44l-44 -420q-15 -140 26 -198t148 -58q110 0 163.5 56.5t68.5 199.5zM435 754h-41l-74 185h54z" />
<glyph unicode="&#xda;" horiz-adv-x="670" d="M418 754h-41l100 185h53zM567 280l45 420h45l-44 -415q-17 -162 -82.5 -230t-199.5 -69q-130 0 -180.5 68.5t-33.5 230.5l44 415h44l-44 -420q-15 -140 26 -198t148 -58q110 0 163.5 56.5t68.5 199.5z" />
<glyph unicode="&#xdb;" horiz-adv-x="670" d="M543 754h-41l-76 147l-108 -147h-40l126 185h52zM567 280l45 420h45l-44 -415q-17 -162 -82.5 -230t-199.5 -69q-130 0 -180.5 68.5t-33.5 230.5l44 415h44l-44 -420q-15 -140 26 -198t148 -58q110 0 163.5 56.5t68.5 199.5z" />
<glyph unicode="&#xdc;" horiz-adv-x="670" d="M376 791q0 -15 -10.5 -26t-24.5 -11q-11 0 -19 9t-8 22q0 14 10.5 25t23.5 11t20.5 -8.5t7.5 -21.5zM518 791q0 -15 -10.5 -26t-24.5 -11q-12 0 -19.5 8.5t-7.5 22.5t10.5 25t23.5 11t20.5 -8.5t7.5 -21.5zM567 280l45 420h45l-44 -415q-17 -162 -82.5 -230t-199.5 -69 q-130 0 -180.5 68.5t-33.5 230.5l44 415h44l-44 -420q-15 -140 26 -198t148 -58q110 0 163.5 56.5t68.5 199.5z" />
<glyph unicode="&#xdd;" horiz-adv-x="640" d="M343 0h-45l28 266l-222 434h53l197 -393l279 393h51l-313 -434zM404 742h-41l100 185h53z" />
<glyph unicode="&#xde;" horiz-adv-x="620" d="M348 119h-196l-13 -119h-45l74 700h45l-11 -103h196q105 0 162 -51.5t57 -155.5q0 -135 -71 -203t-198 -68zM156 160h196q219 0 219 227q0 170 -177 170h-196z" />
<glyph unicode="&#xdf;" horiz-adv-x="634" d="M148 0h-42l45 432h-78l15 36h66l11 101q9 88 61 135t129 47q79 0 125.5 -37.5t46.5 -110.5q0 -44 -14.5 -80t-35 -58.5t-41 -41.5t-35 -39t-14.5 -41q0 -26 23 -43t56 -28t66 -25t56 -42.5t23 -70.5q0 -69 -48.5 -109t-134.5 -40q-34 0 -63.5 9t-47 22t-29.5 26t-17 22 l-5 9l23 25q1 -3 4 -8.5t15 -18.5t26.5 -23t40.5 -18.5t56 -8.5q64 0 101 30t37 79q0 36 -23 58.5t-56 34t-66.5 22.5t-56.5 34t-23 59q0 27 14.5 51t35 43.5t41.5 40.5t35.5 53.5t14.5 71.5q0 57 -36 86.5t-96 29.5q-59 0 -98.5 -38t-46.5 -105z" />
<glyph unicode="&#xe0;" horiz-adv-x="503" d="M490 42l7 -23q-34 -25 -80 -25q-52 0 -47 50l2 21q-77 -80 -183 -80q-63 0 -100 26.5t-37 76.5q0 139 235 139q53 0 100 -11l13 119q6 58 -24.5 84.5t-101.5 26.5q-39 0 -76 -7t-55 -15l-18 -7l-8 34q70 31 168 31q85 0 124.5 -35t32.5 -107l-30 -286q-2 -15 2.5 -21 t18.5 -6q10 0 24 3.5t23 7.5zM375 102l9 81q-57 10 -99 10q-192 0 -192 -101q0 -35 28.5 -53t77.5 -18q95 0 176 81zM332 547h-41l-74 185h54z" />
<glyph unicode="&#xe1;" horiz-adv-x="503" d="M490 42l7 -23q-34 -25 -80 -25q-52 0 -47 50l2 21q-77 -80 -183 -80q-63 0 -100 26.5t-37 76.5q0 139 235 139q53 0 100 -11l13 119q6 58 -24.5 84.5t-101.5 26.5q-39 0 -76 -7t-55 -15l-18 -7l-8 34q70 31 168 31q85 0 124.5 -35t32.5 -107l-30 -286q-2 -15 2.5 -21 t18.5 -6q10 0 24 3.5t23 7.5zM375 102l9 81q-57 10 -99 10q-192 0 -192 -101q0 -35 28.5 -53t77.5 -18q95 0 176 81zM311 547h-41l100 185h53z" />
<glyph unicode="&#xe2;" horiz-adv-x="503" d="M429 547h-41l-76 147l-108 -147h-40l126 185h52zM490 42l7 -23q-34 -25 -80 -25q-52 0 -47 50l2 21q-77 -80 -183 -80q-63 0 -100 26.5t-37 76.5q0 139 235 139q53 0 100 -11l13 119q6 58 -24.5 84.5t-101.5 26.5q-39 0 -76 -7t-55 -15l-18 -7l-8 34q70 31 168 31 q85 0 124.5 -35t32.5 -107l-30 -286q-2 -15 2.5 -21t18.5 -6q10 0 24 3.5t23 7.5zM375 102l9 81q-57 10 -99 10q-192 0 -192 -101q0 -35 28.5 -53t77.5 -18q95 0 176 81z" />
<glyph unicode="&#xe3;" horiz-adv-x="503" d="M490 42l7 -23q-34 -25 -80 -25q-52 0 -47 50l2 21q-77 -80 -183 -80q-63 0 -100 26.5t-37 76.5q0 139 235 139q53 0 100 -11l13 119q6 58 -24.5 84.5t-101.5 26.5q-39 0 -76 -7t-55 -15l-18 -7l-8 34q70 31 168 31q85 0 124.5 -35t32.5 -107l-30 -286q-2 -15 2.5 -21 t18.5 -6q10 0 24 3.5t23 7.5zM375 102l9 81q-57 10 -99 10q-192 0 -192 -101q0 -35 28.5 -53t77.5 -18q95 0 176 81zM423 623l23 -15q-3 -8 -9.5 -20t-29 -31.5t-48.5 -19.5q-28 0 -60 30t-54 30q-18 0 -37 -12.5t-30 -24.5l-10 -12l-21 19l5 7.5t13.5 15.5t21.5 20t28 16 t34 7q30 0 65 -30.5t50 -30.5t30 13t22 25z" />
<glyph unicode="&#xe4;" horiz-adv-x="503" d="M269 606q0 -15 -10.5 -26t-24.5 -11q-11 0 -19 9t-8 22q0 14 10.5 25t23.5 11t20.5 -8.5t7.5 -21.5zM411 606q0 -15 -10.5 -26t-24.5 -11q-12 0 -19.5 8.5t-7.5 22.5t10.5 25t23.5 11t20.5 -8.5t7.5 -21.5zM490 42l7 -23q-34 -25 -80 -25q-52 0 -47 50l2 21 q-77 -80 -183 -80q-63 0 -100 26.5t-37 76.5q0 139 235 139q53 0 100 -11l13 119q6 58 -24.5 84.5t-101.5 26.5q-39 0 -76 -7t-55 -15l-18 -7l-8 34q70 31 168 31q85 0 124.5 -35t32.5 -107l-30 -286q-2 -15 2.5 -21t18.5 -6q10 0 24 3.5t23 7.5zM375 102l9 81 q-57 10 -99 10q-192 0 -192 -101q0 -35 28.5 -53t77.5 -18q95 0 176 81z" />
<glyph unicode="&#xe5;" horiz-adv-x="503" d="M490 42l7 -23q-34 -25 -80 -25q-52 0 -47 50l2 21q-77 -80 -183 -80q-63 0 -100 26.5t-37 76.5q0 139 235 139q53 0 100 -11l13 119q6 58 -24.5 84.5t-101.5 26.5q-39 0 -76 -7t-55 -15l-18 -7l-8 34q70 31 168 31q85 0 124.5 -35t32.5 -107l-30 -286q-2 -15 2.5 -21 t18.5 -6q10 0 24 3.5t23 7.5zM375 102l9 81q-57 10 -99 10q-192 0 -192 -101q0 -35 28.5 -53t77.5 -18q95 0 176 81zM295 545q-23 0 -36.5 15t-13.5 40q0 30 18 49.5t45 19.5q24 0 37.5 -15t13.5 -40q0 -31 -18 -50t-46 -19zM336 611q0 33 -30 33q-17 0 -27 -11.5t-10 -30.5 q0 -32 29 -32q17 0 27.5 11.5t10.5 29.5z" />
<glyph unicode="&#xe6;" horiz-adv-x="821" d="M789 218h-360q-4 -87 35.5 -142t126.5 -55q41 0 81 15.5t60 31.5l19 16l14 -29q-8 -8 -23 -19.5t-61.5 -31t-93.5 -19.5q-127 0 -175 98q-98 -98 -223 -98q-63 0 -100 26.5t-37 76.5q0 139 235 139q53 0 100 -11l13 119q6 58 -24.5 84.5t-101.5 26.5q-39 0 -76 -7 t-55 -15l-18 -7l-8 34q70 31 168 31q140 0 156 -94q65 94 187 94q82 0 128.5 -51.5t46.5 -135.5q0 -22 -3.5 -41.5t-7.5 -27.5zM433 253h326l3 17q14 84 -25 130t-113 46q-79 0 -128.5 -51.5t-62.5 -141.5zM199 21q101 0 202 88q-11 31 -14 74q-63 10 -102 10 q-192 0 -192 -101q0 -35 28.5 -53t77.5 -18z" />
<glyph unicode="&#xe7;" horiz-adv-x="481" d="M196 -148l13 22q16 -17 47 -17q44 0 44 39t-66 39l22 51q-91 6 -136.5 65.5t-45.5 151.5q0 122 67 200.5t185 78.5q42 0 77 -11t49 -22l15 -11l-20 -34q-5 5 -14 12t-41.5 18.5t-68.5 11.5q-97 0 -152 -65.5t-55 -172.5q0 -81 40.5 -134t121.5 -53q41 0 81 15.5t59 31.5 l20 16l14 -32q-8 -7 -22 -17t-57 -28.5t-87 -20.5l-13 -29q24 -2 40.5 -15.5t16.5 -41.5q0 -32 -21 -51.5t-57 -19.5q-17 0 -31 5.5t-19 11.5z" />
<glyph unicode="&#xe8;" horiz-adv-x="508" d="M476 218h-360q-4 -87 35.5 -142t126.5 -55q41 0 81 15.5t59 31.5l20 16l14 -29q-8 -8 -23 -19.5t-61.5 -31t-93.5 -19.5q-100 0 -150 60.5t-50 157.5q0 122 64 200.5t177 78.5q82 0 128.5 -51.5t46.5 -135.5q0 -22 -3.5 -41.5t-6.5 -27.5zM120 253h326l3 17 q14 84 -25 130t-113 46q-79 0 -128.5 -51.5t-62.5 -141.5zM342 547h-41l-74 185h54z" />
<glyph unicode="&#xe9;" horiz-adv-x="508" d="M329 547h-41l100 185h53zM476 218h-360q-4 -87 35.5 -142t126.5 -55q41 0 81 15.5t59 31.5l20 16l14 -29q-8 -8 -23 -19.5t-61.5 -31t-93.5 -19.5q-100 0 -150 60.5t-50 157.5q0 122 64 200.5t177 78.5q82 0 128.5 -51.5t46.5 -135.5q0 -22 -3.5 -41.5t-6.5 -27.5z M120 253h326l3 17q14 84 -25 130t-113 46q-79 0 -128.5 -51.5t-62.5 -141.5z" />
<glyph unicode="&#xea;" horiz-adv-x="508" d="M448 547h-41l-76 147l-108 -147h-40l126 185h52zM476 218h-360q-4 -87 35.5 -142t126.5 -55q41 0 81 15.5t59 31.5l20 16l14 -29q-8 -8 -23 -19.5t-61.5 -31t-93.5 -19.5q-100 0 -150 60.5t-50 157.5q0 122 64 200.5t177 78.5q82 0 128.5 -51.5t46.5 -135.5 q0 -22 -3.5 -41.5t-6.5 -27.5zM120 253h326l3 17q14 84 -25 130t-113 46q-79 0 -128.5 -51.5t-62.5 -141.5z" />
<glyph unicode="&#xeb;" horiz-adv-x="508" d="M283 606q0 -15 -10.5 -26t-24.5 -11q-11 0 -19 9t-8 22q0 14 10.5 25t23.5 11t20.5 -8.5t7.5 -21.5zM425 606q0 -15 -10.5 -26t-24.5 -11q-12 0 -19.5 8.5t-7.5 22.5t10.5 25t23.5 11t20.5 -8.5t7.5 -21.5zM476 218h-360q-4 -87 35.5 -142t126.5 -55q41 0 81 15.5 t59 31.5l20 16l14 -29q-8 -8 -23 -19.5t-61.5 -31t-93.5 -19.5q-100 0 -150 60.5t-50 157.5q0 122 64 200.5t177 78.5q82 0 128.5 -51.5t46.5 -135.5q0 -22 -3.5 -41.5t-6.5 -27.5zM120 253h326l3 17q14 84 -25 130t-113 46q-79 0 -128.5 -51.5t-62.5 -141.5z" />
<glyph unicode="&#xec;" horiz-adv-x="197" d="M119 0h-41l49 468h41zM178 547h-41l-74 185h54z" />
<glyph unicode="&#xed;" horiz-adv-x="197" d="M175 547h-41l100 185h53zM119 0h-41l49 468h41z" />
<glyph unicode="&#xee;" horiz-adv-x="197" d="M290 547h-41l-76 147l-108 -147h-40l126 185h52zM119 0h-41l49 468h41z" />
<glyph unicode="&#xef;" horiz-adv-x="197" d="M121 606q0 -15 -10.5 -26t-24.5 -11q-11 0 -19 9t-8 22q0 14 10.5 25t23.5 11t20.5 -8.5t7.5 -21.5zM263 606q0 -15 -10.5 -26t-24.5 -11q-12 0 -19.5 8.5t-7.5 22.5t10.5 25t23.5 11t20.5 -8.5t7.5 -21.5zM119 0h-41l49 468h41z" />
<glyph unicode="&#xf0;" horiz-adv-x="578" d="M309 537l-20 24l99 98q-37 14 -80 14q-36 0 -70.5 -11.5t-51.5 -23.5l-17 -11l-16 33q7 6 20 15t54.5 23.5t85.5 14.5q58 0 108 -21l63 63l19 -24l-53 -53q56 -35 85 -105.5t29 -163.5q0 -82 -17.5 -155.5t-52.5 -135t-94.5 -97.5t-136.5 -36q-87 0 -139 56t-52 145 q0 119 67.5 187t179.5 68q122 0 196 -92q10 106 -15 183t-83 113zM267 25q92 0 156.5 75.5t84.5 203.5q-13 17 -32.5 35.5t-65 39.5t-95.5 21q-88 0 -143 -57.5t-55 -152.5q0 -72 41 -118.5t109 -46.5z" />
<glyph unicode="&#xf1;" horiz-adv-x="542" d="M458 623l23 -15q-3 -8 -9.5 -20t-29 -31.5t-48.5 -19.5q-28 0 -60 30t-54 30q-18 0 -37 -12.5t-29 -24.5l-11 -12l-21 19l5 7.5t13.5 15.5t21.5 20t28 16t34 7q30 0 65 -30.5t50 -30.5t30 13t22 25zM529 42l7 -23q-34 -25 -80 -25q-53 0 -46 60l27 264q7 66 -16 96 t-79 30q-95 0 -186 -87l-38 -357h-42l49 462l43 12l-9 -80q92 88 194 88q142 0 126 -162l-28 -266q-3 -27 21 -27q10 0 24.5 3.5t23.5 7.5z" />
<glyph unicode="&#xf2;" horiz-adv-x="548" d="M357 547h-41l-74 185h54zM524 263q0 -122 -67 -200t-184 -78q-97 0 -148.5 58.5t-51.5 155.5q0 119 65 201t186 82q99 0 149.5 -61.5t50.5 -157.5zM277 21q96 0 150.5 65.5t54.5 173.5q0 81 -39.5 133.5t-121.5 52.5q-69 0 -117 -37t-68.5 -90.5t-20.5 -117.5 q0 -84 41.5 -132t120.5 -48z" />
<glyph unicode="&#xf3;" horiz-adv-x="548" d="M339 547h-41l100 185h53zM524 263q0 -122 -67 -200t-184 -78q-97 0 -148.5 58.5t-51.5 155.5q0 119 65 201t186 82q99 0 149.5 -61.5t50.5 -157.5zM277 21q96 0 150.5 65.5t54.5 173.5q0 81 -39.5 133.5t-121.5 52.5q-69 0 -117 -37t-68.5 -90.5t-20.5 -117.5 q0 -84 41.5 -132t120.5 -48z" />
<glyph unicode="&#xf4;" horiz-adv-x="548" d="M462 547h-41l-76 147l-108 -147h-40l126 185h52zM524 263q0 -122 -67 -200t-184 -78q-97 0 -148.5 58.5t-51.5 155.5q0 119 65 201t186 82q99 0 149.5 -61.5t50.5 -157.5zM277 21q96 0 150.5 65.5t54.5 173.5q0 81 -39.5 133.5t-121.5 52.5q-69 0 -117 -37t-68.5 -90.5 t-20.5 -117.5q0 -84 41.5 -132t120.5 -48z" />
<glyph unicode="&#xf5;" horiz-adv-x="548" d="M524 263q0 -122 -67 -200t-184 -78q-97 0 -148.5 58.5t-51.5 155.5q0 119 65 201t186 82q99 0 149.5 -61.5t50.5 -157.5zM277 21q96 0 150.5 65.5t54.5 173.5q0 81 -39.5 133.5t-121.5 52.5q-69 0 -117 -37t-68.5 -90.5t-20.5 -117.5q0 -84 41.5 -132t120.5 -48zM466 623 l23 -15q-3 -8 -9.5 -20t-29 -31.5t-48.5 -19.5q-28 0 -60 30t-54 30q-18 0 -37 -12.5t-29 -24.5l-11 -12l-21 19l5 7.5t13.5 15.5t21.5 20t28 16t34 7q30 0 65 -30.5t50 -30.5t30 13t22 25z" />
<glyph unicode="&#xf6;" horiz-adv-x="548" d="M299 606q0 -15 -10.5 -26t-24.5 -11q-11 0 -19 9t-8 22q0 14 10.5 25t23.5 11t20.5 -8.5t7.5 -21.5zM441 606q0 -15 -10.5 -26t-24.5 -11q-12 0 -19.5 8.5t-7.5 22.5t10.5 25t23.5 11t20.5 -8.5t7.5 -21.5zM524 263q0 -122 -67 -200t-184 -78q-97 0 -148.5 58.5 t-51.5 155.5q0 119 65 201t186 82q99 0 149.5 -61.5t50.5 -157.5zM277 21q96 0 150.5 65.5t54.5 173.5q0 81 -39.5 133.5t-121.5 52.5q-69 0 -117 -37t-68.5 -90.5t-20.5 -117.5q0 -84 41.5 -132t120.5 -48z" />
<glyph unicode="&#xf7;" horiz-adv-x="434" d="M259 36q0 -22 -13.5 -36.5t-33.5 -14.5q-17 0 -27.5 11.5t-10.5 29.5q0 21 14 36.5t34 15.5q16 0 26.5 -12t10.5 -30zM302 442q0 -21 -14 -36t-33 -15q-17 0 -27.5 11.5t-10.5 29.5q0 21 13.5 36.5t33.5 15.5q16 0 27 -12.5t11 -29.5zM385 205h-293l4 40h293z" />
<glyph unicode="&#xf8;" horiz-adv-x="548" d="M524 263q0 -122 -67 -200t-184 -78q-22 0 -40 3l-22 -60h-38l25 69q-61 20 -93 73t-32 129q0 119 65 201t186 82q24 0 49 -5l18 50h38l-22 -60q58 -23 87.5 -77.5t29.5 -126.5zM115 201q0 -135 96 -169l149 410q-24 4 -39 4q-69 0 -117 -37t-68.5 -90.5t-20.5 -117.5z M277 21q96 0 150.5 65.5t54.5 173.5q0 130 -88 171l-148 -408q10 -2 31 -2z" />
<glyph unicode="&#xf9;" horiz-adv-x="536" d="M523 42l5 -23q-34 -25 -80 -25q-51 0 -46 52l2 19q-86 -80 -188 -80q-145 0 -127 162l34 321h42l-34 -319q-7 -67 16 -97.5t79 -30.5q88 0 181 80l37 359l43 13l-44 -419q-3 -27 21 -27q10 0 25 3.5t25 7.5zM352 547h-41l-74 185h54z" />
<glyph unicode="&#xfa;" horiz-adv-x="536" d="M327 547h-41l100 185h53zM523 42l5 -23q-34 -25 -80 -25q-51 0 -46 52l2 19q-86 -80 -188 -80q-145 0 -127 162l34 321h42l-34 -319q-7 -67 16 -97.5t79 -30.5q88 0 181 80l37 359l43 13l-44 -419q-3 -27 21 -27q10 0 25 3.5t25 7.5z" />
<glyph unicode="&#xfb;" horiz-adv-x="536" d="M450 547h-41l-76 147l-108 -147h-40l126 185h52zM523 42l5 -23q-34 -25 -80 -25q-51 0 -46 52l2 19q-86 -80 -188 -80q-145 0 -127 162l34 321h42l-34 -319q-7 -67 16 -97.5t79 -30.5q88 0 181 80l37 359l43 13l-44 -419q-3 -27 21 -27q10 0 25 3.5t25 7.5z" />
<glyph unicode="&#xfc;" horiz-adv-x="536" d="M288 606q0 -15 -10.5 -26t-24.5 -11q-11 0 -19 9t-8 22q0 14 10.5 25t23.5 11t20.5 -8.5t7.5 -21.5zM430 606q0 -15 -10.5 -26t-24.5 -11q-12 0 -19.5 8.5t-7.5 22.5t10.5 25t23.5 11t20.5 -8.5t7.5 -21.5zM523 42l5 -23q-34 -25 -80 -25q-51 0 -46 52l2 19 q-86 -80 -188 -80q-145 0 -127 162l34 321h42l-34 -319q-7 -67 16 -97.5t79 -30.5q88 0 181 80l37 359l43 13l-44 -419q-3 -27 21 -27q10 0 25 3.5t25 7.5z" />
<glyph unicode="&#xfd;" horiz-adv-x="478" d="M130 -263h-40l131 263h-4l-138 468h46l121 -421l206 421h44zM303 547h-41l100 185h53z" />
<glyph unicode="&#xfe;" horiz-adv-x="535" d="M91 -263h-41l105 1001l42 12l-37 -353q82 85 173 85q89 0 133 -60t44 -155q0 -126 -67.5 -204t-183.5 -78q-78 0 -138 33zM156 360l-31 -303q51 -36 138 -36q95 0 150 65t55 175q0 81 -36 133t-107 52q-87 0 -169 -86z" />
<glyph unicode="&#xff;" horiz-adv-x="478" d="M264 606q0 -15 -10.5 -26t-24.5 -11q-11 0 -19 9t-8 22q0 14 10.5 25t23.5 11t20.5 -8.5t7.5 -21.5zM406 606q0 -15 -10.5 -26t-24.5 -11q-12 0 -19.5 8.5t-7.5 22.5t10.5 25t23.5 11t20.5 -8.5t7.5 -21.5zM130 -263h-40l131 263h-4l-138 468h46l121 -421l206 421h44z " />
<glyph unicode="&#x152;" horiz-adv-x="1150" d="M1097 0h-453l18 168q-44 -85 -118 -134t-174 -49q-140 0 -210.5 89.5t-70.5 230.5q0 180 99.5 294t258.5 114q95 0 160.5 -48t92.5 -133l18 168h453l-5 -40h-408l-31 -296h337l-4 -40h-337l-30 -284h408zM683 398q0 128 -64.5 201.5t-175.5 73.5q-137 0 -223 -99 t-86 -265q0 -124 60.5 -204t180.5 -80q61 0 112.5 20.5t87 56t60.5 83t36.5 101.5t11.5 112z" />
<glyph unicode="&#x153;" horiz-adv-x="915" d="M883 218h-359q-6 -86 33.5 -141.5t126.5 -55.5q41 0 81.5 15.5t60.5 31.5l20 16l13 -29q-8 -8 -23.5 -19.5t-62 -31t-93.5 -19.5q-79 0 -126 38.5t-63 105.5q-29 -68 -85 -106t-133 -38q-97 0 -148.5 58.5t-51.5 155.5q0 119 65 201t186 82q77 0 124.5 -39t63.5 -105 q61 144 209 144q84 0 130.5 -51.5t46.5 -135.5q0 -23 -4 -42t-8 -27zM277 21q96 0 150.5 65.5t54.5 173.5q0 81 -39.5 133.5t-121.5 52.5q-69 0 -117 -37t-68.5 -90.5t-20.5 -117.5q0 -84 41.5 -132t120.5 -48zM527 253h325l3 17q15 84 -24 130t-113 46q-78 0 -128 -51.5 t-63 -141.5z" />
<glyph unicode="&#x178;" horiz-adv-x="640" d="M343 0h-45l28 266l-222 434h53l197 -393l279 393h51l-313 -434zM363 790q0 -15 -10.5 -26t-24.5 -11q-11 0 -19 9t-8 22q0 14 10.5 25t23.5 11t20.5 -8.5t7.5 -21.5zM505 790q0 -15 -10.5 -26t-24.5 -11q-12 0 -19.5 8.5t-7.5 22.5t10.5 25t23.5 11t20.5 -8.5t7.5 -21.5z " />
<glyph unicode="&#x2c6;" horiz-adv-x="387" d="M383 547h-41l-76 147l-108 -147h-40l126 185h52z" />
<glyph unicode="&#x2dc;" horiz-adv-x="408" d="M393 623l23 -15q-3 -8 -9.5 -20t-29 -31.5t-48.5 -19.5q-28 0 -60 30t-54 30q-18 0 -37 -12.5t-30 -24.5l-10 -12l-21 19l5 7.5t13.5 15.5t21.5 20t28 16t34 7q30 0 65 -30.5t50 -30.5t30 13t22 25z" />
<glyph unicode="&#x2000;" horiz-adv-x="479" />
<glyph unicode="&#x2001;" horiz-adv-x="959" />
<glyph unicode="&#x2002;" horiz-adv-x="479" />
<glyph unicode="&#x2003;" horiz-adv-x="959" />
<glyph unicode="&#x2004;" horiz-adv-x="319" />
<glyph unicode="&#x2005;" horiz-adv-x="239" />
<glyph unicode="&#x2006;" horiz-adv-x="159" />
<glyph unicode="&#x2007;" horiz-adv-x="159" />
<glyph unicode="&#x2008;" horiz-adv-x="119" />
<glyph unicode="&#x2009;" horiz-adv-x="191" />
<glyph unicode="&#x200a;" horiz-adv-x="53" />
<glyph unicode="&#x2010;" horiz-adv-x="375" d="M331 258h-233l4 40h233z" />
<glyph unicode="&#x2011;" horiz-adv-x="375" d="M331 258h-233l4 40h233z" />
<glyph unicode="&#x2012;" horiz-adv-x="375" d="M331 258h-233l4 40h233z" />
<glyph unicode="&#x2013;" horiz-adv-x="518" d="M473 261h-374l4 35h374z" />
<glyph unicode="&#x2014;" horiz-adv-x="839" d="M794 261h-695l4 35h695z" />
<glyph unicode="&#x2018;" horiz-adv-x="164" d="M150 728q6 2 11 2q16 0 26 -11.5t10 -29.5q0 -21 -13.5 -36.5t-32.5 -15.5q-41 0 -41 50q0 43 9.5 79t22.5 55.5t26 33.5t22 19l10 4l10 -19q-5 -4 -13 -12.5t-24 -40.5t-22 -72z" />
<glyph unicode="&#x2019;" horiz-adv-x="196" d="M127 501l-8 19q5 4 13 12.5t24 40.5t22 72l1 6q-6 -2 -10 -2q-18 0 -28.5 11.5t-10.5 29.5q0 21 14 36.5t34 15.5q41 0 41 -50q0 -43 -9.5 -79t-23 -55.5t-27 -33.5t-23.5 -18z" />
<glyph unicode="&#x201a;" horiz-adv-x="219" d="M66 -163l-10 19q5 4 13 12.5t24 40.5t22 72l1 6q-6 -2 -9 -2q-17 0 -27.5 11.5t-10.5 29.5q0 21 13.5 36.5t33.5 15.5q40 0 40 -50q0 -43 -9.5 -79t-22.5 -55.5t-26 -33.5t-22 -18z" />
<glyph unicode="&#x201c;" horiz-adv-x="298" d="M150 728q6 2 11 2q16 0 26 -11.5t10 -29.5q0 -21 -13.5 -36.5t-32.5 -15.5q-41 0 -41 50q0 43 9.5 79t22.5 55.5t26 33.5t22 19l10 4l10 -19q-5 -4 -13 -12.5t-24 -40.5t-22 -72zM284 728q8 2 11 2q16 0 26 -11.5t10 -29.5q0 -21 -13.5 -36.5t-32.5 -15.5q-40 0 -40 50 q0 43 9.5 79t22.5 55.5t26 33.5t23 19l9 4l9 -19q-5 -4 -13 -12.5t-24 -40.5t-22 -72z" />
<glyph unicode="&#x201d;" horiz-adv-x="327" d="M127 501l-8 19q5 4 13 12.5t24 40.5t22 72l1 6q-6 -2 -10 -2q-18 0 -28.5 11.5t-10.5 29.5q0 21 14 36.5t34 15.5q41 0 41 -50q0 -43 -9.5 -79t-23 -55.5t-27 -33.5t-23.5 -18zM258 501l-8 19q5 4 13 12.5t24 40.5t22 72l1 6q-8 -2 -11 -2q-17 0 -27 11.5t-10 29.5 q0 21 13.5 36.5t32.5 15.5q42 0 42 -50q0 -43 -9.5 -79t-23 -55.5t-27 -33.5t-22.5 -18z" />
<glyph unicode="&#x201e;" horiz-adv-x="345" d="M66 -163l-10 19q5 4 13 12.5t24 40.5t22 72l1 6q-6 -2 -9 -2q-17 0 -27.5 11.5t-10.5 29.5q0 21 13.5 36.5t33.5 15.5q40 0 40 -50q0 -43 -9.5 -79t-22.5 -55.5t-26 -33.5t-22 -18zM192 -163l-10 19q5 4 13.5 12.5t24.5 40.5t22 72l1 6q-8 -2 -10 -2q-17 0 -27.5 11.5 t-10.5 29.5q0 21 13.5 36.5t33.5 15.5q40 0 40 -49q0 -44 -9.5 -79.5t-22.5 -55.5t-26 -34t-22 -18z" />
<glyph unicode="&#x2022;" horiz-adv-x="379" d="M114 306q0 53 36 91.5t85 38.5q42 0 70 -31.5t28 -76.5q0 -53 -37 -91t-86 -38q-42 0 -69 31t-27 76z" />
<glyph unicode="&#x2026;" horiz-adv-x="452" d="M154 36q0 -22 -14 -36.5t-34 -14.5q-17 0 -27 11.5t-10 29.5q0 21 13.5 36.5t33.5 15.5q16 0 27 -12.5t11 -29.5zM272 36q0 -22 -14 -36.5t-34 -14.5q-17 0 -27.5 11.5t-10.5 29.5q0 21 13.5 36.5t34.5 15.5q16 0 27 -12.5t11 -29.5zM391 36q0 -22 -14.5 -36.5 t-34.5 -14.5q-17 0 -27 11.5t-10 29.5q0 21 13.5 36.5t33.5 15.5q17 0 28 -12t11 -30z" />
<glyph unicode="&#x202f;" horiz-adv-x="191" />
<glyph unicode="&#x2039;" horiz-adv-x="294" d="M246 53l-29 -28l-147 177l4 36l184 177l24 -27l-162 -168z" />
<glyph unicode="&#x203a;" horiz-adv-x="294" d="M267 202l-184 -177l-24 28l162 167l-126 168l29 27l146 -177z" />
<glyph unicode="&#x205f;" horiz-adv-x="239" />
<glyph unicode="&#x20ac;" horiz-adv-x="718" d="M483 255h-293q9 -105 67 -167.5t170 -62.5q39 0 78.5 8.5t68 20.5t51.5 24.5t35 21.5l11 8l13 -34q-4 -4 -12 -10t-34.5 -21t-55.5 -27t-72.5 -21.5t-87.5 -9.5q-134 0 -202.5 73.5t-77.5 196.5h-67l4 37h408zM498 399h-408l4 37h64q33 128 121.5 202.5t218.5 74.5 q39 0 75 -7.5t59.5 -18t41 -21t24.5 -18.5l8 -7l-24 -32q-3 3 -8 7t-23 15t-38 19.5t-52.5 15.5t-66.5 7q-109 0 -184 -62t-106 -175h298z" />
<glyph unicode="&#x2122;" horiz-adv-x="794" d="M251 325h-35l33 316h-133l4 34h300l-4 -34h-132zM747 325h-35l29 277l-137 -277h-38l-78 277l-29 -277h-35l37 350h39l88 -316l157 316h39z" />
<glyph unicode="&#x25fc;" horiz-adv-x="470" d="M0 470h470v-470h-470v470z" />
<glyph unicode="&#xfb01;" horiz-adv-x="538" d="M462 0h-42l45 432h-272l-45 -432h-41l45 432h-79l15 36h68l13 121q9 82 50 122t105 40q26 0 47 -5.5t29 -11.5l8 -6l-18 -29q-24 15 -67 15q-47 0 -76.5 -31.5t-36.5 -91.5l-13 -123h314zM537 608q0 -15 -10.5 -26.5t-24.5 -11.5q-13 0 -21 9t-8 22q0 16 10 27t26 11 q12 0 20 -9t8 -22z" />
<glyph unicode="&#xfb02;" horiz-adv-x="578" d="M148 0h-41l45 432h-79l15 36h68l13 121q9 82 50 122t105 40q27 0 48 -5.5t28 -11.5l8 -6l-18 -29q-23 15 -67 15q-47 0 -76.5 -31.5t-36.5 -91.5l-13 -123h155l-4 -36h-155zM573 43l6 -23q-40 -26 -98 -26q-39 0 -54 19.5t-10 65.5l69 659l43 12l-70 -670q-6 -53 39 -53 q13 0 31.5 4t30.5 8z" />
</font>
</defs>
</svg>
