<?xml version="1.0" encoding="utf-8"?>
<!-- Generator: Adobe Illustrator 16.0.4, SVG Export Plug-In . SVG Version: 6.00 Build 0)  -->
<!DOCTYPE svg PUBLIC "-//W3C//DTD SVG 1.1//EN" "http://www.w3.org/Graphics/SVG/1.1/DTD/svg11.dtd">
<svg version="1.1" id="Layer_1" xmlns="http://www.w3.org/2000/svg" xmlns:xlink="http://www.w3.org/1999/xlink" x="0px" y="0px"
	 width="370px" height="472px" viewBox="0 0 370 472" enable-background="new 0 0 370 472" xml:space="preserve">
<g>
	<defs>
		<rect id="SVGID_1_" width="370" height="472"/>
	</defs>
	<clipPath id="SVGID_2_">
		<use xlink:href="#SVGID_1_"  overflow="visible"/>
	</clipPath>
	<g display="none" clip-path="url(#SVGID_2_)">
		<rect display="inline" fill="#323232" width="370" height="472"/>
	</g>
	<g display="none" clip-path="url(#SVGID_2_)">
		<g display="inline">
			<rect x="0" fill="#2C3E50" width="370" height="472"/>
		</g>
		<g display="inline">
			<g>
				<polygon fill="#34495E" points="0,472 0,472 0,471.998 				"/>
			</g>
			<g>
				<polygon fill="#34495E" points="367.299,471.998 367.299,0 366.499,0 183.65,235.485 				"/>
			</g>
		</g>
		<g display="inline">
			<g>
				<polygon fill="#34495E" points="183.65,235.485 0.801,0 0,0 0,471.998 				"/>
			</g>
			<g>
				<polygon fill="#34495E" points="367.299,471.998 367.299,472 367.299,472 				"/>
			</g>
		</g>
	</g>
	<g id="Header" display="none" clip-path="url(#SVGID_2_)">
		<g id="Background" display="inline">
			<rect fill="#2980B9" width="370" height="472"/>
		</g>
		<g id="Branding" display="inline">
			<text transform="matrix(0.9902 0 0 1 86.4658 427.6934)" fill="#ECF0F1" font-family="'Lawson'" font-size="62.9333">Experiment</text>
			<g id="Shape">
				<polyline fill="none" stroke="#ECF0F1" stroke-width="4" stroke-miterlimit="10" points="77.473,149.737 77.473,130.621 
					184.578,100.395 291.683,130.621 291.683,149.737 				"/>
				
					<line fill="none" stroke="#ECF0F1" stroke-width="4" stroke-miterlimit="10" x1="77.473" y1="149.737" x2="77.473" y2="269.865"/>
				
					<line fill="none" stroke="#ECF0F1" stroke-width="4" stroke-miterlimit="10" x1="291.683" y1="149.737" x2="291.683" y2="269.865"/>
				<polyline fill="none" stroke="#ECF0F1" stroke-width="4" stroke-miterlimit="10" points="291.683,326.386 291.683,345.503 
					184.578,375.729 77.473,345.503 77.473,326.386 				"/>
			</g>
			<text transform="matrix(0.9902 0 0 1 143.3062 313.6289)" fill="#ECF0F1" font-family="'Lawson'" font-size="177">UI</text>
			<g id="a-z">
				<text transform="matrix(0.9902 0 0 1 70.481 315.5996)" fill="#ECF0F1" font-family="'Lawson'" font-size="47.2">A</text>
				<text transform="matrix(0.9902 0 0 1 284.6143 315.5996)" fill="#ECF0F1" font-family="'Lawson'" font-size="47.2">Z</text>
			</g>
			<text transform="matrix(0.9902 0 0 1 155.5225 84.4878)" fill="#ECF0F1" font-family="'Lawson'" font-size="62.9333">W</text>
			<text transform="matrix(0.6931 0 0 0.7 185.8076 84.4878)" fill="#ECF0F1" font-family="'Lawson'" font-size="62.9333">eb</text>
		</g>
	</g>
	<g id="branding" display="none" clip-path="url(#SVGID_2_)">
		<g id="Background_1_" display="inline">
			<rect fill="#2980B9" width="370" height="472"/>
		</g>
		<g id="Content" display="inline">
			<text transform="matrix(0.9902 0 0 1 99.6821 388.2188)" fill="#ECF0F1" font-family="'Roboto-Light'" font-size="15.7333">© 2015 Chappers Design</text>
			<g id="Share">
				<path id="behance" fill="#ECF0F1" d="M180.386,340.49c0,0,3.929-0.295,3.929-4.951c0-4.657-3.214-6.929-7.292-6.929h-7.5h-0.217
					h-5.687v26.02h5.687h0.22h7.497c0,0,8.189,0.263,8.189-7.679C185.213,346.953,185.57,340.49,180.386,340.49z M169.527,333.234
					h6.535h0.962c0,0,1.826,0,1.826,2.708c0,2.706-1.072,3.101-2.29,3.101h-7.033V333.234z M176.647,350.005h-7.12v-6.952h7.497
					c0,0,2.72-0.036,2.72,3.572C179.744,349.671,177.716,349.982,176.647,350.005z M196.125,335.23
					c-9.908,0-9.896,9.998-9.896,9.998s-0.681,9.947,9.9,9.947c0,0,8.816,0.509,8.816-6.92h-4.533c0,0,0.148,2.798-4.131,2.798
					c0,0-4.537,0.306-4.537-4.528h13.354C205.098,346.527,206.559,335.23,196.125,335.23z M191.693,343.053
					c0,0,0.557-4.012,4.534-4.012c3.982,0,3.929,4.012,3.929,4.012H191.693z M201.214,333.348h-10.63v-3.205h10.63V333.348z"/>
				<path id="dribble" fill="#ECF0F1" d="M114.952,322.245c-10.726,0-19.455,8.813-19.455,19.649s8.729,19.651,19.455,19.651
					c10.729,0,19.458-8.815,19.458-19.651C134.41,331.061,125.681,322.245,114.952,322.245z M127.815,331.307
					c2.316,2.855,3.72,6.497,3.754,10.455c-0.547-0.117-6.04-1.24-11.57-0.541c-0.118-0.286-0.236-0.574-0.357-0.864
					c-0.346-0.818-0.719-1.631-1.107-2.432C124.685,335.392,127.465,331.785,127.815,331.307z M114.952,325.138
					c4.226,0,8.083,1.598,11.019,4.231c-0.3,0.43-2.799,3.823-8.71,6.061c-2.723-5.053-5.743-9.203-6.203-9.825
					C112.309,325.299,113.613,325.138,114.952,325.138z M107.889,326.731c0.438,0.609,3.408,4.764,6.162,9.707
					c-7.774,2.084-14.621,2.057-15.366,2.043C99.765,333.277,103.237,328.948,107.889,326.731z M98.334,341.922
					c0-0.171,0.004-0.342,0.008-0.515c0.73,0.017,8.782,0.12,17.081-2.386c0.476,0.941,0.928,1.894,1.347,2.847
					c-0.221,0.062-0.438,0.13-0.654,0.199c-8.573,2.798-13.133,10.427-13.51,11.078C99.951,350.168,98.334,346.233,98.334,341.922z
					 M114.952,358.705c-3.841,0-7.382-1.325-10.197-3.541c0.296-0.619,3.663-7.186,13.034-10.482
					c0.038-0.014,0.076-0.025,0.11-0.037c2.332,6.123,3.298,11.255,3.545,12.728C119.447,358.231,117.257,358.705,114.952,358.705z
					 M124.24,355.834c-0.171-1.021-1.057-5.933-3.229-11.965c5.207-0.844,9.782,0.537,10.349,0.716
					C130.622,349.254,127.967,353.289,124.24,355.834z"/>
				<path id="twitter" fill="#ECF0F1" d="M274.503,329.192c-0.837,1.812-2.286,3.28-4.081,4.125
					c1.004,10.542-7.417,25.234-23.81,25.34c-4.474,0.029-8.657-1.244-12.235-3.409c0.098,0.002,6.184,0.429,11.828-3.76
					c-3.686-0.183-6.777-2.654-7.903-6.041c0.708,0.185,2.54,0.519,4.069,0.085c-3.814-0.83-6.713-4.152-6.93-8.199
					c1.031,0.455,2.168,0.715,3.358,0.733c-2.054-1.624-5.051-6.186-2.19-11.448c3.997,5.215,10.201,8.616,17.195,8.768
					c-0.027-0.077-0.18-1.423-0.18-1.75c0-4.185,3.211-8.5,8.418-8.5c2.465,0,4.678,1.069,6.219,2.777
					c2.357-0.446,4.776-1.823,5.279-2.134c-0.658,1.949-1.997,3.578-3.728,4.6c0.015,0.03,0.022,0.058,0.038,0.088
					C271.483,330.266,273.046,329.83,274.503,329.192"/>
			</g>
			<g id="my_logo_x3F_">
				<g>
					<path fill="none" d="M270.814,178.129c0.179,2.124,0.312,4.256,0.331,6.426c0.513,47.196-37.08,86.026-83.817,86.549
						c-46.732,0.522-85.182-37.455-85.703-84.655c-0.019-2.158,0.064-4.294,0.198-6.426l1.635-0.016
						c-0.141,2.124-0.224,4.26-0.201,6.423c0.51,46.293,38.213,83.537,84.053,83.019c45.835-0.511,82.71-38.593,82.204-84.878
						c-0.023-2.167-0.152-4.303-0.339-6.423L270.814,178.129z"/>
					
						<text transform="matrix(0.1806 0.9735 -0.9832 0.1826 104.3911 199.3667)" fill="#ECF0F1" font-family="'Roboto-Regular'" font-size="13.7667"> </text>
					
						<text transform="matrix(0.3553 0.9242 -0.9334 0.3591 108.2744 214.2583)" fill="#ECF0F1" font-family="'Roboto-Regular'" font-size="13.7667"> </text>
					
						<text transform="matrix(0.5176 0.844 -0.8525 0.5229 114.7983 228.1685)" fill="#ECF0F1" font-family="'Roboto-Regular'" font-size="13.7667"> </text>
					
						<text transform="matrix(0.6623 0.7359 -0.7433 0.6691 123.7627 240.6836)" fill="#ECF0F1" font-family="'Roboto-Regular'" font-size="13.7667"> </text>
					
						<text transform="matrix(0.7851 0.6032 -0.6094 0.793 134.8315 251.3457)" fill="#ECF0F1" font-family="'Roboto-Regular'" font-size="13.7667"> </text>
					
						<text transform="matrix(0.8984 0.4162 -0.4205 0.9074 147.8105 260.0059)" fill="#ECF0F1" font-family="'Roboto-Regular'" font-size="13.7667">D</text>
					
						<text transform="matrix(0.9623 0.2331 -0.2356 0.9719 163.7969 266.3945)" fill="#ECF0F1" font-family="'Roboto-Regular'" font-size="13.7667">e</text>
					
						<text transform="matrix(0.9887 0.0538 -0.0546 0.9985 178.3623 269.166)" fill="#ECF0F1" font-family="'Roboto-Regular'" font-size="13.7667">s</text>
					
						<text transform="matrix(0.9848 -0.1033 0.1041 0.9945 193.4512 269.1973)" fill="#ECF0F1" font-family="'Roboto-Regular'" font-size="13.7667">i</text>
					
						<text transform="matrix(0.9539 -0.2659 0.2683 0.9633 204.6875 267.5371)" fill="#ECF0F1" font-family="'Roboto-Regular'" font-size="13.7667">g</text>
					
						<text transform="matrix(0.8819 -0.4505 0.4548 0.8905 220.1074 262.3906)" fill="#ECF0F1" font-family="'Roboto-Regular'" font-size="13.7667">n</text>
				</g>
				<path fill="none" d="M253.398,202.911c-8.102,38.442-45.527,62.987-83.597,54.813c-38.076-8.182-62.376-45.979-54.278-84.429
					c8.097-38.449,45.527-62.99,83.596-54.816C237.195,126.657,261.492,164.454,253.398,202.911z"/>
				
					<text transform="matrix(0.4786 -0.8665 0.8747 0.4869 121.2266 156.5913)" fill="#ECF0F1" font-family="'Roboto-Medium'" font-size="29.0921"> </text>
				
					<text transform="matrix(0.6337 -0.7598 0.7678 0.6433 124.5435 149.5537)" fill="#ECF0F1" font-family="'Roboto-Medium'" font-size="29.0921">C</text>
				
					<text transform="matrix(0.8126 -0.5638 0.571 0.8234 137.4082 134.4824)" fill="#ECF0F1" font-family="'Roboto-Medium'" font-size="29.0921">h</text>
				
					<text transform="matrix(0.9292 -0.3394 0.3453 0.9404 152.8081 124.0352)" fill="#ECF0F1" font-family="'Roboto-Medium'" font-size="29.0921">a</text>
				
					<text transform="matrix(0.9848 -0.0996 0.104 0.9958 169.5537 118.1123)" fill="#ECF0F1" font-family="'Roboto-Medium'" font-size="29.0921">p</text>
				
					<text transform="matrix(0.9806 0.1418 -0.1392 0.9905 186.5508 116.5381)" fill="#ECF0F1" font-family="'Roboto-Medium'" font-size="29.0921">p</text>
				
					<text transform="matrix(0.9238 0.3604 -0.3597 0.9324 203.4883 119.2373)" fill="#ECF0F1" font-family="'Roboto-Medium'" font-size="29.0921">e</text>
				
					<text transform="matrix(0.8182 0.5617 -0.5628 0.8249 217.6436 124.8047)" fill="#ECF0F1" font-family="'Roboto-Medium'" font-size="29.0921">r</text>
				
					<text transform="matrix(0.6651 0.7372 -0.7402 0.6695 231.4932 134.5293)" fill="#ECF0F1" font-family="'Roboto-Medium'" font-size="29.0921">s</text>
				<g>
					<path fill="#ECF0F1" d="M176.914,232.036c0.118,0.027,0.228,0.054,0.346,0.077c0.244,0.058,0.495,0.104,0.742,0.157
						c0.061,0.012,0.122,0.023,0.183,0.035c0.692,0.135,1.392,0.25,2.096,0.354c3.609,0.511,7.177,0.549,10.646,0.165
						c0.045-0.008,0.096-0.011,0.145-0.019c0.24-0.023,0.482-0.054,0.723-0.088c0.129-0.016,0.251-0.031,0.377-0.05
						c0.159-0.02,0.315-0.05,0.475-0.073c0.205-0.031,0.411-0.062,0.609-0.096c0.072-0.012,0.152-0.027,0.225-0.039
						c2.97-0.519,5.856-1.364,8.625-2.489c25.172-4.444,42.592-27.614,39.135-52.554c-3.529-25.486-27.533-43.163-53.603-39.479
						c-1.788,0.25-3.533,0.599-5.241,1.029c21.154,0.945,39.4,15.807,44.056,36.629c-1.009-2.87-2.302-5.624-3.876-8.212
						c-0.02-0.031-0.045-0.065-0.061-0.1c-0.152-0.242-0.309-0.496-0.465-0.737c-0.17-0.269-0.342-0.534-0.521-0.795
						c-0.007-0.011-0.015-0.023-0.026-0.038c-3.055-4.525-6.957-8.466-11.514-11.55c-0.033-0.027-0.072-0.054-0.109-0.077
						c-0.194-0.13-0.393-0.257-0.582-0.388c-0.115-0.069-0.229-0.146-0.343-0.219c-0.126-0.077-0.255-0.157-0.384-0.234
						c-0.187-0.119-0.373-0.234-0.56-0.35c-0.064-0.035-0.126-0.069-0.187-0.108c-2.297-1.359-4.754-2.512-7.344-3.438
						c-18.801-14.447-45.307-13.237-61.715,3.733c-17.8,18.418-16.963,48.406,1.872,66.978c1.289,1.271,2.632,2.455,4.016,3.549
						c-12.939-18.522-11.627-44.012,4.294-60.49c4.959-5.124,10.821-8.808,17.1-11.112c-1.042,0.561-2.062,1.156-3.05,1.805
						c-0.057,0.035-0.114,0.073-0.167,0.111c-0.221,0.142-0.441,0.288-0.658,0.438c-4.446,3.069-8.314,6.976-11.357,11.535
						c-0.049,0.069-0.095,0.135-0.145,0.204c-0.106,0.169-0.217,0.342-0.327,0.507c-0.087,0.142-0.183,0.288-0.266,0.426
						c-0.064,0.104-0.129,0.208-0.19,0.315c-0.129,0.211-0.263,0.426-0.388,0.638c-0.023,0.042-0.045,0.084-0.068,0.123
						c-1.765,3.038-3.191,6.341-4.207,9.879c-0.198,0.691-0.377,1.383-0.544,2.074c-0.008,0.062-0.027,0.13-0.038,0.196
						c-0.057,0.242-0.11,0.488-0.164,0.737c-0.038,0.185-0.08,0.369-0.11,0.557c-0.03,0.127-0.053,0.25-0.076,0.376
						c-0.057,0.303-0.114,0.618-0.167,0.926c0,0.007,0,0.019,0,0.027c-0.064,0.361-0.114,0.726-0.167,1.087
						c-0.434,3.092-0.514,6.146-0.301,9.138c-3.663,20.266,5.66,41.112,24.27,50.561c22.771,11.558,50.818,1.671,62.639-22.079
						c0.813-1.625,1.518-3.276,2.138-4.939C219.711,233.945,196.733,240.59,176.914,232.036z M161.514,157.802
						c6.782-5.374,15.312-8.581,24.594-8.581c9.698,0,18.579,3.496,25.494,9.307c2.754,4.51,11.045,23.719-10.688,68.365
						c-4.58,1.852-9.57,2.881-14.807,2.881c-5.037,0-9.848-0.953-14.283-2.669C148.46,179.228,159.566,160.514,161.514,157.802z"/>
					<path fill="#ECF0F1" d="M186.213,185.439c-1.023,0-1.852,0.841-1.852,1.867c0,1.033,0.829,1.871,1.852,1.871
						c1.02,0,1.849-0.837,1.849-1.871C188.062,186.28,187.232,185.439,186.213,185.439z"/>
					<path fill="#ECF0F1" d="M186.213,196.812c-1.023,0-1.852,0.837-1.852,1.871c0,1.03,0.829,1.871,1.852,1.871
						c1.02,0,1.849-0.841,1.849-1.871C188.062,197.65,187.232,196.812,186.213,196.812z"/>
					<path fill="#ECF0F1" d="M186.213,207.952c-1.023,0-1.852,0.837-1.852,1.871c0,1.033,0.829,1.867,1.852,1.867
						c1.02,0,1.849-0.833,1.849-1.867C188.062,208.789,187.232,207.952,186.213,207.952z"/>
					<path fill="#ECF0F1" d="M186.213,219.249c-1.023,0-1.852,0.837-1.852,1.871c0,1.03,0.829,1.867,1.852,1.867
						c1.02,0,1.849-0.837,1.849-1.867C188.062,220.086,187.232,219.249,186.213,219.249z"/>
					<path fill="#ECF0F1" d="M174.133,179.85l10.661-6.53c0.989-0.607,2.617-0.607,3.61,0l10.657,6.53
						c0.993,0.607,1.807,0.142,1.807-1.029v-13.36c0-1.175-0.813-1.636-1.807-1.025l-10.657,6.526c-0.993,0.61-2.621,0.61-3.61,0
						l-10.661-6.526c-0.993-0.611-1.807-0.15-1.807,1.025v13.36C172.327,179.992,173.141,180.457,174.133,179.85z"/>
				</g>
				<g>
					<g>
						<path fill="#ECF0F1" d="M185,79.516c-58.303,0-105.569,47.738-105.569,106.619c0,58.877,47.266,106.611,105.569,106.611
							c58.307,0,105.568-47.733,105.568-106.611C290.568,127.253,243.307,79.516,185,79.516z M185.045,282.394
							c-52.64,0-95.318-43.102-95.318-96.259c0-53.166,42.679-96.263,95.318-96.263c52.64,0,95.315,43.098,95.315,96.263
							C280.36,239.292,237.686,282.394,185.045,282.394z"/>
					</g>
				</g>
				<g>
					<path fill="#ECF0F1" d="M131.657,249.405c1.388-1.874,2.746-3.779,4.047-5.715c-15.91-14.144-25.902-34.901-25.772-57.986
						c0.068-12.549,3.119-24.376,8.47-34.801c-1.955-1.275-3.853-2.646-5.686-4.118c-6.131,11.592-9.646,24.817-9.726,38.88
						C102.849,211.109,113.982,233.964,131.657,249.405z"/>
				</g>
				<g>
					<path fill="#ECF0F1" d="M236.586,243.141c1.357,1.886,2.689,3.791,3.982,5.716c17.081-15.219,27.91-37.444,28.047-62.257
						c0.087-15.342-3.929-29.742-11-42.141c-1.673,1.682-3.4,3.318-5.157,4.905c5.982,11.04,9.36,23.719,9.284,37.198
						C261.62,209.039,251.926,229.205,236.586,243.141z"/>
				</g>
			</g>
		</g>
	</g>
	<g id="single" clip-path="url(#SVGID_2_)">
		<g id="Bottom_27_">
			<defs>
				<rect id="SVGID_3_" width="370" height="472"/>
			</defs>
			<clipPath id="SVGID_4_">
				<use xlink:href="#SVGID_3_"  overflow="visible"/>
			</clipPath>
			<g clip-path="url(#SVGID_4_)">
				<rect fill="#E74C3C" width="370" height="472"/>
			</g>
			<g clip-path="url(#SVGID_4_)">
				<g>
					<polygon fill="#BDC3C7" points="79.365,161.67 74.165,196.949 247.606,149.693 					"/>
					<path fill="#ECF0F1" d="M83.109,136.559c0,0,160.669,13.999,164.497,13.135s-197.994,25.809-205.65,25.874L83.109,136.559z"/>
					<path fill="#BDC3C7" d="M83.193,136.559c0,0-9.486-57.967-9.028-58.58c0.459-0.632,173.441,71.714,173.441,71.714
						L83.193,136.559z"/>
				</g>
				<g>
					<path fill="#95A5A6" d="M166.398,399.082l0.542-4.051c6.22,0.866,12.587,1.246,18.871,1.183l0.061,4.026
						c-0.52,0-0.978,0-1.455,0C178.364,400.24,172.308,399.84,166.398,399.082z M204.576,394.652
						c6.284-1.012,12.443-2.402,18.417-4.28l1.141,3.902c-6.113,1.939-12.481,3.415-18.932,4.427L204.576,394.652z M129.051,388.284
						l1.709-3.666c5.658,2.654,11.65,4.824,17.681,6.618l-1.058,3.879C141.1,393.261,134.959,390.982,129.051,388.284z
						 M240.47,383.393c5.677-2.825,11.131-6.071,16.184-9.741l2.312,3.292c-5.223,3.791-10.82,7.21-16.726,10.077L240.47,383.393z
						 M101.837,370.953c-1.687-1.478-3.369-2.954-4.991-4.514l2.767-2.952c1.539,1.476,3.222,2.952,4.825,4.343
						c3.142,2.742,6.45,5.207,9.885,7.552l-2.206,3.328C108.492,376.31,105.059,373.651,101.837,370.953z M271.075,361.379
						c4.369-4.345,8.656-9.151,12.567-14.297l3.143,2.487c-4.06,5.295-8.43,10.185-12.963,14.696L271.075,361.379z M73.707,334.896
						l3.577-1.792c2.623,5.585,5.909,11.027,9.737,16.234l-3.203,2.426C79.824,346.323,76.45,340.629,73.707,334.896z
						 M294.297,331.08c0.622-1.017,1.247-2.024,1.85-3.102c0.603-1.013,1.229-2.193,1.854-3.27c1.914-3.353,3.828-6.914,5.97-10.352
						l3.369,2.191c-2.058,3.417-3.976,6.916-5.905,10.25c-0.606,1.18-1.228,2.257-1.854,3.354c-0.603,1.073-1.205,2.086-1.83,3.183
						L294.297,331.08z M66.718,313.979c-1.001-4.894-1.46-9.955-1.46-14.994c0-0.928,0.084-1.794,0.084-2.722l3.995,0.171
						c-0.084,0.843-0.084,1.685-0.084,2.551c0,4.828,0.459,9.551,1.376,14.233c0.167,0.674,0.292,1.306,0.459,2.001l-3.916,0.866
						C67.028,315.369,66.881,314.693,66.718,313.979z M316.162,298.837c5.678-5.293,11.591-8.182,18.083-8.855l0.391,4.027
						c-5.595,0.548-10.733,3.1-15.707,7.78L316.162,298.837z M84.505,281.335l0.542-4.025c6.22,0.862,12.568,1.325,18.871,1.391
						l-0.087,4.049C97.384,282.601,90.868,282.117,84.505,281.335z M122.475,277.455c3.581-0.758,6.742-2.023,9.403-3.648
						c2.168-1.329,4.165-3.098,5.769-5.122l3.142,2.489c-1.918,2.402-4.29,4.511-6.826,6.05c-3.059,1.878-6.515,3.184-10.57,4.111
						L122.475,277.455z M68.544,276.697c1.998-6.538,4.833-12.61,8.448-18.05l3.29,2.257c-3.369,5.037-6.057,10.816-7.887,16.93
						L68.544,276.697z M46.781,272.1l1.376-3.816c5.909,2.17,12.045,4.048,18.182,5.523l-0.914,3.966
						C59.205,276.211,52.902,274.335,46.781,272.1z M26.08,262.929c-5.682-2.952-10.048-5.674-13.793-8.541l2.373-3.206
						c3.514,2.743,7.735,5.378,13.189,8.182c0.917,0.465,1.914,1.013,2.915,1.478l-1.771,3.626
						C27.994,264.002,26.997,263.474,26.08,262.929z M134.876,245.276c-2.142-1.685-4.594-3.098-7.281-4.11l1.372-3.815
						c3.081,1.179,5.909,2.804,8.448,4.828c3.078,2.552,5.45,5.502,6.822,8.708l-3.68,1.624
						C139.496,249.959,137.498,247.47,134.876,245.276z M90.789,244.267c5.598-3.967,11.882-6.665,18.245-7.994l0.77,3.966
						c-5.825,1.16-11.567,3.732-16.707,7.295L90.789,244.267z M-6.898,220.648l-0.079-0.38l3.994-0.546l0.08,0.294
						c1,6.536,2.831,12.357,5.515,17.416l-3.514,1.941C-3.817,233.934-5.814,227.651-6.898,220.648z M-6.815,200.279
						c0.918-6.599,2.832-13.031,5.516-19.104l3.601,1.709c-2.54,5.671-4.287,11.742-5.204,18.028L-6.815,200.279z M9.373,164.392
						c4.286-4.892,9.407-9.173,15.168-12.674l2.058,3.501c-5.366,3.269-10.195,7.231-14.251,11.894L9.373,164.392z M42.874,144.191
						c6.511-1.56,13.189-2.193,19.637-1.646l-0.33,4.049c-6.034-0.463-12.341,0.086-18.394,1.561L42.874,144.191z"/>
				</g>
				<polygon fill="#ECF0F1" points="309.859,85.508 301.059,96.073 309.859,108.428 293.088,104.316 273.133,113.786 
					282.267,98.476 266.705,86.374 284.265,86.374 289.844,71.76 297.833,86.374 				"/>
				<polygon fill="#ECF0F1" points="376.979,174.809 353.511,181.809 357.339,202.071 335.951,186.616 309.859,189.399 
					319.99,171.857 309.859,156.085 332.035,162.6 347.227,139.046 350.971,166.625 				"/>
				<polygon fill="#ECF0F1" points="278.73,214.196 264.252,215.842 260.341,225.162 257.343,212.425 241.929,207.512 
					251.435,203.4 247.898,191.825 260.341,199.352 269.847,191.825 269.847,203.4 				"/>
			</g>
		</g>
		<g id="Top_27_" display="none" opacity="0.95">
			<rect display="inline" fill="#323232" width="370" height="472"/>
		</g>
	</g>
</g>
</svg>
