<?xml version="1.0" encoding="utf-8"?>
<!-- Generator: Adobe Illustrator 16.0.4, SVG Export Plug-In . SVG Version: 6.00 Build 0)  -->
<!DOCTYPE svg PUBLIC "-//W3C//DTD SVG 1.1//EN" "http://www.w3.org/Graphics/SVG/1.1/DTD/svg11.dtd">
<svg version="1.1" id="Layer_1" xmlns="http://www.w3.org/2000/svg" xmlns:xlink="http://www.w3.org/1999/xlink" x="0px" y="0px"
	 width="370px" height="472px" viewBox="0 0 370 472" enable-background="new 0 0 370 472" xml:space="preserve">
<g>
	<g>
		<g id="branding">
			<g id="Background_1_" display="none">
				<rect display="inline" fill="#2980B9" width="370" height="472"/>
			</g>
			<g id="Content">
				
					<text transform="matrix(0.9902 0 0 1 119.0098 358.2354)" fill="#ECF0F1" font-family="'MagallanesCondLight'" font-size="12.6341">© 2015 Chappers Design</text>
				<g id="Share">
					<path id="behance" fill="#ECF0F1" d="M181.296,319.907c0,0,3.154-0.237,3.154-3.974c0-3.742-2.58-5.567-5.855-5.567h-6.022
						h-0.175h-4.566v20.896h4.566h0.176h6.021c0,0,6.577,0.209,6.577-6.168C185.171,325.098,185.458,319.907,181.296,319.907z
						 M172.575,314.081h5.248h0.772c0,0,1.466,0,1.466,2.174c0,2.175-0.859,2.491-1.838,2.491h-5.647L172.575,314.081
						L172.575,314.081z M178.292,327.548h-5.717v-5.583h6.02c0,0,2.184-0.027,2.184,2.869
						C180.779,327.279,179.151,327.529,178.292,327.548z M193.934,315.686c-7.957,0-7.947,8.028-7.947,8.028
						s-0.544,7.987,7.951,7.987c0,0,7.078,0.406,7.078-5.557h-3.64c0,0,0.121,2.244-3.317,2.244c0,0-3.643,0.245-3.643-3.637h10.723
						C201.139,324.756,202.311,315.686,193.934,315.686z M190.375,321.965c0,0,0.447-3.221,3.641-3.221
						c3.196,0,3.155,3.221,3.155,3.221H190.375z M198.021,314.172h-8.537V311.6h8.537V314.172z"/>
					<path id="dribble" fill="#ECF0F1" d="M128.751,305.256c-8.614,0-15.624,7.079-15.624,15.778c0,8.702,7.009,15.78,15.624,15.78
						c8.615,0,15.624-7.078,15.624-15.78C144.375,312.337,137.366,305.256,128.751,305.256z M139.08,312.533
						c1.859,2.293,2.988,5.218,3.015,8.396c-0.44-0.097-4.85-0.996-9.291-0.436c-0.095-0.23-0.189-0.462-0.287-0.693
						c-0.278-0.656-0.578-1.311-0.889-1.951C136.567,315.814,138.798,312.918,139.08,312.533z M128.751,307.579
						c3.393,0,6.491,1.284,8.849,3.397c-0.242,0.346-2.249,3.068-6.995,4.866c-2.187-4.059-4.612-7.392-4.982-7.89
						C126.628,307.709,127.676,307.579,128.751,307.579z M123.08,308.859c0.352,0.49,2.736,3.824,4.947,7.793
						c-6.242,1.675-11.74,1.652-12.338,1.643C116.556,314.116,119.343,310.641,123.08,308.859z M115.406,321.057
						c0-0.137,0.003-0.271,0.006-0.412c0.586,0.015,7.052,0.099,13.717-1.914c0.382,0.754,0.745,1.521,1.081,2.285
						c-0.177,0.047-0.351,0.104-0.525,0.157c-6.884,2.249-10.546,8.374-10.849,8.896C116.705,327.68,115.406,324.52,115.406,321.057
						z M128.751,334.535c-3.085,0-5.929-1.064-8.189-2.846c0.238-0.496,2.941-5.77,10.466-8.416c0.031-0.012,0.062-0.021,0.088-0.03
						c1.873,4.917,2.649,9.041,2.847,10.222C132.36,334.152,130.602,334.535,128.751,334.535z M136.209,332.229
						c-0.138-0.818-0.848-4.764-2.592-9.606c4.181-0.679,7.855,0.433,8.311,0.573C141.334,326.945,139.202,330.186,136.209,332.229z
						"/>
					<path id="twitter" fill="#ECF0F1" d="M256.873,310.835c-0.672,1.454-1.835,2.636-3.277,3.313
						c0.807,8.465-5.957,20.262-19.119,20.348c-3.593,0.023-6.953-0.999-9.826-2.737c0.08,0,4.968,0.345,9.498-3.021
						c-2.959-0.146-5.441-2.131-6.348-4.85c0.57,0.146,2.04,0.414,3.271,0.066c-3.065-0.667-5.391-3.335-5.565-6.584
						c0.829,0.363,1.74,0.572,2.694,0.59c-1.649-1.309-4.055-4.971-1.756-9.193c3.209,4.188,8.189,6.92,13.809,7.041
						c-0.023-0.062-0.146-1.145-0.146-1.404c0-3.36,2.58-6.825,6.763-6.825c1.979,0,3.756,0.858,4.991,2.229
						c1.893-0.361,3.834-1.467,4.238-1.716c-0.527,1.565-1.603,2.874-2.992,3.694c0.015,0.021,0.019,0.047,0.029,0.066
						C254.445,311.698,255.703,311.346,256.873,310.835"/>
				</g>
				<g id="my_logo_x3F_">
					<g>
						<path fill="none" d="M253.911,189.529c0.144,1.706,0.25,3.417,0.266,5.159c0.412,37.9-29.778,69.082-67.306,69.5
							c-37.528,0.422-68.403-30.075-68.822-67.979c-0.015-1.733,0.052-3.447,0.159-5.161l1.313-0.012
							c-0.113,1.706-0.18,3.421-0.162,5.157c0.41,37.175,30.687,67.083,67.499,66.667c36.805-0.411,66.414-30.989,66.011-68.157
							c-0.021-1.741-0.121-3.456-0.271-5.158L253.911,189.529z"/>
						
							<text transform="matrix(0.1806 0.9735 -0.9832 0.1826 120.2705 206.585)" fill="#ECF0F1" font-family="'Roboto-Regular'" font-size="11.055"> </text>
						
							<text transform="matrix(0.3553 0.9241 -0.9333 0.3591 123.3892 218.5439)" fill="#ECF0F1" font-family="'Roboto-Regular'" font-size="11.0559"> </text>
						
							<text transform="matrix(0.5176 0.8439 -0.8524 0.5229 128.6289 229.7148)" fill="#ECF0F1" font-family="'Roboto-Regular'" font-size="11.0559"> </text>
						
							<text transform="matrix(0.6622 0.7358 -0.7432 0.669 135.8286 239.7637)" fill="#ECF0F1" font-family="'Roboto-Regular'" font-size="11.0549"> </text>
						
							<text transform="matrix(0.785 0.6031 -0.6093 0.7929 144.7178 248.3223)" fill="#ECF0F1" font-family="'Roboto-Regular'" font-size="11.0555"> </text>
						
							<text transform="matrix(0.8983 0.4162 -0.4205 0.9073 155.1382 255.2773)" fill="#ECF0F1" font-family="'MagallanesCond'" font-size="11.0559">D</text>
						
							<text transform="matrix(0.9623 0.2331 -0.2356 0.9719 167.9756 260.4062)" fill="#ECF0F1" font-family="'MagallanesCond'" font-size="11.0564">e</text>
						
							<text transform="matrix(0.9887 0.0538 -0.0546 0.9985 179.6699 262.6348)" fill="#ECF0F1" font-family="'MagallanesCond'" font-size="11.0548">s</text>
						
							<text transform="matrix(0.9849 -0.1033 0.1041 0.9946 191.7881 262.6582)" fill="#ECF0F1" font-family="'MagallanesCond'" font-size="11.0549">i</text>
						
							<text transform="matrix(0.9539 -0.2659 0.2683 0.9633 200.8125 261.3291)" fill="#ECF0F1" font-family="'MagallanesCond'" font-size="11.0537">g</text>
						
							<text transform="matrix(0.882 -0.4505 0.4548 0.8906 213.1934 257.1953)" fill="#ECF0F1" font-family="'MagallanesCond'" font-size="11.0539">n</text>
					</g>
					
						<text transform="matrix(0.7008 -0.696 0.703 0.7111 139.3979 163.7017)" fill="#ECF0F1" font-family="'MagallanesCondMedium'" font-size="23.4005">C</text>
					
						<text transform="matrix(0.8601 -0.4843 0.4905 0.8714 150.8149 152.6196)" fill="#ECF0F1" font-family="'MagallanesCondMedium'" font-size="23.4084">h</text>
					
						<text transform="matrix(0.9551 -0.2505 0.2554 0.9668 163.9102 145.4185)" fill="#ECF0F1" font-family="'MagallanesCondMedium'" font-size="23.4032">a</text>
					
						<text transform="matrix(0.9886 -0.007 0.0104 1 177.7437 141.9448)" fill="#ECF0F1" font-family="'MagallanesCondMedium'" font-size="23.3898">p</text>
					
						<text transform="matrix(0.9628 0.2329 -0.2312 0.9729 191.4512 141.9644)" fill="#ECF0F1" font-family="'MagallanesCondMedium'" font-size="23.3684">m</text>
					
						<text transform="matrix(0.8866 0.4455 -0.4456 0.8952 210.582 147.9487)" fill="#ECF0F1" font-family="'MagallanesCondMedium'" font-size="23.3468">a</text>
					
						<text transform="matrix(0.763 0.6367 -0.6384 0.7697 222.3848 154.5542)" fill="#ECF0F1" font-family="'MagallanesCondMedium'" font-size="23.3307">n</text>
					<g>
						<path fill="#ECF0F1" d="M178.507,232.817c0.095,0.021,0.183,0.043,0.277,0.062c0.197,0.047,0.397,0.084,0.595,0.126
							c0.05,0.01,0.099,0.019,0.148,0.028c0.555,0.108,1.117,0.2,1.682,0.285c2.899,0.41,5.764,0.439,8.55,0.132
							c0.037-0.007,0.078-0.01,0.117-0.016c0.19-0.018,0.386-0.043,0.58-0.07c0.103-0.013,0.201-0.025,0.303-0.04
							c0.128-0.016,0.253-0.04,0.38-0.06c0.166-0.024,0.332-0.049,0.491-0.077c0.06-0.009,0.121-0.021,0.179-0.03
							c2.387-0.417,4.703-1.096,6.926-1.999c20.217-3.569,34.203-22.175,31.43-42.202c-2.835-20.465-22.107-34.66-43.044-31.701
							c-1.438,0.201-2.838,0.48-4.209,0.825c16.983,0.76,31.639,12.693,35.377,29.414c-0.812-2.305-1.851-4.517-3.112-6.594
							c-0.016-0.024-0.033-0.053-0.048-0.081c-0.123-0.194-0.248-0.397-0.373-0.592c-0.139-0.216-0.274-0.428-0.419-0.638
							c-0.007-0.009-0.014-0.02-0.021-0.03c-2.453-3.635-5.588-6.799-9.246-9.275c-0.025-0.021-0.057-0.044-0.09-0.062
							c-0.153-0.105-0.312-0.207-0.465-0.312c-0.094-0.056-0.185-0.118-0.275-0.177c-0.102-0.062-0.206-0.125-0.309-0.188
							c-0.15-0.095-0.3-0.188-0.451-0.281c-0.049-0.028-0.102-0.056-0.146-0.086c-1.848-1.091-3.818-2.018-5.896-2.762
							c-15.099-11.602-36.384-10.629-49.56,2.998c-14.293,14.79-13.621,38.871,1.504,53.784c1.034,1.021,2.114,1.973,3.224,2.851
							c-10.39-14.875-9.336-35.343,3.448-48.574c3.982-4.115,8.691-7.074,13.732-8.925c-0.837,0.451-1.656,0.93-2.449,1.451
							c-0.046,0.027-0.092,0.058-0.134,0.088c-0.178,0.115-0.354,0.231-0.529,0.353c-3.569,2.464-6.676,5.602-9.12,9.263
							c-0.04,0.056-0.077,0.107-0.116,0.164c-0.085,0.135-0.173,0.274-0.262,0.406c-0.07,0.114-0.146,0.231-0.214,0.343
							c-0.051,0.084-0.104,0.167-0.152,0.253c-0.104,0.17-0.211,0.342-0.312,0.512c-0.018,0.034-0.036,0.068-0.055,0.099
							c-1.417,2.439-2.562,5.093-3.377,7.934c-0.16,0.555-0.303,1.111-0.437,1.666c-0.006,0.049-0.022,0.104-0.031,0.156
							c-0.046,0.194-0.088,0.393-0.132,0.592c-0.031,0.149-0.063,0.297-0.088,0.447c-0.024,0.103-0.042,0.201-0.062,0.303
							c-0.046,0.243-0.09,0.496-0.134,0.743c0,0.006,0,0.015,0,0.021c-0.051,0.29-0.091,0.583-0.134,0.873
							c-0.348,2.483-0.413,4.936-0.242,7.338c-2.941,16.273,4.546,33.014,19.49,40.601c18.286,9.281,40.808,1.343,50.299-17.729
							c0.653-1.305,1.22-2.632,1.72-3.968C212.873,234.35,194.421,239.688,178.507,232.817z M166.141,173.207
							c5.446-4.316,12.296-6.892,19.748-6.892c7.789,0,14.92,2.807,20.476,7.474c2.211,3.622,8.866,19.047-8.585,54.897
							c-3.678,1.487-7.686,2.315-11.891,2.315c-4.042,0-7.908-0.767-11.468-2.145C155.659,190.412,164.577,175.385,166.141,173.207z
							"/>
						<path fill="#ECF0F1" d="M185.973,195.399c-0.82,0-1.485,0.675-1.485,1.499c0,0.83,0.666,1.502,1.485,1.502
							c0.818,0,1.486-0.672,1.486-1.502C187.459,196.074,186.791,195.399,185.973,195.399z"/>
						<path fill="#ECF0F1" d="M185.973,204.532c-0.82,0-1.485,0.672-1.485,1.503c0,0.827,0.666,1.501,1.485,1.501
							c0.818,0,1.486-0.674,1.486-1.501C187.459,205.204,186.791,204.532,185.973,204.532z"/>
						<path fill="#ECF0F1" d="M185.973,213.478c-0.82,0-1.485,0.673-1.485,1.503c0,0.828,0.666,1.498,1.485,1.498
							c0.818,0,1.486-0.669,1.486-1.498C187.459,214.15,186.791,213.478,185.973,213.478z"/>
						<path fill="#ECF0F1" d="M185.973,222.549c-0.82,0-1.485,0.672-1.485,1.503c0,0.826,0.666,1.499,1.485,1.499
							c0.818,0,1.486-0.673,1.486-1.499C187.459,223.221,186.791,222.549,185.973,222.549z"/>
						<path fill="#ECF0F1" d="M176.273,190.912l8.561-5.246c0.796-0.486,2.104-0.486,2.9,0l8.558,5.246
							c0.798,0.486,1.452,0.113,1.452-0.827v-10.729c0-0.942-0.654-1.313-1.452-0.822l-8.558,5.24c-0.797,0.49-2.104,0.49-2.9,0
							l-8.561-5.24c-0.796-0.491-1.451-0.12-1.451,0.822v10.729C174.824,191.025,175.477,191.398,176.273,190.912z"/>
					</g>
					<g>
						<g>
							<path fill="#ECF0F1" d="M185.001,110.341c-46.819,0-84.774,38.335-84.774,85.617c0,47.278,37.956,85.61,84.774,85.61
								c46.822,0,84.772-38.33,84.772-85.61C269.773,148.675,231.823,110.341,185.001,110.341z M185.037,273.255
								c-42.271,0-76.542-34.61-76.542-77.297c0-42.693,34.271-77.302,76.542-77.302c42.271,0,76.54,34.61,76.54,77.302
								C261.576,238.645,227.309,273.255,185.037,273.255z"/>
						</g>
					</g>
					<g>
						<path fill="#ECF0F1" d="M142.166,246.764c1.115-1.502,2.205-3.033,3.249-4.588c-12.776-11.358-20.799-28.025-20.695-46.564
							c0.055-10.076,2.504-19.574,6.801-27.945c-1.569-1.022-3.094-2.125-4.565-3.307c-4.923,9.309-7.746,19.928-7.81,31.222
							C119.032,216.012,127.971,234.365,142.166,246.764z"/>
					</g>
					<g>
						<path fill="#ECF0F1" d="M226.424,241.734c1.092,1.515,2.161,3.045,3.197,4.591c13.719-12.221,22.414-30.067,22.523-49.994
							c0.067-12.319-3.158-23.883-8.834-33.839c-1.346,1.351-2.729,2.663-4.142,3.938c4.802,8.865,7.519,19.047,7.454,29.87
							C246.525,214.351,238.744,230.544,226.424,241.734z"/>
					</g>
				</g>
			</g>
		</g>
	</g>
</g>
</svg>
