<?xml version="1.0" encoding="utf-8"?>
<!-- Generator: Adobe Illustrator 16.0.4, SVG Export Plug-In . SVG Version: 6.00 Build 0)  -->
<!DOCTYPE svg PUBLIC "-//W3C//DTD SVG 1.1//EN" "http://www.w3.org/Graphics/SVG/1.1/DTD/svg11.dtd">
<svg version="1.1" id="Layer_1" xmlns="http://www.w3.org/2000/svg" xmlns:xlink="http://www.w3.org/1999/xlink" x="0px" y="0px"
	 width="370px" height="472px" viewBox="0 0 370 472" enable-background="new 0 0 370 472" xml:space="preserve">
<g>
	<defs>
		<rect id="SVGID_1_" width="370" height="472"/>
	</defs>
	<clipPath id="SVGID_2_">
		<use xlink:href="#SVGID_1_"  overflow="visible"/>
	</clipPath>
	<g id="Bottom_4_" clip-path="url(#SVGID_2_)">
		<g>
			<rect x="-1.834" fill="#2980B9" width="373.668" height="472"/>
		</g>
		<g id="Planner">
			<polygon fill="#ECF0F1" points="31.276,90.776 221.15,85.421 239.859,415.753 51.409,410.328 			"/>
			<polygon opacity="0.09" fill="#231F20" enable-background="new    " points="31.276,107.791 221.15,102.369 231.522,415.615 
				50.527,414.26 			"/>
			<g>
				<path fill="#C0392B" d="M296.123,248.52c-0.202,0-0.403,0-0.677-0.068c-0.203,0-20.404-3.049-40.4-6.237
					c-42.1-6.643-42.301-6.981-43.316-8.541c-0.475-0.746-0.475-1.559-0.069-2.305c0.813-1.288,2.847-1.831,4.542-1.221
					c0.204,0.069,0.34,0.136,0.541,0.205c5.561,1.49,51.656,8.677,80.058,12.946c1.832,0.271,3.05,1.628,2.646,3.051
					C299.105,247.639,297.683,248.52,296.123,248.52z"/>
			</g>
			<rect x="19.548" y="32.75" fill="#ECF0F1" width="201.602" height="405.441"/>
			<rect x="19.548" y="32.75" fill="#C0392B" width="201.602" height="52.672"/>
			<rect x="42.799" y="115.993" fill="#FFFFFF" width="52.333" height="52.333"/>
			<rect x="42.799" y="192.729" fill="#FFFFFF" width="52.333" height="52.333"/>
			<rect x="42.799" y="269.465" fill="#FFFFFF" width="52.333" height="52.334"/>
			<rect x="42.799" y="346.27" fill="#FFFFFF" width="52.333" height="52.332"/>
			<g>
				<path fill="#323232" d="M47.343,156.327c7.93-12.134,12.132-18.642,12.676-19.59c0.542-0.949,0.812-1.83,0.812-2.644
					c0-0.405-0.067-0.813-0.135-1.22c-0.272-1.288-0.951-2.237-1.966-2.845c-0.678-0.407-1.423-0.612-2.101-0.612
					c-0.34,0-0.678,0.069-0.949,0.137c-1.152,0.271-2.034,0.881-2.645,1.966c-0.405,0.61-0.678,1.491-0.812,2.711l-3.729-0.542
					c0.136-1.492,0.543-2.712,1.154-3.729c1.218-1.899,2.914-3.119,5.082-3.594c0.678-0.135,1.356-0.27,1.967-0.27
					c1.56,0,3.05,0.406,4.408,1.288c1.896,1.152,3.05,2.846,3.522,4.881c0.136,0.745,0.273,1.424,0.273,2.101
					c0,1.219-0.338,2.44-1.019,3.592c-0.677,1.221-3.931,6.236-9.76,15.117h10.779v3.253H47.343z"/>
				<path fill="#323232" d="M78.456,153.074v-20.947l-1.896,1.22l-2.781-2.033l8.406-6.103v27.862h6.167v3.253h-16.2v-3.253H78.456z
					"/>
			</g>
			<g>
				<path fill="#323232" d="M47.001,235.438c7.934-12.135,12.134-18.642,12.678-19.593c0.543-0.949,0.812-1.83,0.812-2.644
					c0-0.406-0.067-0.813-0.133-1.221c-0.272-1.286-0.95-2.236-1.968-2.845c-0.676-0.407-1.421-0.611-2.101-0.611
					c-0.338,0-0.676,0.067-0.949,0.135c-1.15,0.271-2.034,0.88-2.644,1.966c-0.409,0.609-0.679,1.491-0.814,2.71l-3.729-0.541
					c0.136-1.49,0.543-2.711,1.152-3.728c1.222-1.899,2.917-3.118,5.086-3.593c0.677-0.135,1.355-0.271,1.966-0.271
					c1.559,0,3.05,0.406,4.406,1.287c1.899,1.153,3.052,2.848,3.524,4.881c0.137,0.745,0.273,1.423,0.273,2.101
					c0,1.221-0.34,2.441-1.018,3.592c-0.678,1.221-3.934,6.237-9.763,15.117h10.78v3.256H47.001L47.001,235.438z"/>
				<path fill="#323232" d="M71.542,235.438c7.932-12.135,12.134-18.642,12.676-19.593c0.543-0.949,0.814-1.83,0.814-2.644
					c0-0.406-0.067-0.813-0.134-1.221c-0.273-1.286-0.95-2.236-1.967-2.845c-0.68-0.407-1.425-0.611-2.103-0.611
					c-0.338,0-0.676,0.067-0.947,0.135c-1.154,0.271-2.036,0.88-2.646,1.966c-0.405,0.609-0.674,1.491-0.812,2.71l-3.728-0.541
					c0.137-1.49,0.542-2.711,1.153-3.728c1.219-1.899,2.915-3.118,5.083-3.593c0.678-0.135,1.354-0.271,1.967-0.271
					c1.56,0,3.05,0.406,4.404,1.287c1.901,1.153,3.052,2.848,3.526,4.881c0.137,0.745,0.271,1.423,0.271,2.101
					c0,1.221-0.338,2.441-1.016,3.592c-0.678,1.221-3.934,6.237-9.76,15.117h10.776v3.256H71.542L71.542,235.438z"/>
			</g>
			<g>
				<path fill="#323232" d="M47.343,310.748c7.93-12.134,12.132-18.641,12.676-19.59c0.542-0.95,0.812-1.832,0.812-2.644
					c0-0.407-0.067-0.812-0.135-1.22c-0.272-1.288-0.951-2.237-1.966-2.848c-0.678-0.407-1.423-0.609-2.101-0.609
					c-0.34,0-0.678,0.066-0.949,0.134c-1.152,0.271-2.034,0.882-2.645,1.966c-0.405,0.61-0.678,1.491-0.812,2.713l-3.729-0.541
					c0.136-1.493,0.543-2.714,1.154-3.73c1.218-1.897,2.914-3.117,5.082-3.592c0.678-0.137,1.356-0.272,1.967-0.272
					c1.56,0,3.05,0.408,4.408,1.288c1.896,1.152,3.05,2.849,3.522,4.88c0.136,0.746,0.273,1.427,0.273,2.103
					c0,1.222-0.338,2.44-1.019,3.594c-0.677,1.219-3.931,6.235-9.76,15.117h10.779v3.252H47.343L47.343,310.748z"/>
				<path fill="#323232" d="M79.202,294.953l-2.238-0.066V291.7c1.629,0,2.712-0.134,3.256-0.338
					c0.542-0.204,1.152-0.68,1.897-1.425c0.678-0.745,1.016-1.627,1.016-2.643c0-1.018-0.338-1.9-1.016-2.576
					c-0.678-0.679-1.425-0.948-2.236-0.948c-0.814,0-1.559,0.337-2.239,0.948c-0.407,0.406-0.745,1.151-1.22,2.305l-3.455-1.356
					c0.403-1.355,1.016-2.372,1.761-3.117c1.423-1.424,3.117-2.103,5.153-2.103c2.034,0,3.728,0.679,5.084,2.034
					c1.355,1.356,2.032,2.981,2.032,4.813c0,1.828-0.949,3.795-2.848,5.828c0.749,0.137,1.765,0.882,3.054,2.238
					c1.762,1.897,2.641,4.068,2.641,6.576s-0.947,4.677-2.777,6.507c-1.83,1.827-4.069,2.778-6.782,2.778
					c-2.643,0-4.947-0.951-6.845-2.847c-1.423-1.423-2.305-3.322-2.645-5.628l3.73-1.354c0.271,2.237,0.882,3.797,1.897,4.813
					c1.085,1.085,2.372,1.626,3.933,1.626c1.56,0,2.847-0.541,3.999-1.693c1.152-1.153,1.694-2.576,1.694-4.271
					c0-1.694-0.542-3.187-1.694-4.405C83.133,296.176,81.439,295.361,79.202,294.953z"/>
			</g>
			<g>
				<path fill="#323232" d="M47.07,389.856c7.932-12.134,12.136-18.641,12.676-19.589c0.543-0.949,0.814-1.831,0.814-2.645
					c0-0.405-0.069-0.812-0.136-1.22c-0.271-1.289-0.949-2.238-1.967-2.849c-0.676-0.407-1.423-0.608-2.099-0.608
					c-0.34,0-0.678,0.067-0.951,0.136c-1.15,0.271-2.032,0.882-2.643,1.965c-0.407,0.61-0.678,1.49-0.812,2.712l-3.729-0.541
					c0.136-1.494,0.543-2.714,1.152-3.73c1.221-1.897,2.913-3.119,5.083-3.594c0.678-0.136,1.356-0.271,1.966-0.271
					c1.56,0,3.05,0.408,4.406,1.289c1.897,1.15,3.049,2.847,3.524,4.881c0.135,0.744,0.271,1.425,0.271,2.101
					c0,1.222-0.338,2.44-1.016,3.596c-0.676,1.217-3.931,6.233-9.762,15.114h10.778v3.253H47.07L47.07,389.856z"/>
				<path fill="#323232" d="M86.93,355.694v23.655h2.711v3.256H86.93v7.32h-3.797v-7.39H70.865L86.93,355.694z M83.133,368.911
					l-6.169,10.371h6.169V368.911z"/>
			</g>
			<g>
				<g>
					<rect x="108.69" y="124.127" fill="#95A5A6" width="91.243" height="2.035"/>
				</g>
				<g>
					<rect x="108.69" y="134.296" fill="#95A5A6" width="91.243" height="2.033"/>
				</g>
				<g>
					<rect x="108.69" y="144.464" fill="#95A5A6" width="91.243" height="2.033"/>
				</g>
				<g>
					<rect x="108.69" y="154.633" fill="#95A5A6" width="91.243" height="2.033"/>
				</g>
			</g>
			<g>
				<g>
					<rect x="107.334" y="201.949" fill="#95A5A6" width="91.242" height="2.034"/>
				</g>
				<g>
					<rect x="107.334" y="212.117" fill="#95A5A6" width="91.242" height="2.034"/>
				</g>
				<g>
					<rect x="107.334" y="222.285" fill="#95A5A6" width="91.242" height="2.035"/>
				</g>
				<g>
					<rect x="107.334" y="232.454" fill="#95A5A6" width="91.242" height="2.033"/>
				</g>
			</g>
			<g>
				<g>
					<rect x="108.012" y="277.94" fill="#95A5A6" width="91.243" height="2.033"/>
				</g>
				<g>
					<rect x="108.012" y="288.107" fill="#95A5A6" width="91.243" height="2.033"/>
				</g>
				<g>
					<rect x="108.012" y="298.276" fill="#95A5A6" width="91.243" height="2.032"/>
				</g>
				<g>
					<rect x="108.012" y="308.444" fill="#95A5A6" width="91.243" height="2.034"/>
				</g>
			</g>
			<g>
				<g>
					<rect x="106.654" y="355.76" fill="#95A5A6" width="91.245" height="2.035"/>
				</g>
				<g>
					<rect x="106.654" y="365.927" fill="#95A5A6" width="91.245" height="2.035"/>
				</g>
				<g>
					<rect x="106.654" y="376.096" fill="#95A5A6" width="91.245" height="2.035"/>
				</g>
				<g>
					<rect x="106.654" y="386.266" fill="#95A5A6" width="91.245" height="2.032"/>
				</g>
			</g>
			<g>
				<g>
					<path fill="#2ECC71" d="M181.292,156.869c-11.322,0-20.474-9.219-20.474-20.472c0-11.253,9.219-20.472,20.474-20.472
						c11.252,0,20.469,9.219,20.469,20.472C201.761,147.65,192.544,156.869,181.292,156.869z M181.292,122.026
						c-7.933,0-14.372,6.44-14.372,14.371s6.439,14.372,14.372,14.372c7.93,0,14.369-6.441,14.369-14.372
						S189.222,122.026,181.292,122.026z"/>
				</g>
				<g>
					<polygon fill="#2ECC71" points="181.428,151.243 168.885,135.855 173.631,131.991 181.155,141.211 199.456,115.926 
						204.407,119.586 					"/>
				</g>
			</g>
			<g>
				<g>
					<path fill="#C0392B" d="M182.782,239.436c-11.32,0-20.539-9.218-20.539-20.54c0-11.321,9.218-20.541,20.539-20.541
						c11.319,0,20.538,9.22,20.538,20.541C203.32,230.217,194.102,239.436,182.782,239.436z M182.782,204.593
						c-3.932,0-7.523,1.626-10.167,4.202c-2.578,2.576-4.203,6.169-4.203,10.17c0,7.93,6.439,14.37,14.37,14.37
						c7.932,0,14.369-6.44,14.369-14.37C197.151,211.032,190.714,204.593,182.782,204.593z"/>
				</g>
				<g>
					
						<rect x="170.489" y="217.191" transform="matrix(-0.7496 -0.6619 0.6619 -0.7496 173.4468 504.4731)" fill="#C0392B" width="23.319" height="4.474"/>
				</g>
				<g>
					
						<rect x="171.089" y="217.248" transform="matrix(0.7496 -0.6619 0.6619 0.7496 -99.517 175.9305)" fill="#C0392B" width="23.319" height="4.474"/>
				</g>
			</g>
			<g>
				<line fill="none" x1="221.15" y1="134.296" x2="272.397" y2="98.369"/>
				<polygon fill="#2ECC71" points="221.353,136.533 220.947,131.449 270.839,96.2 273.957,100.605 				"/>
			</g>
			<rect x="267.654" y="78.032" fill="#2ECC71" width="69.143" height="25.42"/>
			<rect x="278.837" y="232.386" fill="#C0392B" width="69.145" height="25.418"/>
			<g>
				<line fill="none" x1="216.678" y1="373.317" x2="278.772" y2="365.387"/>
				<polygon fill="#2ECC71" points="215.795,375.352 217.83,370.673 278.433,362.673 279.11,368.098 				"/>
			</g>
			<rect x="265.35" y="357.795" fill="#2ECC71" width="69.142" height="12.677"/>
			<rect x="265.35" y="392.23" fill="#2ECC71" width="69.142" height="12.677"/>
			<rect x="265.35" y="375.011" fill="#2ECC71" width="69.142" height="12.679"/>
			<g>
				<g>
					<path fill="#2ECC71" d="M181.292,316.104c-11.322,0-20.474-9.22-20.474-20.472c0-11.253,9.219-20.471,20.474-20.471
						c11.32,0,20.469,9.218,20.469,20.471C201.761,306.884,192.544,316.104,181.292,316.104z M181.292,281.262
						c-7.933,0-14.372,6.44-14.372,14.37c0,7.932,6.439,14.372,14.372,14.372c7.93,0,14.369-6.44,14.369-14.372
						C195.661,287.702,189.222,281.262,181.292,281.262z"/>
				</g>
				<g>
					<polygon fill="#2ECC71" points="181.428,310.479 168.885,295.089 173.631,291.226 181.155,300.378 199.456,275.161 
						204.407,278.753 					"/>
				</g>
			</g>
			<g>
				<g>
					<path fill="#2ECC71" d="M181.292,393.244c-11.322,0-20.474-9.216-20.474-20.469c0-11.321,9.219-20.473,20.474-20.473
						c11.252,0,20.469,9.221,20.469,20.473C201.761,384.096,192.544,393.244,181.292,393.244z M181.292,358.401
						c-7.933,0-14.372,6.442-14.372,14.374c0,7.93,6.439,14.37,14.372,14.37c7.93,0,14.369-6.44,14.369-14.37
						C195.661,364.844,189.222,358.401,181.292,358.401z"/>
				</g>
				<g>
					<polygon fill="#2ECC71" points="181.428,387.622 168.885,372.233 173.631,368.369 181.155,377.589 199.456,352.303 
						204.407,355.963 					"/>
				</g>
			</g>
		</g>
	</g>
</g>
</svg>
