<?xml version="1.0" encoding="utf-8"?>
<!-- Generator: Adobe Illustrator 16.0.4, SVG Export Plug-In . SVG Version: 6.00 Build 0)  -->
<!DOCTYPE svg PUBLIC "-//W3C//DTD SVG 1.1//EN" "http://www.w3.org/Graphics/SVG/1.1/DTD/svg11.dtd">
<svg version="1.1" id="Layer_1" xmlns="http://www.w3.org/2000/svg" xmlns:xlink="http://www.w3.org/1999/xlink" x="0px" y="0px"
	 width="370px" height="472px" viewBox="0 0 370 472" enable-background="new 0 0 370 472" xml:space="preserve">
<g>
	<defs>
		<rect id="SVGID_1_" width="370" height="472"/>
	</defs>
	<clipPath id="SVGID_2_">
		<use xlink:href="#SVGID_1_"  overflow="visible"/>
	</clipPath>
	<g clip-path="url(#SVGID_2_)">
		<rect fill="#16A085" width="370" height="472"/>
	</g>
	<g display="none" clip-path="url(#SVGID_2_)">
		<g display="inline">
			<rect x="0" fill="#2C3E50" width="370" height="472"/>
		</g>
		<g display="inline">
			<g>
				<polygon fill="#34495E" points="0,472 0,472 0,471.998 				"/>
			</g>
			<g>
				<polygon fill="#34495E" points="367.299,471.998 367.299,0 366.499,0 183.65,235.485 				"/>
			</g>
		</g>
		<g display="inline">
			<g>
				<polygon fill="#34495E" points="183.65,235.485 0.801,0 0,0 0,471.998 				"/>
			</g>
			<g>
				<polygon fill="#34495E" points="367.299,471.998 367.299,472 367.299,472 				"/>
			</g>
		</g>
	</g>
	<g clip-path="url(#SVGID_2_)">
		<g>
			
				<image overflow="visible" opacity="0.3" width="439" height="260" xlink:href="96C51DB0FD568F8.png"  transform="matrix(1 0 0 1 -34.5 120.5)">
			</image>
			<g>
				<rect x="-25.185" y="129.509" fill="#ECF0F1" width="420.369" height="241.323"/>
			</g>
		</g>
		<path opacity="0.6" fill="#BDC3C7" d="M178.643,328.505c0,0,8.686-1.3,6.515-9.769c0,0,1.089-3.91,3.696-4.344
			c0,0,3.474-1.521,3.034-4.556c0,0-7.597-8.688-2.384-13.892c0,0,3.903-3.912,5.424-3.912c0,0,3.258,0.871,3.913,0.223
			c0,0,1.949,1.085,3.248,0.43c0,0,0.648,0.868,1.746-0.218l1.08-2.594c0,0,2.821-1.099,2.603-3.051c0,0-1.737-3.905,0.87-4.554
			c0,0,6.725,0.881,9.547-2.178c0,0,5.86-3.467,1.306-10.856c0,0-6.728-9.977-5.429-13.443c0,0,4.123-6.951,0-19.984
			c0,0-4.997-15.403-5.424-17.142c0,0,7.597-3.691,0.655-11.287c0,0-6.954-8.686-13.904-11.948
			c-6.942-3.248-12.581-6.283-17.14-6.942c0,0-22.577-14.758-43.845-4.553c0,0-31.921,13.239-33.439,31.256
			c0,0-4.343,10.207-3.913,12.803c0,0-1.946-8.245-9.109,0.662c0,0-10.634,3.253-5.86,13.887c0,0,0.438,6.507-0.224,7.809
			c0,0,2.61,21.496,16.288,16.72c0,0-7.82,4.776-5.86,8.465c0,0-0.871-2.168,4.765-6.939c0,0-1.155,10.63,8.026,12.013
			c0.546,0.084,1.131,0.126,1.742,0.13c11.076,0.229-13.448,0.878-13.448,0.878s-4.342,1.533-8.245,6.945
			c-3.915,5.426-13.251,14.109-13.251,14.109s-18.454,7.165-21.705,8.036c-3.25,0.865-16.928,4.337-21.275,6.515
			c-4.337,2.159-13.67-3.698-19.749,3.686c-6.079,7.376-34.083,49.924-34.083,49.924h243.556c0,0-2.607-6.081-5.858-6.729
			c-3.26-0.65-4.562-3.037-5.212-5.207c-0.654-2.174-6.083-6.518-8.9-7.817c-2.824-1.298-6.726-6.513-8.033-8.897
			c-1.308-2.387-4.986-6.951-6.946-7.813C181.466,333.506,179.084,329.15,178.643,328.505z"/>
		<g>
			<path fill="#7F8C8D" d="M361.624,298.441h-14.563c-1.317,0-2.391,1.073-2.391,2.396V315.4c0,1.32,1.073,2.396,2.391,2.396h6.975
				c-0.091,3.813-0.979,6.864-2.655,9.158c-1.321,1.811-3.324,3.311-6.002,4.492c-1.232,0.543-1.764,1.999-1.188,3.216l1.725,3.641
				c0.556,1.17,1.93,1.682,3.118,1.17c3.171-1.369,5.847-3.106,8.035-5.212c2.662-2.573,4.486-5.476,5.475-8.714
				c0.983-3.239,1.479-7.655,1.479-13.26v-11.449C364.021,299.515,362.947,298.441,361.624,298.441z"/>
			<path fill="#7F8C8D" d="M322.396,339.462c3.132-1.365,5.797-3.098,7.992-5.201c2.687-2.573,4.523-5.468,5.508-8.682
				c0.991-3.213,1.482-7.646,1.482-13.292v-11.449c0-1.323-1.075-2.396-2.396-2.396h-14.564c-1.316,0-2.392,1.073-2.392,2.396V315.4
				c0,1.32,1.075,2.396,2.392,2.396h6.972c-0.087,3.813-0.977,6.864-2.651,9.158c-1.323,1.811-3.324,3.311-6.002,4.492
				c-1.23,0.543-1.764,1.999-1.19,3.216l1.72,3.632C319.822,339.462,321.207,339.979,322.396,339.462z"/>
		</g>
		<g>
			<path fill="#7F8C8D" d="M26.086,162.586v7.794c0,1.056-0.856,1.914-1.909,1.914c-3.772,0-5.825,3.868-6.111,11.502h6.111
				c1.052,0,1.909,0.857,1.909,1.914v16.457c0,1.057-0.856,1.913-1.909,1.913H7.89c-1.057,0-1.911-0.859-1.911-1.913V185.71
				c0-3.66,0.369-7.02,1.093-9.985c0.745-3.039,1.89-5.695,3.397-7.898c1.553-2.264,3.494-4.04,5.776-5.278
				c2.294-1.245,4.962-1.876,7.931-1.876C25.229,160.672,26.086,161.527,26.086,162.586z M50.77,172.294
				c1.057,0,1.916-0.857,1.916-1.914v-7.794c0-1.059-0.859-1.914-1.916-1.914c-2.965,0-5.63,0.632-7.927,1.876
				c-2.277,1.238-4.223,3.014-5.777,5.278c-1.509,2.203-2.653,4.86-3.397,7.901c-0.724,2.965-1.098,6.325-1.098,9.982v16.457
				c0,1.057,0.861,1.913,1.917,1.913H50.77c1.057,0,1.913-0.856,1.913-1.913V185.71c0-1.057-0.856-1.914-1.913-1.914h-6.018
				C45.032,176.162,47.053,172.294,50.77,172.294z"/>
		</g>
		<rect x="60.649" y="183.803" opacity="0.5" fill="#95A5A6" width="248.244" height="11.486"/>
		<rect x="60.649" y="208.368" opacity="0.5" fill="#95A5A6" width="248.244" height="11.489"/>
		<rect x="60.649" y="232.933" opacity="0.5" fill="#95A5A6" width="248.244" height="11.486"/>
		<rect x="60.649" y="257.498" opacity="0.5" fill="#95A5A6" width="248.244" height="11.486"/>
		<rect x="60.649" y="282.063" opacity="0.5" fill="#95A5A6" width="248.244" height="11.486"/>
		<rect x="60.649" y="306.628" opacity="0.5" fill="#95A5A6" width="248.244" height="11.486"/>
	</g>
</g>
</svg>
