<?xml version="1.0" encoding="utf-8"?>
<!-- Generator: Adobe Illustrator 16.0.4, SVG Export Plug-In . SVG Version: 6.00 Build 0)  -->
<!DOCTYPE svg PUBLIC "-//W3C//DTD SVG 1.1//EN" "http://www.w3.org/Graphics/SVG/1.1/DTD/svg11.dtd">
<svg version="1.1" id="Layer_1" xmlns="http://www.w3.org/2000/svg" xmlns:xlink="http://www.w3.org/1999/xlink" x="0px" y="0px"
	 width="370px" height="472px" viewBox="0 0 370 472" enable-background="new 0 0 370 472" xml:space="preserve">
<g>
	<defs>
		<rect id="SVGID_1_" width="370" height="472"/>
	</defs>
	<clipPath id="SVGID_2_">
		<use xlink:href="#SVGID_1_"  overflow="visible"/>
	</clipPath>
	<g clip-path="url(#SVGID_2_)">
		<rect fill="#323232" width="370" height="472"/>
	</g>
	<g clip-path="url(#SVGID_2_)">
		<path fill="#E74C3C" d="M58.781,349.208c0,0-30.592,13.97-27.764,32.186c2.828,18.215,21.927,12.436,27.057,11.435
			c5.128-1.001,14.854-2.77,15.207,3.774c0.354,6.541-4.421,16.799-1.944,22.458c2.476,5.658,4.95,20.513,22.989,17.329
			c18.039-3.183,18.215-4.598,26.171-9.55c7.957-4.948,13.322-4.419,14.796-0.707c1.473,3.713,0.412,13.087,1.65,17.153
			c1.237,4.067,8.842,18.744,22.46,10.078c13.616-8.664,12.968-14.676,18.686-14.498c5.718,0.176,14.562,2.651,17.566,10.963
			c3.006,8.311,6.366,16.268,15.209,14.854c8.841-1.413,16.622-6.719,17.859-26.17c1.239-19.454,25.996-7.959,25.996-7.959
			s10.611,13.44,23.873-3.184c13.265-16.62,2.653-33.895,2.653-34.542s-1.238-7.722,8.84-6.483
			c10.081,1.237,21.399,9.727,27.943-3.891c6.541-13.616,4.244-27.527-9.197-37.017c-13.44-9.492-2.299-16.92-1.769-22.401
			c0.531-5.483-8.84-13.44-13.085-12.202C289.732,312.072,69.75,342.866,58.781,349.208z"/>
		<path fill-opacity="0.1" d="M98.04,323.743c0,0-31.301-14.692-48.102,10.065c0,0-2.476,18.133,14.854,17.071
			c17.331-1.06,20.16-5.569,24.582,1.351c4.421,6.92-8.666,21.401-9.904,27.767c-1.238,6.367-6.718,22.448,4.066,23.512
			c10.789,1.059,21.928-12.386,27.941-16.454c6.013-4.067,11.85-5.132,13.087,0.706c1.238,5.834-6.189,12.732-5.129,20.336
			c1.061,7.605,2.651,15.383,9.904,16.622c7.251,1.236,16.976-5.837,18.391-13.618c1.413-7.78,7.603-15.208,12.378-12.908
			c4.774,2.297,6.896,6.541,6.013,13.085c-0.885,6.543-2.088,16.446,3.377,22.459c5.466,6.014,12.01,6.544,15.544,3.537
			c3.538-3.006,8.549-7.428,9.314-13.616c0.766-6.19,1.826-16.447,9.963-16.977c8.135-0.528,8.135,10.609,12.025,12.555
			c3.891,1.946,16.389,8.312,25.878-4.774c9.491-13.084-1.827-24.933-2.534-26.171c-0.709-1.237-7.605-11.672,1.592-13.44
			c9.194-1.769,9.55,3.36,17.331,9.02s18.567-5.482,19.452-7.604c0.884-2.123,4.599-8.842,0-16.802
			c-4.599-7.957-7.957-12.73-5.129-18.037c2.831-5.306,4.598-6.571,10.433-4.877c5.836,1.693,10.624,4.142,12.297,0
			c1.674-4.141,8.041-22.003-3.277-28.368c-11.317-6.367-16.445-3.714-18.745-1.593c-2.297,2.123-11.493,5.82-13.615,4.052
			s-156.15,13.102-156.15,13.102H98.04V323.743z"/>
		<path fill="#F39C12" d="M98.04,318.918c0,0-31.301-14.402-48.102,10.354c0,0-2.476,18.279,14.854,17.218
			c17.331-1.06,20.16-5.497,24.582,1.425c4.421,6.92-8.666,21.436-9.904,27.803c-1.238,6.368-6.718,22.468,4.066,23.528
			c10.789,1.061,21.928-12.374,27.941-16.441c6.013-4.068,11.85-5.126,13.087,0.709c1.238,5.834-6.189,12.732-5.129,20.339
			c1.061,7.602,2.651,15.386,9.904,16.625c7.251,1.237,16.976-5.837,18.391-13.618c1.413-7.781,7.603-15.208,12.378-12.91
			c4.774,2.299,6.896,6.544,6.013,13.086c-0.885,6.544-2.088,16.448,3.377,22.461c5.466,6.013,12.01,6.541,15.544,3.536
			c3.538-3.008,8.549-7.427,9.314-13.616c0.768-6.19,1.826-16.447,9.963-16.979c8.135-0.528,8.135,10.611,12.025,12.557
			s16.389,8.312,25.878-4.775c9.491-13.084-1.827-24.933-2.534-26.17c-0.709-1.238-7.605-11.672,1.592-13.44
			c9.194-1.769,9.55,3.359,17.331,9.019s18.567-5.481,19.452-7.604c0.884-2.122,4.599-8.842,0-16.8
			c-4.599-7.957-7.957-12.732-5.129-18.039c2.831-5.304,4.598-6.571,10.433-4.877c5.836,1.695,10.624,4.141,12.297,0
			c1.674-4.142,8.041-22.003-3.277-28.368c-11.317-6.366-16.445-3.714-18.745-1.591c-2.297,2.122-11.493,5.528-13.615,3.76
			c-2.122-1.768-156.151,12.81-156.151,12.81H98.04z"/>
		<path fill-opacity="0.1" d="M103.061,325.812c0,0,2.64,19.152,20.325,26.226c17.683,7.072,41.733,22.399,48.807,26.409
			c7.073,4.008,24.223,1.131,29.677-5.566c5.456-6.696,41.768-36.403,47.19-38.526c5.423-2.121,14.773-14.5,14.618-18.155
			C263.524,312.543,135.789,312.08,103.061,325.812z"/>
		<path fill="#C0392B" d="M259.318,73.338c0,0-2.994-41.38,36.345-53.759c39.341-12.379,40.404-2.83,48.183,7.073
			c0,0,23.344-27.234,60.479-17.331c37.136,9.904,38.196,36.783,38.196,36.783s15.562,0.354,23.344,22.635
			c7.781,22.282-1.061,30.417-5.305,31.831c0,0,16.623,12.909,17.685,29.356c1.061,16.446-0.178,32.361-11.317,40.142
			c0,0,0.529-24.049-9.55-28.824c0,0,15.032,51.284-40.674,86.651c0,0,12.91-23.697-1.769-33.599c0,0,4.068,45.448-33.068,51.458
			c0,0,4.774-28.824-6.896-40.849c0,0,5.304,25.112-23.344,49.339c0,0-12.732-18.039-17.86-35.722c0,0-20.159,21.221,4.774,55.35
			c0,0-47.93,7.484-65.785-28.294S259.318,73.338,259.318,73.338z"/>
		<path fill-opacity="0.28" d="M294.01,136.298c0,0,9.754,31.356-4.157,61.919c0,0,11.316-1.849,11.316,9.437
			c0,11.285,0,35.441-19.806,47.176l-16.742-32.185C264.621,222.643,280.488,139.127,294.01,136.298z"/>
		<path fill="#C0392B" d="M102.636,79.47c0,0-30.653-66.492-58.948-66.256C15.394,13.451,15.159,37.5,15.159,37.5
			S-5.12,7.319-27.519,13.214c-22.401,5.896-23.814,29.71-23.814,29.71s-35.839-19.099-44.8,23.106s5.896,35.368,5.896,35.368
			s-20.278,21.456-18.157,49.752c2.123,28.295,13.675,27.823,13.675,27.823s-11.553,20.749,4.008,43.148
			c15.563,22.398,41.972,29.04,41.972,29.04s-14.62-8.527-13.913-20.081c0.708-11.555,3.064-13.911,3.064-13.911
			s9.512,43.384,56.63,43.384c0,0-16.782-14.147-5.697-33.01c0,0,32.537,16.976,21.221,53.76c0,0,12.496,0.942,18.391-12.261
			l3.301-3.728c0,0,9.432,28.484,43.856,19.29c0,0-4.701-24.208,11.916-33.442C106.646,241.925,102.636,79.47,102.636,79.47z"/>
		<path fill-opacity="0.28" d="M60.667,155.392c0,0,1.65,32.773,6.367,45.037c0,0-17.223-4.246-17.218,11.554
			c0.005,15.797,13.874,41.146,36.295,46.508c0,0,7.39-22.947-3.959-60.546C70.807,160.345,60.667,155.392,60.667,155.392z"/>
		<path fill="#F2E3D0" d="M80.805,214.459c0,0-50.396-87,18.038-128.909c68.434-41.909,120.846-39.305,168.971-1.837
			c54.812,42.678,7.153,130.746,7.153,130.746s20.16-21.218,20.69,2.653c0.529,23.871-24.402,46.152-32.893,44.561
			c0,0,4.722,22.627,3.713,38.196c-0.997,15.415-10.609,27.584-22.811,33.95c-12.203,6.367-44.563,32.361-50.397,36.075
			c-5.835,3.714-19.628,4.244-22.811,0c-3.184-4.244-45.623-21.22-50.929-24.933c-5.304-3.712-22.81-20.16-18.565-42.971
			c4.242-22.811,0-30.768,0-30.768s-10.081-4.774-14.856-12.732c-4.773-7.957-29.708-32.889-30.236-38.725
			C55.343,213.929,62.769,198.545,80.805,214.459z"/>
		<path fill="#C0392B" d="M178.623,286.489c0,0-18.021,15.185-28.087-13.104c-1.063-2.982-0.163-6.049,0.098-9.203
			c1.049-12.74,10.581-22.519,25.334-23.907c29.334-2.761,30.417,23.106,29.238,27.352
			C204.025,271.87,205.335,296.092,178.623,286.489z"/>
		<path fill="#212121" d="M192.237,197.834c0,0-12.263,5.658-7.546-14.383c0,0,2.93-5.188,3.233-7.544
			c0.305-2.358,12.329-42.206,24.827-55.411c12.496-13.204,31.359-14.147,36.312-5.658c4.95,8.489,8.252,14.383,5.657,14.148
			c-2.594-0.237-5.422-0.944-8.251-6.603c-2.832-5.659-16.977-13.204-29.709,2.357c-12.732,15.563-20.514,41.263-20.514,41.263
			l-0.473,21.221C195.773,187.224,195.773,192.883,192.237,197.834z"/>
		<path fill="#212121" d="M164.414,187.224c0,0-6.838,4.716-9.904-1.651c-3.064-6.366-1.178-7.31-12.025-21.692
			c-10.846-14.383-20.042-34.425-32.773-38.668c-12.731-4.244-15.091,10.845-15.091,10.845s-5.422,1.651-4.479-2.593
			c0.942-4.244,5.422-18.391,22.165-12.969c16.74,5.423,21.692,13.913,30.651,26.29
			C151.917,159.164,162.998,176.378,164.414,187.224z"/>
		<path fill="#FFFFFF" d="M208.15,227.072c0,0-4.362-15.797,9.079-36.902c13.44-21.103,23.224-17.565,23.224-17.565
			s14.029,0.111,21.456,8.897l0.589,1.478c0,0-1.533,18.155-5.423,23.932c-3.888,5.778-15.561,18.273-34.895,25.229
			C222.183,232.141,214.681,232.965,208.15,227.072z"/>
		<path fill="#212121" d="M267.807,184.089c0,0,0.47-9.126-12.969-12.756c-13.44-3.631-13.795-5.565-13.795-5.565
			s-8.606-8.135-8.724-22.4c-0.116-14.266-1.885-25.347-2.238-26.88c-0.355-1.532-3.066-2.947-5.07,0
			c-2.006,2.947,0.47,17.213,2.004,28.176c1.533,10.964-3.183,22.753-5.776,29.545c-2.593,6.79-8.136,13.252-8.136,13.252
			c-15.09,27.586-10.608,40.437-10.608,40.437c3.771,9.784,14.147,8.841,23.578,7.664c9.432-1.18,13.202,5.54,14.619,6.601
			c1.415,1.061,0.943,5.422,2.004,7.898c1.062,2.476,4.01,0,4.01,0s0.116-1.415-0.237-13.793
			c-0.354-12.378,5.069-15.916,5.069-15.916C268.633,201.96,267.807,184.089,267.807,184.089z M257.077,206.912
			c-3.89,5.778-15.562,18.273-34.895,25.229c0,0-7.5,0.824-14.029-5.069c0,0-4.363-15.797,9.077-36.902
			c13.439-21.103,23.225-17.565,23.225-17.565s14.028,0.111,21.455,8.897l0.589,1.478
			C262.499,182.98,260.968,201.135,257.077,206.912z"/>
		<path fill="#212121" d="M223.358,230.608c0,0-13.439-15.916-5.187-40.203c8.251-24.286,20.041,3.303,20.041,3.303
			s6.745,16.504,0.957,29.944C233.381,237.092,223.358,230.608,223.358,230.608z"/>
		<path fill="#FFFFFF" d="M108.531,224.949c0,0-22.163-15.797-21.102-39.258l-0.038-0.825c0,0,18.191-8.541,37.411,10.256
			c19.218,18.798,18.979,35.367,18.979,35.367S132.818,239.096,108.531,224.949z"/>
		<path fill="#212121" d="M149.757,228.25c0,0-5.032-17.919-18.826-35.25c-13.793-17.331-12.26-34.542-12.26-34.542
			s-2.711-24.757-2.711-25.111c0-0.354,0.354-5.306-3.065-5.542c-3.42-0.236-1.298,9.786-1.298,9.786l1.18,15.797
			c0,0-0.235,16.035-4.008,20.042c-3.772,4.009-8.489,6.013-18.039,5.306c0,0-3.535-0.589-5.894,0.825
			c-2.358,1.414-3.421,6.367-2.122,11.318c1.296,4.95,0.942,13.674,18.037,34.779c0,0,6.249,3.063,8.371,7.31
			c2.122,4.244,3.653,5.07,7.781,19.805c0,0,3.537,2.766,4.833-1.329c0,0-3.064-5.272-1.062-10.225
			c2.006-4.951,4.01-4.993,7.193-4.561c3.183,0.434,9.784,3.23,18.627-2.293C146.493,234.365,150.809,231.458,149.757,228.25z
			 M143.78,230.49c0,0-10.962,8.606-35.249-5.541c0,0-22.163-15.797-21.102-39.258l-0.038-0.825c0,0,18.191-8.541,37.411,10.256
			S143.78,230.49,143.78,230.49z"/>
		<path fill="#212121" d="M109.002,223.417c0,0-5.422-19.924,3.182-35.839c8.607-15.916,16.742,27.787,16.742,27.787
			s3.892,12.73-4.479,16.817C116.075,236.267,109.002,223.417,109.002,223.417z"/>
		<path fill="#C0392B" d="M111.479,266.448c0,0,9.785,1.179,19.098,10.729s23.108,23.224,25.584,25.347
			c2.477,2.121,7.781,8.605,11.083,8.96c3.301,0.354,8.506-1.886,10.384-1.297c0,0,2.819-1.18,6.592-0.237
			c3.774,0.943,4.128-0.235,4.128-0.235s6.546-6.367,19.131-6.72c12.582-0.353,12.345-7.427,12.345-7.427
			s8.136-17.214,22.402-28.648c0,0-6.015,6.131-9.433,26.88c-3.419,20.75-9.605,43.62-25.314,50.575
			c-15.713,6.956-25.261,14.973-51.082,1.18s-31.949-60.479-34.424-64.724C119.534,276.651,118.552,270.102,111.479,266.448z"/>
		<path fill="#C0392B" d="M135.293,297.925c0,0,0.179,0.2,0.504,0.563c2.608,2.905,14.714,16.202,20.48,19.242
			c6.484,3.42,8.842,5.659,16.15,3.184c7.311-2.477,14.384-3.184,18.864-2.24c4.479,0.942,10.492-1.533,12.143-2.712
			c1.651-1.179,11.437-11.671,17.448-13.084c0,0-6.719,31.476-29.355,35.837c-22.636,4.363-23.933,0.709-37.845-14.735
			c-13.91-15.445-14.615-21.646-18.212-25.854"/>
		<g>
			<path fill="#C0392B" d="M175.17,320.065c0.049,3.885-0.16,12.482-0.382,20.204c2.047,0.231,4.378,0.203,7.148-0.069l-6.007-20.34
				C175.678,319.927,175.424,319.992,175.17,320.065z"/>
			<path fill="#C0392B" d="M156.278,317.73c-5.768-3.04-17.872-16.337-20.48-19.242c-0.325-0.363-0.504-0.563-0.504-0.563l0.179,0.2
				c3.597,4.209,4.301,10.409,18.213,25.854c7.016,7.789,10.822,12.576,15.776,14.853l-5.097-17.212
				C161.932,320.983,159.669,319.518,156.278,317.73z"/>
			<path fill="#C0392B" d="M186.204,318.285l-2.541,21.723c2.309-0.289,4.901-0.721,7.866-1.293c1.596-0.307,3.11-0.754,4.552-1.311
				l-7.272-19.062C187.989,318.282,187.12,318.263,186.204,318.285z"/>
			<path fill="#C0392B" d="M220.885,302.878c-6.014,1.413-15.796,11.905-17.448,13.084c-0.55,0.395-1.587,0.932-2.886,1.438
				l-0.462,18.072C215.904,326.192,220.885,302.878,220.885,302.878z"/>
			<path fill="#ECF0F1" d="M175.17,320.065c-0.907,0.255-1.823,0.539-2.742,0.85c-3.484,1.181-5.846,1.287-8.063,0.706l5.097,17.213
				l4.854,16.388c0,0,0.244-7.012,0.473-14.951C175.01,332.548,175.219,323.95,175.17,320.065z"/>
			<path fill="#ECF0F1" d="M175.93,319.86l6.007,20.34l1.221,4.13l0.506-4.322l2.541-21.723
				C183.158,318.354,179.627,318.877,175.93,319.86z"/>
			<path fill="#ECF0F1" d="M191.293,318.674c-0.756-0.159-1.591-0.266-2.483-0.332l7.271,19.062l3.71,9.72l0.298-11.653
				l0.462-18.073C197.946,318.411,194.279,319.303,191.293,318.674z"/>
		</g>
		<g>
			<path fill-opacity="0.33" d="M175.17,320.065c0.022,1.836-0.011,4.727-0.078,8.078c1.121,0.147,2.25,0.254,3.378,0.318
				l-2.54-8.601C175.678,319.927,175.424,319.992,175.17,320.065z"/>
			<path fill-opacity="0.33" d="M156.278,317.73c-5.768-3.04-17.872-16.337-20.48-19.242c-0.325-0.363-0.504-0.563-0.504-0.563
				l0.179,0.2c1.702,1.993,2.759,4.431,4.871,8.084c2.355,2.279,4.106,5.155,6.15,7.1c6.294,5.991,12.162,9.938,19.112,12.503
				l-1.241-4.191C161.932,320.983,159.669,319.518,156.278,317.73z"/>
			<path fill-opacity="0.33" d="M186.204,318.285l-1.181,10.092c2.416-0.2,4.817-0.581,7.177-1.144l-3.391-8.89
				C187.989,318.282,187.12,318.263,186.204,318.285z"/>
			<path fill-opacity="0.33" d="M203.435,315.962c-0.549,0.395-1.587,0.932-2.887,1.438l-0.182,7.103
				c3.609-1.579,7.626-6.015,10.259-8.981c3.244-3.653,10.258-12.646,10.258-12.646
				C214.871,304.291,205.086,314.783,203.435,315.962z"/>
			<path fill="#FFFFFF" d="M169.461,338.832l4.854,16.389c0,0,0.244-7.012,0.473-14.951c0.118-4.071,0.23-8.387,0.304-12.127
				c-3.228-0.425-6.41-1.198-9.486-2.331L169.461,338.832z"/>
			<path fill="#FFFFFF" d="M175.17,320.065c-0.907,0.255-1.823,0.539-2.742,0.85c-3.484,1.181-5.846,1.287-8.063,0.706l1.241,4.19
				c3.076,1.134,6.259,1.906,9.486,2.332C175.16,324.791,175.193,321.9,175.17,320.065z"/>
			<path fill="#FFFFFF" d="M178.47,328.462l3.467,11.738l1.221,4.13l0.506-4.322l1.361-11.631
				C182.844,328.556,180.654,328.585,178.47,328.462z"/>
			<path fill="#FFFFFF" d="M175.93,319.86l2.54,8.602c2.182,0.123,4.374,0.096,6.553-0.085l1.181-10.092
				C183.158,318.354,179.627,318.877,175.93,319.86z"/>
			<path fill="#FFFFFF" d="M196.081,337.405l3.708,9.721l0.298-11.654l0.279-10.97c-2.635,1.154-5.371,2.068-8.166,2.731
				L196.081,337.405z"/>
			<path fill="#FFFFFF" d="M191.293,318.674c-0.756-0.159-1.591-0.266-2.483-0.332l3.391,8.892c2.795-0.665,5.531-1.577,8.166-2.732
				l0.185-7.104C197.946,318.411,194.279,319.303,191.293,318.674z"/>
		</g>
		<g>
			<path fill="#D8BFA4" d="M276.545,228.94c0,0-0.289-0.148-0.733-0.455c-0.397-0.411-1.084-1.048-1.59-1.994
				c-0.532-0.96-0.977-2.267-0.945-3.987c0.041-1.687,0.629-3.881,2.517-5.959c0.224-0.265,0.48-0.515,0.759-0.748l0.419-0.354
				l0.056-0.044c-0.425,0.164,0.609-0.249,0.504-0.21l0.009-0.013l0.032-0.049l0.062-0.099l0.126-0.197
				c0.023-0.035,0.034-0.065,0.07-0.101l0.39-0.2c0.501-0.252,1.155-0.508,1.612-0.676c1.654-0.661,3.407-0.914,5.239-0.897
				c1.829,0.041,3.743,0.451,5.708,1.436c1.947,0.97,4.016,2.616,5.573,5.155c0.768,1.266,1.39,2.713,1.749,4.25
				c0.274,1.732,0.142,0.054,0.337,1.691c0.052,0.484,0.085,1.016,0.096,1.472c0.014,0.344,0.008,0.688-0.003,1.033
				c-0.093,2.752-0.847,5.033-1.606,6.703c-1.592,3.373-3.278,5.075-4.318,6.204c-1.253,1.262-2.662,2.359-4.161,3.263
				c-1.487,0.901-3.12,1.607-4.696,2.045c-1.584,0.435-2.714,0.433-3.638,0.229c-0.903-0.204-1.621-0.576-2.28-1.026
				c-1.285-0.963-3.157-1.445-4.65-1.225c-0.72,0.103-1.435,0.377-1.824,0.631c-0.411,0.252-0.666,0.457-0.666,0.457l-1.471,0.316
				c0,0-0.041-0.18-0.12-0.515c-0.061-0.338-0.138-0.849-0.078-1.489c0.105-1.272,0.693-3.074,2.14-4.65
				c1.421-1.575,3.428-2.848,5.325-4.076c1.89-1.238,3.754-2.772,5.409-4.506c0.863-0.862,1.657-1.695,2.125-2.546
				c0.478-0.834,0.555-1.629,0.284-2.159c-0.271-0.562-0.946-1.083-1.689-1.282c-0.741-0.219-1.487-0.109-2.06,0.2
				c-1.242,0.664-1.958,1.95-2.216,2.85c-0.138,0.461-0.207,0.836-0.246,1.066c-0.025,0.293-0.041,0.449-0.041,0.449L276.545,228.94
				z"/>
		</g>
		<g>
			<path fill="#D8BFA4" d="M80.213,228.202c0,0-0.324-0.112-0.84-0.341c-0.482-0.134-1.267-0.271-2.086-0.36
				c-0.843-0.066-1.759-0.037-2.646,0.206c-0.872,0.232-1.682,0.659-2.21,1.28c-0.144,0.181-0.235,0.304-0.33,0.483l-0.061,0.124
				c0.329,0.158,0.082,0.045,0.152,0.08l-0.016,0.002l-0.034,0.006l-0.063,0.01l-0.129,0.021c-0.112,0.063,0.229,0.31,0.183,0.393
				c0.164,0.447,0.556,0.951,1.764,1.289c0.605,0.161,1.443,0.201,2.461-0.011c0.51-0.108,1.052-0.273,1.584-0.521
				c0.526-0.226,1.127-0.638,1.301-0.693c0.197-0.149,0.388-0.307,0.571-0.474l0.354-0.306c0.218-0.201,0.411-0.378,0.597-0.583
				c0.357-0.381,0.66-0.787,0.905-1.136c0.498-0.733,0.804-1.328,1.017-1.857c0.216-0.53,0.37-0.921,0.468-1.417l0.079,0.263
				c0.013,0.022,0.023,0.139,0.04,0.083l0.039-0.243c0.05-0.294,0.049-0.724,0.054-0.92c0.073-0.63,0.051-1.165-0.001-1.548
				c-0.123-0.774-0.205-0.908-0.056-0.795c0.051,0.069,0.157,0.177,0.26,0.339c0.028,0.021-0.253-0.175-0.128-0.086l0.015,0.011
				l0.026,0.021l0.054,0.044l0.107,0.086l0.215,0.175c0.133,0.119,0.098,0.116,0.155,0.183c0.083,0.113,0.314,0.301,0.504,0.502
				c0.801,0.769,1.985,1.849,3.284,3.236c1.301,1.397,2.729,3.102,3.854,5.152l0.079,0.259c0.018,0.074,0.052,0.17,0.155,0.338
				l0.473,0.866c0.287,0.565,0.443,1.002,0.605,1.525c0.291,1.012,0.555,1.95,0.651,2.897c0.482,3.759-0.547,6.771-1.636,8.591
				c-0.521,0.92-1.159,1.586-1.532,2.005c-0.409,0.425-0.676,0.632-0.676,0.632l-1.501,0.097c0,0-0.087-0.701-0.405-1.875
				c-0.309-1.173-0.959-2.802-2.114-4.491c-0.582-0.848-1.279-1.68-2.157-2.456c-0.853-0.771-1.901-1.454-3.022-2.165
				c-1.13-0.701-2.378-1.377-3.664-2.14c-1.281-0.76-2.616-1.617-3.824-2.724c-1.178-1.108-2.228-2.424-2.943-3.963
				c-0.354-0.769-0.625-1.591-0.75-2.444c-0.062-0.446-0.101-0.968-0.088-1.267c-0.012-0.447,0.037-0.882,0.124-1.325
				c0.194-0.879,0.524-1.788,1.371-2.545c0.715-0.664,1.8-0.99,2.635-0.976c1.726,0.004,3.009,0.729,4.033,1.4
				c2.085,1.427,3.116,3.306,3.647,4.594c0.273,0.651,0.383,1.207,0.474,1.596c0.057,0.342,0.087,0.526,0.087,0.526L80.213,228.202z
				"/>
		</g>
		<path fill-opacity="0.2" d="M205.495,224.243c0,0-0.763-29.195,17.394-43.835c18.154-14.64,25.936-7.801,39.61-1.908
			C262.499,178.5,216.868,183.214,205.495,224.243z"/>
		<path fill-opacity="0.2" d="M87.429,185.691c0,0,24.875,1.297,58.12,45.153c0,0-3.73-29.699-26.977-45.501
			C95.327,169.54,87.429,185.691,87.429,185.691z"/>
		<path fill-opacity="0.1" d="M213.692,236.081c0,0,15.325,0.421,29.003,13.98C242.695,250.061,245.288,225.235,213.692,236.081z"/>
		<path fill-opacity="0.1" d="M121.735,251.443c0,0,1.694-11.648,15.348-13.766c0,0-13.892-5.546-18.511,0
			C113.953,243.224,121.735,251.443,121.735,251.443z"/>
		<path fill-opacity="0.1" d="M166.769,291.44c-0.53-0.521,9.322-0.992,13.074-3.951c0,0,6.262,4.782,13.099,1.655
			C192.942,289.145,180.38,304.794,166.769,291.44z"/>
		<path fill="#FFFFFF" fill-opacity="0.26" d="M156.396,260.789c0,0,2.451-15.897,21.967-16.505
			c19.515-0.607,21.723,14.146,21.723,14.146S179.502,273.992,156.396,260.789z"/>
		<path fill-opacity="0.2" d="M194.77,180.407c0,0,34.184-66.818,55.228-53.198c0,0-4.297-20.271-29.409-9.484
			C195.478,128.512,194.77,180.407,194.77,180.407z"/>
		<path fill-opacity="0.2" d="M94.62,136.058c-0.025,0.801,18.198-15.642,59.89,49.516c0,0-7.484-35.662-41.793-61.128
			C112.716,124.445,95.269,116.371,94.62,136.058z"/>
		<g opacity="0.27">
			<path fill="#FFFFFF" d="M64.808,59.952c-4.396-11.561-14.317-34.02-31.48-26.938c-10.829,4.469-14.318,23.788-20.966,32.421
				c-8.746-12.47-33.856-35.722-49.936-21.772c-9.888,8.152-6.354,26.951-6.213,38.479c-4.317-7.114-8.995-19.698-19.419-15.947
				c-19.84,7.102-20.542,29.815-3.796,39.116c-16.945,13.75-35.956,36.145-23.621,59.121c1.145,2.135,2.391,3.781,3.946,5.616
				c2.861,3.377,14.004,9.625,14.764,13.625c0.355,1.876-1.467,1.799-2.12,3.769c-1.948,5.885-5.475,9.707-5.706,16.45
				c-0.238,6.957,1.92,13.986,6.325,19.407c-10.614-10.396-11.064-28.795-1.708-40.122c0.041,0.839,0.084,1.68,0.125,2.519
				c-11.926-10.269-22.876-16.546-25.02-33.083c-2.588-19.957,9.545-37.441,24.1-49.798c0.461,1.667,0.705,4.496,0.507,6.215
				c-34.242-19.81,13.854-72.179,30.866-43.671c-2.495,0.706-4.989,1.411-7.486,2.114c-0.143-22.587,9.729-39.918,35.026-32.996
				c13.477,3.687,24.432,12.81,31.902,24.383c-1.274,0.175-3.575,0.058-4.827-0.236c7.522-9.244,9.064-24.822,21.781-29.323
				C51.639,22.292,61.216,45.995,64.808,59.952C64.178,58.292,64.364,58.232,64.808,59.952z"/>
		</g>
	</g>
</g>
</svg>
