<?xml version="1.0" encoding="utf-8"?>
<!-- Generator: Adobe Illustrator 16.0.4, SVG Export Plug-In . SVG Version: 6.00 Build 0)  -->
<!DOCTYPE svg PUBLIC "-//W3C//DTD SVG 1.1//EN" "http://www.w3.org/Graphics/SVG/1.1/DTD/svg11.dtd">
<svg version="1.1" id="Layer_1" xmlns="http://www.w3.org/2000/svg" xmlns:xlink="http://www.w3.org/1999/xlink" x="0px" y="0px"
	 width="370px" height="472px" viewBox="0 0 370 472" enable-background="new 0 0 370 472" xml:space="preserve">
<g>
	<defs>
		<rect id="SVGID_1_" width="370" height="472"/>
	</defs>
	<clipPath id="SVGID_2_">
		<use xlink:href="#SVGID_1_"  overflow="visible"/>
	</clipPath>
	<g clip-path="url(#SVGID_2_)">
		<rect fill="#2980B9" width="370" height="472"/>
	</g>
	<g clip-path="url(#SVGID_2_)">
		<path fill="#BDC3C7" d="M-61.238,2.053l6.743,121.282l71.509,10.803v68.658c0,0,60.692,20.212,60.692,16.147
			c0-4.066,0,55.181,0,55.181l48.487,12.082v52.51l45.808,15.683l-11.508,43.566l42.552,6.737l-10.926,44.493l49.415,18.82
			l-11.512,38.101l43.836,4.648l44.994-70.748L-2.057-8.753L-61.238,2.053z"/>
		<path fill="#FFFFFF" d="M-126.002,164.691"/>
		<polygon fill="#2C3E50" points="-26.126,32.488 -26.126,92.896 46.66,105.675 46.66,180.375 107.237,188.506 97.24,241.48 
			151.772,248.219 151.772,307.232 202.35,317.34 192.234,365.899 248.858,377.982 232.697,434.556 277.113,449.31 273.974,510.881 
			433.497,452.329 440.939,412.948 382.688,404.814 383.618,367.062 340.479,354.515 350.365,309.208 308.157,296.196 
			309.089,233.697 271.301,226.146 273.974,166.433 237.582,155.164 241.651,74.31 190.955,60.254 196.654,-6.429 		"/>
		<polygon fill="#ECF0F1" points="-24.847,92.781 190.955,60.254 241.651,74.31 46.66,105.675 		"/>
		<polygon fill="#ECF0F1" points="47.01,180.721 237.582,155.164 273.974,166.433 107.237,188.506 		"/>
		<polygon fill="#ECF0F1" points="97.24,241.48 271.301,226.146 309.089,233.697 151.772,248.219 		"/>
		<polygon fill="#ECF0F1" points="151.772,307.118 308.157,296.196 350.365,309.208 202.35,317.34 		"/>
		<polygon fill="#ECF0F1" points="192.234,365.899 340.479,354.515 383.618,367.062 248.858,377.982 		"/>
		<polygon fill="#ECF0F1" points="232.697,434.556 382.688,404.814 440.939,412.948 277.113,449.31 		"/>
		<polygon fill="#ECF0F1" points="-26.126,32.488 -61.238,2.053 146.306,-35.704 196.654,-6.429 		"/>
		<polygon fill="#2ECC71" points="27.826,-14.096 62.01,17.039 116.89,7.511 83.755,-24.32 		"/>
		<polygon fill="#27AE60" points="62.01,17.039 67.707,78.841 124.798,70.243 116.89,7.511 		"/>
		<polygon fill="#2ECC71" points="67.707,78.841 93.402,98.125 153.631,88.483 124.798,70.243 		"/>
		<polygon fill="#2ECC71" points="105.843,171.778 151.772,182.582 207.351,175.612 166.535,164.691 		"/>
		<polygon fill="#2ECC71" points="157.354,236.136 189.441,244.966 250.138,239.156 215.372,231.024 		"/>
		<polygon fill="#2ECC71" points="196.654,303.98 230.143,315.828 278.743,313.157 254.903,298.984 		"/>
		<polygon fill="#2ECC71" points="232.697,362.763 276.416,375.772 318.97,372.288 285.252,357.421 		"/>
		<polygon fill="#2ECC71" points="279.088,425.379 322.69,439.204 368.27,429.096 326.413,415.969 		"/>
		<polygon fill="#27AE60" points="93.402,98.125 105.843,171.778 166.535,164.691 153.631,88.483 		"/>
		<polygon fill="#27AE60" points="151.772,182.582 157.354,236.136 215.372,231.024 207.351,175.612 		"/>
		<polygon fill="#27AE60" points="189.441,244.966 196.654,303.98 254.903,298.984 250.138,239.156 		"/>
		<polygon fill="#27AE60" points="230.143,315.828 232.697,362.763 285.252,357.421 278.743,313.157 		"/>
		<polygon fill="#27AE60" points="276.416,375.772 279.088,425.379 326.413,415.969 318.97,372.288 		"/>
		<polygon fill="#27AE60" points="322.69,439.204 326.413,491.596 376.872,473.124 368.27,429.096 		"/>
	</g>
</g>
</svg>
