<?xml version="1.0" encoding="utf-8"?>
<!-- Generator: Adobe Illustrator 16.0.4, SVG Export Plug-In . SVG Version: 6.00 Build 0)  -->
<!DOCTYPE svg PUBLIC "-//W3C//DTD SVG 1.1//EN" "http://www.w3.org/Graphics/SVG/1.1/DTD/svg11.dtd">
<svg version="1.1" id="Layer_1" xmlns="http://www.w3.org/2000/svg" xmlns:xlink="http://www.w3.org/1999/xlink" x="0px" y="0px"
	 width="370px" height="472px" viewBox="0 0 370 472" enable-background="new 0 0 370 472" xml:space="preserve">
<g>
	<defs>
		<rect id="SVGID_1_" width="370" height="472"/>
	</defs>
	<clipPath id="SVGID_2_">
		<use xlink:href="#SVGID_1_"  overflow="visible"/>
	</clipPath>
	<g clip-path="url(#SVGID_2_)">
		<rect fill="#2C3E50" width="370" height="472"/>
	</g>
	<g clip-path="url(#SVGID_2_)">
		<g>
			<circle fill="#34495E" cx="184.844" cy="235.825" r="186.566"/>
		</g>
		<g>
			<g>
				<defs>
					<circle id="SVGID_3_" cx="185.156" cy="236.176" r="186.565"/>
				</defs>
				<clipPath id="SVGID_4_">
					<use xlink:href="#SVGID_3_"  overflow="visible"/>
				</clipPath>
				<circle clip-path="url(#SVGID_4_)" fill="#34495E" cx="185.156" cy="236.176" r="186.565"/>
			</g>
			<g>
				<defs>
					<circle id="SVGID_5_" cx="185.156" cy="236.176" r="186.565"/>
				</defs>
				<clipPath id="SVGID_6_">
					<use xlink:href="#SVGID_5_"  overflow="visible"/>
				</clipPath>
				<g clip-path="url(#SVGID_6_)">
					<g>
						<g>
							<polygon fill="#ECF0F1" points="189.301,172.773 40.29,172.773 40.29,390.676 212.281,390.676 212.281,194.94 							"/>
						</g>
						<polygon fill="#EAEBE1" points="212.412,194.94 189.271,194.98 189.301,171.891 						"/>
					</g>
					<rect x="52.615" y="203.519" fill="#3498DB" width="146.561" height="59.091"/>
					<g>
						<rect x="52.679" y="286.461" fill="#7F8C8D" width="146.485" height="2.915"/>
					</g>
					<g>
						<rect x="52.679" y="301.766" fill="#7F8C8D" width="146.485" height="2.186"/>
					</g>
					<g>
						<rect x="52.679" y="316.342" fill="#7F8C8D" width="146.485" height="2.914"/>
					</g>
					<g>
						<rect x="52.679" y="331.646" fill="#7F8C8D" width="146.485" height="2.186"/>
					</g>
					<g>
						<rect x="52.679" y="346.22" fill="#7F8C8D" width="146.485" height="2.915"/>
					</g>
					<rect x="168.3" y="331.004" fill="#E74C3C" width="30.793" height="36.472"/>
				</g>
			</g>
			<g>
				<defs>
					<circle id="SVGID_7_" cx="185.156" cy="236.176" r="186.565"/>
				</defs>
				<clipPath id="SVGID_8_">
					<use xlink:href="#SVGID_7_"  overflow="visible"/>
				</clipPath>
				<g clip-path="url(#SVGID_8_)">
					
						<rect x="267.46" y="244.45" transform="matrix(-0.8503 0.5263 -0.5263 -0.8503 654.658 358.3705)" fill="#BDC3C7" width="17.813" height="55.664"/>
					<path fill="#E8B750" d="M175.799,109.804c-40.356,24.976-52.824,77.937-27.849,118.293
						c24.978,40.354,77.938,52.822,118.294,27.848c40.355-24.976,52.822-77.939,27.848-118.294
						C269.115,97.296,216.152,84.828,175.799,109.804z M253.105,234.713c-28.586,17.691-66.232,8.828-83.923-19.754
						c-17.69-28.584-8.828-66.233,19.757-83.922c28.582-17.691,66.23-8.83,83.922,19.755
						C290.551,179.375,281.688,217.022,253.105,234.713z"/>
					<path fill="#BDC3C7" d="M337.883,367.693l-3.582,2.217c-6.646,4.114-15.449,2.041-19.562-4.605l-42.867-69.26
						c-4.111-6.646-2.039-15.449,4.607-19.562l3.584-2.218c6.646-4.113,15.449-2.04,19.561,4.605l42.865,69.26
						C346.602,354.777,344.529,363.58,337.883,367.693z"/>
				</g>
			</g>
		</g>
		<g>
			<g>
				<defs>
					<circle id="SVGID_9_" cx="220.08" cy="183.512" r="60.774"/>
				</defs>
				<clipPath id="SVGID_10_">
					<use xlink:href="#SVGID_9_"  overflow="visible"/>
				</clipPath>
				<g clip-path="url(#SVGID_10_)">
					<g>
						<g>
							<polygon fill="#FFFFFF" points="218.434,137.791 1.665,137.791 1.665,458.451 253.82,458.451 253.82,170.975 							"/>
						</g>
						<polygon fill="#EAEBE1" points="253.957,170.975 218.393,171.033 218.434,137.379 						"/>
					</g>
					<rect x="18.09" y="183.546" fill="#3498DB" width="214.82" height="86.612"/>
					<g>
						<rect x="19.155" y="305.408" fill="#7F8C8D" width="213.532" height="3.645"/>
					</g>
					<g>
						<rect x="19.155" y="327.273" fill="#7F8C8D" width="213.532" height="2.914"/>
					</g>
					<g>
						<rect x="19.155" y="349.865" fill="#7F8C8D" width="213.532" height="2.914"/>
					</g>
					<g>
						<rect x="19.155" y="371.727" fill="#7F8C8D" width="213.532" height="2.915"/>
					</g>
					<g>
						<rect x="19.155" y="391.404" fill="#7F8C8D" width="213.532" height="4.373"/>
					</g>
					<rect x="187.652" y="370.406" fill="#E74C3C" width="45.137" height="53.459"/>
				</g>
			</g>
		</g>
		<g opacity="0.19">
			<circle fill="#00A8D5" cx="220.918" cy="182.878" r="60.892"/>
		</g>
		<g opacity="0.43">
			<path fill="#FFFFFF" d="M180.484,137.347c25.147-22.33,63.635-20.048,85.965,5.098c22.33,25.146,20.047,63.633-5.1,85.964"/>
		</g>
	</g>
</g>
</svg>
