<?xml version="1.0" encoding="utf-8"?>
<!-- Generator: Adobe Illustrator 16.0.4, SVG Export Plug-In . SVG Version: 6.00 Build 0)  -->
<!DOCTYPE svg PUBLIC "-//W3C//DTD SVG 1.1//EN" "http://www.w3.org/Graphics/SVG/1.1/DTD/svg11.dtd">
<svg version="1.1" id="Layer_1" xmlns="http://www.w3.org/2000/svg" xmlns:xlink="http://www.w3.org/1999/xlink" x="0px" y="0px"
	 width="370px" height="472px" viewBox="0 0 370 472" enable-background="new 0 0 370 472" xml:space="preserve">
<g>
	<defs>
		<rect id="SVGID_1_" width="370" height="472"/>
	</defs>
	<clipPath id="SVGID_2_">
		<use xlink:href="#SVGID_1_"  overflow="visible"/>
	</clipPath>
	<g clip-path="url(#SVGID_2_)">
		<rect fill="#D35400" width="370" height="472"/>
	</g>
	<g clip-path="url(#SVGID_2_)">
		<g>
			
				<image overflow="visible" opacity="0.3" width="666" height="666" xlink:href="3887C8352D3E859F.png"  transform="matrix(1 0 0 1 -150.5 -65.5)">
			</image>
			<g>
				<g>
					<g>
						<defs>
							<circle id="SVGID_3_" cx="182.101" cy="267.13" r="323.411"/>
						</defs>
						<clipPath id="SVGID_4_">
							<use xlink:href="#SVGID_3_"  overflow="visible"/>
						</clipPath>
					</g>
					<g>
						<defs>
							<circle id="SVGID_5_" cx="182.101" cy="267.13" r="323.411"/>
						</defs>
						<clipPath id="SVGID_6_">
							<use xlink:href="#SVGID_5_"  overflow="visible"/>
						</clipPath>
					</g>
					<g>
						<defs>
							<circle id="SVGID_7_" cx="182.101" cy="267.13" r="323.411"/>
						</defs>
						<clipPath id="SVGID_8_">
							<use xlink:href="#SVGID_7_"  overflow="visible"/>
						</clipPath>
					</g>
				</g>
				<g>
					<g>
						<defs>
							<circle id="SVGID_9_" cx="182.101" cy="267.13" r="323.411"/>
						</defs>
						<clipPath id="SVGID_10_">
							<use xlink:href="#SVGID_9_"  overflow="visible"/>
						</clipPath>
						<path clip-path="url(#SVGID_10_)" fill="#F39C12" d="M172.096-2.05H-69.545c-7.896,0-14.354,6.458-14.354,14.355v124.778
							c0,7.898,6.458,14.354,14.354,14.354h241.641c7.895,0,14.356-6.456,14.356-14.354V12.305
							C186.452,4.411,179.991-2.05,172.096-2.05z M158.938,64.224c0,5.102-4.172,9.276-9.272,9.276H79.69
							c-5.1,0-9.272-4.174-9.272-9.276V35.932c0-5.099,4.172-9.272,9.272-9.272h69.975c5.1,0,9.272,4.174,9.272,9.272V64.224z"/>
					</g>
					<g>
						<defs>
							<circle id="SVGID_11_" cx="182.101" cy="267.13" r="323.411"/>
						</defs>
						<clipPath id="SVGID_12_">
							<use xlink:href="#SVGID_11_"  overflow="visible"/>
						</clipPath>
						<g clip-path="url(#SVGID_12_)">
							<path fill="#F39C12" d="M125.449,140.572c0-26.724-21.664-48.385-48.387-48.385h-3.563
								c-26.723,0-48.387,21.661-48.387,48.385v40.05l50.167,26.529l-50.167,9.594v40.938l36.123,1.265l-36.123,35.371v47.551
								l36.123,25.72l-36.123,8.861v18.993l46.546,52.438c0.611,0.022,1.222,0.049,1.838,0.049h3.565
								c4.097,0,8.069-0.516,11.868-1.478l36.52-49.268L125.449,140.572L125.449,140.572z"/>
						</g>
					</g>
					<g>
						<defs>
							<circle id="SVGID_13_" cx="182.101" cy="267.13" r="323.411"/>
						</defs>
						<clipPath id="SVGID_14_">
							<use xlink:href="#SVGID_13_"  overflow="visible"/>
						</clipPath>
						<path opacity="0.2" clip-path="url(#SVGID_14_)" fill="#323232" enable-background="new    " d="M99.791,388.439l-4.309-0.052
							c-3.126-0.035-5.652-2.625-5.617-5.749l2.48-213.491c0.036-3.126,2.623-5.655,5.75-5.619l4.309,0.052
							c3.127,0.038,5.656,2.625,5.618,5.75l-2.48,213.489C105.505,385.947,102.918,388.473,99.791,388.439z"/>
					</g>
				</g>
				<g>
					<g>
						<defs>
							<circle id="SVGID_15_" cx="182.101" cy="267.13" r="323.411"/>
						</defs>
						<clipPath id="SVGID_16_">
							<use xlink:href="#SVGID_15_"  overflow="visible"/>
						</clipPath>
					</g>
					<g>
						<defs>
							<circle id="SVGID_17_" cx="182.101" cy="267.13" r="323.411"/>
						</defs>
						<clipPath id="SVGID_18_">
							<use xlink:href="#SVGID_17_"  overflow="visible"/>
						</clipPath>
					</g>
					<g>
						<defs>
							<circle id="SVGID_19_" cx="182.101" cy="267.13" r="323.411"/>
						</defs>
						<clipPath id="SVGID_20_">
							<use xlink:href="#SVGID_19_"  overflow="visible"/>
						</clipPath>
					</g>
				</g>
			</g>
		</g>
		<g>
			
				<image overflow="visible" opacity="0.3" width="666" height="682" xlink:href="3887C8352D3E859D.png"  transform="matrix(1 0 0 1 -155.5 -121.5)">
			</image>
			<g>
				<g>
					<g>
						<defs>
							<circle id="SVGID_21_" cx="177.648" cy="211.155" r="323.411"/>
						</defs>
						<clipPath id="SVGID_22_">
							<use xlink:href="#SVGID_21_"  overflow="visible"/>
						</clipPath>
					</g>
					<g>
						<defs>
							<circle id="SVGID_23_" cx="177.648" cy="211.155" r="323.411"/>
						</defs>
						<clipPath id="SVGID_24_">
							<use xlink:href="#SVGID_23_"  overflow="visible"/>
						</clipPath>
					</g>
				</g>
				<g>
					<g>
						<defs>
							<circle id="SVGID_25_" cx="177.648" cy="211.155" r="323.411"/>
						</defs>
						<clipPath id="SVGID_26_">
							<use xlink:href="#SVGID_25_"  overflow="visible"/>
						</clipPath>
						<g clip-path="url(#SVGID_26_)">
							<g>
								<path fill="#F39C12" d="M250.895,319.949c0,27.129,21.992,49.119,49.122,49.119h3.619c27.13,0,49.122-21.99,49.122-49.119
									v-40.657l-50.931-26.935l50.931-9.744v-41.559l-36.674-1.283l36.674-35.911v-48.274l-36.674-26.11l36.674-8.998V61.195
									L305.505,7.962c-0.623-0.021-1.242-0.046-1.869-0.046h-3.619c-4.157,0-8.191,0.521-12.049,1.494l-37.073,50.021V319.949
									L250.895,319.949z"/>
							</g>
							<path opacity="0.2" fill="#F39C12" enable-background="new    " d="M276.859,68.309l4.546,0.057
								c3.129,0.032,5.653,2.621,5.618,5.749l-2.521,216.909c-0.036,3.127-2.622,5.652-5.753,5.617l-4.542-0.052
								c-3.126-0.038-5.657-2.626-5.621-5.749l2.52-216.912C271.146,70.802,273.731,68.274,276.859,68.309z"/>
						</g>
					</g>
					<g>
						<defs>
							<circle id="SVGID_27_" cx="177.648" cy="211.155" r="323.411"/>
						</defs>
						<clipPath id="SVGID_28_">
							<use xlink:href="#SVGID_27_"  overflow="visible"/>
						</clipPath>
						<path clip-path="url(#SVGID_28_)" fill="#F39C12" d="M296.62,327.688c-61.666,0-111.658,49.989-111.658,111.659
							C184.962,501.011,234.954,551,296.62,551s111.653-49.989,111.653-111.652C408.273,377.678,358.286,327.688,296.62,327.688z
							 M296.62,512.909c-18.672,0-33.806-15.136-33.806-33.807c0-18.672,15.134-33.806,33.806-33.806
							c18.667,0,33.803,15.134,33.803,33.806C330.423,497.773,315.287,512.909,296.62,512.909z"/>
					</g>
				</g>
				<g>
					<g>
						<defs>
							<circle id="SVGID_29_" cx="177.648" cy="211.155" r="323.411"/>
						</defs>
						<clipPath id="SVGID_30_">
							<use xlink:href="#SVGID_29_"  overflow="visible"/>
						</clipPath>
					</g>
					<g>
						<defs>
							<circle id="SVGID_31_" cx="177.648" cy="211.155" r="323.411"/>
						</defs>
						<clipPath id="SVGID_32_">
							<use xlink:href="#SVGID_31_"  overflow="visible"/>
						</clipPath>
					</g>
				</g>
			</g>
		</g>
	</g>
</g>
</svg>
