<?xml version="1.0" encoding="utf-8"?>
<!-- Generator: Adobe Illustrator 16.0.4, SVG Export Plug-In . SVG Version: 6.00 Build 0)  -->
<!DOCTYPE svg PUBLIC "-//W3C//DTD SVG 1.1//EN" "http://www.w3.org/Graphics/SVG/1.1/DTD/svg11.dtd">
<svg version="1.1" id="Layer_1" xmlns="http://www.w3.org/2000/svg" xmlns:xlink="http://www.w3.org/1999/xlink" x="0px" y="0px"
	 width="370px" height="472px" viewBox="0 0 370 472" enable-background="new 0 0 370 472" xml:space="preserve">
<g>
	<defs>
		<rect id="SVGID_1_" width="370" height="472"/>
	</defs>
	<clipPath id="SVGID_2_">
		<use xlink:href="#SVGID_1_"  overflow="visible"/>
	</clipPath>
	<g clip-path="url(#SVGID_2_)">
		<rect fill="#2ECC71" width="370" height="472"/>
	</g>
	<g clip-path="url(#SVGID_2_)">
		<g>
			
				<image overflow="visible" opacity="0.3" width="447" height="235" xlink:href="4B9307923F2A611F.png"  transform="matrix(1 0 0 1 -38.5 118.5)">
			</image>
			<g>
				<rect x="-28.693" y="128.452" fill="#ECF0F1" width="427.387" height="215.096"/>
			</g>
		</g>
		<g>
			<path fill="#A1C2BA" d="M66.045,319.584c-28.837,0-29.673-27.165-35.941-34.686c-7.522-7.105-43.464-20.896-43.464-56.003
				c0-35.104,14.627-76.479,79.405-76.479s79.405,41.792,79.405,76.479c0,34.69-35.941,48.898-43.465,56.003
				C95.718,292.419,94.882,319.584,66.045,319.584z"/>
			<path fill="#5D736D" d="M70.224,278.629c0,3.344,2.09,3.344,4.179,3.344c2.091,0,4.181,0,4.181-3.344
				c0-5.014-8.359-15.044-8.359-12.956C70.224,267.764,70.224,273.615,70.224,278.629z"/>
			<path fill="#003B3D" d="M75.657,255.643c1.254,1.254,25.074,4.598,38.449-8.775c13.373-13.374,10.448-36.779,8.775-38.45
				c-1.672-1.67-25.074-4.597-38.448,8.776C71.06,230.568,74.402,254.39,75.657,255.643z"/>
			<path fill="#5D736D" d="M61.865,265.673c0-2.088-8.358,7.942-8.358,12.956c0,3.344,2.09,3.344,4.18,3.344
				c2.089,0,4.179,0,4.179-3.344C61.865,273.615,61.865,267.764,61.865,265.673z"/>
			<path fill="#003B3D" d="M47.655,217.193c-13.373-13.373-36.776-10.446-38.447-8.776c-1.673,1.671-4.598,25.076,8.776,38.45
				c13.373,13.373,37.195,10.029,38.448,8.775C57.687,254.39,61.029,230.568,47.655,217.193z"/>
			<g>
				<path fill="#006064" d="M106.584,216.777c-0.837,0-9.613,2.088-15.047,7.103c-5.014,5.015-7.521,13.792-7.521,15.047
					c-0.417,2.088,0.836,4.597,2.926,5.015c0.418,0,0.835,0,0.835,0c2.091,0,3.761-1.253,4.181-3.345
					c0.417-2.089,2.507-7.938,5.433-10.865c2.926-2.925,8.776-4.598,10.866-5.015c2.089-0.418,3.762-2.507,3.342-5.017
					C111.181,217.612,108.673,216.358,106.584,216.777z"/>
				<path fill="#006064" d="M40.552,223.88c-5.016-5.015-14.209-7.103-15.046-7.103c-2.089-0.418-4.597,0.835-5.015,3.343
					c-0.417,2.09,0.836,4.597,3.344,5.013c2.089,0.418,7.939,2.09,10.865,5.017c2.927,2.925,5.016,8.777,5.434,10.865
					c0.418,2.091,2.089,3.345,4.18,3.345c0.418,0,0.835,0,0.835,0c2.09-0.418,3.762-2.926,2.926-5.016
					C48.074,237.672,45.566,228.895,40.552,223.88z"/>
			</g>
		</g>
		<g>
			<rect x="185.27" y="153.013" fill="#95A5A6" width="144.043" height="6.29"/>
			<rect x="185.27" y="184.46" fill="#95A5A6" width="112.31" height="6.29"/>
			<rect x="185.27" y="215.907" fill="#95A5A6" width="170.675" height="6.29"/>
			<rect x="185.27" y="247.354" fill="#95A5A6" width="137.734" height="6.289"/>
		</g>
		<g>
			<polygon fill="#F39C12" points="211.115,269.909 219.186,286.262 237.23,288.885 224.174,301.612 227.256,319.584 211.115,311.1 
				194.975,319.584 198.058,301.612 185,288.885 203.046,286.262 			"/>
			<polygon fill="#F39C12" points="269.638,269.909 277.705,286.262 295.751,288.885 282.694,301.612 285.777,319.584 
				269.638,311.1 253.495,319.584 256.577,301.612 243.521,288.885 261.565,286.262 			"/>
			<polygon fill="#F39C12" points="328.157,269.909 336.228,286.262 354.272,288.885 341.214,301.612 344.297,319.584 
				328.157,311.1 312.018,319.584 315.099,301.612 302.04,288.885 320.086,286.262 			"/>
		</g>
	</g>
</g>
</svg>
