<?xml version="1.0" encoding="utf-8"?>
<!-- Generator: Adobe Illustrator 16.0.4, SVG Export Plug-In . SVG Version: 6.00 Build 0)  -->
<!DOCTYPE svg PUBLIC "-//W3C//DTD SVG 1.1//EN" "http://www.w3.org/Graphics/SVG/1.1/DTD/svg11.dtd">
<svg version="1.1" id="Layer_1" xmlns="http://www.w3.org/2000/svg" xmlns:xlink="http://www.w3.org/1999/xlink" x="0px" y="0px"
	 width="370px" height="472px" viewBox="0 0 370 472" enable-background="new 0 0 370 472" xml:space="preserve">
<g>
	<defs>
		<rect id="SVGID_1_" width="370" height="472"/>
	</defs>
	<clipPath id="SVGID_2_">
		<use xlink:href="#SVGID_1_"  overflow="visible"/>
	</clipPath>
	<g clip-path="url(#SVGID_2_)">
		<rect fill="#2C3E50" width="370" height="472"/>
	</g>
	<g display="none" clip-path="url(#SVGID_2_)">
		<g display="inline">
			<rect x="0" fill="#2C3E50" width="370" height="472"/>
		</g>
		<g display="inline">
			<g>
				<polygon fill="#34495E" points="0,472 0,472 0,471.998 				"/>
			</g>
			<g>
				<polygon fill="#34495E" points="367.299,471.998 367.299,0 366.499,0 183.65,235.485 				"/>
			</g>
		</g>
		<g display="inline">
			<g>
				<polygon fill="#34495E" points="183.65,235.485 0.801,0 0,0 0,471.998 				"/>
			</g>
			<g>
				<polygon fill="#34495E" points="367.299,471.998 367.299,472 367.299,472 				"/>
			</g>
		</g>
	</g>
	<g clip-path="url(#SVGID_2_)">
		<g display="none">
			
				<image display="inline" overflow="visible" opacity="0.3" width="559" height="558" xlink:href="733782DBCD2E21D3.png"  transform="matrix(1 0 0 1 -110.5088 -16.4844)">
			</image>
			<g display="inline">
				<g>
					<defs>
						<path id="SVGID_3_" d="M169.435-7.45c149.098,0,269.964,120.871,269.964,269.971c0,149.098-120.866,269.965-269.964,269.965
							c-149.102,0-269.968-120.867-269.968-269.965C-100.533,113.421,20.333-7.45,169.435-7.45z"/>
					</defs>
					<clipPath id="SVGID_4_">
						<use xlink:href="#SVGID_3_"  overflow="visible"/>
					</clipPath>
				</g>
				<g>
					<defs>
						<path id="SVGID_5_" d="M169.435-7.45c149.098,0,269.964,120.871,269.964,269.971c0,149.098-120.866,269.965-269.964,269.965
							c-149.102,0-269.968-120.867-269.968-269.965C-100.533,113.421,20.333-7.45,169.435-7.45z"/>
					</defs>
					<clipPath id="SVGID_6_">
						<use xlink:href="#SVGID_5_"  overflow="visible"/>
					</clipPath>
					<g clip-path="url(#SVGID_6_)">
						<path fill="#E8B750" d="M169.435-7.45c149.098,0,269.964,120.871,269.964,269.971c0,149.098-120.866,269.965-269.964,269.965
							c-149.102,0-269.968-120.867-269.968-269.965C-100.533,113.421,20.333-7.45,169.435-7.45z"/>
					</g>
				</g>
				<g>
					<defs>
						<path id="SVGID_7_" d="M169.435-7.45c149.098,0,269.964,120.871,269.964,269.971c0,149.098-120.866,269.965-269.964,269.965
							c-149.102,0-269.968-120.867-269.968-269.965C-100.533,113.421,20.333-7.45,169.435-7.45z"/>
					</defs>
					<clipPath id="SVGID_8_">
						<use xlink:href="#SVGID_7_"  overflow="visible"/>
					</clipPath>
				</g>
			</g>
		</g>
		<g>
			<defs>
				<path id="SVGID_9_" d="M169.435-7.45c149.098,0,269.964,120.871,269.964,269.971c0,149.098-120.866,269.965-269.964,269.965
					c-149.102,0-269.968-120.867-269.968-269.965C-100.533,113.421,20.333-7.45,169.435-7.45z"/>
			</defs>
			<clipPath id="SVGID_10_">
				<use xlink:href="#SVGID_9_"  overflow="visible"/>
			</clipPath>
			<g clip-path="url(#SVGID_10_)">
				<path fill="#FFFFFF" d="M81.924,221.773c105.701,0,191.398,85.69,191.398,191.394S187.625,604.562,81.924,604.562
					s-191.392-85.692-191.392-191.396S-23.777,221.773,81.924,221.773z"/>
				<path fill="#FFFFFF" d="M292.644,378.078H276.35c-19.297,0-35.089,18.615-35.089,41.371l0,0
					c0,22.754,15.792,41.372,35.089,41.372h16.294c19.298,0,35.089-18.618,35.089-41.372l0,0
					C327.732,396.693,311.941,378.078,292.644,378.078z M292.644,435.953H276.35c-7.59,0-13.996-7.56-13.996-16.504
					c0-8.948,6.406-16.504,13.996-16.504h16.294c7.59,0,13.997,7.556,13.997,16.504
					C306.641,428.394,300.233,435.953,292.644,435.953z"/>
				<path fill="#660000" d="M81.924,558.439c-82.271,0-149.209-66.939-149.209-149.211c0-82.275,66.938-149.211,149.209-149.211
					c82.278,0,149.213,66.938,149.213,149.211C231.137,491.5,164.202,558.439,81.924,558.439z"/>
				<path opacity="0.67" fill="#A4674D" enable-background="new    " d="M81.924,260.018c-34.887,0-67.011,12.042-92.448,32.178
					c-19.721,44.886,29.35,85.377,72.22,92.695c21.092,4.218,27.419,31.636,17.928,53.782
					c-12.654,27.418-6.327,63.273,21.092,83.311c17.533,12.374,38.098,5.598,56.753,12.203c0.325-0.351,0.454-0.876,0.195-1.658
					c0.259,0.782,0.13,1.308-0.195,1.658c0.417,0.144,0.833,0.292,1.248,0.451c-0.414-0.159-0.831-0.308-1.248-0.451
					c-0.549,0.584-1.656,0.654-2.39,0.607c1.755,0.49,3.507,0.922,5.263,1.319c42.459-26.331,70.794-73.358,70.794-126.885
					C231.137,326.953,164.202,260.018,81.924,260.018z"/>
			</g>
		</g>
		<g>
			<defs>
				<path id="SVGID_11_" d="M169.435-7.45c149.098,0,269.964,120.871,269.964,269.971c0,149.098-120.866,269.965-269.964,269.965
					c-149.102,0-269.968-120.867-269.968-269.965C-100.533,113.421,20.333-7.45,169.435-7.45z"/>
			</defs>
			<clipPath id="SVGID_12_">
				<use xlink:href="#SVGID_11_"  overflow="visible"/>
			</clipPath>
			<path clip-path="url(#SVGID_12_)" fill="#D99748" d="M369.624,159.65c0-51.834-42.02-93.856-93.853-93.856
				c-51.835,0-93.858,42.022-93.858,93.856c0,1.713,0.055,3.414,0.143,5.109c5.679,8.962,14.267,16.683,24.114,22.31
				c8.437,5.271,8.437,23.201,22.144,24.256c24.257,3.161,54.838-8.438,61.165,20.036c2.104,7.569,5.557,14.127,10.141,19.086
				C339.906,239.894,369.624,203.244,369.624,159.65z"/>
		</g>
		<g>
			<defs>
				<path id="SVGID_13_" d="M169.435-7.45c149.098,0,269.964,120.871,269.964,269.971c0,149.098-120.866,269.965-269.964,269.965
					c-149.102,0-269.968-120.867-269.968-269.965C-100.533,113.421,20.333-7.45,169.435-7.45z"/>
			</defs>
			<clipPath id="SVGID_14_">
				<use xlink:href="#SVGID_13_"  overflow="visible"/>
			</clipPath>
			<g opacity="0.43" clip-path="url(#SVGID_14_)">
				
					<image overflow="visible" enable-background="new    " width="246" height="242" xlink:href="733782DBCD2E21D1.png"  transform="matrix(1.0546 0 0 1.0546 143.2554 27.8276)">
				</image>
			</g>
		</g>
		<g>
			<defs>
				<path id="SVGID_15_" d="M169.435-7.45c149.098,0,269.964,120.871,269.964,269.971c0,149.098-120.866,269.965-269.964,269.965
					c-149.102,0-269.968-120.867-269.968-269.965C-100.533,113.421,20.333-7.45,169.435-7.45z"/>
			</defs>
			<clipPath id="SVGID_16_">
				<use xlink:href="#SVGID_15_"  overflow="visible"/>
			</clipPath>
			<path clip-path="url(#SVGID_16_)" fill="#660000" d="M217.454,139.704c-2.663-1.064-5.745-0.792-8.17,0.745
				c-3.282,2.083-4.81,6.329-2.665,9.793c0.188,0.3,0.399,0.58,0.631,0.829c-0.255,2.506,1.333,4.955,3.82,5.65
				c2.803,0.772,5.745,1.1,8.637,0.837c2.355-0.214,4.434-1.454,5.082-3.871C226.383,147.791,222.984,141.913,217.454,139.704z"/>
		</g>
		<g>
			<defs>
				<path id="SVGID_17_" d="M169.435-7.45c149.098,0,269.964,120.871,269.964,269.971c0,149.098-120.866,269.965-269.964,269.965
					c-149.102,0-269.968-120.867-269.968-269.965C-100.533,113.421,20.333-7.45,169.435-7.45z"/>
			</defs>
			<clipPath id="SVGID_18_">
				<use xlink:href="#SVGID_17_"  overflow="visible"/>
			</clipPath>
			<path clip-path="url(#SVGID_18_)" fill="#660000" d="M287.038,97.505c-3.156-1.987-7.231-1.308-10.575-0.302
				c-2.24,0.672-3.892,2.702-3.875,5.084c0.01,0.726,0.017,1.45,0.02,2.169c0,0.384,0.055,0.754,0.131,1.111
				c-1.031,2.472,0.114,4.969,2.229,6.537c5.387,4.001,14.856,1.748,16.525-5.192C292.41,103.07,290.202,99.497,287.038,97.505z"/>
		</g>
		<g>
			<defs>
				<path id="SVGID_19_" d="M169.435-7.45c149.098,0,269.964,120.871,269.964,269.971c0,149.098-120.866,269.965-269.964,269.965
					c-149.102,0-269.968-120.867-269.968-269.965C-100.533,113.421,20.333-7.45,169.435-7.45z"/>
			</defs>
			<clipPath id="SVGID_20_">
				<use xlink:href="#SVGID_19_"  overflow="visible"/>
			</clipPath>
			<path clip-path="url(#SVGID_20_)" fill="#660000" d="M329.552,174.749c0-2.114-1.439-4.223-3.424-4.98
				c-0.551-0.587-1.11-1.07-1.829-1.547c-2.646-1.785-7.169-0.732-8.526,2.253c-0.639,1.408-0.785,2.683-0.595,3.943
				c-1.191,1.643-1.329,3.901-0.314,5.79c0.842,1.575,2.386,2.691,4.098,3.143c1.229,0.323,2.417,0.232,3.528-0.14
				c0.563,0.21,1.162,0.343,1.786,0.343c2.879,0,5.276-2.398,5.276-5.274C329.552,177.103,329.552,175.928,329.552,174.749z"/>
		</g>
		<g>
			<defs>
				<path id="SVGID_21_" d="M169.435-7.45c149.098,0,269.964,120.871,269.964,269.971c0,149.098-120.866,269.965-269.964,269.965
					c-149.102,0-269.968-120.867-269.968-269.965C-100.533,113.421,20.333-7.45,169.435-7.45z"/>
			</defs>
			<clipPath id="SVGID_22_">
				<use xlink:href="#SVGID_21_"  overflow="visible"/>
			</clipPath>
			<path clip-path="url(#SVGID_22_)" fill="#660000" d="M270.429,190.914c-0.477-2.463-2.863-3.626-5.08-3.874
				c-3.396-0.377-6.717,1.44-8.726,4.104c-1.269,1.05-2.105,2.719-2.105,4.251c0,3.143,2.423,4.918,5.275,5.272
				c2.419,0.3,4.822,0.101,6.975-1.148C269.845,197.735,271.08,194.28,270.429,190.914z"/>
		</g>
		<g>
			<defs>
				<path id="SVGID_23_" d="M169.435-7.45c149.098,0,269.964,120.871,269.964,269.971c0,149.098-120.866,269.965-269.964,269.965
					c-149.102,0-269.968-120.867-269.968-269.965C-100.533,113.421,20.333-7.45,169.435-7.45z"/>
			</defs>
			<clipPath id="SVGID_24_">
				<use xlink:href="#SVGID_23_"  overflow="visible"/>
			</clipPath>
			<path clip-path="url(#SVGID_24_)" fill="#660000" d="M356.333,125.141c-0.025-0.047-0.064-0.078-0.092-0.125
				c-0.102-1.19-0.576-2.351-1.483-3.23c-0.945-0.922-1.896-1.847-2.845-2.775c-3.277-3.192-9.007-0.915-8.999,3.729
				c0,1.872,0,3.744,0,5.612c0,2.152,1.587,4.721,3.869,5.083c2.771,0.444,5.13,0.179,7.656-1.078
				C357.014,131.077,357.709,127.494,356.333,125.141z"/>
		</g>
		<g>
			<defs>
				<path id="SVGID_25_" d="M169.435-7.45c149.098,0,269.964,120.871,269.964,269.971c0,149.098-120.866,269.965-269.964,269.965
					c-149.102,0-269.968-120.867-269.968-269.965C-100.533,113.421,20.333-7.45,169.435-7.45z"/>
			</defs>
			<clipPath id="SVGID_26_">
				<use xlink:href="#SVGID_25_"  overflow="visible"/>
			</clipPath>
			<g clip-path="url(#SVGID_26_)">
				
					<image overflow="visible" enable-background="new    " width="90" height="85" xlink:href="733782DBCD2E21D7.png"  transform="matrix(1.0546 0 0 1.0546 135.877 161.7554)">
				</image>
			</g>
		</g>
		<g>
			<defs>
				<path id="SVGID_27_" d="M169.435-7.45c149.098,0,269.964,120.871,269.964,269.971c0,149.098-120.866,269.965-269.964,269.965
					c-149.102,0-269.968-120.867-269.968-269.965C-100.533,113.421,20.333-7.45,169.435-7.45z"/>
			</defs>
			<clipPath id="SVGID_28_">
				<use xlink:href="#SVGID_27_"  overflow="visible"/>
			</clipPath>
			<g clip-path="url(#SVGID_28_)">
				
					<image overflow="visible" enable-background="new    " width="91" height="92" xlink:href="733782DBCD2E21D0.png"  transform="matrix(1.0546 0 0 1.0546 182.2754 202.8867)">
				</image>
			</g>
		</g>
		<g>
			<defs>
				<path id="SVGID_29_" d="M169.435-7.45c149.098,0,269.964,120.871,269.964,269.971c0,149.098-120.866,269.965-269.964,269.965
					c-149.102,0-269.968-120.867-269.968-269.965C-100.533,113.421,20.333-7.45,169.435-7.45z"/>
			</defs>
			<clipPath id="SVGID_30_">
				<use xlink:href="#SVGID_29_"  overflow="visible"/>
			</clipPath>
			<g clip-path="url(#SVGID_30_)">
				
					<image overflow="visible" enable-background="new    " width="86" height="86" xlink:href="733782DBCD2E21DE.png"  transform="matrix(1.0546 0 0 1.0546 221.2949 190.2324)">
				</image>
			</g>
		</g>
	</g>
</g>
</svg>
