<?xml version="1.0" encoding="utf-8"?>
<!-- Generator: Adobe Illustrator 16.0.4, SVG Export Plug-In . SVG Version: 6.00 Build 0)  -->
<!DOCTYPE svg PUBLIC "-//W3C//DTD SVG 1.1//EN" "http://www.w3.org/Graphics/SVG/1.1/DTD/svg11.dtd">
<svg version="1.1" id="Layer_1" xmlns="http://www.w3.org/2000/svg" xmlns:xlink="http://www.w3.org/1999/xlink" x="0px" y="0px"
	 width="370px" height="472px" viewBox="0 0 370 472" enable-background="new 0 0 370 472" xml:space="preserve">
<g>
	<defs>
		<rect id="SVGID_1_" width="370" height="472"/>
	</defs>
	<clipPath id="SVGID_2_">
		<use xlink:href="#SVGID_1_"  overflow="visible"/>
	</clipPath>
	<g clip-path="url(#SVGID_2_)">
		<rect fill="#27AE60" width="370" height="472"/>
	</g>
	<g display="none" clip-path="url(#SVGID_2_)">
		<g display="inline">
			<rect x="0" fill="#2C3E50" width="370" height="472"/>
		</g>
		<g display="inline">
			<g>
				<polygon fill="#34495E" points="0,472 0,472 0,471.998 				"/>
			</g>
			<g>
				<polygon fill="#34495E" points="367.299,471.998 367.299,0 366.499,0 183.65,235.485 				"/>
			</g>
		</g>
		<g display="inline">
			<g>
				<polygon fill="#34495E" points="183.65,235.485 0.801,0 0,0 0,471.998 				"/>
			</g>
			<g>
				<polygon fill="#34495E" points="367.299,471.998 367.299,472 367.299,472 				"/>
			</g>
		</g>
	</g>
	<g clip-path="url(#SVGID_2_)">
		<g display="none">
			
				<image display="inline" overflow="visible" opacity="0.3" width="413" height="413" xlink:href="D868A2700BEBD89F.png"  transform="matrix(1 0 0 1 -26.5 29.5)">
			</image>
			<g display="inline">
				<g>
					<defs>
						<circle id="SVGID_3_" cx="179.886" cy="235.858" r="196.662"/>
					</defs>
					<clipPath id="SVGID_4_">
						<use xlink:href="#SVGID_3_"  overflow="visible"/>
					</clipPath>
				</g>
				<g>
					<defs>
						<circle id="SVGID_5_" cx="179.886" cy="235.858" r="196.662"/>
					</defs>
					<clipPath id="SVGID_6_">
						<use xlink:href="#SVGID_5_"  overflow="visible"/>
					</clipPath>
					<g clip-path="url(#SVGID_6_)">
						<circle fill="#27AE60" cx="179.886" cy="235.858" r="196.662"/>
					</g>
				</g>
				<g>
					<defs>
						<circle id="SVGID_7_" cx="179.886" cy="235.858" r="196.662"/>
					</defs>
					<clipPath id="SVGID_8_">
						<use xlink:href="#SVGID_7_"  overflow="visible"/>
					</clipPath>
				</g>
			</g>
		</g>
		<g>
			<defs>
				<circle id="SVGID_9_" cx="141.382" cy="306.748" r="257.335"/>
			</defs>
			<clipPath id="SVGID_10_">
				<use xlink:href="#SVGID_9_"  overflow="visible"/>
			</clipPath>
			<g clip-path="url(#SVGID_10_)">
				
					<image overflow="visible" opacity="0.3" width="409" height="470" xlink:href="D868A2700BEBD89D.png"  transform="matrix(1 0 0 1 -46.5 64.5)">
				</image>
				<g>
					<g>
						<g>
							<path fill="#2C3E50" d="M317.085,524.894H-16.819c-11.102,0-20.103-9.002-20.103-20.105V186.52
								c0-11.104,9-20.103,20.103-20.103h333.906c11.103,0,20.104,9,20.104,20.103v318.268
								C337.191,515.89,328.189,524.894,317.085,524.894z"/>
							<path fill="#2C3E50" d="M160.995,477.497h-21.802c-2.398,0-4.363-1.962-4.363-4.362v-1.212c0-2.396,1.965-4.359,4.363-4.359
								h21.802c2.399,0,4.361,1.964,4.361,4.359v1.212C165.356,475.535,163.394,477.497,160.995,477.497z"/>
						</g>
						<rect x="311.531" y="226.247" fill="#E74C3C" width="41.328" height="34.756"/>
						<rect x="311.531" y="282.519" fill="#F1C40F" width="41.328" height="34.76"/>
						<rect x="311.531" y="338.792" fill="#78C1B0" width="41.328" height="34.762"/>
						<g>
							<polygon fill="#F1C40F" points="231.887,347.513 194.759,347.513 194.759,95.864 213.323,74.32 231.887,95.864 							"/>
							<path fill="#E74C3C" d="M194.759,95.864c0,0,8.066,5.672,18.562,0v251.648h-18.562V95.864z"/>
							<path fill="#2C3E50" d="M213.323,95.864c0,0,8.064,5.672,18.563,0v251.648h-18.563V95.864z"/>
							<polygon fill="#2C3E50" points="218.938,80.842 213.323,74.32 207.703,80.842 							"/>
						</g>
						<rect x="311.531" y="395.071" fill="#BDC3C7" stroke="#FFFFFF" stroke-miterlimit="10" width="41.328" height="34.756"/>
						<rect x="153.707" y="186.946" fill="#ECF0F1" width="163.058" height="317.418"/>
						<rect x="-14.609" y="186.946" fill="#ECF0F1" width="163.057" height="317.418"/>
						<rect x="21.161" y="186.519" fill="#F1C40F" width="66.282" height="75.479"/>
						<g>
							<path fill="#2C3E50" d="M54.302,211.638c-6.099,0-11.061-6.44-11.061-14.364v-11.699c0-7.92,4.962-14.362,11.061-14.362
								c6.098,0,11.058,6.448,11.058,14.362v11.699C65.36,205.198,60.4,211.638,54.302,211.638z M54.302,178.393
								c-3.049,0-5.529,3.223-5.529,7.181v11.7c0,3.958,2.48,7.183,5.529,7.183c3.047,0,5.529-3.225,5.529-7.183v-11.7
								C59.831,181.616,57.349,178.393,54.302,178.393z"/>
						</g>
						<path fill="#2C3E50" d="M160.995,223.264h-21.802c-2.398,0-4.363-1.96-4.363-4.357v-1.211c0-2.401,1.965-4.362,4.363-4.362
							h21.802c2.399,0,4.361,1.961,4.361,4.362v1.211C165.356,221.304,163.394,223.264,160.995,223.264z"/>
						<path fill="#2C3E50" d="M160.995,259.585h-21.802c-2.398,0-4.363-1.963-4.363-4.361v-1.21c0-2.4,1.965-4.362,4.363-4.362
							h21.802c2.399,0,4.361,1.962,4.361,4.362v1.21C165.356,257.622,163.394,259.585,160.995,259.585z"/>
						<path fill="#2C3E50" d="M160.995,295.904h-21.802c-2.398,0-4.363-1.964-4.363-4.361v-1.212c0-2.397,1.965-4.361,4.363-4.361
							h21.802c2.399,0,4.361,1.964,4.361,4.361v1.212C165.356,293.94,163.394,295.904,160.995,295.904z"/>
						<path fill="#2C3E50" d="M160.995,332.221h-21.802c-2.398,0-4.363-1.96-4.363-4.357v-1.214c0-2.398,1.965-4.358,4.363-4.358
							h21.802c2.399,0,4.361,1.96,4.361,4.358v1.214C165.356,330.261,163.394,332.221,160.995,332.221z"/>
						<path fill="#2C3E50" d="M160.995,368.542h-21.802c-2.398,0-4.363-1.964-4.363-4.365v-1.208c0-2.399,1.965-4.361,4.363-4.361
							h21.802c2.399,0,4.361,1.962,4.361,4.361v1.208C165.356,366.578,163.394,368.542,160.995,368.542z"/>
						<path fill="#2C3E50" d="M160.995,404.862h-21.802c-2.398,0-4.363-1.966-4.363-4.364v-1.21c0-2.397,1.965-4.358,4.363-4.358
							h21.802c2.399,0,4.361,1.961,4.361,4.358v1.21C165.356,402.896,163.394,404.862,160.995,404.862z"/>
						<path fill="#2C3E50" d="M160.995,441.178h-21.802c-2.398,0-4.363-1.961-4.363-4.359v-1.212c0-2.399,1.965-4.358,4.363-4.358
							h21.802c2.399,0,4.361,1.959,4.361,4.358v1.212C165.356,439.217,163.394,441.178,160.995,441.178z"/>
					</g>
				</g>
			</g>
		</g>
	</g>
</g>
</svg>
