<?xml version="1.0" encoding="utf-8"?>
<!-- Generator: Adobe Illustrator 16.0.4, SVG Export Plug-In . SVG Version: 6.00 Build 0)  -->
<!DOCTYPE svg PUBLIC "-//W3C//DTD SVG 1.1//EN" "http://www.w3.org/Graphics/SVG/1.1/DTD/svg11.dtd">
<svg version="1.1" id="Layer_1" xmlns="http://www.w3.org/2000/svg" xmlns:xlink="http://www.w3.org/1999/xlink" x="0px" y="0px"
	 width="370px" height="472px" viewBox="0 0 370 472" enable-background="new 0 0 370 472" xml:space="preserve">
<g>
	<defs>
		<rect id="SVGID_1_" width="370" height="472"/>
	</defs>
	<clipPath id="SVGID_2_">
		<use xlink:href="#SVGID_1_"  overflow="visible"/>
	</clipPath>
	<g clip-path="url(#SVGID_2_)">
		<rect fill="#E74C3C" width="370" height="472"/>
	</g>
	<g display="none" clip-path="url(#SVGID_2_)">
		<g display="inline">
			<rect x="0" fill="#2C3E50" width="370" height="472"/>
		</g>
		<g display="inline">
			<g>
				<polygon fill="#34495E" points="0,472 0,472 0,471.998 				"/>
			</g>
			<g>
				<polygon fill="#34495E" points="367.299,471.998 367.299,0 366.499,0 183.65,235.485 				"/>
			</g>
		</g>
		<g display="inline">
			<g>
				<polygon fill="#34495E" points="183.65,235.485 0.801,0 0,0 0,471.998 				"/>
			</g>
			<g>
				<polygon fill="#34495E" points="367.299,471.998 367.299,472 367.299,472 				"/>
			</g>
		</g>
	</g>
	<g clip-path="url(#SVGID_2_)">
		<g display="none">
			
				<image display="inline" overflow="visible" opacity="0.3" width="449" height="449" xlink:href="84326E4B1D38C5C2.png"  transform="matrix(1 0 0 1 -39.5 11.5)">
			</image>
			<g display="inline">
				<g>
					<defs>
						<circle id="SVGID_3_" cx="185.001" cy="236" r="215.106"/>
					</defs>
					<clipPath id="SVGID_4_">
						<use xlink:href="#SVGID_3_"  overflow="visible"/>
					</clipPath>
				</g>
				<g>
					<defs>
						<circle id="SVGID_5_" cx="185.001" cy="236" r="215.106"/>
					</defs>
					<clipPath id="SVGID_6_">
						<use xlink:href="#SVGID_5_"  overflow="visible"/>
					</clipPath>
					<g clip-path="url(#SVGID_6_)">
						<circle fill="#E74C3C" cx="185.001" cy="236" r="215.106"/>
					</g>
				</g>
				<g>
					<defs>
						<circle id="SVGID_7_" cx="185.001" cy="236" r="215.106"/>
					</defs>
					<clipPath id="SVGID_8_">
						<use xlink:href="#SVGID_7_"  overflow="visible"/>
					</clipPath>
				</g>
			</g>
		</g>
		<g>
			<defs>
				<circle id="SVGID_9_" cx="185.001" cy="236" r="215.106"/>
			</defs>
			<clipPath id="SVGID_10_">
				<use xlink:href="#SVGID_9_"  overflow="visible"/>
			</clipPath>
			<g clip-path="url(#SVGID_10_)">
				<g>
					
						<image overflow="visible" opacity="0.3" width="356" height="307" xlink:href="84326E4B1D38C5C6.png"  transform="matrix(1 0 0 1 6.5 135.5)">
					</image>
					<g>
						<g>
							<path fill="#95A5A6" d="M343.293,372.668H26.231c-5.545,0-10.081-4.538-10.081-10.084V155.308
								c0-5.546,4.536-10.083,10.081-10.083h317.062c5.545,0,10.083,4.537,10.083,10.083v207.276
								C353.376,368.13,348.838,372.668,343.293,372.668z"/>
							<rect x="152.189" y="341.803" fill="#95A5A6" width="66.691" height="74.269"/>
							<path fill="#95A5A6" d="M269.588,432.854H101.482c-5.546,0-10.083-4.535-10.083-10.083v-6.185
								c0-5.548,4.537-10.082,10.083-10.082h168.105c5.546,0,10.083,4.534,10.083,10.082v6.185
								C279.671,428.318,275.134,432.854,269.588,432.854z"/>
						</g>
					</g>
				</g>
				
					<rect x="32.955" y="164.824" fill="#2980B9" stroke="#34495E" stroke-width="6" stroke-miterlimit="10" width="303.616" height="171.347"/>
				<g>
					<circle fill="none" cx="183.563" cy="236" r="215.106"/>
				</g>
				<circle fill="#34495E" cx="185.534" cy="355.771" r="7.816"/>
				<rect x="71.796" y="76.542" fill="#ECF0F1" width="225.933" height="255.243"/>
				<rect x="71.796" y="313.951" fill="#C0392B" width="225.933" height="18.039"/>
				<rect x="71.796" y="130.413" fill="#34495E" width="225.933" height="52.298"/>
				<g>
					<g>
						<path fill="#C0392B" d="M106.37,105.383c0,4.473-3.639,8.119-8.126,8.119c-4.486,0-8.124-3.646-8.124-8.119
							c0-4.486,3.638-8.133,8.124-8.133C102.731,97.25,106.37,100.897,106.37,105.383z"/>
						<g>
							<path fill="#F1C40F" d="M85.071,112.536c-0.901,0-3.642,0-4.326-1.878c-0.606-1.664,0.811-3.572,4.331-5.837
								c2.905-1.87,6.95-3.791,11.394-5.411c5.821-2.12,11.409-3.387,14.948-3.387c0.899,0,3.643,0,4.326,1.877
								c0.607,1.664-0.81,3.575-4.33,5.837c-2.904,1.87-6.951,3.789-11.396,5.41C94.196,111.269,88.609,112.536,85.071,112.536z
								 M83.178,109.762c0.214,0.095,0.742,0.254,1.894,0.254c3.21,0,8.608-1.242,14.085-3.239c8.781-3.2,13.628-6.708,14.156-7.982
								c-0.214-0.096-0.743-0.251-1.895-0.251c-3.211,0-8.608,1.239-14.085,3.236C88.551,104.981,83.705,108.489,83.178,109.762z"/>
						</g>
					</g>
					<g>
						<path fill="none" d="M90.151,104.85c-4.247,2.14-6.615,4.045-6.974,4.912c0.214,0.095,0.742,0.254,1.894,0.254
							c1.559,0,3.637-0.295,5.988-0.826c2.488-0.559,5.28-1.387,8.097-2.41c2.733-1,5.087-2.026,7.047-3.004
							c4.335-2.167,6.746-4.102,7.109-4.98c-0.214-0.098-0.743-0.253-1.895-0.253c-1.863,0-4.469,0.421-7.395,1.161
							c-2.114,0.535-4.395,1.24-6.689,2.075C94.533,102.798,92.139,103.849,90.151,104.85z"/>
						<path fill="none" d="M91.06,109.19c-2.352,0.529-4.43,0.823-5.988,0.823c-1.151,0-1.68-0.156-1.894-0.253
							c0.358-0.867,2.727-2.77,6.974-4.91c0.078-1.162,0.396-2.253,0.91-3.227c-2.274,1.039-4.32,2.122-5.983,3.193
							c-3.521,2.265-4.938,4.174-4.332,5.837c0.685,1.88,3.426,1.88,4.326,1.88c2.01,0,4.684-0.412,7.684-1.152
							C92.073,110.755,91.495,110.017,91.06,109.19z"/>
						<path fill="none" d="M115.744,97.898c-0.684-1.876-3.427-1.876-4.326-1.876c-2.559,0-6.189,0.664-10.203,1.833
							c1.062,0.417,2.019,1.048,2.809,1.849c2.927-0.74,5.531-1.161,7.395-1.161c1.151,0,1.681,0.156,1.895,0.253
							c-0.362,0.878-2.774,2.813-7.109,4.98c0.107,0.529,0.164,1.074,0.164,1.634c0,0.386-0.035,0.762-0.088,1.134
							c1.936-0.919,3.68-1.87,5.135-2.806C114.935,101.471,116.352,99.562,115.744,97.898z"/>
						<path fill="#C0392B" d="M101.215,97.855c-1.539,0.445-3.132,0.966-4.745,1.554c-1.897,0.693-3.714,1.441-5.408,2.214
							c-0.515,0.974-0.832,2.069-0.91,3.228c1.987-1.003,4.382-2.049,7.182-3.072c2.296-0.835,4.576-1.54,6.689-2.075
							C103.233,98.903,102.276,98.273,101.215,97.855z"/>
					</g>
				</g>
				<g>
					<path fill="#3498DB" d="M110.96,214.999c7.754,0,14.041,6.284,14.041,14.038c0,7.756-6.287,14.04-14.041,14.04
						c-7.755,0-14.041-6.283-14.041-14.04C96.919,221.283,103.205,214.999,110.96,214.999z"/>
					<path fill="#3498DB" d="M160.162,214.999c7.755,0,14.041,6.284,14.041,14.038c0,7.756-6.286,14.04-14.041,14.04
						c-7.754,0-14.041-6.283-14.041-14.04C146.121,221.283,152.408,214.999,160.162,214.999z"/>
					<path fill="#3498DB" d="M209.363,214.999c7.755,0,14.041,6.284,14.041,14.038c0,7.756-6.286,14.04-14.041,14.04
						s-14.04-6.283-14.04-14.04C195.323,221.283,201.608,214.999,209.363,214.999z"/>
					<path fill="#3498DB" d="M258.566,214.999c7.754,0,14.04,6.284,14.04,14.038c0,7.756-6.286,14.04-14.04,14.04
						c-7.755,0-14.041-6.283-14.041-14.04C244.525,221.283,250.812,214.999,258.566,214.999z"/>
				</g>
				<g>
					<rect x="157.343" y="101.758" fill="#C0392B" width="26.914" height="5.041"/>
				</g>
				<g>
					<rect x="190.113" y="101.758" fill="#C0392B" width="26.915" height="5.041"/>
				</g>
				<g>
					<rect x="222.884" y="101.758" fill="#C0392B" width="26.913" height="5.041"/>
				</g>
				<g>
					<rect x="255.654" y="101.758" fill="#C0392B" width="26.914" height="5.041"/>
				</g>
				<rect x="96.919" y="262.021" fill="#C0392B" width="38.99" height="36.088"/>
				<g>
					<rect x="157.342" y="264.92" fill="#C0392B" width="115.265" height="2.52"/>
				</g>
				<g>
					<rect x="157.342" y="275.002" fill="#C0392B" width="115.265" height="2.522"/>
				</g>
				<g>
					<rect x="157.342" y="285.085" fill="#C0392B" width="115.265" height="2.522"/>
				</g>
				<g>
					<rect x="157.342" y="295.168" fill="#C0392B" width="115.265" height="2.521"/>
				</g>
			</g>
		</g>
		<g>
			<defs>
				<circle id="SVGID_11_" cx="185.001" cy="236" r="215.106"/>
			</defs>
			<clipPath id="SVGID_12_">
				<use xlink:href="#SVGID_11_"  overflow="visible"/>
			</clipPath>
			<polygon opacity="0.14" clip-path="url(#SVGID_12_)" enable-background="new    " points="297.729,145.225 353.535,189.296 
				353.376,358.609 297.729,331.99 			"/>
		</g>
	</g>
</g>
</svg>
