<?xml version="1.0" encoding="utf-8"?>
<!-- Generator: Adobe Illustrator 16.0.4, SVG Export Plug-In . SVG Version: 6.00 Build 0)  -->
<!DOCTYPE svg PUBLIC "-//W3C//DTD SVG 1.1//EN" "http://www.w3.org/Graphics/SVG/1.1/DTD/svg11.dtd">
<svg version="1.1" id="Layer_1" xmlns="http://www.w3.org/2000/svg" xmlns:xlink="http://www.w3.org/1999/xlink" x="0px" y="0px"
	 width="370px" height="472px" viewBox="0 0 370 472" enable-background="new 0 0 370 472" xml:space="preserve">
<g>
	<defs>
		<rect id="SVGID_1_" width="370" height="472"/>
	</defs>
	<clipPath id="SVGID_2_">
		<use xlink:href="#SVGID_1_"  overflow="visible"/>
	</clipPath>
	<g clip-path="url(#SVGID_2_)">
		<rect fill="#2980B9" width="370" height="472"/>
	</g>
	<g display="none" clip-path="url(#SVGID_2_)">
		<g display="inline">
			<rect x="0" fill="#2C3E50" width="370" height="472"/>
		</g>
		<g display="inline">
			<g>
				<polygon fill="#34495E" points="0,472 0,472 0,471.998 				"/>
			</g>
			<g>
				<polygon fill="#34495E" points="367.299,471.998 367.299,0 366.499,0 183.65,235.485 				"/>
			</g>
		</g>
		<g display="inline">
			<g>
				<polygon fill="#34495E" points="183.65,235.485 0.801,0 0,0 0,471.998 				"/>
			</g>
			<g>
				<polygon fill="#34495E" points="367.299,471.998 367.299,472 367.299,472 				"/>
			</g>
		</g>
	</g>
</g>
<g>
	<circle display="none" fill="#77B4BE" cx="185.301" cy="326.07" r="273.669"/>
	<g>
		
			<image overflow="visible" opacity="0.3" width="357" height="108" xlink:href="259F895D3647F333.png"  transform="matrix(1 0 0 1 -118.5 211.5703)">
		</image>
		<g>
			<path fill="#F8F8F8" d="M25.724,248.389c-8.103-15.666-29.927-20.96-45.917-13.614c-15.991,7.348-25.93,24.635-27.874,42.136
				c-11.777,0.326-23.554,0.757-35.222,1.082c-7.347,0.215-15.234,0.648-21.068,5.077c-1.729,1.406-3.349,3.135-3.997,5.294
				c-1.621,4.862,2.052,10.265,6.698,12.425c4.646,2.162,10.048,1.947,15.234,1.73c34.033-1.513,68.174-2.055,102.099,0.539
				c44.405,3.349,89.459,11.777,132.891,2.269c9.616-2.054,18.908-5.077,28.524-7.022c10.911-2.268,22.04-3.24,33.059-2.702
				c3.997,0.218,7.995,0.65,11.776-0.538c3.782-1.188,7.348-4.322,7.455-8.321c0.107-3.563-2.485-6.698-5.727-8.211
				c-3.133-1.621-6.806-1.943-10.264-2.16c-35.976-3.026-72.279-4.537-108.04-0.323c-3.565-9.616,2.269-20.638-0.757-30.469
				c-2.917-9.723-13.289-14.8-22.58-18.907c-5.727-2.484-11.669-5.078-18.043-5.293C47.656,220.622,35.124,234.991,25.724,248.389z"
				/>
		</g>
	</g>
	<g>
		
			<image overflow="visible" opacity="0.3" width="158" height="158" xlink:href="259F895D3647F331.png"  transform="matrix(1 0 0 1 85.5 100.5703)">
		</image>
		<g>
			<circle fill="#E8B750" cx="164.233" cy="179.351" r="69.688"/>
		</g>
	</g>
	<g>
		
			<image overflow="visible" opacity="0.3" width="369" height="124" xlink:href="259F895D3647F337.png"  transform="matrix(1 0 0 1 73.5 153.5703)">
		</image>
		<g>
			<path fill="#F8F8F8" d="M89.577,243.961c9.292-4.647,18.583-9.294,27.983-13.831c1.729-0.863,3.674-1.944,4.322-3.781
				c0.54-1.621,0-3.35-0.541-4.97c-3.674-12.208-2.377-26.146,4.646-36.844c7.021-10.695,19.772-17.718,32.52-16.529
				c12.749,1.188,24.417,11.344,26.362,23.878c5.618-9.292,11.56-18.801,20.634-24.634c9.076-5.835,22.365-6.698,30.036,0.863
				c5.942,5.836,7.023,14.911,7.78,23.229c4.753-4.321,10.047-8.104,15.771-11.021c5.188-2.7,10.806-4.753,16.64-4.97
				c11.021-0.433,21.717,6.373,27.335,15.882c5.619,9.508,6.591,21.393,3.997,32.089c6.375-4.104,14.911-4.537,21.609-0.972
				c6.699,3.564,11.128,10.911,11.237,18.477c27.224-3.566,54.451-7.241,81.678-10.807c2.377-0.324,4.97-0.647,7.238,0.433
				c4.43,1.946,5.187,8.318,2.701,12.425c-2.486,4.104-7.13,6.375-11.669,7.995c-23.444,8.211-49.158,4.213-74.008,4.97
				c-31.441,0.973-62.124,9.615-93.455,11.777c-21.933,1.513-43.865-0.108-65.689-1.837c-30.252-2.271-60.395-4.538-90.646-6.807
				c-3.025-0.217-6.159-0.541-8.86-2.054c-2.7-1.514-4.646-4.755-3.672-7.67C84.392,246.659,87.092,245.146,89.577,243.961z"/>
		</g>
	</g>
	<g>
		
			<image overflow="visible" opacity="0.3" width="236" height="130" xlink:href="259F895D3647F330.png"  transform="matrix(1 0 0 1 252.5 214.5703)">
		</image>
		<g>
			<path fill="#F8F8F8" d="M273.246,305.11c11.993-6.914,26.147-9.725,39.76-8.103c-5.402-8.645-10.48-18.044-10.805-28.309
				c-0.324-10.263,5.728-21.282,15.774-23.336c3.458-0.757,7.13-0.324,10.373-1.729c4.212-1.836,6.481-6.157,9.507-9.614
				c7.346-8.535,20.205-11.777,30.683-7.78c10.481,3.997,17.937,14.911,17.827,26.147c10.805-8.426,27.875-3.567,36.196,7.238
				c8.318,10.913,9.615,25.605,8.318,39.219c10.804,0,22.04,0.107,31.872,4.755c9.831,4.644,17.72,15.125,15.665,25.821
				c-32.628,1.512-65.147,3.025-97.776,4.537c-34.574,1.621-69.362,3.134-103.504-2.592c-5.403-0.866-11.669-2.595-13.938-7.564
				C259.743,316.671,266.439,308.999,273.246,305.11z"/>
		</g>
	</g>
	<g>
		<path opacity="0.13" fill="#F8F8F8" enable-background="new    " d="M397.388,448.697c-14.153-6.482-28.093-13.721-43.219-17.179
			c-28.521-6.591-58.124,0.864-86.973,6.158c-42.892,7.888-88.702,10.913-128.568-6.807c-24.85-11.02-43.865-36.301-70.66-40.3
			c-70.011-10.263-115.712,9.293-140.129,25.606c11.236,32.521,28.63,62.342,50.671,87.838c11.993,1.621,24.094,2.377,36.194,2.16
			c13.937-0.324,27.983-1.943,40.623-7.561c9.292-4.107,17.503-10.374,26.363-15.451c35.762-20.636,82.219-21.283,118.628-1.73
			c19.557,10.483,35.978,26.147,55.533,36.411c27.983,14.802,62.017,17.72,92.161,7.889c11.885-3.891,23.012-9.509,34.141-15.343
			c14.586-15.883,27.334-33.601,37.814-52.617C412.295,455.289,404.734,452.047,397.388,448.697z"/>
		<path opacity="0.13" fill="#F8F8F8" enable-background="new    " d="M38.366,320.237c39.326-4.322,73.684,24.201,110.311,39.218
			c44.728,18.368,97.56,16.206,140.669-5.834c19.015-9.725,36.518-23.337,57.261-28.738c11.777-3.134,24.094-3.459,36.194-3.026
			c23.77,0.757,47.539,4.322,70.443,10.589c0-1.514,0.108-2.918,0.108-4.43c0-20.853-2.378-41.164-6.808-60.72
			c-27.01-0.972-54.237,3.565-79.411,13.289c-42.676,16.53-80.272,47.755-125.651,53.265
			c-75.196,9.076-141.102-54.561-216.514-60.288c-37.382-2.808-74.117,8.86-109.662,21.176c-1.297,10.913-2.054,22.041-2.054,33.386
			c0,17.287,1.621,34.25,4.754,50.671c24.309-14.152,48.834-27.874,73.792-41.054C6.385,329.852,21.727,322.073,38.366,320.237z"/>
		<path opacity="0.13" fill="#F8F8F8" enable-background="new    " d="M10.707,173.3c39.327-4.32,73.685,24.2,110.311,39.22
			c44.729,18.367,97.561,16.205,140.669-5.835c19.015-9.725,36.518-23.338,57.262-28.74c11.776-3.134,24.093-3.457,36.194-3.024
			c18.582,0.649,37.058,2.918,55.21,6.915c-13.29-20.636-29.281-39.218-47.539-55.534c-7.997,1.944-15.775,4.431-23.445,7.455
			c-42.677,16.531-80.276,47.754-125.653,53.266c-73.359,8.858-137.859-51.536-211.111-59.748
			c-23.338,20.961-43,46.026-57.911,73.901c6.375-3.457,12.856-6.915,19.231-10.265C-21.273,182.915-5.932,175.136,10.707,173.3z"/>
	</g>
</g>
</svg>
