<?xml version="1.0" encoding="utf-8"?>
<!-- Generator: Adobe Illustrator 16.0.4, SVG Export Plug-In . SVG Version: 6.00 Build 0)  -->
<!DOCTYPE svg PUBLIC "-//W3C//DTD SVG 1.1//EN" "http://www.w3.org/Graphics/SVG/1.1/DTD/svg11.dtd">
<svg version="1.1" id="Layer_1" xmlns="http://www.w3.org/2000/svg" xmlns:xlink="http://www.w3.org/1999/xlink" x="0px" y="0px"
	 width="370px" height="472px" viewBox="0 0 370 472" enable-background="new 0 0 370 472" xml:space="preserve">
<g>
	<defs>
		<rect id="SVGID_1_" width="370" height="472"/>
	</defs>
	<clipPath id="SVGID_2_">
		<use xlink:href="#SVGID_1_"  overflow="visible"/>
	</clipPath>
	<g clip-path="url(#SVGID_2_)">
		<rect fill="#3498DB" width="370" height="472"/>
	</g>
</g>
<g id="icon_2_">
	<g id="globe-www_1_">
		<path fill="#ECF0F1" d="M124.181,218.02l2.764-9.872l2.749,9.872H124.181z M242.104,163.655h-5.257l1.254,1.273h5.26
			L242.104,163.655z M233.251,164.929v-1.917l-7.532-7.565l-5.631,5.682l-3.8,3.8h14.654H233.251z M261.206,164.929l1.897-1.884
			h7.939l-5.02-5.003h-7.533l-6.852,6.888h3.528H261.206z M59.096,164.929h-6.734c16.521-57.775,69.58-100.114,132.664-100.114
			c63.051,0,116.145,42.339,132.631,100.114h-4.003c-6.718-22.731-19.201-43-35.894-58.98h-16.793l-0.849,4.207l-3.766,2.511
			l-7.971,0.832l0.406-5.04l-7.125-1.237l1.29-5.054l-10.958,2.526l-5.835,10.093l-10.144,7.565l-0.747,9.62l10.043,2.508
			l5.87,2.543l2.949-2.951v-15.943h3.765v7.989h7.093v8.361h-6.651v5.868h-16.791v5.888h-5.53l-7.463-7.549v-5.039h-8.82v8.414
			v4.173l-2.344,2.29l4.396,4.428l5.479-5.463l4.172,4.189l-2.308,2.326v3.152h-3.562v7.771h-42.015l-1.409,5.954l-1.289-5.954
			h-19.76l4.256-4.209l1.917,1.884l4.58-4.612h-7.108v-3.784h5.038v-5.871h5.038v-14.265H143.06v-2.526h-11.365v20.574l-4.172,1.24
			l-3.376-7.974l-10.041-7.107l-5.886-7.972l10.058,1.239l3.393-5.428l-2.969-3.393l-1.255-4.207l12.622-0.814l1.626-8.821
			l-42.016-0.389c-13.35,13.415-23.832,29.683-30.583,47.768V164.929z M170.775,126.118l6.703,6.717l7.972-7.989l15.267-15.319
			l6.345-6.309h7.327V87.9V76.994h-9.636V70.09c-6.443-0.965-13.027-1.493-19.709-1.493c-1.578,0-3.089,0.101-4.565,0.153
			l-0.491,1.104v10.515h-8.395v20.542h1.253h4.633v7.972h-6.703V126.118z M104.402,95.619l3.41,3.41h12.382l5.224-5.258v-7.109
			h5.446v12.146h8.414v25.172h12.16V89.138h-5.409h-10.519v-7.513h7.549l4.429-4.41l-2.494-2.476
			C130.187,79.351,116.496,86.493,104.402,95.619z M300.83,241.377l-3.259,13.285h-20.69v10.312h-9.4v17.844l-7.362,7.327h-17.231
			v-15.842l-9.364-9.329v-23.037l-3.529,12.725h-41.167v14.926h-11.348l-5.886,8.411v18.864l-17.218,12.62v22.662l-19.306-17.607
			v-46.207l-19.795-18.573l-1.374,4.904H71.868l-3.206-13.266l-3.258,13.266h-8.328c20.491,50.58,70.005,86.304,127.949,86.304
			c57.928,0,107.424-35.724,127.879-86.304h-8.887L300.83,241.377z"/>
		<g>
			<path fill="#2C3E50" d="M122.145,186.929l3.273-11.653h-9.328h-1.851h-12.297l-6.241,26.512
				c-0.696,2.798-1.341,6.514-1.918,11.111c-0.595,4.614-1.001,8.464-1.255,11.535h-0.255c-0.051-0.018-0.085-0.052-0.135-0.084
				c-0.492-4.986-1.697-11.941-3.596-20.865l-5.972-28.208H55.669l-1.035,4.445l-5.513,23.406
				c-2.154,10.467-3.309,17.574-3.409,21.324h-0.391c-0.288-6.021-1.341-13.571-3.172-22.664l-5.734-26.512H12.447l19.236,69.037
				H57.28l7.158-29.31c0.543-2.256,1.476-6.973,2.782-14.113c0.406-2.224,0.847-4.682,1.34-7.398h0.373l1.237,7.991l0.747,3.901
				l1.119,6.021l7.972,32.908h26.039l2.713-9.684l11.977-42.68L122.145,186.929z"/>
			<path fill="#2C3E50" d="M236.812,191.949l4.683-16.673h-9.329h-0.067h-14.08l-6.242,26.512
				c-0.712,2.798-1.322,6.497-1.931,11.111c-0.546,4.614-0.951,8.464-1.224,11.535h-0.372c-0.51-4.988-1.731-11.975-3.632-20.949
				l-5.972-28.208h-10.838h-16.063l-6.548,27.852c-1.951,9.499-3.07,16.199-3.342,20.152c-0.034,0.407-0.068,0.814-0.068,1.153
				h-0.389c0-0.256-0.034-0.577-0.053-0.849c-0.354-5.885-1.373-13.111-3.12-21.797l-5.717-26.512h-14.657h-9.329l4.649,16.673
				l1.068,3.852l0.374,1.305l12.094,43.39l1.068,3.817h4.274h1.662h19.644l7.174-29.31c0.628-2.648,1.781-8.636,3.462-17.948
				c0.203-1.136,0.424-2.307,0.662-3.563h0.355l0.543,3.563l0.711,4.428l1.851,9.922l7.973,32.908h26.037l13.502-48.074
				L236.812,191.949z"/>
			<path fill="#2C3E50" d="M334.076,175.275l-6.209,26.512c-0.713,2.798-1.356,6.514-1.933,11.111
				c-0.575,4.614-0.985,8.464-1.256,11.535h-0.375c-0.473-4.988-1.694-11.975-3.595-20.949l-5.8-27.326l-0.171-0.882h-26.901
				l-6.549,27.852c-1.935,9.296-3.051,15.929-3.322,19.916c-0.069,0.506-0.069,0.983-0.103,1.39h-0.373c0-0.306-0.071-0.678-0.071-1
				c-0.338-5.837-1.354-13.028-3.117-21.646l-1.8-8.295l-3.935-18.216h-14.622h-9.363l4.682,16.673l5.832,21.034l5.837,20.83
				l2.919,10.5h25.58l7.191-29.31c0.473-2.004,1.255-5.955,2.306-11.773c0.544-2.817,1.121-6.022,1.766-9.738h0.407l0.881,5.853
				l0.338,2.138l1.869,9.922l7.971,32.908h26.056l19.337-69.037H334.076L334.076,175.275z"/>
		</g>
	</g>
	<g>
		<rect x="256.117" y="387.575" fill="#ECF0F1" width="101.436" height="9.435"/>
		<rect x="12.447" y="387.575" fill="#ECF0F1" width="101.453" height="9.435"/>
		<polygon fill="#2C3E50" points="176.443,349.176 193.592,349.176 193.592,378.624 248.313,378.624 248.313,407.186 
			121.738,407.186 121.738,378.624 176.443,378.624 		"/>
	</g>
</g>
</svg>
