<?xml version="1.0" encoding="utf-8"?>
<!-- Generator: Adobe Illustrator 16.0.4, SVG Export Plug-In . SVG Version: 6.00 Build 0)  -->
<!DOCTYPE svg PUBLIC "-//W3C//DTD SVG 1.1//EN" "http://www.w3.org/Graphics/SVG/1.1/DTD/svg11.dtd">
<svg version="1.1" id="Layer_1" xmlns="http://www.w3.org/2000/svg" xmlns:xlink="http://www.w3.org/1999/xlink" x="0px" y="0px"
	 width="370px" height="472px" viewBox="0 0 370 472" enable-background="new 0 0 370 472" xml:space="preserve">
<g>
	<defs>
		<rect id="SVGID_1_" width="370" height="472"/>
	</defs>
	<clipPath id="SVGID_2_">
		<use xlink:href="#SVGID_1_"  overflow="visible"/>
	</clipPath>
	<g clip-path="url(#SVGID_2_)">
		<rect fill="#7F8C8D" width="370" height="472"/>
	</g>
	<g display="none" clip-path="url(#SVGID_2_)">
		<g display="inline">
			<rect x="0" fill="#2C3E50" width="370" height="472"/>
		</g>
		<g display="inline">
			<g>
				<polygon fill="#34495E" points="0,472 0,472 0,471.998 				"/>
			</g>
			<g>
				<polygon fill="#34495E" points="367.299,471.998 367.299,0 366.499,0 183.65,235.485 				"/>
			</g>
		</g>
		<g display="inline">
			<g>
				<polygon fill="#34495E" points="183.65,235.485 0.801,0 0,0 0,471.998 				"/>
			</g>
			<g>
				<polygon fill="#34495E" points="367.299,471.998 367.299,472 367.299,472 				"/>
			</g>
		</g>
	</g>
	<g clip-path="url(#SVGID_2_)">
		<polygon fill="#D19B65" points="465.457,469.927 -92.031,472 -139.907,446.806 512.36,446.806 		"/>
		<path fill="#D99748" d="M-257.705,281.345c0,0,2.096,100.507,117.607,165.461h650.196
			c72.963-43.417,117.606-101.584,117.606-165.461c0-32.34-11.435-63.2-32.125-91.461l-674.634-12.575
			C-129.19,206.459-257.705,281.345-257.705,281.345z"/>
		<g>
			<path fill="#1A1A1A" d="M252.144,281.301V161.963c0-7.396-6.34-13.124-13.677-12.515L30.036,167.942
				c-6.871,0.617-12.007,6.658-11.392,13.511l11.392,139.185L252.144,281.301z"/>
			<path fill="#BCBCBC" d="M337.788,344.904c0.908-1.607-0.61,2.326-0.992,4.353c-0.444,2.666-2.324,4.775-4.902,5.603
				l-207.018,64.192v-8.244L337.788,344.904z"/>
			<line fill="none" x1="263.854" y1="372.232" x2="227.138" y2="383.924"/>
			<path fill="#F8F8F8" d="M227.138,384.601c0.083,0,0.148,0,0.23,0l36.717-11.689c0.378-0.148,0.596-0.528,0.443-0.911
				c-0.147-0.383-0.529-0.591-0.911-0.464l-36.713,11.709c-0.356,0.171-0.591,0.551-0.444,0.911
				C226.548,384.475,226.84,384.601,227.138,384.601z"/>
			<path fill="#D6D5D4" d="M335.062,347.992l-206.843,62.9c-2.289,0.68-4.762,0.085-6.512-1.585l-90.678-88.373l222.17-39.022
				l83.513,54.281C341.404,339.302,340.35,346.401,335.062,347.992z"/>
			<path fill="#BCBCBC" d="M124.876,410.745l-95.138-90.106v7.861c0,1.355,0.615,2.644,1.587,3.638l93.551,86.83V410.745z"/>
			<polygon fill="#F1C40F" points="239.141,277.689 239.141,166.125 36.819,187.583 44.683,313.473 			"/>
			<path fill="#B3B3B3" d="M264.463,354.713l-14.287-11.329c-1.204-0.972-2.706-1.289-4.225-0.911l-53.538,13.762
				c-3.702,0.973-4.93,5.58-2.117,8.201l14.414,13.695c1.29,1.181,3.108,1.56,4.762,1.123l53.323-16.09
				C266.573,361.962,267.555,357.124,264.463,354.713z"/>
			<polygon fill="#B3B3B3" points="168.844,327.527 184.924,324.044 188.859,329.346 172.774,332.811 			"/>
			<polygon fill="#B3B3B3" points="203.57,320.045 217.545,317.024 222.149,322.011 207.818,325.182 			"/>
			<polygon fill="#B3B3B3" points="187.27,323.516 201.242,320.515 205.474,325.627 191.186,328.8 			"/>
			<polygon fill="#B3B3B3" points="225.638,305.695 212.637,308.486 208.179,303.642 220.563,301.023 			"/>
			<polygon fill="#B3B3B3" points="224.582,321.484 219.976,316.497 234.005,313.41 239.226,318.229 			"/>
			<polygon fill="#B3B3B3" points="210.228,309.014 196.933,311.889 192.852,306.984 205.771,304.193 			"/>
			<polygon fill="#B3B3B3" points="143.839,325.627 147.153,330.026 133.292,333.027 129.948,328.588 			"/>
			<polygon fill="#B3B3B3" points="152.755,309.478 155.253,312.797 139.46,316.2 136.438,312.185 152.523,309.014 			"/>
			<polygon fill="#B3B3B3" points="138.551,318.525 142.396,323.744 128.513,326.683 124.666,321.572 			"/>
			<polygon fill="#B3B3B3" points="194.588,312.416 181.14,315.354 177.295,310.298 190.504,307.426 			"/>
			<polygon fill="#B3B3B3" points="134.704,334.928 148.532,331.902 152.607,337.25 138.785,340.294 			"/>
			<polygon fill="#B3B3B3" points="150.878,331.374 166.498,328.036 170.493,333.318 154.87,336.747 			"/>
			<polygon fill="#B3B3B3" points="246.245,308.568 234.622,311.125 230.095,306.896 241.259,304.488 			"/>
			<polygon fill="#B3B3B3" points="214.311,310.366 227.52,307.514 232.04,311.658 218.302,314.59 			"/>
			<polygon fill="#B3B3B3" points="182.518,317.26 196.107,314.298 199.659,318.697 185.833,321.627 			"/>
			<polygon fill="#B3B3B3" points="102.089,324.125 98.241,319.753 117.564,315.969 118.027,316.351 120.902,320.133 			"/>
			<polygon fill="#B3B3B3" points="134.475,313.152 137.113,316.643 123.229,319.664 120.054,315.441 134.241,312.649 			"/>
			<polygon fill="#B3B3B3" points="146.098,325.098 161.826,321.697 165.146,326.155 149.439,329.474 			"/>
			<polygon fill="#B3B3B3" points="215.81,315.142 202.068,318.144 198.434,313.788 211.875,310.913 			"/>
			<polygon fill="#B3B3B3" points="178.819,315.82 162.71,319.281 158.952,314.213 175.03,310.748 			"/>
			<polygon fill="#B3B3B3" points="156.69,314.678 160.446,319.813 144.748,323.218 140.813,318.08 			"/>
			<polygon fill="#B3B3B3" points="164.151,321.188 180.232,317.7 183.486,322.159 167.407,325.627 			"/>
			<polygon fill="#B3B3B3" points="234.152,295.949 231.149,293.458 241.042,291.513 244.277,293.775 			"/>
			<polygon fill="#B3B3B3" points="144.829,349.34 139.46,342.156 153.28,339.156 158.57,346.173 			"/>
			<polygon fill="#B3B3B3" points="137.875,342.703 143.307,349.869 128.131,353.568 127.837,353.041 121.791,346.257 			"/>
			<polygon fill="#B3B3B3" points="132.358,335.373 136.438,340.805 120.144,344.357 115.362,339.068 			"/>
			<polygon fill="#B3B3B3" points="171.337,305.76 173.595,308.862 157.599,312.268 154.786,308.568 171.102,305.315 			"/>
			<polygon fill="#B3B3B3" points="127.69,329.094 131.004,333.491 113.801,337.25 109.936,332.958 			"/>
			<path fill="#B3B3B3" d="M119.381,346.761l6.491,7.338l-14.884,3.488l-8.071-6.956
				C102.979,350.397,119.381,346.761,119.381,346.761z"/>
			<polygon fill="#B3B3B3" points="109.571,336.365 117.708,344.904 100.952,348.75 93.021,342.028 			"/>
			<path fill="#B3B3B3" d="M94.758,343.593L94.758,343.593L94.758,343.593z"/>
			<polygon fill="#B3B3B3" points="107.524,333.491 111.371,337.805 93.021,342.028 87.971,337.72 			"/>
			<path fill="#B3B3B3" d="M94.015,343.975c0,0,0.743,0,0.804,0H94.015z"/>
			<polygon fill="#B3B3B3" points="264.528,320.639 258.928,316.116 271.396,312.945 278.796,318.017 264.91,321.253 			"/>
			<polygon fill="#B3B3B3" points="85.774,335.812 80.191,330.994 101.329,326.536 105.853,331.591 86.597,335.812 			"/>
			<polygon fill="#B3B3B3" points="72.921,324.802 95.814,320.259 96.196,320.723 99.679,324.652 78.587,329.346 			"/>
			<polygon fill="#B3B3B3" points="122.319,322.011 126.248,327.236 108.262,331.081 103.74,326.007 			"/>
			<polygon fill="#B3B3B3" points="160.682,345.646 155.629,338.628 223.821,323.808 229.251,329.702 214.311,333.192 			"/>
			<polygon fill="#B3B3B3" points="216.191,297.094 218.601,299.293 206.528,301.85 203.799,298.911 215.81,296.477 			"/>
			<polygon fill="#B3B3B3" points="228.341,293.69 231.448,296.477 221.174,298.678 218.237,296.036 			"/>
			<polygon fill="#B3B3B3" points="228.193,305.167 223.144,300.495 233.623,298.233 239.141,302.759 			"/>
			<polygon fill="#B3B3B3" points="186.659,302.821 188.923,305.634 175.94,308.334 173.363,304.934 186.277,302.378 			"/>
			<polygon fill="#B3B3B3" points="201.772,299.878 204.034,302.378 191.354,305.078 188.711,301.85 201.54,299.352 			"/>
			<polygon fill="#B3B3B3" points="269.663,311.589 256.811,314.381 251.086,309.771 262.099,307.366 			"/>
			<polyline fill="#B3B3B3" points="249.288,324.953 248.359,323.744 243.753,319.434 256.222,316.707 262.48,321.864 			"/>
			<path fill="#B3B3B3" d="M241.194,320.045l5.729,5.29l0,0l0,0l-15.475,3.841l-0.299-0.464l-4.983-5.347L241.194,320.045z"/>
			<polygon fill="#B3B3B3" points="252.9,299.82 241.869,302.225 236.293,297.686 246.245,295.21 			"/>
			<polygon fill="#B3B3B3" points="236.585,312.86 248.442,310.298 254.107,314.971 241.787,317.7 			"/>
			<polygon fill="#B3B3B3" points="260.917,305.379 248.972,308.042 243.985,303.962 254.107,301.023 			"/>
		</g>
	</g>
</g>
</svg>
