<?xml version="1.0" encoding="utf-8"?>
<!-- Generator: Adobe Illustrator 16.0.4, SVG Export Plug-In . SVG Version: 6.00 Build 0)  -->
<!DOCTYPE svg PUBLIC "-//W3C//DTD SVG 1.1//EN" "http://www.w3.org/Graphics/SVG/1.1/DTD/svg11.dtd">
<svg version="1.1" id="Layer_1" xmlns="http://www.w3.org/2000/svg" xmlns:xlink="http://www.w3.org/1999/xlink" x="0px" y="0px"
	 width="370px" height="472px" viewBox="0 0 370 472" enable-background="new 0 0 370 472" xml:space="preserve">
<g>
	<defs>
		<rect id="SVGID_1_" width="370" height="472"/>
	</defs>
	<clipPath id="SVGID_2_">
		<use xlink:href="#SVGID_1_"  overflow="visible"/>
	</clipPath>
	<g clip-path="url(#SVGID_2_)">
		<rect fill="#323232" width="370" height="472"/>
	</g>
	<g display="none" clip-path="url(#SVGID_2_)">
		<g display="inline">
			<rect x="0" fill="#2C3E50" width="370" height="472"/>
		</g>
		<g display="inline">
			<g>
				<polygon fill="#34495E" points="0,472 0,472 0,471.998 				"/>
			</g>
			<g>
				<polygon fill="#34495E" points="367.299,471.998 367.299,0 366.499,0 183.65,235.485 				"/>
			</g>
		</g>
		<g display="inline">
			<g>
				<polygon fill="#34495E" points="183.65,235.485 0.801,0 0,0 0,471.998 				"/>
			</g>
			<g>
				<polygon fill="#34495E" points="367.299,471.998 367.299,472 367.299,472 				"/>
			</g>
		</g>
	</g>
</g>
<g id="icon_19_">
	<path id="speed_2_" fill="#ECF0F1" d="M185,411.463C88.057,411.463,9.537,332.874,9.537,236S88.057,60.537,185,60.537
		c96.907,0,175.463,78.589,175.463,175.463S281.907,411.463,185,411.463z M185,86.859C102.65,86.859,35.895,153.65,35.895,236
		c0,82.314,66.755,149.105,149.105,149.105c82.384,0,149.105-66.791,149.105-149.105C334.105,153.65,267.384,86.859,185,86.859z"/>
	<g>
		<path fill="#C0392B" d="M292.74,236.516H276.56c0-0.137,0-0.309,0-0.516c0-17.872-5.141-34.431-13.937-48.507
			c3.657-5.105,7.314-10.246,10.039-14.041c12.591,17.629,20.112,39.227,20.112,62.548
			C292.774,236.207,292.74,236.378,292.74,236.516z"/>
		<path fill="#ECF0F1" d="M200.834,216.404l64.17-62.548c0,0-42.332,78.625-42.884,79.728
			C216.946,219.717,200.834,216.404,200.834,216.404z"/>
		<path fill="#F39C12" d="M185,144.438c-48.747,0-88.525,38.088-91.319,86.179h19.664v11.834h-35.5v-5.936h-0.552
			c0-0.137-0.069-0.309-0.069-0.516c0-59.545,48.3-107.776,107.776-107.776c24.185,0,46.437,8.073,64.374,21.529L237.3,160.895
			C222.5,150.511,204.458,144.438,185,144.438z"/>
		<path fill="#ECF0F1" d="M186.586,225.685c15.938,0,28.843,12.936,28.843,28.84c0,15.975-12.904,28.876-28.843,28.876
			s-28.84-12.901-28.84-28.876C157.746,238.621,170.647,225.685,186.586,225.685z"/>
	</g>
</g>
</svg>
